<svg width="644" height="312" viewBox="0 0 644 312" fill="none" xmlns="http://www.w3.org/2000/svg">
<path d="M117.5 280.443C186.288 292.364 207.581 213.567 301.361 202.856C410.569 190.424 456.853 288.73 531.443 266.481C615.086 241.49 674.248 82.6195 627.326 24.2224C569.885 -47.2438 404.066 94.4774 103.538 89.5685C71.3429 89.0584 22.0624 86.5721 5.9331 113.986C-19.504 157.21 41.8894 267.373 117.5 280.443Z" fill="#F9EDFF"/>
<path opacity="0.1" d="M429.123 312C537.356 312 625.097 309.717 625.097 306.9C625.097 304.083 537.356 301.8 429.123 301.8C320.889 301.8 233.148 304.083 233.148 306.9C233.148 309.717 320.889 312 429.123 312Z" fill="url(#paint0_linear)"/>
<path opacity="0.1" d="M160.661 310.661C189.568 310.661 213.001 308.977 213.001 306.9C213.001 304.822 189.568 303.138 160.661 303.138C131.754 303.138 108.32 304.822 108.32 306.9C108.32 308.977 131.754 310.661 160.661 310.661Z" fill="url(#paint1_linear)"/>
<path d="M404.702 304.159H309.201C308.309 305.306 309.074 306.645 310.03 306.645H403.937C404.829 306.645 405.658 305.051 404.702 304.159Z" fill="#030408"/>
<path d="M510.339 261.891H203.691C199.802 261.891 196.614 258.703 196.614 254.814V84.0858C196.614 80.1969 199.802 77.0093 203.691 77.0093H510.339C514.228 77.0093 517.415 80.1969 517.415 84.0858V254.814C517.352 258.767 514.228 261.891 510.339 261.891Z" fill="#510394"/>
<path d="M508.363 256.918H205.54C202.416 256.918 199.866 254.368 199.866 251.244V86.1257C199.866 83.0019 202.416 80.4518 205.54 80.4518H508.363C511.487 80.4518 514.037 83.0019 514.037 86.1257V251.244C514.1 254.368 511.55 256.918 508.363 256.918Z" fill="#FDFFFF"/>
<path d="M404.51 303.967C401.132 301.481 395.203 296.954 393.29 295.233C390.549 292.811 388.827 261.891 388.827 261.891H325.139C325.139 261.891 323.418 292.747 320.676 295.233C318.764 296.954 312.835 301.417 309.456 303.967C308.691 304.541 309.073 305.752 310.03 305.752H403.937C404.893 305.752 405.275 304.541 404.51 303.967Z" fill="url(#paint2_linear)"/>
<path d="M504.154 119.978H489.937V104.614C489.937 101.554 487.451 99.0677 484.39 99.0677H251.631C248.571 99.0677 246.085 101.554 246.085 104.614V231.545C246.085 234.605 248.571 237.091 251.631 237.091H484.39C487.451 237.091 489.937 234.605 489.937 231.545V122.401H504.154C504.791 122.401 505.365 121.891 505.365 121.19C505.365 120.552 504.791 119.978 504.154 119.978ZM484.39 234.732H251.631C249.91 234.732 248.443 233.33 248.443 231.545V104.614C248.443 102.893 249.846 101.427 251.631 101.427H484.39C486.112 101.427 487.578 102.829 487.578 104.614V119.978H328.58C327.942 119.978 327.369 120.489 327.369 121.19C327.369 121.827 327.879 122.401 328.58 122.401H487.578V231.609C487.578 233.33 486.112 234.732 484.39 234.732Z" fill="#F0DBFC"/>
<path d="M449.2 115.006C451.348 115.006 453.089 113.265 453.089 111.117C453.089 108.969 451.348 107.228 449.2 107.228C447.053 107.228 445.312 108.969 445.312 111.117C445.312 113.265 447.053 115.006 449.2 115.006Z" fill="#F0DBFC"/>
<path d="M462.203 115.006C464.351 115.006 466.092 113.265 466.092 111.117C466.092 108.969 464.351 107.228 462.203 107.228C460.055 107.228 458.314 108.969 458.314 111.117C458.314 113.265 460.055 115.006 462.203 115.006Z" fill="#F0DBFC"/>
<path d="M475.274 115.006C477.422 115.006 479.163 113.265 479.163 111.117C479.163 108.969 477.422 107.228 475.274 107.228C473.126 107.228 471.385 108.969 471.385 111.117C471.385 113.265 473.126 115.006 475.274 115.006Z" fill="#F0DBFC"/>
<path d="M349.615 135.407H265.462C264.824 135.407 264.251 135.917 264.251 136.618V220.771C264.251 221.408 264.761 221.982 265.462 221.982H349.615C350.252 221.982 350.826 221.472 350.826 220.771V136.618C350.826 135.917 350.316 135.407 349.615 135.407ZM266.737 219.496V137.766H348.467V219.496H266.737Z" fill="#F0DBFC"/>
<path d="M469.982 169.641C469.344 169.641 468.77 170.151 468.77 170.853V172.574H467.049C466.411 172.574 465.838 173.084 465.838 173.785C465.838 174.423 466.348 174.997 467.049 174.997H469.982C470.619 174.997 471.193 174.487 471.193 173.785V170.853C471.193 170.151 470.683 169.641 469.982 169.641Z" fill="#F0DBFC"/>
<path d="M455.638 174.933H461.376C462.013 174.933 462.587 174.423 462.587 173.722C462.587 173.084 462.077 172.51 461.376 172.51H455.638C455 172.51 454.427 173.02 454.427 173.722C454.427 174.423 455 174.933 455.638 174.933Z" fill="#F0DBFC"/>
<path d="M438.485 172.574H432.747C432.11 172.574 431.536 173.084 431.536 173.786C431.536 174.423 432.046 174.997 432.747 174.997H438.485C439.123 174.997 439.696 174.487 439.696 173.786C439.696 173.084 439.123 172.574 438.485 172.574Z" fill="#F0DBFC"/>
<path d="M444.227 174.933H449.965C450.602 174.933 451.176 174.423 451.176 173.722C451.176 173.084 450.666 172.51 449.965 172.51H444.227C443.589 172.51 443.016 173.02 443.016 173.722C443.016 174.423 443.526 174.933 444.227 174.933Z" fill="#F0DBFC"/>
<path d="M398.453 174.933H404.191C404.829 174.933 405.402 174.423 405.402 173.722C405.402 173.084 404.892 172.51 404.191 172.51H398.453C397.816 172.51 397.242 173.02 397.242 173.722C397.242 174.423 397.816 174.933 398.453 174.933Z" fill="#F0DBFC"/>
<path d="M415.602 172.574H409.864C409.227 172.574 408.653 173.084 408.653 173.786C408.653 174.423 409.163 174.997 409.864 174.997H415.602C416.24 174.997 416.813 174.487 416.813 173.786C416.813 173.084 416.24 172.574 415.602 172.574Z" fill="#F0DBFC"/>
<path d="M428.224 173.722C428.224 173.084 427.714 172.51 427.013 172.51H421.275C420.638 172.51 420.064 173.02 420.064 173.722C420.064 174.359 420.574 174.933 421.275 174.933H427.013C427.714 174.933 428.224 174.423 428.224 173.722Z" fill="#F0DBFC"/>
<path d="M387.039 174.933H392.776C393.414 174.933 393.988 174.423 393.988 173.722C393.988 173.084 393.478 172.51 392.776 172.51H387.039C386.401 172.51 385.827 173.02 385.827 173.722C385.827 174.423 386.337 174.933 387.039 174.933Z" fill="#F0DBFC"/>
<path d="M381.304 172.574H375.567C374.929 172.574 374.355 173.084 374.355 173.786C374.355 174.423 374.865 174.997 375.567 174.997H381.304C381.942 174.997 382.516 174.487 382.516 173.786C382.516 173.084 381.942 172.574 381.304 172.574Z" fill="#F0DBFC"/>
<path d="M366.958 174.933H369.89C370.528 174.933 371.102 174.423 371.102 173.722C371.102 173.084 370.592 172.51 369.89 172.51H368.169V170.789C368.169 170.152 367.659 169.578 366.958 169.578C366.32 169.578 365.747 170.088 365.747 170.789V173.722C365.747 174.423 366.257 174.933 366.958 174.933Z" fill="#F0DBFC"/>
<path d="M366.958 153.257C367.595 153.257 368.169 152.747 368.169 152.046V145.798C368.169 145.161 367.659 144.587 366.958 144.587C366.32 144.587 365.747 145.097 365.747 145.798V152.046C365.747 152.683 366.257 153.257 366.958 153.257Z" fill="#F0DBFC"/>
<path d="M366.958 165.753C367.595 165.753 368.169 165.243 368.169 164.541V158.294C368.169 157.656 367.659 157.082 366.958 157.082C366.32 157.082 365.747 157.592 365.747 158.294V164.541C365.747 165.243 366.257 165.753 366.958 165.753Z" fill="#F0DBFC"/>
<path d="M366.958 140.698C367.595 140.698 368.169 140.188 368.169 139.487V137.765H369.89C370.528 137.765 371.102 137.255 371.102 136.554C371.102 135.917 370.592 135.343 369.89 135.343H366.958C366.32 135.343 365.747 135.853 365.747 136.554V139.487C365.747 140.188 366.257 140.698 366.958 140.698Z" fill="#F0DBFC"/>
<path d="M387.039 137.765H392.776C393.414 137.765 393.988 137.255 393.988 136.554C393.988 135.917 393.478 135.343 392.776 135.343H387.039C386.401 135.343 385.827 135.853 385.827 136.554C385.827 137.255 386.337 137.765 387.039 137.765Z" fill="#F0DBFC"/>
<path d="M375.567 137.765H381.304C381.942 137.765 382.516 137.255 382.516 136.554C382.516 135.917 382.006 135.343 381.304 135.343H375.567C374.929 135.343 374.355 135.853 374.355 136.554C374.419 137.255 374.929 137.765 375.567 137.765Z" fill="#F0DBFC"/>
<path d="M455.638 137.765H461.376C462.013 137.765 462.587 137.255 462.587 136.554C462.587 135.917 462.077 135.343 461.376 135.343H455.638C455 135.343 454.427 135.853 454.427 136.554C454.427 137.255 455 137.765 455.638 137.765Z" fill="#F0DBFC"/>
<path d="M432.747 137.765H438.485C439.123 137.765 439.696 137.255 439.696 136.554C439.696 135.917 439.186 135.343 438.485 135.343H432.747C432.11 135.343 431.536 135.853 431.536 136.554C431.536 137.255 432.11 137.765 432.747 137.765Z" fill="#F0DBFC"/>
<path d="M421.34 137.765H427.078C427.715 137.765 428.289 137.255 428.289 136.554C428.289 135.917 427.779 135.343 427.078 135.343H421.34C420.703 135.343 420.129 135.853 420.129 136.554C420.129 137.255 420.639 137.765 421.34 137.765Z" fill="#F0DBFC"/>
<path d="M444.227 137.765H449.965C450.602 137.765 451.176 137.255 451.176 136.554C451.176 135.917 450.666 135.343 449.965 135.343H444.227C443.589 135.343 443.016 135.853 443.016 136.554C443.016 137.255 443.526 137.765 444.227 137.765Z" fill="#F0DBFC"/>
<path d="M398.453 137.765H404.191C404.829 137.765 405.402 137.255 405.402 136.554C405.402 135.917 404.892 135.343 404.191 135.343H398.453C397.816 135.343 397.242 135.853 397.242 136.554C397.242 137.255 397.816 137.765 398.453 137.765Z" fill="#F0DBFC"/>
<path d="M415.602 135.407H409.864C409.227 135.407 408.653 135.917 408.653 136.618C408.653 137.256 409.163 137.829 409.864 137.829H415.602C416.24 137.829 416.813 137.319 416.813 136.618C416.813 135.917 416.24 135.407 415.602 135.407Z" fill="#F0DBFC"/>
<path d="M469.982 135.407H467.049C466.411 135.407 465.838 135.917 465.838 136.618C465.838 137.256 466.348 137.829 467.049 137.829H468.77V139.551C468.77 140.188 469.28 140.762 469.982 140.762C470.619 140.762 471.193 140.252 471.193 139.551V136.618C471.193 135.917 470.683 135.407 469.982 135.407Z" fill="#F0DBFC"/>
<path d="M469.981 157.082C469.343 157.082 468.769 157.592 468.769 158.294V164.541C468.769 165.179 469.279 165.753 469.981 165.753C470.618 165.753 471.192 165.243 471.192 164.541V158.294C471.192 157.656 470.682 157.082 469.981 157.082Z" fill="#F0DBFC"/>
<path d="M469.981 144.587C469.343 144.587 468.769 145.097 468.769 145.798V152.046C468.769 152.683 469.279 153.257 469.981 153.257C470.618 153.257 471.192 152.747 471.192 152.046V145.798C471.192 145.097 470.682 144.587 469.981 144.587Z" fill="#F0DBFC"/>
<path d="M412.352 182.392H366.897C366.259 182.392 365.686 182.902 365.686 183.603V220.771C365.686 221.408 366.196 221.982 366.897 221.982H412.352C412.99 221.982 413.564 221.472 413.564 220.771V183.603C413.564 182.902 413.054 182.392 412.352 182.392ZM368.172 219.496V184.751H411.205V219.496H368.172Z" fill="#F0DBFC"/>
<path d="M469.027 182.392H423.571C422.934 182.392 422.36 182.902 422.36 183.603V220.771C422.36 221.408 422.87 221.982 423.571 221.982H469.027C469.664 221.982 470.238 221.472 470.238 220.771V183.603C470.238 182.902 469.664 182.392 469.027 182.392ZM424.783 219.496V184.751H467.815V219.496H424.783Z" fill="#F0DBFC"/>
<path d="M558.22 230.206H485.224C482.419 230.206 480.124 227.911 480.124 225.106V128.649C480.124 125.844 482.419 123.549 485.224 123.549H558.22C561.025 123.549 563.32 125.844 563.32 128.649V225.042C563.32 227.911 561.025 230.206 558.22 230.206Z" fill="#EAD2F9"/>
<path d="M542.219 149.241H495.106V151.345H542.219V149.241Z" fill="white"/>
<path d="M542.219 155.998H495.106V158.102H542.219V155.998Z" fill="white"/>
<path d="M526.536 162.82H495.106V164.924H526.536V162.82Z" fill="white"/>
<path d="M542.219 169.641H495.106V171.745H542.219V169.641Z" fill="white"/>
<path d="M526.536 176.463H495.106V178.567H526.536V176.463Z" fill="white"/>
<path d="M542.219 183.221H495.106V185.324H542.219V183.221Z" fill="white"/>
<path d="M526.536 190.042H495.106V192.146H526.536V190.042Z" fill="white"/>
<path d="M542.219 196.864H495.106V198.968H542.219V196.864Z" fill="white"/>
<path d="M526.536 203.685H495.106V205.789H526.536V203.685Z" fill="white"/>
<path d="M517.865 143.439H498.485C496.636 143.439 495.106 141.909 495.106 140.06C495.106 138.212 496.636 136.682 498.485 136.682H517.865C519.714 136.682 521.244 138.212 521.244 140.06C521.244 141.973 519.714 143.439 517.865 143.439Z" fill="#9909B7"/>
<path d="M223.836 233.457H124.828C122.023 233.457 119.728 231.162 119.728 228.357V152.938C119.728 150.133 122.023 147.838 124.828 147.838H223.899C226.705 147.838 229 150.133 229 152.938V228.294C228.936 231.162 226.705 233.457 223.836 233.457Z" fill="#EAD2F9"/>
<path d="M160.084 153.767H127.252V158.612H160.084V153.767Z" fill="#9909B7"/>
<path d="M219.183 212.993H131.077C128.973 212.993 127.252 211.272 127.252 209.168V168.366C127.252 166.263 128.973 164.541 131.077 164.541H219.183C221.286 164.541 223.008 166.263 223.008 168.366V209.168C223.008 211.272 221.35 212.993 219.183 212.993Z" fill="white"/>
<path d="M181.057 180.671H132.605V182.838H181.057V180.671Z" fill="#D3D6DB"/>
<path d="M181.057 187.683H132.605V189.851H181.057V187.683Z" fill="#D3D6DB"/>
<path d="M164.927 194.696H132.605V196.864H164.927V194.696Z" fill="#D3D6DB"/>
<path d="M210.319 207.574H204.582C201.394 207.574 198.844 205.024 198.844 201.836V196.099C198.844 192.911 201.394 190.361 204.582 190.361H210.319C213.507 190.361 216.057 192.911 216.057 196.099V201.836C216.057 205.024 213.443 207.574 210.319 207.574Z" fill="#9909B7"/>
<path d="M156.002 174.742H136.111C134.199 174.742 132.605 173.148 132.605 171.235C132.605 169.323 134.199 167.729 136.111 167.729H156.002C157.915 167.729 159.509 169.323 159.509 171.235C159.509 173.212 157.978 174.742 156.002 174.742Z" fill="#9909B7"/>
<path d="M137.265 236.581C140.198 237.346 151.354 236.9 149.187 231.417C146.828 225.297 140.517 230.652 137.775 234.031C138.795 228.612 138.923 223.13 138.923 220.197C140.899 217.774 145.17 202.538 136.819 203.239C125.917 204.259 135.544 218.667 138.094 220.325C138.094 223.831 137.839 230.844 136.245 236.9C135.926 233.075 132.037 222.11 126.937 225.935C119.542 231.545 133.695 238.303 135.863 238.175C135.161 240.406 134.333 242.447 133.185 244.04C132.356 245.188 131.464 246.59 130.507 248.057L130.444 248.12C129.997 244.04 126.172 233.649 121.2 237.41C114.314 242.638 126.172 248.886 129.551 249.587C127.447 252.966 125.343 256.855 123.686 260.552C123.431 256.918 116.291 249.396 113.422 253.667C111.828 256.026 120.243 263.804 123.048 262.082C121.455 265.971 120.498 269.541 120.817 272.219C120.945 273.175 121.136 274.323 121.327 275.598C119.351 273.43 112.274 266.099 110.107 271.773C108.322 276.426 114.187 279.168 116.673 279.168C118.586 279.168 120.626 277.319 121.455 276.554C121.582 277.255 121.71 277.893 121.837 278.658C122.857 284.396 124.005 291.344 123.686 295.552C122.028 292.301 114.506 278.722 110.17 287.456C107.939 291.918 114.251 295.68 116.737 296.508C118.777 297.21 122.347 296.572 123.622 296.317C123.558 296.763 123.495 297.21 123.367 297.592C121.773 302.437 118.522 307.283 118.458 307.346C118.331 307.538 118.394 307.793 118.586 307.92C118.65 307.984 118.713 307.984 118.841 307.984C118.968 307.984 119.096 307.92 119.16 307.793C119.16 307.729 121.582 304.095 123.303 299.951C125.216 299.696 132.675 298.676 134.843 297.273C137.329 295.616 141.728 290.197 138.158 288.221C132.611 285.161 126.746 293.321 124.196 297.592C125.152 294.405 124.323 288.029 123.303 282.037C125.28 282.61 131.782 281.463 134.014 279.997C136.5 278.339 140.708 274.068 138.094 271.773C131.591 265.971 124.642 278.275 123.112 281.208C122.985 280.252 122.793 279.359 122.666 278.467C122.283 276.108 121.837 273.813 121.646 272.091C121.327 269.669 122.283 266.099 123.877 262.146C125.152 262.528 129.551 263.74 134.396 263.102C140.134 262.273 143.067 257.811 140.963 255.707C137.393 252.137 126.874 259.532 124.132 261.572C125.79 257.683 128.085 253.412 130.635 249.332C134.014 250.097 147.338 249.842 145.553 244.55C143.768 239.259 136.883 242.829 132.866 245.953C133.185 245.443 133.504 244.997 133.886 244.487C135.48 242.383 136.5 239.578 137.265 236.581Z" fill="url(#paint3_linear)"/>
<path d="M113.485 287.456C106.599 284.714 104.878 295.233 104.559 298.74C103.029 293.703 102.392 287.519 103.093 282.547C104.113 282.547 108.193 282.355 111.062 280.889C114.377 279.232 116.354 272.665 113.548 271.836C108.767 270.498 104.559 278.785 103.284 281.59C103.412 280.953 103.539 280.315 103.667 279.742C104.687 275.916 105.452 270.944 105.834 266.035C107.109 266.035 110.743 265.907 112.783 265.206C115.27 264.377 119.414 257.938 116.099 256.982C111.508 255.643 107.364 262.273 105.962 264.951C106.217 259.851 106.026 255.006 105.133 251.627C105.516 250.161 106.217 247.037 106.217 244.614C106.217 241.299 102.392 234.86 98.8217 238.048C92.2552 243.849 102.073 250.671 104.432 252.137C105.197 255.388 105.388 260.17 105.133 265.079C103.667 261.381 97.7379 248.057 90.5977 254.496C87.8563 256.982 93.9128 262.72 97.9929 264.377C101.244 265.716 104.049 265.971 105.069 266.035C104.751 270.816 103.986 275.725 102.966 279.487C102.774 280.188 102.647 280.889 102.519 281.654C100.989 278.53 93.7215 265.142 85.6887 270.944C82.3736 273.366 89.0039 279.168 92.2552 280.825C95.0603 282.228 100.798 282.292 102.392 282.292C101.691 287.264 102.328 293.385 103.794 298.485C101.372 294.851 94.2953 285.479 88.9401 291.472C85.7525 295.042 93.9765 298.102 96.3354 298.867C98.3754 299.569 102.774 299.76 104.177 299.824C105.324 303.33 106.918 306.263 108.767 307.856C108.831 307.92 108.958 307.92 109.022 307.92C109.15 307.92 109.277 307.856 109.341 307.793C109.468 307.601 109.468 307.346 109.277 307.219C107.492 305.753 105.962 302.947 104.878 299.569C105.962 299.122 109.086 297.784 111.062 296.445C113.485 294.851 117.246 288.986 113.485 287.456Z" fill="url(#paint4_linear)"/>
<path d="M131.145 308.048H93.7227C93.4677 308.048 93.3402 307.856 93.3402 307.665C93.3402 307.41 93.5315 307.283 93.7227 307.283H131.145C131.4 307.283 131.528 307.474 131.528 307.665C131.528 307.856 131.337 308.048 131.145 308.048Z" fill="#7500B2"/>
<path d="M144.276 308.048H135.67C135.415 308.048 135.287 307.856 135.287 307.665C135.287 307.41 135.478 307.283 135.67 307.283H144.276C144.531 307.283 144.659 307.474 144.659 307.665C144.659 307.856 144.531 308.048 144.276 308.048Z" fill="#7500B2"/>
<path d="M615.723 255.515C617.891 256.089 626.051 255.77 624.521 251.69C622.8 247.228 618.146 251.117 616.17 253.603C616.935 249.65 616.998 245.57 616.998 243.403C618.465 241.617 621.589 230.397 615.468 230.971C607.436 231.672 614.576 242.319 616.425 243.53C616.425 246.144 616.233 251.244 615.086 255.707C614.831 252.902 612.026 244.805 608.264 247.674C602.845 251.818 613.237 256.791 614.831 256.663C614.321 258.321 613.683 259.787 612.855 260.998C612.281 261.891 611.579 262.847 610.878 263.931C610.878 263.931 610.878 263.931 610.814 263.995C610.496 260.998 607.691 253.348 603.993 256.153C598.893 259.978 607.627 264.568 610.113 265.142C608.583 267.628 606.989 270.497 605.778 273.239C605.587 270.561 600.295 265.015 598.255 268.202C597.108 269.987 603.292 275.661 605.332 274.386C604.184 277.255 603.483 279.869 603.738 281.845C603.802 282.546 603.929 283.375 604.12 284.331C602.654 282.738 597.426 277.382 595.896 281.526C594.621 284.969 598.893 286.945 600.742 286.945C602.144 286.945 603.674 285.607 604.248 285.033C604.312 285.543 604.439 286.053 604.503 286.563C605.204 290.77 606.097 295.871 605.842 298.995C604.63 296.572 599.084 286.627 595.896 293.066C594.239 296.381 598.893 299.122 600.742 299.696C602.208 300.206 604.886 299.76 605.778 299.568C605.714 299.887 605.651 300.206 605.587 300.525C604.375 304.095 602.017 307.665 602.017 307.729C601.953 307.856 601.953 308.047 602.08 308.175C602.144 308.239 602.208 308.239 602.272 308.239C602.399 308.239 602.463 308.175 602.527 308.111C602.527 308.111 604.312 305.37 605.587 302.373C606.989 302.182 612.472 301.417 614.066 300.397C615.851 299.186 619.102 295.233 616.488 293.767C612.408 291.472 608.137 297.528 606.224 300.652C606.926 298.293 606.288 293.639 605.587 289.24C607.053 289.687 611.834 288.858 613.492 287.71C615.277 286.499 618.401 283.375 616.488 281.654C611.707 277.382 606.607 286.435 605.459 288.603C605.332 287.902 605.204 287.264 605.141 286.563C604.822 284.778 604.567 283.12 604.375 281.909C604.12 280.124 604.822 277.51 606.033 274.641C606.989 274.96 610.241 275.852 613.747 275.342C617.955 274.769 620.122 271.454 618.592 269.923C615.978 267.31 608.201 272.729 606.224 274.195C607.436 271.326 609.157 268.202 611.006 265.206C613.492 265.78 623.31 265.588 621.971 261.636C620.632 257.747 615.596 260.361 612.663 262.656C612.918 262.273 613.173 261.954 613.365 261.572C614.385 259.787 615.15 257.683 615.723 255.515Z" fill="url(#paint5_linear)"/>
<path d="M598.193 292.938C593.092 290.898 591.881 298.676 591.626 301.226C590.479 297.528 590.032 293.002 590.542 289.304C591.307 289.304 594.304 289.113 596.407 288.093C598.83 286.882 600.296 282.036 598.193 281.463C594.686 280.443 591.562 286.563 590.606 288.667C590.67 288.22 590.797 287.774 590.925 287.328C591.69 284.523 592.264 280.825 592.519 277.255C593.475 277.255 596.152 277.128 597.619 276.681C599.404 276.108 602.528 271.326 600.041 270.625C596.663 269.669 593.666 274.514 592.582 276.49C592.774 272.729 592.646 269.159 592.009 266.736C592.264 265.652 592.774 263.357 592.774 261.572C592.774 259.149 589.969 254.368 587.355 256.727C582.573 260.998 589.777 265.971 591.499 267.118C592.072 269.541 592.2 272.984 592.009 276.618C590.925 273.876 586.59 264.122 581.362 268.84C579.322 270.625 583.785 274.896 586.781 276.108C589.204 277.064 591.244 277.255 591.945 277.319C591.69 280.825 591.116 284.395 590.415 287.2C590.287 287.71 590.16 288.22 590.096 288.794C588.949 286.499 583.593 276.681 577.728 280.953C575.306 282.738 580.151 287.009 582.573 288.22C584.677 289.24 588.885 289.304 590.032 289.304C589.522 292.938 589.969 297.465 591.052 301.226C589.267 298.548 584.103 291.663 580.151 296.062C577.792 298.676 583.848 300.907 585.57 301.481C587.1 301.991 590.351 302.118 591.371 302.182C592.2 304.796 593.411 306.9 594.75 308.047C594.814 308.111 594.877 308.111 594.941 308.111C595.005 308.111 595.133 308.047 595.196 307.984C595.324 307.856 595.26 307.665 595.132 307.537C593.857 306.454 592.71 304.413 591.881 301.927C592.646 301.608 594.941 300.588 596.407 299.632C598.193 298.357 600.998 294.022 598.193 292.938Z" fill="url(#paint6_linear)"/>
<path d="M611.2 308.047H583.722C583.531 308.047 583.404 307.92 583.404 307.728C583.404 307.537 583.531 307.41 583.722 307.41H611.2C611.391 307.41 611.518 307.537 611.518 307.728C611.518 307.92 611.391 308.047 611.2 308.047Z" fill="#7500B2"/>
<path d="M620.889 308.047H614.513C614.322 308.047 614.195 307.92 614.195 307.728C614.195 307.537 614.322 307.41 614.513 307.41H620.889C621.08 307.41 621.207 307.537 621.207 307.728C621.144 307.92 621.016 308.047 620.889 308.047Z" fill="#7500B2"/>
<path d="M536.286 299.951C534.756 301.035 533.354 302.565 531.632 302.82C529.911 303.075 525.576 302.565 525.066 302.82C524.556 303.075 523.472 304.158 523.536 305.242C523.6 306.326 528.827 307.41 529.784 307.41C530.74 307.41 535.713 307.537 537.37 306.581C539.028 305.625 541.769 303.011 541.896 301.672C541.96 300.397 536.286 299.951 536.286 299.951Z" fill="url(#paint7_linear)"/>
<path d="M539.603 301.353C537.818 302.309 534.439 304.86 533.865 305.178C533.291 305.497 530.55 306.198 529.785 306.39C529.02 306.581 528.51 307.92 528.51 308.493C528.51 309.067 529.594 309.96 532.08 310.151C534.566 310.279 538.646 310.279 540.687 309.768C542.727 309.258 545.723 306.836 546.169 306.708C546.297 306.645 546.169 307.41 546.169 307.728C546.169 308.047 546.807 308.175 547.317 308.111C547.89 308.047 550.887 307.537 551.014 306.963C551.142 306.39 551.142 304.222 550.632 303.457C550.122 302.692 539.603 301.353 539.603 301.353Z" fill="url(#paint8_linear)"/>
<path d="M532.463 224.723C532.208 227.082 532.399 231.29 533.101 233.393C533.802 235.561 534.312 251.244 536.288 257.492C538.265 263.676 539.731 271.453 538.647 275.661C537.563 279.869 539.093 293.958 538.265 296.126C537.436 298.293 535.459 299.441 535.651 300.014C535.906 300.652 538.775 302.054 541.07 301.927C543.365 301.863 545.851 301.289 546.489 299.887C547.126 298.548 552.035 265.078 551.652 254.432C551.206 243.785 550.377 226.253 544.576 222.747C538.838 219.368 532.463 224.723 532.463 224.723Z" fill="url(#paint9_linear)"/>
<path d="M558.216 221.153C558.981 223.193 558.981 231.736 558.854 234.477C558.726 237.219 557.26 263.293 556.941 265.206C556.622 267.118 555.22 280.761 554.263 284.969C553.307 289.177 552.16 294.404 552.032 296.126C551.905 297.847 551.713 303.266 550.885 303.712C550.056 304.158 541.577 302.501 540.302 302.31C539.027 302.118 538.453 300.78 538.835 299.76C539.218 298.74 540.557 291.663 541.258 288.858C541.959 286.053 542.788 279.423 542.852 275.406C542.916 271.39 541.386 240.343 540.62 238.621C539.855 236.9 533.735 230.907 532.843 225.552C532.014 220.261 558.216 221.153 558.216 221.153Z" fill="#192B59"/>
<path d="M516.398 218.858C516.271 219.687 514.039 221.982 513.083 221.982C512.127 221.918 509.64 220.388 507.919 218.794C506.262 217.264 503.393 212.738 502.5 211.781C501.671 210.889 500.715 209.678 500.269 209.614C499.823 209.55 497.655 208.976 496.444 207.765C495.232 206.49 494.977 206.617 494.914 206.426C494.85 206.235 495.105 205.661 494.85 205.597C494.595 205.534 494.149 205.215 494.149 204.832C494.149 204.45 494.531 203.812 494.531 203.557C494.531 203.302 494.021 202.729 493.83 202.537C493.575 202.41 493.639 201.581 493.894 201.326C494.212 201.007 494.467 200.688 494.467 200.497C494.467 200.306 494.914 199.477 495.487 199.668C496.061 199.86 496.635 200.433 497.464 200.561C498.292 200.688 499.057 200.497 500.141 201.39C501.225 202.346 502.181 203.175 502.5 204.322C502.819 205.47 503.648 207.319 504.668 208.339C505.688 209.359 508.684 212.228 509.577 212.1C510.533 211.973 511.808 212.036 512.445 212.546C513.083 213.056 514.932 214.969 515.442 216.053C516.016 217.2 516.526 218.093 516.398 218.858Z" fill="#F2DAD4"/>
<path d="M513.463 194.505C513.463 194.505 512.698 201.517 512.57 202.92C512.507 204.322 509.51 211.526 509.51 212.037C509.51 212.547 511.04 212.1 511.742 212.865C512.443 213.63 514.228 215.224 514.738 216.308C515.248 217.328 515.63 219.559 516.395 219.304C517.16 219.113 521.623 209.231 521.878 205.534C522.133 201.772 513.463 194.505 513.463 194.505Z" fill="url(#paint10_linear)"/>
<path d="M526.15 178.12C526.788 177.801 527.234 178.248 527.808 178.821C528.382 179.395 529.975 180.606 530.613 180.606C531.25 180.606 540.431 179.905 543.108 180.606C545.85 181.308 560.321 183.858 562.744 185.133C565.167 186.408 568.864 188.002 567.844 189.404C566.888 190.743 563.7 194.249 561.915 194.632C560.194 194.951 558.919 194.377 558.154 194.122C557.389 193.867 552.289 192.911 551.332 192.911C550.376 192.911 549.802 192.656 549.93 194.058C550.057 195.461 551.906 206.49 552.735 209.422C553.564 212.355 560.13 220.834 559.174 221.599C558.218 222.364 544.128 227.528 538.454 227.528C532.781 227.528 532.079 226.062 531.378 223.767C530.677 221.472 525.258 213.056 523.281 210.315C521.305 207.574 512.89 199.222 513.209 196.098C513.527 193.038 513.846 191.89 516.077 190.105C518.309 188.32 519.966 186.472 521.624 184.623C523.345 182.646 526.15 178.12 526.15 178.12Z" fill="url(#paint11_linear)"/>
<path d="M525.322 178.311C526.916 177.865 526.533 175.953 525.959 174.933C525.386 173.913 524.557 172.127 524.302 170.725C524.047 169.322 523.091 166.454 519.584 165.37C516.078 164.286 513.209 165.433 510.468 167.856C506.324 171.554 506.132 168.557 505.814 168.621C504.156 169.067 503.71 171.681 504.347 173.148C505.24 175.251 507.726 176.144 509.958 174.933C511.743 173.913 513.336 175.443 514.739 175.634C516.524 175.889 517.927 175.188 518.309 175.953C519.01 177.291 521.815 179.268 525.322 178.311Z" fill="#E64D4E"/>
<path d="M513.144 173.53C511.55 174.614 509.829 174.486 509.893 174.996C510.02 176.08 510.275 177.036 510.53 177.355C511.04 177.993 511.168 178.885 511.168 179.395C511.168 179.905 510.785 182.583 511.295 182.647C511.805 182.71 512.188 182.965 512.443 183.348C512.698 183.73 514.547 187.619 516.077 187.364C517.607 187.045 519.647 186.153 520.221 186.28C520.731 186.408 523.217 188.576 523.791 188.576C524.365 188.576 524.938 187.938 525.257 186.918C525.576 185.898 527.488 179.714 527.233 178.949C526.978 178.12 525.193 177.483 524.811 176.718C524.428 175.889 524.556 172.701 523.855 171.936C523.153 171.107 521.496 171.745 521.113 173.084C520.731 174.423 521.304 176.016 520.794 176.335C520.348 176.654 519.519 176.016 519.264 175.379C519.009 174.741 518.181 171.681 516.842 171.362C515.694 170.98 514.993 172.319 513.144 173.53Z" fill="#F2DAD4"/>
<path d="M568.039 188.894C569.187 189.277 569.378 190.679 569.06 191.444C568.55 192.783 566.764 201.134 565.234 203.685C563.704 206.235 561.09 210.952 560.899 211.972C560.772 212.929 560.453 215.287 559.815 215.861C559.114 216.435 557.457 217.519 557.52 217.583C557.584 217.646 558.158 218.348 557.648 218.73C557.138 219.113 555.927 218.348 555.48 218.156C555.034 217.965 554.524 217.646 554.333 216.754C554.141 215.861 553.376 213.247 553.313 212.865C553.249 212.482 553.823 211.781 554.715 211.462C555.608 211.144 556.947 211.207 557.138 210.57C557.393 209.932 559.497 203.43 559.624 202.282C559.815 201.134 560.007 197.437 560.899 194.695C561.154 193.867 563.003 194.058 564.788 192.528C566.573 190.998 567.593 188.767 568.039 188.894Z" fill="#F2DAD4"/>
<path d="M496.189 201.007C496.061 200.943 497.464 201.007 498.037 201.071C498.611 201.198 498.93 202.473 498.994 202.601C499.057 202.728 499.376 203.493 499.44 203.621C499.504 203.748 500.332 204.45 500.524 204.577C500.715 204.705 500.97 205.279 500.843 205.597C500.715 205.916 500.715 205.597 500.524 205.597C500.396 205.597 500.269 205.597 500.205 205.533C500.205 205.47 500.46 205.279 500.396 204.96C500.396 204.641 500.014 204.131 499.759 204.131C499.567 204.131 499.249 204.195 499.249 204.067C499.249 203.94 498.866 202.728 498.866 202.665C498.802 202.601 497.719 202.665 497.719 202.601C497.719 202.537 498.037 201.9 497.91 201.708C497.527 201.198 496.571 201.262 496.189 201.007Z" fill="url(#paint12_linear)"/>
<path d="M494.594 201.007L495.933 200.944L493.255 197.692L492.426 198.393L494.594 201.007Z" fill="#E64D4E"/>
<path d="M488.537 196.162C490.259 197.947 492.107 198.903 492.745 198.266C492.872 198.138 493.319 197.692 493.446 197.564C494.084 196.991 493.319 195.014 491.661 193.166C490.131 191.444 488.346 190.424 487.645 190.807C487.581 190.807 487.581 190.871 487.517 190.871C487.454 190.934 486.625 191.763 486.625 191.763C485.987 192.464 486.88 194.377 488.537 196.162ZM487.262 191.572C488.091 191.189 489.749 192.082 491.151 193.676C492.554 195.269 493.255 196.991 492.809 197.692C492.044 197.947 490.45 197.118 489.047 195.652C487.581 194.122 486.816 192.273 487.262 191.572Z" fill="#E64D4E"/>
<path d="M173.031 294.596C172.329 295.68 171.883 298.294 171.819 298.931C171.756 299.569 169.715 300.015 168.377 298.931C167.038 297.847 165.508 296.445 165.444 294.213C165.38 292.046 166.655 290.835 166.974 290.707C167.229 290.58 173.031 294.596 173.031 294.596Z" fill="#F2DAD4"/>
<path d="M163.656 289.368C162.508 289.942 160.659 289.559 159.767 290.26C158.874 290.962 158.492 293.384 159.066 294.978C159.639 296.572 159.703 297.592 160.277 297.528C160.851 297.464 161.488 296.699 161.552 297.528C161.616 298.357 161.169 304.286 163.465 306.645C165.76 308.94 170.286 309.195 172.071 309.131C173.856 309.067 174.111 308.94 173.984 308.302C173.856 307.601 173.792 305.561 172.709 305.561C171.625 305.561 169.84 305.943 170.031 305.051C170.222 304.095 171.179 300.78 172.135 300.078C173.091 299.377 172.9 298.484 172.326 298.166C171.752 297.847 168.692 297.082 167.481 295.297C166.27 293.512 166.907 292.173 166.525 291.28C166.142 290.388 163.656 289.368 163.656 289.368Z" fill="url(#paint13_linear)"/>
<path d="M191.58 272.155C195.087 271.645 212.682 269.669 216.38 271.135C220.078 272.601 220.906 275.088 220.333 277.51C219.759 279.933 207.136 297.783 205.287 297.528C203.438 297.273 197.828 294.468 196.362 293.193C194.832 291.854 194.194 289.113 194.641 288.476C195.087 287.838 194.131 289.304 192.282 289.304C190.433 289.304 184.631 289.177 184.631 284.077C184.631 278.977 191.58 272.155 191.58 272.155Z" fill="url(#paint14_linear)"/>
<path d="M173.663 295.169C173.025 296.955 174.3 303.139 175.193 305.242C176.085 307.346 176.723 307.474 178.126 307.537C179.528 307.601 187.752 307.474 189.41 308.43C191.067 309.386 198.973 311.108 201.268 309.577C203.626 308.047 198.909 303.202 193.681 300.015C188.453 296.891 173.663 295.169 173.663 295.169Z" fill="url(#paint15_linear)"/>
<path d="M161.172 276.681C159.451 280.57 160.152 286.435 163.658 289.878C167.165 293.321 187.31 302.82 191.773 305.306C196.236 307.792 200.698 311.299 203.567 308.812C206.436 306.326 207.137 304.158 205.607 301.417C204.141 298.676 194.323 289.368 191.518 286.882C188.713 284.395 189.542 279.678 190.562 277.382C191.646 275.151 193.749 272.792 193.367 271.135C193.048 269.477 161.172 276.681 161.172 276.681Z" fill="#192B59"/>
<path d="M208.283 238.621C209.813 240.215 209.686 242.446 209.813 245.57C209.941 248.694 209.813 255.516 210.514 257.109C211.216 258.703 213.957 261.636 213.893 263.293C213.83 264.951 213.32 270.88 210.259 271.071C207.199 271.262 206.371 271.262 204.968 269.796C203.565 268.33 201.717 259.341 201.27 254.878C200.824 250.288 208.283 238.621 208.283 238.621Z" fill="url(#paint16_linear)"/>
<path d="M196.552 228.421C195.66 228.74 193.683 230.015 192.982 229.951C192.281 229.887 187.181 229.632 185.332 229.186C183.419 228.74 172.008 249.523 169.139 254.177C166.206 258.831 156.516 274.896 158.811 276.745C161.106 278.594 179.148 279.04 184.184 277.255C189.284 275.47 193.556 274.259 194.831 270.944C196.106 267.692 204.011 250.479 205.924 248.248C207.9 246.016 210.323 241.745 208.984 239.514C207.645 237.282 204.84 236.645 203.374 235.561C201.971 234.477 196.552 228.421 196.552 228.421Z" fill="url(#paint17_linear)"/>
<path d="M214.277 225.552C214.595 224.277 215.743 220.643 212.173 217.965C208.348 215.16 205.096 216.499 202.801 217.455C200.506 218.412 197.382 225.233 196.617 225.68C195.916 226.062 196.554 226.827 197 227.847C197.446 228.867 198.912 229.951 200.315 230.078C201.781 230.27 214.277 225.552 214.277 225.552Z" fill="#E64D4E"/>
<path d="M197.763 225.871C197.444 226.7 196.424 227.911 196.36 228.421C196.296 228.995 198.018 234.031 198.464 235.434C198.91 236.836 198.783 239.259 199.229 239.45C199.675 239.577 200.185 237.601 202.162 237.155C204.202 236.709 202.034 227.847 201.014 227.273C200.122 226.763 197.763 225.871 197.763 225.871Z" fill="url(#paint18_linear)"/>
<path d="M214.21 225.361C214.975 225.68 211.915 230.907 211.087 232.055C210.258 233.202 206.369 238.43 203.5 237.665C200.759 236.9 198.719 233.521 198.782 230.844C198.846 228.166 199.42 227.528 198.782 227.337C198.145 227.146 197.252 226.19 197.762 224.277C198.209 222.364 199.484 221.217 199.994 221.217C200.504 221.217 200.886 222.046 200.95 222.747C201.014 223.384 200.695 224.66 200.567 224.915C200.44 225.17 199.994 225.871 200.376 226.19C200.759 226.445 202.097 223.831 203.054 223.64C204.01 223.448 205.795 223.257 206.305 221.663C206.496 221.026 207.899 220.069 209.174 221.281C210.385 222.492 211.66 224.15 214.21 225.361Z" fill="#F2DAD4"/>
<path d="M167.033 271.645C170.221 270.242 172.834 270.179 173.918 270.115C175.002 270.051 176.851 270.816 177.106 271.262C177.361 271.709 177.106 271.964 177.297 272.282C177.488 272.601 178.381 273.111 178.317 273.557C178.253 274.004 177.425 274.131 177.425 274.131C177.425 274.131 178.19 274.322 177.807 274.896C177.425 275.47 177.042 275.406 176.468 275.151C175.895 274.896 173.727 274.322 173.089 274.322C172.452 274.322 171.432 274.195 171.432 274.514C171.432 274.832 172.579 274.45 173.026 274.769C173.472 275.088 174.237 275.661 174.683 276.044C175.13 276.426 175.13 277 174.683 277.064C174.237 277.128 173.217 276.618 172.579 276.426C171.942 276.235 170.667 276.235 170.093 276.49C169.519 276.745 166.395 277.064 164.929 276.745C163.399 276.426 162.762 275.98 162.315 275.151C161.678 274.322 167.033 271.645 167.033 271.645Z" fill="#F2DAD4"/>
<path d="M185.332 229.186C182.272 228.229 177.937 232.182 176.216 234.477C174.494 236.772 159.513 244.805 158.429 249.65C157.345 254.495 156.963 263.484 157.026 265.843C157.09 268.138 159.831 274.386 161.234 274.96C162.637 275.534 165.952 275.024 166.717 273.494C167.482 271.964 166.717 260.616 166.972 257.811C167.227 254.942 168.629 252.965 172.582 250.607C176.471 248.248 185.269 243.403 185.906 238.812C186.544 234.095 187.564 229.823 185.332 229.186Z" fill="url(#paint19_linear)"/>
<path d="M217.142 248.121C215.995 248.822 214.21 249.714 213.509 249.842C212.807 249.906 211.086 252.774 211.086 253.667C211.086 254.56 211.022 255.261 210.704 255.771C210.449 256.217 207.771 262.656 206.56 264.059C205.348 265.461 204.456 268.585 206.56 269.924C208.663 271.263 212.17 270.625 213.254 268.33C214.337 265.971 213.636 261.19 214.274 260.233C214.911 259.277 216.951 258.002 217.461 257.492C218.035 256.982 218.8 255.261 219.055 255.07C219.31 254.878 219.438 254.368 219.31 254.113C219.183 253.858 219.119 253.476 219.438 253.157C219.756 252.838 219.438 252.009 219.183 251.691C218.928 251.372 219.055 250.862 219.31 250.671C219.629 250.543 220.139 250.224 219.756 249.396C219.438 248.567 218.673 248.822 218.673 248.822C218.673 248.822 218.29 247.419 217.142 248.121Z" fill="url(#paint20_linear)"/>
<path d="M217.144 249.204L218.929 248.885L220.267 246.973L219.247 246.271L217.144 249.204Z" fill="#E64D4E"/>
<path d="M220.588 241.299C219.122 243.721 218.612 246.08 219.44 246.654C219.632 246.781 220.205 247.1 220.397 247.228C221.225 247.801 223.202 246.335 224.732 243.976C226.198 241.745 226.772 239.514 226.134 238.812C226.071 238.749 226.071 238.749 226.007 238.685C225.943 238.621 224.796 237.92 224.796 237.92C224.031 237.346 222.118 238.876 220.588 241.299ZM225.306 238.494L225.369 238.557C225.943 239.322 225.433 241.426 224.094 243.466C222.756 245.506 221.034 246.845 220.078 246.526C219.568 245.761 220.014 243.721 221.225 241.681C222.628 239.577 224.413 238.239 225.306 238.494Z" fill="#E64D4E"/>
<path d="M377.359 104.04C377.359 105.953 377.678 107.674 377.805 108.63C377.869 109.587 376.913 112.009 375.255 112.009C373.598 112.009 371.43 112.519 370.92 110.671C370.346 108.822 371.175 103.53 372.068 103.403C372.896 103.275 377.359 104.04 377.359 104.04Z" fill="#F2DAD4"/>
<path d="M378.123 106.718C380.418 107.1 382.331 111.18 385.2 112.009C388.132 112.838 392.85 113.348 393.87 115.26C394.89 117.109 389.535 118.321 385.774 117.747C382.012 117.173 376.912 116.918 375.254 115.515C373.661 114.113 371.621 111.882 371.302 110.925C370.919 109.905 374.744 109.714 375.701 109.077C376.785 108.375 377.231 106.59 378.123 106.718Z" fill="url(#paint21_linear)"/>
<path d="M376.528 112.583C381.374 115.707 386.474 118.129 389.789 119.532C393.104 120.935 398.14 121.126 398.523 123.23C398.842 124.696 396.292 130.115 389.47 129.159C382.585 128.202 379.015 126.162 378.186 125.843C377.421 125.525 376.975 125.142 376.847 125.588C376.72 126.035 375.445 126.417 373.851 125.588C372.257 124.76 370.982 123.612 370.536 121.636C370.089 119.596 376.528 112.583 376.528 112.583Z" fill="url(#paint22_linear)"/>
<path d="M341.209 61.0712C347.839 61.1349 362.566 61.4537 366.774 61.4537C370.981 61.4537 383.286 60.5611 383.604 65.5976C383.859 70.634 383.604 98.1749 383.286 101.299C382.967 104.423 383.094 105.761 381.947 105.889C380.799 106.016 370.153 106.208 369.515 105.379C368.878 104.486 369.005 90.9709 369.196 88.2934C369.388 85.6158 371.746 77.9655 369.961 78.0292C368.176 78.093 358.167 80.7068 354.406 79.9418C350.644 79.1768 337.958 74.1404 335.408 71.5265C332.858 68.8489 334.069 63.6212 336.173 62.2824C338.276 60.8799 341.209 61.0712 341.209 61.0712Z" fill="url(#paint23_linear)"/>
<path d="M335.922 64.0037C343.126 66.1076 357.598 70.379 359.765 75.2879C362.634 81.7269 376.915 109.778 377.488 112.137C377.999 114.559 377.744 115.516 375.958 117.237C374.173 118.958 371.815 123.548 369.647 121.7C367.479 119.851 354.793 102.446 352.434 97.2824C350.075 92.1185 350.713 86.8908 344.082 85.6158C337.452 84.3407 328.017 81.4081 324 81.0256C320.048 80.5793 317.243 77.1367 316.605 74.0766C315.968 70.9527 327.889 61.7087 335.922 64.0037Z" fill="#192B59"/>
<path d="M359.572 25.3063C358.87 26.7089 354.79 31.6815 353.197 33.0841C351.539 34.4866 342.869 33.4029 341.339 32.5741C339.809 31.7453 338.661 28.3027 335.665 27.4739C333.688 26.9001 333.242 31.8091 333.242 31.8091L340.127 44.3045C340.127 44.3045 354.918 44.5595 357.022 43.2207C359.125 41.9457 361.229 37.4192 362.887 35.3154C364.544 33.2754 366.329 31.9366 366.011 29.3227C365.692 27.2826 359.572 25.3063 359.572 25.3063Z" fill="url(#paint24_linear)"/>
<path d="M365.818 8.85807C363.842 8.98558 361.164 11.9819 361.164 11.9819C360.909 12.747 360.909 15.5521 360.909 16.5721C360.909 17.5921 361.228 20.971 360.909 22.246C360.591 23.5211 359.188 25.6249 359.379 26.1987C359.507 26.7725 362.567 31.1714 363.459 31.1076C364.352 31.0439 364.734 28.3663 364.734 27.7287C364.734 27.0912 365.372 23.9674 366.01 23.7761C366.647 23.5849 367.858 21.1623 367.986 20.3335C368.113 19.5047 368.432 15.1696 368.496 14.7233C368.496 14.277 369.197 11.9182 369.452 11.0257C369.643 10.0694 367.795 8.66682 365.818 8.85807ZM366.01 13.002C366.01 13.1295 365.627 13.3845 365.244 13.257C364.862 13.1295 365.053 12.5557 365.244 11.9182C365.244 11.9182 365.818 11.7269 366.01 11.9182C366.137 12.1094 366.01 12.8107 366.01 13.002Z" fill="#F2DAD4"/>
<path d="M361.227 12.2371C361.482 12.7471 361.737 13.8309 361.673 14.6596C361.61 15.4884 361.355 16.7635 361.546 16.891C361.801 16.9547 361.928 15.8072 362.247 15.2972C362.566 14.7871 362.375 14.1496 362.247 13.5759C362.12 13.0021 361.928 12.4283 362.12 12.1095C362.311 11.727 361.227 12.2371 361.227 12.2371Z" fill="url(#paint25_linear)"/>
<path d="M369.07 11.8546C369.006 11.4721 366.074 11.4721 365.245 11.4721C364.48 11.4721 362.822 11.7909 362.822 11.7909V12.3009C362.822 12.3009 363.332 12.6197 363.587 13.1934C364.034 14.0222 364.161 13.9584 364.225 14.9147C364.225 15.871 363.906 17.1461 364.097 17.3373C364.289 17.5286 365.054 18.6124 365.117 19.8874C365.181 21.1625 367.094 18.7399 367.094 17.9748C367.094 17.2736 368.114 15.7435 368.241 15.361C368.433 14.9785 368.433 14.2135 368.688 13.1297C369.07 12.1734 369.134 12.1734 369.07 11.8546ZM366.01 13.0022C366.01 13.1297 365.627 13.3847 365.245 13.2572C364.862 13.1297 365.054 12.5559 365.245 11.9184C365.245 11.9184 365.819 11.7271 366.01 11.9184C366.138 12.1096 366.01 12.8109 366.01 13.0022Z" fill="url(#paint26_linear)"/>
<path d="M374.615 11.8545L341.208 13.2571C340.571 13.2571 339.997 12.8108 339.933 12.1095C339.87 11.472 340.38 10.8982 341.017 10.7707L374.232 7.32811C375.507 7.2006 376.655 8.15688 376.718 9.49568C376.846 10.7707 375.89 11.7908 374.615 11.8545Z" fill="#E64D4E"/>
<path d="M346.055 9.87833C345.227 11.0896 345.163 13.0022 345.29 14.5323C345.418 16.0623 346.31 17.5286 346.31 18.3574C346.31 19.1862 345.928 22.2463 345.545 22.9475C345.163 23.6488 350.072 25.8801 350.136 25.4976C350.263 25.1789 349.944 23.7126 350.327 22.9475C350.773 22.2463 352.367 21.2262 352.431 20.2062C352.494 19.1862 352.749 14.851 352.749 14.086C352.686 13.321 353.196 12.1734 353.642 11.5359C354.024 10.8984 354.407 9.55956 354.407 9.17705C354.407 8.79453 354.534 8.22076 354.024 8.22076C353.514 8.22076 353.578 9.36831 353.259 9.30456C352.941 9.24081 352.239 8.85829 351.602 8.85829C350.964 8.85829 350.072 9.11331 349.625 9.04955C349.115 9.04955 348.223 8.98581 347.713 9.11331C347.139 9.24082 346.374 9.43206 346.055 9.87833Z" fill="#F2DAD4"/>
<path d="M317.558 18.9947C316.665 20.0147 314.115 21.7998 313.286 22.0548C312.458 22.3098 306.529 24.9236 307.613 37.8016C308.696 50.6796 311.884 61.7724 312.522 64.0675C313.159 66.3626 313.35 78.348 316.283 78.5393C319.279 78.7943 327.695 68.5939 330.882 67.4464C334.134 66.2989 343.505 61.1987 345.8 61.1987C348.095 61.1987 340.317 53.7397 340.254 49.5958C340.19 45.4519 339.552 29.5138 337.002 28.0475C334.452 26.5812 329.543 26.1349 328.778 24.9874C328.013 23.8399 325.463 20.6522 323.806 19.8872C322.148 19.1859 317.558 18.9947 317.558 18.9947Z" fill="url(#paint27_linear)"/>
<path d="M317.941 15.9985C317.813 17.2735 316.538 19.5048 317.303 19.8874C318.068 20.2699 322.085 22.3099 323.742 23.5212C325.4 24.7325 326.802 26.3901 327.312 26.1351C327.822 25.8801 327.185 24.35 326.994 23.2662C326.866 22.1187 326.994 21.8637 326.994 20.9711C326.994 20.0786 324.38 15.2335 322.148 15.1697C319.981 14.9784 317.941 15.9985 317.941 15.9985Z" fill="url(#paint28_linear)"/>
<path d="M318.068 19.6323C316.283 19.6323 314.434 16.4447 314.052 14.0858C313.669 11.7907 313.031 7.77436 316.219 4.26799C320.49 -0.449681 325.463 0.187838 328.268 1.65414C331.073 3.12044 334.771 2.10041 333.751 4.58675C332.731 7.07308 332.221 9.24066 329.735 9.30441C327.248 9.43191 322.276 10.0057 322.339 12.9383C322.403 15.8709 319.789 19.6323 318.068 19.6323Z" fill="#E64D4E"/>
<path d="M329.416 6.43559C331.138 6.43559 331.201 8.92194 330.883 9.75072C330.564 10.5157 330.436 11.0258 331.01 11.5995C331.584 12.1733 332.859 13.5121 332.477 14.0221C332.094 14.5321 331.138 14.6596 331.201 15.1059C331.201 15.5522 331.201 19.6323 330.436 20.7798C329.608 21.9274 326.229 22.2461 324.125 21.2899C322.021 20.3973 320.045 17.7835 319.599 16.891C319.152 15.9347 318.515 16.6997 317.176 15.5522C315.837 14.4046 315.2 12.9383 316.092 11.7908C316.857 10.8345 317.813 11.3445 318.196 11.8545C318.515 12.3645 319.407 14.1496 320.427 14.0221C322.467 13.6396 319.854 6.24434 329.416 6.43559Z" fill="#F2DAD4"/>
<path d="M345.29 22.5012C346.692 21.9274 350.39 24.4775 351.219 25.4337C352.047 26.39 346.565 35.8254 345.29 37.7379C344.015 39.6505 338.404 46.5357 333.177 48.0021C329.67 48.9583 309.27 42.9019 307.612 37.8654C307.166 36.5904 306.847 31.554 308.632 27.5376C310.417 23.5212 311.884 22.2461 313.605 21.9911C314.625 21.7999 319.98 23.8399 322.339 27.9838C323.486 30.0877 326.802 35.6341 330.435 35.5704C333.942 35.5066 342.485 23.5849 345.29 22.5012Z" fill="url(#paint29_linear)"/>
<path d="M375.062 11.4719C375.942 11.4719 376.656 10.6156 376.656 9.55936C376.656 8.50308 375.942 7.64679 375.062 7.64679C374.182 7.64679 373.468 8.50308 373.468 9.55936C373.468 10.6156 374.182 11.4719 375.062 11.4719Z" fill="#B23036"/>
<path d="M365.688 7.32837C366.517 7.32837 366.708 8.02964 366.644 8.2209C366.644 8.41215 366.262 8.85842 365.497 8.85842C364.732 8.79467 364.604 8.28466 364.604 8.0934C364.668 7.90215 364.732 7.32837 365.688 7.32837Z" fill="#F2DAD4"/>
<path d="M363.141 7.71051C363.97 7.71051 364.161 8.41178 364.097 8.60304C364.097 8.79429 363.715 9.24056 362.95 9.24056C362.185 9.17681 362.057 8.6668 362.057 8.47554C362.121 8.28429 362.185 7.71051 363.141 7.71051Z" fill="#F2DAD4"/>
<defs>
<linearGradient id="paint0_linear" x1="429.349" y1="315.249" x2="428.805" y2="296.23" gradientUnits="userSpaceOnUse">
<stop stop-color="#510394"/>
<stop offset="0.1211" stop-color="#4A0388"/>
<stop offset="0.3418" stop-color="#380367"/>
<stop offset="0.6349" stop-color="#1B0433"/>
<stop offset="0.8488" stop-color="#030408"/>
</linearGradient>
<linearGradient id="paint1_linear" x1="160.804" y1="311.373" x2="160.514" y2="301.209" gradientUnits="userSpaceOnUse">
<stop stop-color="#510394"/>
<stop offset="0.1211" stop-color="#4A0388"/>
<stop offset="0.3418" stop-color="#380367"/>
<stop offset="0.6349" stop-color="#1B0433"/>
<stop offset="0.8488" stop-color="#030408"/>
</linearGradient>
<linearGradient id="paint2_linear" x1="357.007" y1="305.748" x2="354.888" y2="246.365" gradientUnits="userSpaceOnUse">
<stop stop-color="#510394"/>
<stop offset="0.1426" stop-color="#4A0388"/>
<stop offset="0.4026" stop-color="#380367"/>
<stop offset="0.7479" stop-color="#1B0433"/>
<stop offset="1" stop-color="#030408"/>
</linearGradient>
<linearGradient id="paint3_linear" x1="153.145" y1="236.602" x2="118.453" y2="262.621" gradientUnits="userSpaceOnUse">
<stop stop-color="#4E9CFF"/>
<stop offset="1" stop-color="#176AD4"/>
</linearGradient>
<linearGradient id="paint4_linear" x1="102.274" y1="258.428" x2="96.7832" y2="310.044" gradientUnits="userSpaceOnUse">
<stop stop-color="#F2BE3C"/>
<stop offset="1" stop-color="#FFAC00"/>
</linearGradient>
<linearGradient id="paint5_linear" x1="627.386" y1="255.507" x2="601.877" y2="274.64" gradientUnits="userSpaceOnUse">
<stop stop-color="#4E9CFF"/>
<stop offset="1" stop-color="#176AD4"/>
</linearGradient>
<linearGradient id="paint6_linear" x1="589.982" y1="271.556" x2="585.944" y2="309.51" gradientUnits="userSpaceOnUse">
<stop stop-color="#F2BE3C"/>
<stop offset="1" stop-color="#FFAC00"/>
</linearGradient>
<linearGradient id="paint7_linear" x1="525.782" y1="307.945" x2="534.892" y2="302.57" gradientUnits="userSpaceOnUse">
<stop stop-color="#4E9CFF"/>
<stop offset="0.5331" stop-color="#176AD4"/>
</linearGradient>
<linearGradient id="paint8_linear" x1="531.748" y1="312.521" x2="542.484" y2="305.267" gradientUnits="userSpaceOnUse">
<stop stop-color="#4E9CFF"/>
<stop offset="1" stop-color="#176AD4"/>
</linearGradient>
<linearGradient id="paint9_linear" x1="551.231" y1="264.475" x2="532.46" y2="259.726" gradientUnits="userSpaceOnUse">
<stop stop-color="#1D0633"/>
<stop offset="1" stop-color="#192B59"/>
</linearGradient>
<linearGradient id="paint10_linear" x1="512.465" y1="207.172" x2="524.698" y2="205.706" gradientUnits="userSpaceOnUse">
<stop stop-color="#4E9CFF"/>
<stop offset="0.8518" stop-color="#176AD4"/>
</linearGradient>
<linearGradient id="paint11_linear" x1="512.716" y1="177.509" x2="555.766" y2="211.392" gradientUnits="userSpaceOnUse">
<stop stop-color="#4E9CFF"/>
<stop offset="0.9844" stop-color="#176AD4"/>
</linearGradient>
<linearGradient id="paint12_linear" x1="496.334" y1="205.798" x2="499.415" y2="202.315" gradientUnits="userSpaceOnUse">
<stop offset="0.2211" stop-color="#F2BFAD"/>
<stop offset="1" stop-color="#F2DAD4"/>
</linearGradient>
<linearGradient id="paint13_linear" x1="158.438" y1="316.182" x2="167.158" y2="298.622" gradientUnits="userSpaceOnUse">
<stop stop-color="#4E9CFF"/>
<stop offset="1" stop-color="#176AD4"/>
</linearGradient>
<linearGradient id="paint14_linear" x1="187.285" y1="310.52" x2="203.249" y2="278.374" gradientUnits="userSpaceOnUse">
<stop stop-color="#1D0633"/>
<stop offset="0.8117" stop-color="#192B59"/>
</linearGradient>
<linearGradient id="paint15_linear" x1="194.314" y1="295.755" x2="173.963" y2="315.56" gradientUnits="userSpaceOnUse">
<stop stop-color="#1D0633"/>
<stop offset="0.9313" stop-color="#192B59"/>
</linearGradient>
<linearGradient id="paint16_linear" x1="209.854" y1="254.635" x2="200.547" y2="262.182" gradientUnits="userSpaceOnUse">
<stop stop-color="#4E9CFF"/>
<stop offset="0.842" stop-color="#176AD4"/>
</linearGradient>
<linearGradient id="paint17_linear" x1="210.806" y1="241.489" x2="164.456" y2="262.688" gradientUnits="userSpaceOnUse">
<stop stop-color="#4E9CFF"/>
<stop offset="0.9844" stop-color="#176AD4"/>
</linearGradient>
<linearGradient id="paint18_linear" x1="202.875" y1="230.756" x2="196.78" y2="233.514" gradientUnits="userSpaceOnUse">
<stop stop-color="#F2BFAD"/>
<stop offset="1" stop-color="#F2DAD4"/>
</linearGradient>
<linearGradient id="paint19_linear" x1="160.334" y1="245.51" x2="186.844" y2="258.862" gradientUnits="userSpaceOnUse">
<stop stop-color="#4E9CFF"/>
<stop offset="0.9844" stop-color="#176AD4"/>
</linearGradient>
<linearGradient id="paint20_linear" x1="206.743" y1="274.81" x2="212.088" y2="261.173" gradientUnits="userSpaceOnUse">
<stop stop-color="#F2BFAD"/>
<stop offset="1" stop-color="#F2DAD4"/>
</linearGradient>
<linearGradient id="paint21_linear" x1="404.677" y1="112.285" x2="381.957" y2="112.285" gradientUnits="userSpaceOnUse">
<stop stop-color="#4E9CFF"/>
<stop offset="1" stop-color="#176AD4"/>
</linearGradient>
<linearGradient id="paint22_linear" x1="392.946" y1="114.578" x2="371.357" y2="132.562" gradientUnits="userSpaceOnUse">
<stop offset="0.0183428" stop-color="#4E9CFF"/>
<stop offset="0.8834" stop-color="#176AD4"/>
</linearGradient>
<linearGradient id="paint23_linear" x1="333.952" y1="83.5155" x2="383.692" y2="83.5155" gradientUnits="userSpaceOnUse">
<stop stop-color="#1D0633"/>
<stop offset="1" stop-color="#192B59"/>
</linearGradient>
<linearGradient id="paint24_linear" x1="370.738" y1="47.5506" x2="342.512" y2="29.7781" gradientUnits="userSpaceOnUse">
<stop stop-color="#4E9CFF"/>
<stop offset="0.9844" stop-color="#176AD4"/>
</linearGradient>
<linearGradient id="paint25_linear" x1="361.53" y1="11.9681" x2="362.165" y2="17.168" gradientUnits="userSpaceOnUse">
<stop stop-color="#F2BFAD"/>
<stop offset="0.4051" stop-color="#F2CBBE"/>
<stop offset="1" stop-color="#F2DAD4"/>
</linearGradient>
<linearGradient id="paint26_linear" x1="365.882" y1="11.3472" x2="367.043" y2="20.8448" gradientUnits="userSpaceOnUse">
<stop stop-color="#F2BFAD"/>
<stop offset="0.4051" stop-color="#F2CBBE"/>
<stop offset="1" stop-color="#F2DAD4"/>
</linearGradient>
<linearGradient id="paint27_linear" x1="338.41" y1="33.726" x2="309.233" y2="59.3026" gradientUnits="userSpaceOnUse">
<stop stop-color="#4E9CFF"/>
<stop offset="0.9844" stop-color="#176AD4"/>
</linearGradient>
<linearGradient id="paint28_linear" x1="317.062" y1="20.5663" x2="327.478" y2="20.5663" gradientUnits="userSpaceOnUse">
<stop stop-color="#F2BFAD"/>
<stop offset="1" stop-color="#F2DAD4"/>
</linearGradient>
<linearGradient id="paint29_linear" x1="320.259" y1="20.4282" x2="347.904" y2="54.7244" gradientUnits="userSpaceOnUse">
<stop stop-color="#4E9CFF"/>
<stop offset="0.9844" stop-color="#176AD4"/>
</linearGradient>
</defs>
</svg>
