<svg width="628" height="301" viewBox="0 0 628 301" fill="none" xmlns="http://www.w3.org/2000/svg">
<path d="M115.022 269.487C181.952 281.087 202.67 204.417 293.917 193.996C400.175 181.9 445.209 277.551 517.784 255.902C599.168 231.587 656.732 77.007 611.078 20.1872C555.189 -49.3488 393.848 88.5446 101.437 83.7683C70.1116 83.272 22.1621 80.8529 6.46845 107.526C-18.2817 149.582 41.4536 256.771 115.022 269.487Z" fill="#F9EDFF"/>
<path opacity="0.1" d="M418.226 300.192C523.537 300.192 608.908 297.97 608.908 295.23C608.908 292.489 523.537 290.267 418.226 290.267C312.916 290.267 227.545 292.489 227.545 295.23C227.545 297.97 312.916 300.192 418.226 300.192Z" fill="url(#paint0_linear)"/>
<path opacity="0.1" d="M157.016 298.89C185.142 298.89 207.943 297.251 207.943 295.23C207.943 293.209 185.142 291.57 157.016 291.57C128.89 291.57 106.089 293.209 106.089 295.23C106.089 297.251 128.89 298.89 157.016 298.89Z" fill="url(#paint1_linear)"/>
<path d="M394.468 292.562H301.546C300.678 293.679 301.422 294.982 302.353 294.982H393.723C394.592 294.982 395.398 293.431 394.468 292.562Z" fill="#030408"/>
<path d="M497.253 251.436H198.887C195.103 251.436 192.001 248.335 192.001 244.551V78.4337C192.001 74.6499 195.103 71.5483 198.887 71.5483H497.253C501.036 71.5483 504.138 74.6499 504.138 78.4337V244.551C504.076 248.397 501.036 251.436 497.253 251.436Z" fill="#510394"/>
<path d="M495.329 246.598H200.685C197.645 246.598 195.164 244.117 195.164 241.077V80.4186C195.164 77.3792 197.645 74.8979 200.685 74.8979H495.329C498.369 74.8979 500.85 77.3792 500.85 80.4186V241.077C500.912 244.117 498.431 246.598 495.329 246.598Z" fill="#FDFFFF"/>
<path d="M394.282 292.376C390.994 289.957 385.225 285.553 383.364 283.878C380.697 281.521 379.022 251.436 379.022 251.436H317.054C317.054 251.436 315.379 281.459 312.712 283.878C310.851 285.553 305.082 289.895 301.795 292.376C301.05 292.935 301.422 294.113 302.353 294.113H393.724C394.654 294.113 395.026 292.935 394.282 292.376Z" fill="url(#paint2_linear)"/>
<path d="M443.239 114.89C441.255 101.672 432.281 90.5574 419.778 85.8324C407.274 81.1074 393.193 83.5082 382.962 92.1103C372.732 100.712 367.948 114.173 370.457 127.301C358.241 130.09 350.072 141.612 351.481 154.062C352.891 166.513 363.429 175.916 375.959 175.904H437.547C453.442 175.916 466.731 163.818 468.207 147.992C469.684 132.165 458.863 117.818 443.239 114.89Z" fill="#91EDF8"/>
<path d="M419.071 148.189C419.071 163.496 406.663 175.904 391.356 175.904C376.05 175.904 363.642 163.496 363.642 148.189C363.642 132.883 376.05 120.475 391.356 120.475C406.663 120.475 419.071 132.883 419.071 148.189Z" fill="#91EDF8"/>
<path d="M443.705 120.475C443.705 140.883 427.161 157.427 406.753 157.427C386.345 157.427 369.801 140.883 369.801 120.475C369.801 100.067 386.345 83.5228 406.753 83.5228C427.161 83.5228 443.705 100.067 443.705 120.475Z" fill="#91EDF8"/>
<path d="M419.604 89.1478C410.362 79.9052 392.98 82.3027 380.78 94.5021C368.58 106.703 366.183 124.085 375.426 133.326C384.668 142.569 402.049 140.172 414.25 127.972C426.449 115.773 428.847 98.3904 419.604 89.1478Z" fill="#BCF4F8"/>
<path d="M456.023 138.951C456.023 152.557 444.993 163.586 431.387 163.586C417.783 163.586 406.753 152.557 406.753 138.951C406.753 125.346 417.783 114.317 431.387 114.317C444.993 114.317 456.023 125.346 456.023 138.951Z" fill="#BCF4F8"/>
<path d="M400.595 151.269C400.595 164.875 389.565 175.904 375.96 175.904C362.355 175.904 351.325 164.875 351.325 151.269C351.325 137.664 362.355 126.634 375.96 126.634C389.565 126.634 400.595 137.664 400.595 151.269Z" fill="#BCF4F8"/>
<path d="M374.309 134.443C371.4 131.533 365.644 132.572 361.454 136.762C357.263 140.953 356.224 146.709 359.134 149.618C362.043 152.528 367.799 151.489 371.99 147.298C376.18 143.108 377.219 137.352 374.309 134.443Z" fill="#D7F8F9"/>
<path d="M415.33 93.4229C409.774 87.8667 400.052 88.5817 393.614 95.0185C387.177 101.455 386.463 111.177 392.019 116.733C397.575 122.29 407.297 121.576 413.734 115.139C420.171 108.702 420.886 98.979 415.33 93.4229Z" fill="#D7F8F9"/>
<path d="M434.796 123.226C429.947 118.377 420.354 120.108 413.369 127.093C406.385 134.076 404.654 143.67 409.503 148.519C414.353 153.368 423.946 151.637 430.93 144.652C437.915 137.668 439.646 128.075 434.796 123.226Z" fill="#D7F8F9"/>
<path d="M226.657 141.248H208.688V222.327H226.657V141.248Z" fill="#F9EDFF"/>
<path d="M256.618 173.346H238.648V222.5H256.618V173.346Z" fill="#F9EDFF"/>
<path d="M286.565 146.028H268.596V222.5H286.565V146.028Z" fill="#F9EDFF"/>
<path d="M316.538 96.8737H298.568V222.5H316.538V96.8737Z" fill="#F9EDFF"/>
<path d="M346.471 122.213H328.502V222.48H346.471V122.213Z" fill="#F9EDFF"/>
<path d="M376.393 162.42H358.424V222.474H376.393V162.42Z" fill="#F9EDFF"/>
<path d="M544.173 121.958H474.935C472.784 121.958 471.023 120.198 471.023 118.046V53.9912C471.023 51.8398 472.784 50.0795 474.935 50.0795H544.173C546.325 50.0795 548.085 51.8398 548.085 53.9912V117.997C548.085 120.198 546.325 121.958 544.173 121.958Z" fill="#EAD2F9"/>
<path d="M515.619 102.057H476.648V103.768H515.619V102.057Z" fill="#9909B7"/>
<path d="M502.612 107.68H476.648V109.391H502.612V107.68Z" fill="#9909B7"/>
<path d="M539.774 118.046H534.738C532.293 118.046 530.337 116.09 530.337 113.645V108.609C530.337 106.164 532.293 104.208 534.738 104.208H539.774C542.219 104.208 544.175 106.164 544.175 108.609V113.645C544.175 116.09 542.219 118.046 539.774 118.046Z" fill="#9909B7"/>
<path d="M548.085 96.8248H471.024V53.9912C471.024 51.8398 472.784 50.0795 474.936 50.0795H544.174C546.325 50.0795 548.085 51.8398 548.085 53.9912V96.8248Z" fill="#2159FF"/>
<path d="M471.024 74.1855C471.024 74.1855 482.124 87.9256 495.766 86.8498C509.408 85.7741 514.738 76.9727 526.424 76.9727C541.582 76.9727 548.085 81.6179 548.085 81.6179V96.8737H471.024V74.1855Z" fill="#0008FF"/>
<path d="M489.215 70.9096C491.376 70.9096 493.127 69.1582 493.127 66.9978C493.127 64.8374 491.376 63.0861 489.215 63.0861C487.055 63.0861 485.304 64.8374 485.304 66.9978C485.304 69.1582 487.055 70.9096 489.215 70.9096Z" fill="white"/>
<path opacity="0.6" d="M506.476 76.0925H501.733V78.244H506.476V76.0925Z" fill="#0008FF"/>
<path opacity="0.6" d="M514.426 59.666L510.761 56.6552L509.395 58.3176L513.06 61.3284L514.426 59.666Z" fill="#0008FF"/>
<path opacity="0.6" d="M546.111 56.1442L541.776 58.067L542.648 60.0337L546.983 58.1109L546.111 56.1442Z" fill="#0008FF"/>
<path opacity="0.6" d="M477.07 56.3833L475.183 52.0316L473.209 52.8877L475.096 57.2394L477.07 56.3833Z" fill="#0008FF"/>
<path d="M256.079 173.657H159.746C157.017 173.657 154.784 171.424 154.784 168.695V95.3131C154.784 92.5838 157.017 90.3507 159.746 90.3507H256.141C258.871 90.3507 261.104 92.5838 261.104 95.3131V168.633C261.042 171.424 258.871 173.657 256.079 173.657Z" fill="#EAD2F9"/>
<path d="M194.049 96.1195H162.104V100.834H194.049V96.1195Z" fill="#9909B7"/>
<path d="M251.551 153.746H165.825C163.778 153.746 162.104 152.071 162.104 150.024V110.324C162.104 108.277 163.778 106.603 165.825 106.603H251.551C253.598 106.603 255.273 108.277 255.273 110.324V150.024C255.273 152.071 253.66 153.746 251.551 153.746Z" fill="white"/>
<path d="M214.456 122.296H167.313V124.405H214.456V122.296Z" fill="#D3D6DB"/>
<path d="M214.456 129.12H167.313V131.229H214.456V129.12Z" fill="#D3D6DB"/>
<path d="M198.763 135.943H167.313V138.052H198.763V135.943Z" fill="#D3D6DB"/>
<path d="M242.928 148.473H237.346C234.244 148.473 231.763 145.992 231.763 142.89V137.308C231.763 134.206 234.244 131.725 237.346 131.725H242.928C246.03 131.725 248.511 134.206 248.511 137.308V142.89C248.511 145.992 245.968 148.473 242.928 148.473Z" fill="#9909B7"/>
<path d="M190.078 116.528H170.725C168.864 116.528 167.313 114.977 167.313 113.116C167.313 111.255 168.864 109.704 170.725 109.704H190.078C191.939 109.704 193.49 111.255 193.49 113.116C193.49 115.039 192.001 116.528 190.078 116.528Z" fill="#9909B7"/>
<path d="M168.131 226.81C165.278 227.555 154.422 227.12 156.532 221.786C158.827 215.831 164.968 221.041 167.635 224.329C166.642 219.056 166.518 213.722 166.518 210.868C164.595 208.511 160.439 193.686 168.565 194.368C179.173 195.361 169.806 209.38 167.325 210.992C167.325 214.404 167.573 221.227 169.124 227.12C169.434 223.398 173.218 212.729 178.18 216.451C185.376 221.91 171.605 228.485 169.496 228.361C170.178 230.532 170.985 232.517 172.101 234.068C172.908 235.184 173.776 236.549 174.706 237.976L174.768 238.038C175.203 234.068 178.924 223.957 183.763 227.617C190.462 232.703 178.924 238.782 175.637 239.464C177.684 242.752 179.731 246.536 181.344 250.134C181.592 246.598 188.539 239.278 191.331 243.434C192.881 245.729 184.693 253.297 181.964 251.622C183.515 255.406 184.445 258.88 184.135 261.485C184.011 262.416 183.825 263.532 183.639 264.773C185.562 262.664 192.447 255.53 194.556 261.051C196.293 265.579 190.586 268.246 188.167 268.246C186.306 268.246 184.321 266.448 183.515 265.703C183.391 266.386 183.267 267.006 183.143 267.75C182.15 273.333 181.034 280.094 181.344 284.188C182.956 281.025 190.276 267.812 194.494 276.31C196.665 280.653 190.524 284.312 188.105 285.119C186.12 285.801 182.646 285.181 181.406 284.933C181.468 285.367 181.53 285.801 181.654 286.173C183.205 290.887 186.368 295.602 186.43 295.664C186.554 295.85 186.492 296.098 186.306 296.222C186.244 296.284 186.182 296.284 186.058 296.284C185.934 296.284 185.81 296.222 185.748 296.098C185.748 296.036 183.391 292.5 181.716 288.468C179.855 288.22 172.597 287.228 170.488 285.863C168.069 284.25 163.789 278.978 167.263 277.055C172.659 274.077 178.366 282.017 180.847 286.173C179.917 283.072 180.723 276.869 181.716 271.038C179.793 271.596 173.466 270.48 171.295 269.053C168.876 267.44 164.782 263.284 167.325 261.051C173.652 255.406 180.413 267.378 181.902 270.231C182.026 269.301 182.212 268.433 182.336 267.564C182.708 265.269 183.143 263.036 183.329 261.361C183.639 259.004 182.708 255.53 181.158 251.684C179.917 252.057 175.637 253.235 170.923 252.615C165.34 251.808 162.486 247.466 164.533 245.419C168.007 241.946 178.242 249.141 180.909 251.126C179.297 247.342 177.064 243.186 174.582 239.216C171.295 239.961 158.33 239.712 160.067 234.564C161.804 229.415 168.503 232.889 172.411 235.929C172.101 235.432 171.791 234.998 171.419 234.502C169.868 232.455 168.876 229.726 168.131 226.81Z" fill="url(#paint3_linear)"/>
<path d="M191.269 276.31C197.968 273.643 199.643 283.878 199.953 287.29C201.442 282.389 202.062 276.372 201.38 271.534C200.387 271.534 196.417 271.348 193.626 269.921C190.4 268.308 188.477 261.919 191.207 261.113C195.859 259.81 199.953 267.874 201.194 270.604C201.07 269.983 200.946 269.363 200.822 268.805C199.829 265.083 199.085 260.245 198.712 255.468C197.472 255.468 193.936 255.344 191.951 254.662C189.532 253.855 185.5 247.59 188.726 246.66C193.192 245.357 197.224 251.808 198.588 254.414C198.34 249.451 198.526 244.737 199.395 241.449C199.023 240.023 198.34 236.983 198.34 234.626C198.34 231.4 202.062 225.135 205.536 228.237C211.925 233.882 202.372 240.519 200.077 241.946C199.333 245.109 199.147 249.761 199.395 254.538C200.822 250.94 206.59 237.976 213.538 244.241C216.205 246.66 210.312 252.243 206.342 253.855C203.179 255.158 200.449 255.406 199.457 255.468C199.767 260.12 200.511 264.897 201.504 268.557C201.69 269.239 201.814 269.921 201.938 270.666C203.427 267.626 210.498 254.6 218.314 260.245C221.54 262.602 215.088 268.246 211.925 269.859C209.196 271.224 203.613 271.286 202.062 271.286C202.744 276.124 202.124 282.079 200.697 287.042C203.055 283.506 209.94 274.387 215.151 280.218C218.252 283.692 210.25 286.669 207.955 287.414C205.97 288.096 201.69 288.282 200.325 288.344C199.209 291.756 197.658 294.609 195.859 296.16C195.797 296.222 195.673 296.222 195.611 296.222C195.487 296.222 195.363 296.16 195.301 296.098C195.177 295.912 195.177 295.664 195.363 295.54C197.1 294.113 198.588 291.384 199.643 288.096C198.588 287.662 195.549 286.359 193.626 285.057C191.269 283.506 187.547 277.799 191.269 276.31Z" fill="url(#paint4_linear)"/>
<path d="M174.086 296.346H210.498C210.746 296.346 210.87 296.16 210.87 295.974C210.87 295.726 210.684 295.602 210.498 295.602H174.086C173.838 295.602 173.714 295.788 173.714 295.974C173.714 296.16 173.9 296.346 174.086 296.346Z" fill="#7500B2"/>
<path d="M161.308 296.346H169.682C169.93 296.346 170.054 296.16 170.054 295.974C170.054 295.726 169.868 295.602 169.682 295.602H161.308C161.06 295.602 160.936 295.788 160.936 295.974C160.873 296.16 161.06 296.346 161.308 296.346Z" fill="#7500B2"/>
<path d="M599.789 245.233C601.899 245.791 609.838 245.481 608.35 241.511C606.675 237.169 602.147 240.953 600.224 243.372C600.968 239.526 601.03 235.556 601.03 233.447C602.457 231.711 605.496 220.793 599.541 221.351C591.726 222.034 598.673 232.393 600.472 233.571C600.472 236.115 600.286 241.077 599.169 245.419C598.921 242.69 596.192 234.812 592.532 237.603C587.259 241.635 597.37 246.474 598.921 246.35C598.425 247.962 597.805 249.389 596.998 250.568C596.44 251.436 595.758 252.367 595.075 253.421C595.075 253.421 595.075 253.421 595.013 253.483C594.703 250.568 591.974 243.124 588.376 245.853C583.413 249.575 591.912 254.042 594.331 254.6C592.842 257.019 591.291 259.81 590.113 262.478C589.927 259.872 584.778 254.476 582.793 257.577C581.677 259.314 587.694 264.835 589.678 263.594C588.562 266.386 587.88 268.929 588.128 270.852C588.19 271.534 588.314 272.34 588.5 273.271C587.073 271.72 581.987 266.51 580.498 270.542C579.257 273.891 583.413 275.814 585.212 275.814C586.577 275.814 588.066 274.511 588.624 273.953C588.686 274.449 588.81 274.946 588.872 275.442C589.554 279.536 590.423 284.498 590.175 287.538C588.996 285.181 583.6 275.504 580.498 281.769C578.885 284.995 583.413 287.662 585.212 288.22C586.639 288.716 589.244 288.282 590.113 288.096C590.051 288.406 589.989 288.716 589.927 289.027C588.748 292.5 586.453 295.974 586.453 296.036C586.391 296.16 586.391 296.346 586.515 296.47C586.577 296.532 586.639 296.532 586.701 296.532C586.825 296.532 586.887 296.47 586.949 296.408C586.949 296.408 588.686 293.741 589.927 290.825C591.291 290.639 596.626 289.895 598.177 288.903C599.914 287.724 603.077 283.878 600.534 282.451C596.564 280.218 592.408 286.111 590.547 289.151C591.229 286.856 590.609 282.327 589.927 278.047C591.353 278.481 596.006 277.675 597.618 276.558C599.355 275.38 602.395 272.34 600.534 270.666C595.882 266.51 590.919 275.318 589.803 277.427C589.679 276.745 589.554 276.124 589.492 275.442C589.182 273.705 588.934 272.092 588.748 270.914C588.5 269.177 589.182 266.634 590.361 263.842C591.291 264.152 594.455 265.021 597.867 264.525C601.961 263.966 604.07 260.741 602.581 259.252C600.038 256.709 592.47 261.981 590.547 263.408C591.726 260.617 593.4 257.577 595.199 254.662C597.618 255.22 607.171 255.034 605.868 251.188C604.566 247.404 599.665 249.947 596.812 252.181C597.06 251.808 597.308 251.498 597.494 251.126C598.487 249.389 599.231 247.342 599.789 245.233Z" fill="url(#paint5_linear)"/>
<path d="M582.731 281.645C577.768 279.66 576.59 287.228 576.342 289.709C575.225 286.111 574.791 281.707 575.287 278.109C576.031 278.109 578.947 277.923 580.994 276.931C583.351 275.752 584.778 271.038 582.731 270.479C579.319 269.487 576.279 275.442 575.349 277.489C575.411 277.055 575.535 276.62 575.659 276.186C576.404 273.457 576.962 269.859 577.21 266.385C578.14 266.385 580.746 266.261 582.172 265.827C583.909 265.269 586.949 260.617 584.53 259.934C581.242 259.004 578.326 263.718 577.272 265.641C577.458 261.981 577.334 258.508 576.714 256.15C576.962 255.096 577.458 252.863 577.458 251.126C577.458 248.769 574.729 244.117 572.186 246.412C567.533 250.568 574.543 255.406 576.217 256.523C576.776 258.88 576.9 262.229 576.714 265.765C575.659 263.098 571.441 253.607 566.355 258.197C564.37 259.934 568.712 264.09 571.627 265.269C573.984 266.199 575.969 266.385 576.652 266.448C576.404 269.859 575.845 273.333 575.163 276.062C575.039 276.558 574.915 277.055 574.853 277.613C573.736 275.38 568.526 265.827 562.819 269.983C560.462 271.72 565.176 275.876 567.533 277.055C569.58 278.047 573.674 278.109 574.791 278.109C574.295 281.645 574.729 286.049 575.783 289.709C574.046 287.104 569.022 280.404 565.176 284.684C562.881 287.228 568.774 289.399 570.449 289.957C571.937 290.453 575.101 290.577 576.093 290.639C576.9 293.183 578.078 295.23 579.381 296.346C579.443 296.408 579.505 296.408 579.567 296.408C579.629 296.408 579.753 296.346 579.815 296.284C579.939 296.16 579.877 295.974 579.753 295.85C578.513 294.795 577.396 292.81 576.59 290.391C577.334 290.081 579.567 289.089 580.994 288.158C582.731 286.918 585.46 282.699 582.731 281.645Z" fill="url(#paint6_linear)"/>
<path d="M595.385 296.346H568.65C568.464 296.346 568.34 296.222 568.34 296.036C568.34 295.85 568.464 295.726 568.65 295.726H595.385C595.571 295.726 595.695 295.85 595.695 296.036C595.695 296.222 595.571 296.346 595.385 296.346Z" fill="#7500B2"/>
<path d="M604.814 296.346H598.611C598.425 296.346 598.301 296.222 598.301 296.036C598.301 295.85 598.425 295.726 598.611 295.726H604.814C605 295.726 605.124 295.85 605.124 296.036C605.062 296.222 604.938 296.346 604.814 296.346Z" fill="#7500B2"/>
<path d="M515.537 266.3H439.487C436.565 266.3 434.174 263.909 434.174 260.986V160.494C434.174 157.572 436.565 155.181 439.487 155.181H515.537C518.46 155.181 520.851 157.572 520.851 160.494V260.92C520.851 263.909 518.46 266.3 515.537 266.3Z" fill="#EAD2F9"/>
<path d="M498.869 181.948H449.785V184.14H498.869V181.948Z" fill="white"/>
<path d="M498.869 189.055H449.785V191.247H498.869V189.055Z" fill="white"/>
<path d="M482.529 196.095H449.785V198.287H482.529V196.095Z" fill="white"/>
<path d="M498.869 203.202H449.785V205.394H498.869V203.202Z" fill="white"/>
<path d="M482.529 210.309H449.785V212.501H482.529V210.309Z" fill="white"/>
<path d="M498.869 217.349H449.785V219.541H498.869V217.349Z" fill="white"/>
<path d="M482.529 224.456H449.785V226.648H482.529V224.456Z" fill="white"/>
<path d="M498.869 231.563H449.785V233.755H498.869V231.563Z" fill="white"/>
<path d="M482.529 238.67H449.785V240.861H482.529V238.67Z" fill="white"/>
<path d="M473.496 175.904H453.305C451.379 175.904 449.785 174.31 449.785 172.384C449.785 170.457 451.379 168.863 453.305 168.863H473.496C475.423 168.863 477.017 170.457 477.017 172.384C477.017 174.376 475.423 175.904 473.496 175.904Z" fill="#9909B7"/>
<path d="M332.531 157.333V140.171C332.531 131.46 339.618 124.374 348.328 124.374C357.038 124.374 364.124 131.46 364.124 140.171V157.333H378.181V140.171C378.181 123.709 364.789 110.317 348.328 110.317C331.867 110.317 318.475 123.709 318.475 140.171V157.333H332.531Z" fill="#445EA0"/>
<path d="M325.448 157.333V140.17C325.448 124.889 336.991 112.261 351.814 110.527C350.669 110.394 349.507 110.317 348.328 110.317C331.867 110.317 318.475 123.709 318.475 140.17V157.333L325.448 157.333Z" fill="#293D7C"/>
<path d="M390.514 217.779C390.514 220.219 388.517 222.216 386.077 222.216H310.576C308.135 222.216 306.139 220.219 306.139 217.779V161.419C306.139 158.979 308.135 156.982 310.576 156.982H386.077C388.517 156.982 390.514 158.979 390.514 161.419V217.779Z" fill="#3888EE"/>
<path d="M313.112 217.779V161.419C313.112 158.979 315.109 156.982 317.549 156.982H310.576C308.135 156.982 306.139 158.979 306.139 161.419V217.779C306.139 220.219 308.135 222.216 310.576 222.216H317.549C315.109 222.216 313.112 220.219 313.112 217.779Z" fill="#176AD4"/>
<path d="M356.757 177.092C356.757 172.436 352.983 168.662 348.327 168.662C343.671 168.662 339.897 172.436 339.897 177.092C339.897 180.827 342.327 183.993 345.691 185.1V198.833C345.691 200.289 346.871 201.469 348.327 201.469C349.783 201.469 350.963 200.289 350.963 198.833V185.1C354.327 183.993 356.757 180.827 356.757 177.092Z" fill="#FDFFFF"/>
<path d="M306.139 210.369V217.779C306.139 220.219 308.135 222.216 310.576 222.216H386.077C388.517 222.216 390.514 220.219 390.514 217.779V210.369H306.139Z" fill="#176AD4"/>
<defs>
<linearGradient id="paint0_linear" x1="418.446" y1="303.356" x2="417.918" y2="284.85" gradientUnits="userSpaceOnUse">
<stop stop-color="#510394"/>
<stop offset="0.1211" stop-color="#4A0388"/>
<stop offset="0.3418" stop-color="#380367"/>
<stop offset="0.6349" stop-color="#1B0433"/>
<stop offset="0.8488" stop-color="#030408"/>
</linearGradient>
<linearGradient id="paint1_linear" x1="157.156" y1="299.585" x2="156.873" y2="289.694" gradientUnits="userSpaceOnUse">
<stop stop-color="#510394"/>
<stop offset="0.1211" stop-color="#4A0388"/>
<stop offset="0.3418" stop-color="#380367"/>
<stop offset="0.6349" stop-color="#1B0433"/>
<stop offset="0.8488" stop-color="#030408"/>
</linearGradient>
<linearGradient id="paint2_linear" x1="348.062" y1="294.111" x2="346" y2="236.332" gradientUnits="userSpaceOnUse">
<stop stop-color="#510394"/>
<stop offset="0.1426" stop-color="#4A0388"/>
<stop offset="0.4026" stop-color="#380367"/>
<stop offset="0.7479" stop-color="#1B0433"/>
<stop offset="1" stop-color="#030408"/>
</linearGradient>
<linearGradient id="paint3_linear" x1="152.674" y1="226.833" x2="186.429" y2="252.149" gradientUnits="userSpaceOnUse">
<stop stop-color="#4E9CFF"/>
<stop offset="1" stop-color="#176AD4"/>
</linearGradient>
<linearGradient id="paint4_linear" x1="202.17" y1="248.069" x2="207.513" y2="298.291" gradientUnits="userSpaceOnUse">
<stop stop-color="#F2BE3C"/>
<stop offset="1" stop-color="#FFAC00"/>
</linearGradient>
<linearGradient id="paint5_linear" x1="611.137" y1="245.228" x2="586.317" y2="263.843" gradientUnits="userSpaceOnUse">
<stop stop-color="#4E9CFF"/>
<stop offset="1" stop-color="#176AD4"/>
</linearGradient>
<linearGradient id="paint6_linear" x1="574.742" y1="260.843" x2="570.813" y2="297.772" gradientUnits="userSpaceOnUse">
<stop stop-color="#F2BE3C"/>
<stop offset="1" stop-color="#FFAC00"/>
</linearGradient>
</defs>
</svg>
