<svg width="628" height="301" viewBox="0 0 628 301" fill="none" xmlns="http://www.w3.org/2000/svg">
<path d="M115.191 269.487C182.122 281.087 202.84 204.417 294.087 193.996C400.345 181.9 445.379 277.551 517.954 255.902C599.338 231.587 656.902 77.007 611.248 20.1872C555.359 -49.3488 394.018 88.5446 101.607 83.7683C70.2815 83.272 22.332 80.8529 6.63837 107.526C-18.1117 149.582 41.6235 256.771 115.191 269.487Z" fill="#F9EDFF"/>
<path opacity="0.1" d="M418.396 300.192C523.707 300.192 609.077 297.97 609.077 295.23C609.077 292.489 523.707 290.267 418.396 290.267C313.086 290.267 227.715 292.489 227.715 295.23C227.715 297.97 313.086 300.192 418.396 300.192Z" fill="url(#paint0_linear)"/>
<path opacity="0.1" d="M157.186 298.889C185.312 298.889 208.113 297.251 208.113 295.23C208.113 293.208 185.312 291.57 157.186 291.57C129.06 291.57 106.259 293.208 106.259 295.23C106.259 297.251 129.06 298.889 157.186 298.889Z" fill="url(#paint1_linear)"/>
<path d="M394.638 292.562H301.716C300.848 293.679 301.592 294.982 302.523 294.982H393.893C394.762 294.982 395.568 293.431 394.638 292.562Z" fill="#030408"/>
<path d="M497.423 251.436H199.057C195.273 251.436 192.171 248.335 192.171 244.551V78.4337C192.171 74.6498 195.273 71.5483 199.057 71.5483H497.423C501.206 71.5483 504.308 74.6498 504.308 78.4337V244.551C504.246 248.397 501.206 251.436 497.423 251.436Z" fill="#510394"/>
<path d="M495.499 246.598H200.855C197.815 246.598 195.334 244.117 195.334 241.077V80.4186C195.334 77.3792 197.815 74.8979 200.855 74.8979H495.499C498.539 74.8979 501.02 77.3792 501.02 80.4186V241.077C501.082 244.117 498.601 246.598 495.499 246.598Z" fill="#FDFFFF"/>
<path d="M394.452 292.376C391.164 289.957 385.395 285.553 383.534 283.878C380.867 281.521 379.192 251.436 379.192 251.436H317.224C317.224 251.436 315.549 281.459 312.882 283.878C311.021 285.553 305.252 289.895 301.964 292.376C301.22 292.935 301.592 294.113 302.523 294.113H393.893C394.824 294.113 395.196 292.935 394.452 292.376Z" fill="url(#paint2_linear)"/>
<path d="M491.405 113.419H477.572V98.4695C477.572 95.492 475.153 93.0728 472.176 93.0728H245.703C242.725 93.0728 240.306 95.492 240.306 98.4695V221.972C240.306 224.949 242.725 227.369 245.703 227.369H472.176C475.153 227.369 477.572 224.949 477.572 221.972V115.714H491.405C492.025 115.714 492.584 115.218 492.584 114.535C492.584 113.915 492.025 113.419 491.405 113.419ZM472.176 225.011H245.703C244.028 225.011 242.601 223.647 242.601 221.91V98.4074C242.601 96.7326 243.966 95.3059 245.703 95.3059H472.176C473.85 95.3059 475.277 96.6706 475.277 98.4074V113.357H320.573C319.953 113.357 319.395 113.853 319.395 114.535C319.395 115.156 319.891 115.714 320.573 115.714H475.277V221.972C475.277 223.647 473.85 225.011 472.176 225.011Z" fill="#F0DBFC"/>
<path d="M437.935 108.518C440.025 108.518 441.719 106.824 441.719 104.735C441.719 102.645 440.025 100.951 437.935 100.951C435.845 100.951 434.151 102.645 434.151 104.735C434.151 106.824 435.845 108.518 437.935 108.518Z" fill="#F0DBFC"/>
<path d="M450.59 108.518C452.679 108.518 454.373 106.824 454.373 104.735C454.373 102.645 452.679 100.951 450.59 100.951C448.5 100.951 446.806 102.645 446.806 104.735C446.806 106.824 448.5 108.518 450.59 108.518Z" fill="#F0DBFC"/>
<path d="M463.306 108.518C465.395 108.518 467.089 106.824 467.089 104.735C467.089 102.645 465.395 100.951 463.306 100.951C461.216 100.951 459.522 102.645 459.522 104.735C459.522 106.824 461.216 108.518 463.306 108.518Z" fill="#F0DBFC"/>
<path d="M341.044 128.368H259.164C258.543 128.368 257.985 128.864 257.985 129.547V211.427C257.985 212.047 258.481 212.605 259.164 212.605H341.044C341.664 212.605 342.222 212.109 342.222 211.427V129.547C342.222 128.864 341.726 128.368 341.044 128.368ZM260.404 210.186V130.663H339.927V210.186H260.404Z" fill="#F0DBFC"/>
<path d="M458.156 161.678C457.536 161.678 456.978 162.175 456.978 162.857V164.532H455.303C454.683 164.532 454.125 165.028 454.125 165.71C454.125 166.331 454.621 166.889 455.303 166.889H458.156C458.777 166.889 459.335 166.393 459.335 165.71V162.857C459.335 162.175 458.839 161.678 458.156 161.678Z" fill="#F0DBFC"/>
<path d="M444.201 166.827H449.783C450.404 166.827 450.962 166.331 450.962 165.648C450.962 165.028 450.466 164.47 449.783 164.47H444.201C443.58 164.47 443.022 164.966 443.022 165.648C443.022 166.331 443.58 166.827 444.201 166.827Z" fill="#F0DBFC"/>
<path d="M427.514 164.532H421.931C421.311 164.532 420.753 165.028 420.753 165.71C420.753 166.331 421.249 166.889 421.931 166.889H427.514C428.134 166.889 428.693 166.393 428.693 165.71C428.693 165.028 428.134 164.532 427.514 164.532Z" fill="#F0DBFC"/>
<path d="M433.097 166.827H438.68C439.3 166.827 439.858 166.331 439.858 165.648C439.858 165.028 439.362 164.47 438.68 164.47H433.097C432.477 164.47 431.918 164.966 431.918 165.648C431.918 166.331 432.414 166.827 433.097 166.827Z" fill="#F0DBFC"/>
<path d="M388.559 166.827H394.141C394.762 166.827 395.32 166.331 395.32 165.648C395.32 165.028 394.824 164.47 394.141 164.47H388.559C387.938 164.47 387.38 164.966 387.38 165.648C387.38 166.331 387.938 166.827 388.559 166.827Z" fill="#F0DBFC"/>
<path d="M405.245 164.532H399.662C399.042 164.532 398.484 165.028 398.484 165.71C398.484 166.331 398.98 166.889 399.662 166.889H405.245C405.865 166.889 406.424 166.393 406.424 165.71C406.424 165.028 405.865 164.532 405.245 164.532Z" fill="#F0DBFC"/>
<path d="M417.527 165.648C417.527 165.028 417.031 164.47 416.349 164.47H410.766C410.146 164.47 409.587 164.966 409.587 165.648C409.587 166.269 410.084 166.827 410.766 166.827H416.349C417.031 166.827 417.527 166.331 417.527 165.648Z" fill="#F0DBFC"/>
<path d="M377.455 166.827H383.038C383.658 166.827 384.216 166.331 384.216 165.648C384.216 165.028 383.72 164.47 383.038 164.47H377.455C376.835 164.47 376.276 164.966 376.276 165.648C376.276 166.331 376.773 166.827 377.455 166.827Z" fill="#F0DBFC"/>
<path d="M371.872 164.532H366.289C365.669 164.532 365.111 165.028 365.111 165.71C365.111 166.331 365.607 166.889 366.289 166.889H371.872C372.492 166.889 373.051 166.393 373.051 165.71C373.051 165.028 372.492 164.532 371.872 164.532Z" fill="#F0DBFC"/>
<path d="M357.915 166.827H360.769C361.389 166.827 361.947 166.331 361.947 165.648C361.947 165.028 361.451 164.47 360.769 164.47H359.094V162.795C359.094 162.175 358.598 161.616 357.915 161.616C357.295 161.616 356.737 162.113 356.737 162.795V165.648C356.737 166.331 357.233 166.827 357.915 166.827Z" fill="#F0DBFC"/>
<path d="M357.915 145.737C358.536 145.737 359.094 145.24 359.094 144.558V138.479C359.094 137.859 358.598 137.3 357.915 137.3C357.295 137.3 356.737 137.797 356.737 138.479V144.558C356.737 145.178 357.233 145.737 357.915 145.737Z" fill="#F0DBFC"/>
<path d="M357.915 157.895C358.536 157.895 359.094 157.398 359.094 156.716V150.637C359.094 150.017 358.598 149.458 357.915 149.458C357.295 149.458 356.737 149.955 356.737 150.637V156.716C356.737 157.398 357.233 157.895 357.915 157.895Z" fill="#F0DBFC"/>
<path d="M357.915 133.517C358.536 133.517 359.094 133.02 359.094 132.338V130.663H360.769C361.389 130.663 361.947 130.167 361.947 129.485C361.947 128.864 361.451 128.306 360.769 128.306H357.915C357.295 128.306 356.737 128.802 356.737 129.485V132.338C356.737 133.02 357.233 133.517 357.915 133.517Z" fill="#F0DBFC"/>
<path d="M377.455 130.663H383.038C383.658 130.663 384.216 130.167 384.216 129.485C384.216 128.864 383.72 128.306 383.038 128.306H377.455C376.835 128.306 376.276 128.802 376.276 129.485C376.276 130.167 376.773 130.663 377.455 130.663Z" fill="#F0DBFC"/>
<path d="M366.289 130.663H371.872C372.492 130.663 373.051 130.167 373.051 129.485C373.051 128.864 372.554 128.306 371.872 128.306H366.289C365.669 128.306 365.111 128.802 365.111 129.485C365.173 130.167 365.669 130.663 366.289 130.663Z" fill="#F0DBFC"/>
<path d="M444.201 130.663H449.783C450.404 130.663 450.962 130.167 450.962 129.485C450.962 128.864 450.466 128.306 449.783 128.306H444.201C443.58 128.306 443.022 128.802 443.022 129.485C443.022 130.167 443.58 130.663 444.201 130.663Z" fill="#F0DBFC"/>
<path d="M421.931 130.663H427.514C428.134 130.663 428.693 130.167 428.693 129.485C428.693 128.864 428.196 128.306 427.514 128.306H421.931C421.311 128.306 420.753 128.802 420.753 129.485C420.753 130.167 421.311 130.663 421.931 130.663Z" fill="#F0DBFC"/>
<path d="M410.828 130.663H416.41C417.031 130.663 417.589 130.167 417.589 129.485C417.589 128.864 417.093 128.306 416.41 128.306H410.828C410.207 128.306 409.649 128.802 409.649 129.485C409.649 130.167 410.145 130.663 410.828 130.663Z" fill="#F0DBFC"/>
<path d="M433.097 130.663H438.68C439.3 130.663 439.858 130.167 439.858 129.485C439.858 128.864 439.362 128.306 438.68 128.306H433.097C432.477 128.306 431.918 128.802 431.918 129.485C431.918 130.167 432.414 130.663 433.097 130.663Z" fill="#F0DBFC"/>
<path d="M388.559 130.663H394.141C394.762 130.663 395.32 130.167 395.32 129.485C395.32 128.864 394.824 128.306 394.141 128.306H388.559C387.938 128.306 387.38 128.802 387.38 129.485C387.38 130.167 387.938 130.663 388.559 130.663Z" fill="#F0DBFC"/>
<path d="M405.245 128.368H399.662C399.042 128.368 398.484 128.864 398.484 129.547C398.484 130.167 398.98 130.725 399.662 130.725H405.245C405.865 130.725 406.424 130.229 406.424 129.547C406.424 128.864 405.865 128.368 405.245 128.368Z" fill="#F0DBFC"/>
<path d="M458.156 128.368H455.303C454.683 128.368 454.125 128.864 454.125 129.547C454.125 130.167 454.621 130.725 455.303 130.725H456.978V132.4C456.978 133.02 457.474 133.579 458.156 133.579C458.777 133.579 459.335 133.082 459.335 132.4V129.547C459.335 128.864 458.839 128.368 458.156 128.368Z" fill="#F0DBFC"/>
<path d="M458.157 149.458C457.537 149.458 456.979 149.955 456.979 150.637V156.716C456.979 157.336 457.475 157.895 458.157 157.895C458.778 157.895 459.336 157.398 459.336 156.716V150.637C459.336 150.017 458.84 149.458 458.157 149.458Z" fill="#F0DBFC"/>
<path d="M458.157 137.3C457.537 137.3 456.979 137.797 456.979 138.479V144.558C456.979 145.178 457.475 145.737 458.157 145.737C458.778 145.737 459.336 145.24 459.336 144.558V138.479C459.336 137.797 458.84 137.3 458.157 137.3Z" fill="#F0DBFC"/>
<path d="M402.081 174.084H357.854C357.233 174.084 356.675 174.581 356.675 175.263V211.427C356.675 212.047 357.171 212.605 357.854 212.605H402.081C402.702 212.605 403.26 212.109 403.26 211.427V175.263C403.26 174.581 402.764 174.084 402.081 174.084ZM359.094 210.186V176.38H400.965V210.186H359.094Z" fill="#F0DBFC"/>
<path d="M457.226 174.084H412.999C412.378 174.084 411.82 174.581 411.82 175.263V211.427C411.82 212.047 412.316 212.605 412.999 212.605H457.226C457.847 212.605 458.405 212.109 458.405 211.427V175.263C458.405 174.581 457.847 174.084 457.226 174.084ZM414.177 210.186V176.38H456.048V210.186H414.177Z" fill="#F0DBFC"/>
<path d="M544.007 220.607H472.982C470.253 220.607 468.02 218.374 468.02 215.645V121.793C468.02 119.064 470.253 116.83 472.982 116.83H544.007C546.736 116.83 548.969 119.064 548.969 121.793V215.583C548.969 218.374 546.736 220.607 544.007 220.607Z" fill="#EAD2F9"/>
<path d="M528.438 141.829H482.597V143.876H528.438V141.829Z" fill="white"/>
<path d="M528.438 148.466H482.597V150.513H528.438V148.466Z" fill="white"/>
<path d="M513.178 155.041H482.597V157.088H513.178V155.041Z" fill="white"/>
<path d="M528.438 161.678H482.597V163.725H528.438V161.678Z" fill="white"/>
<path d="M513.178 168.316H482.597V170.363H513.178V168.316Z" fill="white"/>
<path d="M528.438 174.891H482.597V176.938H528.438V174.891Z" fill="white"/>
<path d="M513.178 181.528H482.597V183.575H513.178V181.528Z" fill="white"/>
<path d="M528.438 188.165H482.597V190.212H528.438V188.165Z" fill="white"/>
<path d="M513.178 194.803H482.597V196.85H513.178V194.803Z" fill="white"/>
<path d="M504.742 136.184H485.885C484.086 136.184 482.597 134.695 482.597 132.896C482.597 131.097 484.086 129.609 485.885 129.609H504.742C506.541 129.609 508.03 131.097 508.03 132.896C508.03 134.757 506.541 136.184 504.742 136.184Z" fill="#9909B7"/>
<path d="M252.279 124.646H164.444C161.715 124.646 159.482 122.413 159.482 119.684V38.4241C159.482 35.6948 161.715 33.4617 164.444 33.4617H252.279C255.009 33.4617 257.242 35.6948 257.242 38.4241V119.622C257.242 122.413 255.009 124.646 252.279 124.646Z" fill="#EAD2F9"/>
<path d="M216.053 99.3999H166.615V101.571H216.053V99.3999Z" fill="#9909B7"/>
<path d="M199.553 106.533H166.615V108.704H199.553V106.533Z" fill="#9909B7"/>
<path d="M246.697 119.684H240.307C237.206 119.684 234.725 117.203 234.725 114.101V107.712C234.725 104.61 237.206 102.129 240.307 102.129H246.697C249.798 102.129 252.279 104.61 252.279 107.712V114.101C252.279 117.203 249.798 119.684 246.697 119.684Z" fill="#9909B7"/>
<path d="M257.242 92.7627H159.482V38.4241C159.482 35.6948 161.715 33.4617 164.445 33.4617H252.28C255.009 33.4617 257.242 35.6948 257.242 38.4241V92.7627Z" fill="#2159FF"/>
<path d="M159.482 64.0426C159.482 64.0426 173.563 81.4732 190.869 80.1085C208.176 78.7438 214.937 67.5784 229.762 67.5784C248.992 67.5784 257.242 73.4712 257.242 73.4712V92.8247H159.482V64.0426Z" fill="#0008FF"/>
<path d="M182.557 59.8866C185.297 59.8866 187.519 57.6648 187.519 54.9242C187.519 52.1835 185.297 49.9617 182.557 49.9617C179.816 49.9617 177.594 52.1835 177.594 54.9242C177.594 57.6648 179.816 59.8866 182.557 59.8866Z" fill="white"/>
<path opacity="0.6" d="M204.454 66.4618H198.438V69.1911H204.454V66.4618Z" fill="#0008FF"/>
<path opacity="0.6" d="M214.539 45.6231L209.89 41.8035L208.157 43.9125L212.807 47.732L214.539 45.6231Z" fill="#0008FF"/>
<path opacity="0.6" d="M254.735 41.1553L249.234 43.5946L250.341 46.0895L255.841 43.6502L254.735 41.1553Z" fill="#0008FF"/>
<path opacity="0.6" d="M167.154 41.4586L164.759 35.9381L162.255 37.0241L164.649 42.5446L167.154 41.4586Z" fill="#0008FF"/>
<path d="M328.452 83.148H223.311C220.333 83.148 217.914 80.7288 217.914 77.7513V57.8396C217.914 54.8622 220.333 52.443 223.311 52.443H328.452C331.429 52.443 333.849 54.8622 333.849 57.8396V77.7513C333.849 80.7288 331.429 83.148 328.452 83.148Z" fill="#EAD2F9"/>
<path d="M319.519 59.9487H232.243V62.0577H319.519V59.9487Z" fill="white"/>
<path d="M319.52 66.772H232.244V68.881H319.52V66.772Z" fill="white"/>
<path d="M290.428 73.5953H232.244V75.7044H290.428V73.5953Z" fill="white"/>
<path d="M431.982 153.428C431.982 153.428 428.446 148.032 427.888 144.558C427.329 141.084 428.88 137.921 432.726 136.432C436.572 134.943 439.735 136.99 440.852 138.231C442.217 139.658 442.341 141.953 442.713 145.675C443.209 149.831 431.982 153.428 431.982 153.428Z" fill="#E64D4E"/>
<path d="M431.486 151.754C431.486 151.754 432.416 154.421 432.416 155.351C432.416 156.282 432.354 160.996 432.478 161.182C432.664 161.368 437.192 163.477 438.929 163.229C440.666 162.981 443.023 160.314 442.961 159.942C442.899 159.507 442.155 155.661 442.217 155.227C442.341 154.669 432.974 151.071 431.486 151.754Z" fill="url(#paint3_linear)"/>
<path d="M437.627 140.464C439.984 139.782 441.472 140.526 441.783 141.394C442.093 142.263 443.395 147.349 443.768 148.404C444.14 149.458 444.078 155.413 442.031 156.034C439.984 156.654 435.642 156.282 434.091 154.359C432.54 152.436 431.61 151.816 431.175 151.505C430.741 151.195 429.004 149.272 429.128 148.466C429.252 147.66 429.687 147.101 430.245 147.411C430.741 147.722 431.796 148.652 432.106 149.396C432.292 149.831 431.486 143.193 432.974 142.325C434.277 141.519 437.627 140.464 437.627 140.464Z" fill="#F2DAD4"/>
<path d="M462.376 288.468C463.182 289.833 465.85 293.555 466.408 294.485C466.966 295.416 467.587 296.967 467.152 297.091C466.718 297.215 464.299 297.959 462.004 297.711C459.709 297.463 457.228 296.718 456.917 295.974C456.669 295.23 456.793 293.803 456.297 293.679C455.801 293.555 454.436 293.679 453.506 293.183C452.637 292.686 452.327 292.562 452.327 292.19C452.327 291.88 452.079 289.337 452.389 288.592C452.761 287.848 462.376 288.468 462.376 288.468Z" fill="url(#paint4_linear)"/>
<path d="M425.096 288.779C424.414 289.461 418.273 294.671 417.714 295.54C417.156 296.408 417.404 297.401 417.714 297.649C418.024 297.897 419.761 298.579 421.684 298.393C423.607 298.207 427.267 297.463 428.383 296.222C429.438 294.92 430.244 293.555 430.679 293.679C431.113 293.741 431.857 294.423 433.16 293.989C434.462 293.555 435.889 293.059 436.013 292.748C436.137 292.438 436.199 290.267 435.951 289.895C435.703 289.523 425.096 288.779 425.096 288.779Z" fill="url(#paint5_linear)"/>
<path d="M425.282 208.201C424.91 210.682 423.793 221.6 424.041 227.368C424.289 233.137 427.019 250.94 426.646 255.964C426.274 260.989 427.143 278.73 426.274 281.273C425.406 283.816 424.413 289.027 424.662 289.275C425.22 289.957 429.81 291.074 431.547 291.074C433.346 291.074 435.765 290.639 436.075 290.143C436.447 289.647 435.393 279.846 435.951 275.504C436.509 271.162 438.06 260.183 438.06 257.825C438.06 255.468 439.549 236.425 439.673 235.06C439.735 233.696 439.859 229.167 440.355 229.167C440.851 229.167 442.65 236.735 442.96 238.224C443.271 239.713 448.543 256.027 449.164 264.277C449.784 272.527 451.148 282.886 451.024 283.94C450.9 284.995 452.203 290.329 454.064 290.391C455.925 290.515 458.716 289.523 459.895 289.275C461.073 289.027 462.624 289.275 462.748 288.592C462.872 287.972 460.143 280.466 459.957 279.412C459.771 278.357 460.701 266.696 460.143 263.16C459.585 259.624 458.158 253.483 457.848 251.932C457.538 250.382 458.034 237.231 458.034 234.254C458.034 231.338 455.925 210.744 454.374 208.511C452.823 206.402 425.282 208.201 425.282 208.201Z" fill="#192B59"/>
<path d="M398.671 119.498C398.299 120.49 399.54 123.592 399.912 124.274C400.284 125.018 401.276 131.532 401.214 132.214C401.152 132.896 401.152 134.757 401.338 134.881C401.463 135.005 403.199 135.936 404.75 135.75C406.301 135.564 406.797 133.889 406.735 133.579C406.673 133.268 406.239 130.787 405.991 129.423C405.681 128.058 405.494 125.143 406.053 124.522C406.611 123.902 408.844 122.537 408.906 121.855C409.03 121.173 408.968 118.319 408.472 117.761C407.976 117.203 406.673 117.823 406.363 117.823C406.053 117.823 405.494 118.195 405.556 118.505C405.619 118.815 406.301 119.374 406.487 119.374C406.673 119.374 406.921 119.498 406.921 119.684C406.921 119.932 406.549 120.118 406.425 120.118C406.301 120.118 406.549 119.312 405.619 119.312C404.688 119.312 400.594 118.567 400.284 118.505C399.974 118.381 398.857 118.939 398.671 119.498Z" fill="url(#paint6_linear)"/>
<path d="M473.294 113.109C473.852 113.977 473.108 117.265 472.922 118.071C472.673 118.877 472.86 125.453 473.046 126.135C473.17 126.817 473.542 128.616 473.418 128.74C473.294 128.864 471.805 130.105 470.254 130.229C468.704 130.353 467.959 128.74 467.897 128.43C467.897 128.12 467.835 125.639 467.897 124.212C467.959 122.785 467.649 119.87 466.967 119.374C466.284 118.877 463.865 117.885 463.679 117.265C463.431 116.644 462.997 113.791 463.369 113.171C463.741 112.55 465.168 112.923 465.478 112.86C465.788 112.86 466.408 113.047 466.408 113.357C466.408 113.667 465.788 114.349 465.602 114.411C465.416 114.473 465.23 114.597 465.23 114.783C465.292 115.032 465.664 115.156 465.788 115.094C465.912 115.032 465.478 114.349 466.47 114.163C467.401 113.977 471.309 112.55 471.557 112.426C471.805 112.302 472.984 112.612 473.294 113.109Z" fill="url(#paint7_linear)"/>
<path d="M398.857 135.874C398.547 137.859 402.145 145.24 402.641 146.791C403.2 148.404 407.418 157.398 407.914 158.019C408.41 158.639 412.876 162.299 414.675 164.656C416.474 166.951 421.25 170.549 422.057 171.355C422.863 172.224 424.786 177.806 424.538 185.312C424.29 192.818 421.871 209.814 422.305 210.186C422.739 210.558 433.408 209.938 439.239 210.124C445.07 210.31 459.337 211.117 459.709 210.124C460.081 209.132 453.32 186.242 453.258 182.645C453.258 179.109 454.809 169.928 456.67 168.067C458.531 166.207 469.634 155.785 471.371 151.567C473.108 147.349 474.907 131.035 474.783 129.609C474.659 128.182 467.339 128.182 467.029 128.926C466.719 129.671 466.036 141.519 464.796 143.752C463.617 145.985 457.042 155.972 455.553 156.406C454.126 156.84 446.063 159.879 444.884 159.383C443.643 158.887 443.643 156.096 442.899 156.158C442.155 156.158 442.031 157.646 440.914 157.708C439.797 157.833 439.984 159.011 439.984 160.19C439.984 161.368 438.557 162.733 437.812 162.547C437.13 162.299 435.269 159.011 434.215 158.701C433.16 158.391 431.982 158.515 431.671 158.887C431.299 159.259 430.989 159.693 430.307 159.259C429.562 158.763 423.546 158.329 422.863 158.329C422.181 158.391 420.568 157.895 419.7 156.344C418.831 154.793 413.186 149.582 413.062 149.024C412.938 148.466 410.271 142.573 409.899 141.208C409.527 139.844 408.348 134.075 407.48 133.703C406.611 133.331 403.82 133.579 402.517 133.889C401.277 134.075 398.981 135.315 398.857 135.874Z" fill="url(#paint8_linear)"/>
<path d="M237.888 278.544C182.681 278.544 164.32 245.792 162.397 228.485C160.909 215.459 162.769 205.968 168.166 199.641C173.067 193.81 181.006 190.647 192.172 190.026V195.733C182.557 196.291 176.416 198.711 172.57 203.301C168.29 208.387 166.801 216.451 168.104 227.865C169.903 243.434 186.775 272.837 237.95 272.837C257.552 272.837 271.757 267.812 282.736 257.019C292.847 247.094 299.422 233.385 307.052 217.506C318.031 194.554 330.562 168.502 357.855 146.109C373.3 133.455 390.793 122.909 409.774 114.783C411.201 114.163 412.876 114.845 413.496 116.272C414.116 117.699 413.434 119.374 412.007 119.994C393.522 127.872 376.464 138.169 361.453 150.451C335.09 172.037 322.932 197.47 312.139 219.863C304.633 235.557 297.561 250.32 286.706 260.989C274.61 273.023 259.103 278.544 237.888 278.544Z" fill="url(#paint9_linear)"/>
<path d="M518.203 290.95C517.521 290.95 516.839 290.888 516.218 290.826C508.154 290.019 500.339 284.064 493.577 273.519C489.855 267.75 486.32 260.059 483.218 251.436H489.235C496.679 271.596 506.728 284.126 516.839 285.119C523.166 285.739 530.609 282.017 537.805 274.512C545.745 266.324 552.63 254.662 557.282 241.573C562.307 227.369 564.044 213.102 562.369 200.385C559.826 180.97 548.598 162.051 530.733 147.039C512.186 131.47 487.933 120.924 460.639 116.52C459.088 116.272 458.034 114.783 458.282 113.233C458.53 111.682 460.019 110.627 461.57 110.876C489.855 115.404 515.04 126.445 534.393 142.635C553.375 158.515 565.284 178.799 568.014 199.641C571.922 229.664 557.841 262.043 541.899 278.482C533.959 286.67 525.833 290.95 518.203 290.95Z" fill="url(#paint10_linear)"/>
<path d="M400.035 118.505C400.47 118.257 400.966 117.451 401.338 117.451C401.772 117.451 401.772 117.513 401.896 117.451C402.02 117.389 402.331 116.644 402.827 116.582C403.323 116.458 403.757 116.706 403.819 116.644C403.881 116.582 404.005 116.024 404.502 116.086C404.998 116.148 405.122 116.458 405.246 116.458C405.37 116.396 405.804 116.024 406.176 116.272C406.549 116.52 406.859 117.141 406.859 117.389C406.859 117.637 406.921 119.498 406.487 119.622C406.052 119.746 405.68 119.808 405.494 119.684C405.308 119.56 405.122 120.304 404.75 120.304C404.378 120.304 404.067 120.056 403.943 120.056C403.819 120.056 403.819 120.552 403.261 120.552C402.703 120.552 402.455 120.18 402.331 120.18C402.206 120.18 402.02 120.614 401.462 120.552C400.904 120.49 400.594 120.304 400.594 119.932C400.594 119.56 400.718 119.126 400.47 119.126C400.346 119.001 400.035 118.505 400.035 118.505Z" fill="url(#paint11_linear)"/>
<path d="M471.804 112.426C471.308 112.24 470.75 111.558 470.315 111.62C469.881 111.682 469.881 111.744 469.757 111.744C469.633 111.682 469.199 111.062 468.703 111.062C468.206 111.062 467.834 111.31 467.772 111.31C467.71 111.31 467.462 110.751 466.966 110.876C466.469 111 466.469 111.372 466.345 111.31C466.221 111.31 465.725 111 465.415 111.31C465.105 111.62 464.857 112.302 464.919 112.55C464.981 112.798 465.229 114.597 465.663 114.659C466.097 114.721 466.47 114.659 466.594 114.535C466.718 114.411 467.09 115.094 467.462 115.032C467.834 114.97 468.082 114.659 468.206 114.659C468.33 114.659 468.392 115.156 468.951 115.032C469.509 114.908 469.695 114.473 469.819 114.473C469.943 114.473 470.191 114.845 470.75 114.659C471.308 114.535 471.556 114.287 471.494 113.915C471.432 113.543 471.246 113.171 471.432 113.047C471.556 112.923 471.804 112.426 471.804 112.426Z" fill="url(#paint12_linear)"/>
<path d="M430.615 107.588L424.474 109.635C423.916 109.821 423.358 109.511 423.172 109.015C422.985 108.456 423.296 107.898 423.792 107.712L429.933 105.665C430.491 105.479 431.049 105.789 431.235 106.285C431.422 106.844 431.111 107.402 430.615 107.588Z" fill="#192B59"/>
<path d="M432.848 114.287L426.707 116.334C426.149 116.52 425.59 116.21 425.404 115.714C425.218 115.156 425.528 114.597 426.024 114.411L432.166 112.364C432.724 112.178 433.282 112.488 433.468 112.985C433.654 113.543 433.344 114.101 432.848 114.287Z" fill="#192B59"/>
<path d="M426.212 121.731L420.567 123.592C415.604 125.267 410.208 122.537 408.595 117.575C406.92 112.612 409.649 107.216 414.612 105.603L420.257 103.742L426.212 121.731Z" fill="#FFAC00"/>
<path d="M427.7 122.599C427.079 122.785 426.459 122.475 426.211 121.855L420.132 103.556C419.946 102.936 420.256 102.315 420.876 102.067C421.497 101.881 422.117 102.191 422.365 102.812L428.444 121.111C428.63 121.731 428.32 122.413 427.7 122.599Z" fill="#FFAC00"/>
<path d="M450.341 102.067L456.172 103.246C461.321 104.3 464.67 109.263 463.616 114.411C462.561 119.56 457.599 122.909 452.45 121.855L446.62 120.676L450.341 102.067Z" fill="#FFAC00"/>
<path d="M218.658 223.771H122.325C119.596 223.771 117.363 221.538 117.363 218.808V145.426C117.363 142.697 119.596 140.464 122.325 140.464H218.721C221.45 140.464 223.683 142.697 223.683 145.426V218.746C223.621 221.538 221.45 223.771 218.658 223.771Z" fill="#EAD2F9"/>
<path d="M156.628 146.233H124.683V150.947H156.628V146.233Z" fill="#9909B7"/>
<path d="M214.131 203.859H128.405C126.358 203.859 124.683 202.184 124.683 200.137V160.438C124.683 158.391 126.358 156.716 128.405 156.716H214.131C216.178 156.716 217.852 158.391 217.852 160.438V200.137C217.852 202.184 216.24 203.859 214.131 203.859Z" fill="white"/>
<path d="M177.036 172.41H129.892V174.519H177.036V172.41Z" fill="#D3D6DB"/>
<path d="M177.036 179.233H129.892V181.342H177.036V179.233Z" fill="#D3D6DB"/>
<path d="M161.342 186.056H129.892V188.165H161.342V186.056Z" fill="#D3D6DB"/>
<path d="M205.508 198.586H199.925C196.823 198.586 194.342 196.105 194.342 193.004V187.421C194.342 184.319 196.823 181.838 199.925 181.838H205.508C208.609 181.838 211.09 184.319 211.09 187.421V193.004C211.09 196.105 208.547 198.586 205.508 198.586Z" fill="#9909B7"/>
<path d="M152.658 166.641H133.304C131.443 166.641 129.892 165.09 129.892 163.229C129.892 161.368 131.443 159.817 133.304 159.817H152.658C154.518 159.817 156.069 161.368 156.069 163.229C156.069 165.152 154.581 166.641 152.658 166.641Z" fill="#9909B7"/>
<path d="M157.497 226.81C160.351 227.555 171.206 227.12 169.097 221.786C166.802 215.831 160.661 221.041 157.993 224.329C158.986 219.056 159.11 213.722 159.11 210.868C161.033 208.511 165.189 193.686 157.063 194.368C146.456 195.361 155.822 209.38 158.304 210.992C158.304 214.404 158.055 221.227 156.505 227.12C156.195 223.399 152.411 212.729 147.448 216.451C140.253 221.91 154.024 228.485 156.133 228.361C155.45 230.532 154.644 232.517 153.527 234.068C152.721 235.184 151.852 236.549 150.922 237.976L150.86 238.038C150.426 234.068 146.704 223.957 141.866 227.617C135.166 232.703 146.704 238.782 149.992 239.464C147.945 242.752 145.898 246.536 144.285 250.134C144.037 246.598 137.089 239.278 134.298 243.434C132.747 245.729 140.935 253.297 143.664 251.622C142.114 255.406 141.183 258.88 141.493 261.485C141.617 262.416 141.804 263.532 141.99 264.773C140.067 262.664 133.181 255.53 131.072 261.051C129.335 265.579 135.042 268.246 137.461 268.246C139.322 268.246 141.307 266.448 142.114 265.703C142.238 266.386 142.362 267.006 142.486 267.75C143.478 273.333 144.595 280.094 144.285 284.188C142.672 281.025 135.352 267.812 131.134 276.31C128.963 280.653 135.104 284.312 137.523 285.119C139.508 285.801 142.982 285.181 144.223 284.933C144.161 285.367 144.099 285.801 143.975 286.173C142.424 290.888 139.26 295.602 139.198 295.664C139.074 295.85 139.136 296.098 139.322 296.222C139.384 296.284 139.446 296.284 139.57 296.284C139.694 296.284 139.819 296.222 139.881 296.098C139.881 296.036 142.238 292.5 143.913 288.468C145.773 288.22 153.031 287.228 155.14 285.863C157.559 284.25 161.839 278.978 158.366 277.055C152.969 274.077 147.262 282.017 144.781 286.173C145.711 283.072 144.905 276.869 143.913 271.038C145.836 271.596 152.163 270.48 154.334 269.053C156.753 267.44 160.847 263.284 158.304 261.051C151.977 255.406 145.215 267.378 143.726 270.231C143.602 269.301 143.416 268.433 143.292 267.564C142.92 265.269 142.486 263.036 142.3 261.361C141.99 259.004 142.92 255.53 144.471 251.684C145.711 252.057 149.992 253.235 154.706 252.615C160.289 251.808 163.142 247.466 161.095 245.419C157.621 241.946 147.386 249.141 144.719 251.126C146.332 247.342 148.565 243.186 151.046 239.216C154.334 239.961 167.298 239.713 165.561 234.564C163.824 229.415 157.125 232.889 153.217 235.929C153.527 235.432 153.837 234.998 154.21 234.502C155.76 232.455 156.753 229.726 157.497 226.81Z" fill="url(#paint13_linear)"/>
<path d="M134.36 276.31C127.66 273.643 125.985 283.878 125.675 287.29C124.187 282.389 123.566 276.372 124.249 271.534C125.241 271.534 129.211 271.348 132.002 269.921C135.228 268.309 137.151 261.919 134.422 261.113C129.769 259.81 125.675 267.874 124.435 270.604C124.559 269.983 124.683 269.363 124.807 268.805C125.799 265.083 126.544 260.245 126.916 255.468C128.157 255.468 131.692 255.344 133.677 254.662C136.096 253.855 140.128 247.59 136.903 246.66C132.437 245.357 128.405 251.808 127.04 254.414C127.288 249.451 127.102 244.737 126.234 241.449C126.606 240.023 127.288 236.983 127.288 234.626C127.288 231.4 123.566 225.135 120.093 228.237C113.703 233.882 123.256 240.519 125.551 241.946C126.296 245.109 126.482 249.761 126.234 254.538C124.807 250.94 119.038 237.976 112.091 244.241C109.423 246.66 115.316 252.243 119.286 253.855C122.45 255.158 125.179 255.406 126.172 255.468C125.861 260.121 125.117 264.897 124.125 268.557C123.938 269.239 123.814 269.921 123.69 270.666C122.202 267.626 115.13 254.6 107.314 260.245C104.089 262.602 110.54 268.246 113.703 269.859C116.433 271.224 122.016 271.286 123.566 271.286C122.884 276.124 123.504 282.079 124.931 287.042C122.574 283.506 115.688 274.388 110.478 280.218C107.376 283.692 115.378 286.669 117.673 287.414C119.658 288.096 123.938 288.282 125.303 288.344C126.42 291.756 127.97 294.609 129.769 296.16C129.831 296.222 129.955 296.222 130.017 296.222C130.142 296.222 130.266 296.16 130.328 296.098C130.452 295.912 130.452 295.664 130.266 295.54C128.529 294.113 127.04 291.384 125.985 288.096C127.04 287.662 130.079 286.359 132.002 285.057C134.36 283.506 138.081 277.799 134.36 276.31Z" fill="url(#paint14_linear)"/>
<path d="M151.542 296.346H115.13C114.882 296.346 114.758 296.16 114.758 295.974C114.758 295.726 114.944 295.602 115.13 295.602H151.542C151.79 295.602 151.914 295.788 151.914 295.974C151.914 296.16 151.728 296.346 151.542 296.346Z" fill="#7500B2"/>
<path d="M164.321 296.346H155.947C155.699 296.346 155.574 296.16 155.574 295.974C155.574 295.726 155.761 295.602 155.947 295.602H164.321C164.569 295.602 164.693 295.788 164.693 295.974C164.755 296.16 164.569 296.346 164.321 296.346Z" fill="#7500B2"/>
<path d="M599.959 245.233C602.068 245.792 610.008 245.481 608.52 241.511C606.845 237.169 602.317 240.953 600.394 243.372C601.138 239.526 601.2 235.556 601.2 233.447C602.627 231.711 605.666 220.793 599.711 221.352C591.895 222.034 598.843 232.393 600.642 233.572C600.642 236.115 600.456 241.077 599.339 245.419C599.091 242.69 596.362 234.812 592.702 237.604C587.429 241.635 597.54 246.474 599.091 246.35C598.595 247.963 597.974 249.389 597.168 250.568C596.61 251.436 595.927 252.367 595.245 253.421C595.245 253.421 595.245 253.421 595.183 253.483C594.873 250.568 592.144 243.124 588.546 245.854C583.583 249.575 592.082 254.042 594.501 254.6C593.012 257.019 591.461 259.81 590.283 262.478C590.097 259.872 584.948 254.476 582.963 257.577C581.847 259.314 587.863 264.835 589.848 263.594C588.732 266.386 588.05 268.929 588.298 270.852C588.36 271.534 588.484 272.34 588.67 273.271C587.243 271.72 582.157 266.51 580.668 270.542C579.427 273.891 583.583 275.814 585.382 275.814C586.747 275.814 588.236 274.512 588.794 273.953C588.856 274.45 588.98 274.946 589.042 275.442C589.724 279.536 590.593 284.498 590.345 287.538C589.166 285.181 583.769 275.504 580.668 281.769C579.055 284.995 583.583 287.662 585.382 288.22C586.809 288.716 589.414 288.282 590.283 288.096C590.221 288.406 590.159 288.717 590.097 289.027C588.918 292.5 586.623 295.974 586.623 296.036C586.561 296.16 586.561 296.346 586.685 296.47C586.747 296.532 586.809 296.532 586.871 296.532C586.995 296.532 587.057 296.47 587.119 296.408C587.119 296.408 588.856 293.741 590.097 290.826C591.461 290.639 596.796 289.895 598.347 288.903C600.083 287.724 603.247 283.878 600.704 282.451C596.734 280.218 592.578 286.111 590.717 289.151C591.399 286.856 590.779 282.327 590.097 278.047C591.523 278.482 596.176 277.675 597.788 276.559C599.525 275.38 602.565 272.34 600.704 270.666C596.051 266.51 591.089 275.318 589.973 277.427C589.848 276.745 589.724 276.124 589.662 275.442C589.352 273.705 589.104 272.092 588.918 270.914C588.67 269.177 589.352 266.634 590.531 263.842C591.461 264.152 594.625 265.021 598.036 264.525C602.13 263.966 604.239 260.741 602.751 259.252C600.208 256.709 592.64 261.981 590.717 263.408C591.895 260.617 593.57 257.577 595.369 254.662C597.788 255.22 607.341 255.034 606.038 251.188C604.736 247.404 599.835 249.948 596.982 252.181C597.23 251.808 597.478 251.498 597.664 251.126C598.657 249.389 599.401 247.342 599.959 245.233Z" fill="url(#paint15_linear)"/>
<path d="M582.901 281.645C577.938 279.66 576.76 287.228 576.511 289.709C575.395 286.111 574.961 281.707 575.457 278.109C576.201 278.109 579.117 277.923 581.164 276.931C583.521 275.752 584.948 271.038 582.901 270.48C579.489 269.487 576.449 275.442 575.519 277.489C575.581 277.055 575.705 276.621 575.829 276.186C576.573 273.457 577.132 269.859 577.38 266.386C578.31 266.386 580.916 266.262 582.342 265.827C584.079 265.269 587.119 260.617 584.699 259.934C581.412 259.004 578.496 263.718 577.442 265.641C577.628 261.981 577.504 258.508 576.884 256.151C577.132 255.096 577.628 252.863 577.628 251.126C577.628 248.769 574.899 244.117 572.355 246.412C567.703 250.568 574.713 255.406 576.387 256.523C576.946 258.88 577.07 262.23 576.884 265.765C575.829 263.098 571.611 253.607 566.525 258.198C564.54 259.934 568.882 264.09 571.797 265.269C574.154 266.199 576.139 266.386 576.822 266.448C576.573 269.859 576.015 273.333 575.333 276.062C575.209 276.559 575.085 277.055 575.023 277.613C573.906 275.38 568.696 265.827 562.989 269.983C560.632 271.72 565.346 275.876 567.703 277.055C569.75 278.047 573.844 278.109 574.961 278.109C574.464 281.645 574.899 286.049 575.953 289.709C574.216 287.104 569.192 280.404 565.346 284.685C563.051 287.228 568.944 289.399 570.619 289.957C572.107 290.453 575.271 290.577 576.263 290.639C577.07 293.183 578.248 295.23 579.551 296.346C579.613 296.408 579.675 296.408 579.737 296.408C579.799 296.408 579.923 296.346 579.985 296.284C580.109 296.16 580.047 295.974 579.923 295.85C578.682 294.795 577.566 292.81 576.76 290.391C577.504 290.081 579.737 289.089 581.164 288.158C582.901 286.918 585.63 282.7 582.901 281.645Z" fill="url(#paint16_linear)"/>
<path d="M595.555 296.346H568.82C568.634 296.346 568.51 296.222 568.51 296.036C568.51 295.85 568.634 295.726 568.82 295.726H595.555C595.741 295.726 595.865 295.85 595.865 296.036C595.865 296.222 595.741 296.346 595.555 296.346Z" fill="#7500B2"/>
<path d="M604.984 296.346H598.781C598.595 296.346 598.471 296.222 598.471 296.036C598.471 295.85 598.595 295.726 598.781 295.726H604.984C605.17 295.726 605.294 295.85 605.294 296.036C605.232 296.222 605.108 296.346 604.984 296.346Z" fill="#7500B2"/>
<defs>
<linearGradient id="paint0_linear" x1="418.616" y1="303.355" x2="418.088" y2="284.85" gradientUnits="userSpaceOnUse">
<stop stop-color="#510394"/>
<stop offset="0.1211" stop-color="#4A0388"/>
<stop offset="0.3418" stop-color="#380367"/>
<stop offset="0.6349" stop-color="#1B0433"/>
<stop offset="0.8488" stop-color="#030408"/>
</linearGradient>
<linearGradient id="paint1_linear" x1="157.326" y1="299.585" x2="157.043" y2="289.694" gradientUnits="userSpaceOnUse">
<stop stop-color="#510394"/>
<stop offset="0.1211" stop-color="#4A0388"/>
<stop offset="0.3418" stop-color="#380367"/>
<stop offset="0.6349" stop-color="#1B0433"/>
<stop offset="0.8488" stop-color="#030408"/>
</linearGradient>
<linearGradient id="paint2_linear" x1="348.232" y1="294.111" x2="346.169" y2="236.332" gradientUnits="userSpaceOnUse">
<stop stop-color="#510394"/>
<stop offset="0.1426" stop-color="#4A0388"/>
<stop offset="0.4026" stop-color="#380367"/>
<stop offset="0.7479" stop-color="#1B0433"/>
<stop offset="1" stop-color="#030408"/>
</linearGradient>
<linearGradient id="paint3_linear" x1="440.203" y1="149.023" x2="434.35" y2="162.382" gradientUnits="userSpaceOnUse">
<stop stop-color="#F2BFAD"/>
<stop offset="0.7354" stop-color="#F2DAD4"/>
</linearGradient>
<linearGradient id="paint4_linear" x1="454.183" y1="293.755" x2="464.418" y2="292.152" gradientUnits="userSpaceOnUse">
<stop stop-color="#1D0633"/>
<stop offset="1" stop-color="#192B59"/>
</linearGradient>
<linearGradient id="paint5_linear" x1="436.858" y1="295.917" x2="420.547" y2="292.634" gradientUnits="userSpaceOnUse">
<stop stop-color="#1D0633"/>
<stop offset="1" stop-color="#192B59"/>
</linearGradient>
<linearGradient id="paint6_linear" x1="404.399" y1="118.247" x2="403.562" y2="122.351" gradientUnits="userSpaceOnUse">
<stop stop-color="#F2BFAD"/>
<stop offset="1" stop-color="#F2DAD4"/>
</linearGradient>
<linearGradient id="paint7_linear" x1="467.365" y1="112.722" x2="468.914" y2="116.614" gradientUnits="userSpaceOnUse">
<stop stop-color="#F2BFAD"/>
<stop offset="1" stop-color="#F2DAD4"/>
</linearGradient>
<linearGradient id="paint8_linear" x1="398.397" y1="168.583" x2="474.254" y2="169.69" gradientUnits="userSpaceOnUse">
<stop stop-color="#4E9CFF"/>
<stop offset="1" stop-color="#176AD4"/>
</linearGradient>
<linearGradient id="paint9_linear" x1="411.771" y1="163.998" x2="207.936" y2="238.664" gradientUnits="userSpaceOnUse">
<stop stop-color="#F2BE3C"/>
<stop offset="1" stop-color="#FFAC00"/>
</linearGradient>
<linearGradient id="paint10_linear" x1="509.088" y1="112.533" x2="519.988" y2="231.891" gradientUnits="userSpaceOnUse">
<stop stop-color="#F2BE3C"/>
<stop offset="1" stop-color="#FFAC00"/>
</linearGradient>
<linearGradient id="paint11_linear" x1="398.093" y1="119.865" x2="404.734" y2="118.104" gradientUnits="userSpaceOnUse">
<stop stop-color="#F2BFAD"/>
<stop offset="1" stop-color="#F2DAD4"/>
</linearGradient>
<linearGradient id="paint12_linear" x1="473.521" y1="115.593" x2="467.169" y2="112.679" gradientUnits="userSpaceOnUse">
<stop stop-color="#F2BFAD"/>
<stop offset="1" stop-color="#F2DAD4"/>
</linearGradient>
<linearGradient id="paint13_linear" x1="172.954" y1="226.833" x2="139.199" y2="252.149" gradientUnits="userSpaceOnUse">
<stop stop-color="#4E9CFF"/>
<stop offset="1" stop-color="#176AD4"/>
</linearGradient>
<linearGradient id="paint14_linear" x1="123.458" y1="248.069" x2="118.116" y2="298.291" gradientUnits="userSpaceOnUse">
<stop stop-color="#F2BE3C"/>
<stop offset="1" stop-color="#FFAC00"/>
</linearGradient>
<linearGradient id="paint15_linear" x1="611.307" y1="245.228" x2="586.487" y2="263.843" gradientUnits="userSpaceOnUse">
<stop stop-color="#4E9CFF"/>
<stop offset="1" stop-color="#176AD4"/>
</linearGradient>
<linearGradient id="paint16_linear" x1="574.912" y1="260.843" x2="570.983" y2="297.772" gradientUnits="userSpaceOnUse">
<stop stop-color="#F2BE3C"/>
<stop offset="1" stop-color="#FFAC00"/>
</linearGradient>
</defs>
</svg>
