<svg width="891" height="386" viewBox="0 0 891 386" preserveAspectRatio="none" fill="none" xmlns="http://www.w3.org/2000/svg">
<path fill-rule="evenodd" clip-rule="evenodd" d="M0 261.335V261.935L81.5411 288.825C68.0543 329.268 39.8901 363.192 2.60162 383.887C1.73781 384.367 0.87057 384.838 0 385.302V385.947C0.96346 385.436 1.92288 384.915 2.87811 384.385C40.2918 363.621 68.5505 329.582 82.0822 289.003C82.1394 288.832 82.1963 288.66 82.2528 288.489L82.2616 288.462L81.7205 288.284L0 261.335ZM0 83.9138V84.559C16.7354 93.47 32.008 105.187 45.0931 119.358C74.0244 150.69 90.1473 191.728 90.2898 234.361H0V234.93H90.2907H90.8605C90.8605 234.74 90.8602 234.55 90.8595 234.361C90.7171 191.585 74.5401 150.409 45.5117 118.971C32.3131 104.678 16.8963 92.872 0 83.9138Z" fill="#EFEBEC"/>
<path fill-rule="evenodd" clip-rule="evenodd" d="M891 266.504C874.877 271.563 857.722 274.291 839.93 274.291C745.843 274.291 669.57 198.018 669.57 103.93C669.57 64.8051 682.759 28.7605 704.934 0L704.215 0C682.127 28.7993 669 64.8317 669 103.93C669 198.332 745.528 274.86 839.93 274.86C857.719 274.86 874.873 272.143 891 267.101V266.504Z" fill="#EFEBEC"/>
</svg>
