<svg width="29" height="31" viewBox="0 0 29 31" xmlns="http://www.w3.org/2000/svg">
<path d="M25.6016 4.53874V0.458313H17.0488C16.0348 0.458313 15.1233 0.919231 14.5 1.64852C13.8767 0.919231 12.9652 0.458313 11.9512 0.458313H3.39844V4.53874H0V30.3956L4.6567 25.5884H29V4.53874H25.6016ZM13.6504 17.2896C13.1501 16.9902 12.57 16.8177 11.9512 16.8177H5.09766V15.0636H11.9512C12.8882 15.0636 13.6504 15.8507 13.6504 16.8177V17.2896ZM5.09766 18.5719H11.9512C12.8882 18.5719 13.6504 19.3589 13.6504 20.326H5.09766V18.5719ZM23.9023 16.8177H17.0488C16.43 16.8177 15.8499 16.9902 15.3496 17.2896V16.8177C15.3496 15.8507 16.1118 15.0636 17.0488 15.0636H23.9023V16.8177ZM23.9023 18.5719V20.326H15.3496C15.3496 19.3589 16.1118 18.5719 17.0488 18.5719H23.9023ZM17.0488 2.21245H23.9023V13.3094H17.0488C16.43 13.3094 15.8499 13.4819 15.3496 13.7813V3.96659C15.3496 2.9993 16.1118 2.21245 17.0488 2.21245ZM11.9512 2.21245C12.8882 2.21245 13.6504 2.9993 13.6504 3.96659V13.7813C13.1501 13.4819 12.57 13.3094 11.9512 13.3094H5.09766V2.21245H11.9512ZM27.3008 23.8343H3.95267L1.69922 26.1608V6.29288H3.39844V22.0801H25.6016V6.29288H27.3008V23.8343Z" fill="#675F7F"/>
</svg>
