<svg width="24" height="18" viewBox="0 0 24 18" fill="none" xmlns="http://www.w3.org/2000/svg">
<path d="M23.712 4.09046C22.4944 2.87655 20.7086 2.40096 19.527 2.08627C19.2998 2.02579 19.0854 1.96868 18.907 1.91475C18.1817 1.69518 17.7178 1.20101 17.5079 0.929274C17.5148 0.713737 17.3561 0.468439 17.0799 0.294348L16.7856 0.108775C16.6727 0.0376181 16.5433 0 16.4115 0C16.1487 0 15.9056 0.148055 15.7764 0.386555L11.9459 7.1549L8.30078 0.415612C8.1732 0.168954 7.92741 0.0158632 7.65862 0.0158632C7.53206 0.0158632 7.40718 0.0508122 7.29739 0.116833L6.99969 0.29601C6.71989 0.46431 6.55651 0.706435 6.55951 0.922223C6.34453 1.18923 5.87197 1.67272 5.14338 1.87642C4.96404 1.92653 4.74859 1.97901 4.52044 2.03455C3.33312 2.32371 1.53876 2.76063 0.298808 3.94819C-0.0646217 4.29637 -0.0310682 4.58392 0.0611788 4.76386L2.73384 9.97581C2.82369 10.1512 2.99743 10.26 3.18722 10.2601C3.33449 10.2601 3.47452 10.1959 3.5814 10.0795C3.83698 9.80116 4.77368 8.87798 6.09787 8.68506C7.1697 8.52884 8.42903 8.25811 9.64257 7.43424L9.6569 7.42447C9.68622 7.40443 9.76042 7.35372 9.79795 7.34541C9.80458 7.35241 9.81656 7.36741 9.83145 7.39642L10.8132 9.15647L6.67823 16.4631L6.67563 16.4678C6.48292 16.8267 6.59949 17.2909 6.93539 17.5027L7.22972 17.6882C7.34262 17.7593 7.47199 17.797 7.60376 17.797C7.86601 17.797 8.10869 17.6496 8.23806 17.4119L11.9082 11.1195L15.5239 17.6018C15.6517 17.8475 15.8971 18 16.1653 18C16.2918 18 16.4168 17.9651 16.5266 17.899L16.8242 17.7199C17.1644 17.5153 17.2897 17.0535 17.1037 16.6904L13.0404 9.17822L14.1132 7.33906L14.1173 7.33156C14.1324 7.30346 14.1444 7.28885 14.1511 7.282C14.1888 7.29127 14.262 7.34349 14.2909 7.36419L14.3051 7.37431C15.5029 8.22402 16.757 8.52194 17.8257 8.70137C19.1464 8.92285 20.0661 9.86633 20.3165 10.1502C20.4239 10.272 20.5663 10.339 20.7175 10.339C20.7175 10.339 20.7175 10.339 20.7175 10.339C20.9031 10.339 21.0749 10.2336 21.166 10.064L23.9341 4.9108C24.0297 4.73289 24.0687 4.44619 23.712 4.09046Z" fill="#9CA7BB"/>
</svg>
