<svg width="65" height="7" viewBox="0 0 65 7" xmlns="http://www.w3.org/2000/svg">
<path d="M3.21015 5.57033C3.21015 5.4954 3.19224 5.42946 3.15643 5.37251C3.12359 5.31556 3.06241 5.26311 2.97286 5.21516C2.8863 5.1642 2.76989 5.11775 2.62364 5.07579C2.47738 5.03383 2.29233 4.99186 2.06847 4.9499C1.78491 4.89296 1.52523 4.82252 1.28943 4.7386C1.05662 4.65168 0.856638 4.54828 0.689489 4.42839C0.52234 4.3055 0.391009 4.16463 0.295495 4.00578C0.202966 3.84693 0.156702 3.6641 0.156702 3.45729C0.156702 3.25648 0.204459 3.06465 0.299972 2.88182C0.395486 2.69899 0.532787 2.53864 0.711875 2.40077C0.890963 2.2629 1.10885 2.1535 1.36555 2.07258C1.62224 1.99165 1.91176 1.95119 2.23412 1.95119C2.57141 1.95119 2.87436 1.99165 3.14299 2.07258C3.41163 2.1505 3.63847 2.2599 3.82353 2.40077C4.01157 2.53864 4.15484 2.70349 4.25334 2.89531C4.35184 3.08713 4.40109 3.29544 4.40109 3.52023H3.15643C3.15643 3.33141 3.08031 3.17405 2.92809 3.04817C2.77586 2.91929 2.54454 2.85485 2.23412 2.85485C1.9446 2.85485 1.72521 2.9073 1.57597 3.0122C1.42972 3.11711 1.35659 3.24599 1.35659 3.39884C1.35659 3.47078 1.37152 3.53821 1.40136 3.60116C1.43121 3.6611 1.48345 3.71655 1.55807 3.7675C1.63567 3.81546 1.74014 3.86042 1.87147 3.90238C2.0028 3.94134 2.16995 3.97581 2.37292 4.00578C2.66543 4.05374 2.93704 4.11518 3.18777 4.19011C3.43849 4.26504 3.65489 4.36245 3.83696 4.48234C4.01903 4.59923 4.16081 4.7431 4.26229 4.91394C4.36676 5.08178 4.419 5.28259 4.419 5.51638C4.419 5.73218 4.36676 5.93149 4.26229 6.11432C4.16081 6.29416 4.01456 6.45001 3.82353 6.58189C3.63549 6.71377 3.40715 6.81717 3.13852 6.8921C2.86989 6.96403 2.56991 7 2.2386 7C1.87445 7 1.5521 6.95204 1.27152 6.85613C0.993939 6.76022 0.761124 6.63584 0.573082 6.48298C0.385039 6.32712 0.241769 6.15179 0.14327 5.95697C0.0477568 5.75915 0 5.56134 0 5.36352H1.18646C1.19541 5.4954 1.23123 5.60929 1.29391 5.7052C1.35659 5.79812 1.43718 5.87455 1.53568 5.93449C1.63418 5.99144 1.74611 6.0334 1.87147 6.06037C1.99982 6.08735 2.13115 6.10083 2.26546 6.10083C2.5729 6.10083 2.8072 6.05138 2.96838 5.95247C3.12956 5.85356 3.21015 5.72618 3.21015 5.57033Z" fill="white"/>
<path d="M7.41424 4.89595L6.85012 5.42197V6.90559H5.60545V0H6.85012V3.94733L7.2262 3.51574L8.56489 2.0411H10.0603L8.23357 4.06872L10.3155 6.90559H8.78874L7.41424 4.89595Z" fill="white"/>
<path d="M11.4303 2.0411H14.0674V5.88953H15.3792V6.90559H11.4303V5.88953H12.8093V3.06166H11.4303V2.0411ZM12.7197 0.795761C12.7197 0.69985 12.7361 0.611432 12.769 0.530507C12.8048 0.446585 12.854 0.376151 12.9167 0.319204C12.9794 0.259259 13.054 0.212802 13.1406 0.179833C13.2301 0.146864 13.3286 0.130379 13.4361 0.130379C13.657 0.130379 13.8316 0.19332 13.9599 0.319204C14.0912 0.442089 14.1569 0.600942 14.1569 0.795761C14.1569 0.99058 14.0912 1.15093 13.9599 1.27681C13.8316 1.3997 13.657 1.46114 13.4361 1.46114C13.3286 1.46114 13.2301 1.44466 13.1406 1.41169C13.054 1.37872 12.9794 1.33376 12.9167 1.27681C12.854 1.21687 12.8048 1.14644 12.769 1.06551C12.7361 0.981588 12.7197 0.891672 12.7197 0.795761Z" fill="white"/>
<path d="M16.8656 0H19.5743V5.88953H20.9623V6.90559H16.8656V5.88953H18.3162V1.02055H16.8656V0Z" fill="white"/>
<path d="M22.3726 0H25.0813V5.88953H26.4692V6.90559H22.3726V5.88953H23.8232V1.02055H22.3726V0Z" fill="white"/>
<path d="M37.4921 4.5228C37.4921 4.88546 37.4518 5.21815 37.3712 5.52087C37.2936 5.82359 37.1757 6.08435 37.0175 6.30315C36.8593 6.52194 36.6623 6.69279 36.4265 6.81567C36.1907 6.93556 35.9161 6.9955 35.6027 6.9955C35.3191 6.9955 35.0729 6.94305 34.864 6.83815C34.658 6.73025 34.4804 6.58039 34.3312 6.38857L34.273 6.90559H33.1537V0H34.3983V2.4817C34.5416 2.31385 34.7102 2.18347 34.9043 2.09056C35.1013 1.99765 35.3311 1.95119 35.5937 1.95119C35.9101 1.95119 36.1862 2.01263 36.422 2.13552C36.6608 2.2584 36.8593 2.42924 37.0175 2.64804C37.1757 2.86684 37.2936 3.12909 37.3712 3.43481C37.4518 3.73753 37.4921 4.06872 37.4921 4.42839V4.5228ZM36.2474 4.42839C36.2474 4.23057 36.2325 4.04325 36.2026 3.86641C36.1728 3.68957 36.1206 3.53522 36.0459 3.40334C35.9743 3.26846 35.8758 3.16206 35.7504 3.08414C35.6251 3.00621 35.4684 2.96724 35.2803 2.96724C35.0535 2.96724 34.8684 3.0152 34.7252 3.11111C34.5849 3.20702 34.4759 3.3389 34.3983 3.50674V5.44444C34.4759 5.61229 34.5849 5.74417 34.7252 5.84008C34.8684 5.93599 35.0565 5.98394 35.2893 5.98394C35.4773 5.98394 35.6325 5.94798 35.7549 5.87604C35.8773 5.80111 35.9743 5.69921 36.0459 5.57033C36.1206 5.43845 36.1728 5.28409 36.2026 5.10726C36.2325 4.92742 36.2474 4.73261 36.2474 4.5228V4.42839Z" fill="white"/>
<path d="M42.1125 1.95119C42.3006 1.95119 42.4737 1.96468 42.6319 1.99165C42.7931 2.01563 42.9229 2.0426 43.0214 2.07258L42.8379 3.31792C42.6737 3.27896 42.5051 3.25048 42.3319 3.2325C42.1618 3.21152 41.9991 3.20103 41.8439 3.20103C41.4947 3.20103 41.2141 3.26846 41.0022 3.40334C40.7933 3.53821 40.6366 3.73153 40.5321 3.9833V6.90559H39.2874V2.0411H40.447L40.5052 2.83687C40.7022 2.56112 40.938 2.34532 41.2126 2.18947C41.4872 2.03061 41.7872 1.95119 42.1125 1.95119Z" fill="white"/>
<path d="M47.1673 6.90559C47.1375 6.84564 47.1121 6.77671 47.0912 6.69878C47.0703 6.62085 47.0524 6.53843 47.0375 6.45151C46.9688 6.52644 46.8897 6.59687 46.8002 6.66281C46.7106 6.72875 46.6106 6.7872 46.5002 6.83815C46.3928 6.88611 46.2734 6.92357 46.142 6.95055C46.0107 6.98052 45.8689 6.9955 45.7167 6.9955C45.469 6.9955 45.2406 6.95954 45.0317 6.8876C44.8257 6.81567 44.6481 6.71526 44.4989 6.58638C44.3497 6.4575 44.2332 6.30465 44.1497 6.12781C44.0661 5.94798 44.0243 5.75316 44.0243 5.54335C44.0243 5.03083 44.2138 4.6352 44.5929 4.35645C44.975 4.07472 45.5436 3.93385 46.2987 3.93385H46.9927V3.64611C46.9927 3.41233 46.9166 3.228 46.7644 3.09313C46.6121 2.95526 46.3928 2.88632 46.1062 2.88632C45.8525 2.88632 45.6674 2.94177 45.551 3.05267C45.4346 3.16057 45.3764 3.30593 45.3764 3.48876H44.1318C44.1318 3.28195 44.1765 3.08563 44.2661 2.89981C44.3586 2.71398 44.4914 2.55063 44.6646 2.40976C44.8407 2.26889 45.0541 2.158 45.3048 2.07707C45.5585 1.99315 45.848 1.95119 46.1734 1.95119C46.4659 1.95119 46.7375 1.98715 46.9882 2.05909C47.2419 2.13102 47.4613 2.23742 47.6464 2.37829C47.8314 2.51916 47.9762 2.69749 48.0807 2.91329C48.1851 3.1261 48.2374 3.37337 48.2374 3.65511V5.74117C48.2374 6.00193 48.2538 6.21773 48.2866 6.38857C48.3194 6.55941 48.3672 6.70627 48.4299 6.82916V6.90559H47.1673ZM45.9809 6.0289C46.1062 6.0289 46.2226 6.01392 46.3301 5.98394C46.4375 5.95397 46.5345 5.91501 46.6211 5.86705C46.7076 5.8191 46.7823 5.76515 46.8449 5.7052C46.9076 5.64226 46.9569 5.57932 46.9927 5.51638V4.68015H46.3569C46.1629 4.68015 45.9973 4.69964 45.86 4.7386C45.7227 4.77457 45.6107 4.82702 45.5242 4.89595C45.4376 4.96189 45.3734 5.04282 45.3317 5.13873C45.2899 5.23164 45.269 5.33355 45.269 5.44444C45.269 5.61229 45.3272 5.75166 45.4436 5.86256C45.563 5.97345 45.7421 6.0289 45.9809 6.0289Z" fill="white"/>
<path d="M50.7759 2.0411L50.852 2.71548C51.0252 2.4727 51.2356 2.28538 51.4833 2.1535C51.7311 2.01863 52.0057 1.95119 52.3071 1.95119C52.5519 1.95119 52.7757 1.98715 52.9787 2.05909C53.1817 2.13102 53.3563 2.24641 53.5025 2.40527C53.6518 2.56112 53.7667 2.76343 53.8473 3.0122C53.9309 3.25797 53.9727 3.5577 53.9727 3.91137V6.90559H52.728V3.92935C52.728 3.73753 52.7056 3.58018 52.6608 3.45729C52.619 3.33141 52.5579 3.2325 52.4773 3.16057C52.3967 3.08863 52.2997 3.03918 52.1862 3.0122C52.0728 2.98223 51.9445 2.96724 51.8012 2.96724C51.5893 2.96724 51.4087 3.0107 51.2595 3.09762C51.1102 3.18155 50.9893 3.29844 50.8968 3.4483V6.90559H49.6477V2.0411H50.7759Z" fill="white"/>
<path d="M57.2992 5.99743C57.4216 5.99743 57.538 5.97945 57.6484 5.94348C57.7589 5.90751 57.8559 5.85656 57.9395 5.79062C58.023 5.72468 58.0872 5.64526 58.132 5.55234C58.1797 5.45943 58.2006 5.35603 58.1947 5.24213H59.3677C59.3736 5.4939 59.3214 5.72768 59.211 5.94348C59.1035 6.15928 58.9558 6.34511 58.7677 6.50096C58.5797 6.65682 58.3603 6.7797 58.1096 6.86962C57.8618 6.95654 57.5992 7 57.3216 7C56.9455 7 56.6157 6.93706 56.3321 6.81117C56.0486 6.68229 55.8113 6.50696 55.6203 6.28516C55.4322 6.06337 55.2889 5.80411 55.1905 5.50739C55.0949 5.20766 55.0472 4.88696 55.0472 4.54528V4.4104C55.0472 4.06872 55.0949 3.74952 55.1905 3.45279C55.286 3.15307 55.4292 2.89231 55.6203 2.67052C55.8113 2.44873 56.0471 2.27339 56.3277 2.14451C56.6112 2.01563 56.9395 1.95119 57.3126 1.95119C57.6111 1.95119 57.8872 1.99615 58.1409 2.08606C58.3946 2.17598 58.6125 2.30336 58.7946 2.46821C58.9797 2.63006 59.1229 2.82787 59.2244 3.06166C59.3259 3.29244 59.3736 3.5517 59.3677 3.83943H58.1947C58.2006 3.71955 58.1827 3.60565 58.1409 3.49775C58.0991 3.38985 58.038 3.29694 57.9574 3.21901C57.8768 3.14108 57.7798 3.07964 57.6663 3.03468C57.5529 2.98673 57.4291 2.96275 57.2947 2.96275C57.0977 2.96275 56.9351 3.00321 56.8067 3.08414C56.6784 3.16506 56.5754 3.27296 56.4978 3.40784C56.4232 3.54271 56.3694 3.69707 56.3366 3.87091C56.3068 4.04474 56.2918 4.22458 56.2918 4.4104V4.54528C56.2918 4.7341 56.3068 4.91693 56.3366 5.09377C56.3665 5.26761 56.4187 5.42197 56.4933 5.55684C56.5709 5.68872 56.6739 5.79512 56.8022 5.87604C56.9336 5.95697 57.0992 5.99743 57.2992 5.99743Z" fill="white"/>
<path d="M61.9063 2.71098C62.0674 2.4742 62.2629 2.28837 62.4928 2.1535C62.7256 2.01863 62.9853 1.95119 63.2718 1.95119C63.5255 1.95119 63.7583 1.99015 63.9702 2.06808C64.1822 2.14301 64.3642 2.2614 64.5165 2.42325C64.6687 2.5851 64.7866 2.79341 64.8702 3.04817C64.9567 3.29994 65 3.60415 65 3.96082V6.90559H63.7553V3.95183C63.7553 3.77799 63.7329 3.62813 63.6882 3.50225C63.6464 3.37636 63.5852 3.27446 63.5046 3.19653C63.424 3.1186 63.327 3.06166 63.2136 3.02569C63.1002 2.98673 62.9718 2.96724 62.8286 2.96724C62.6196 2.96724 62.4375 3.00471 62.2823 3.07964C62.1301 3.15457 62.0047 3.25947 61.9063 3.39435V6.90559H60.6616V0H61.9063V2.71098Z" fill="white"/>
</svg>
