<svg width="21" height="21" viewBox="0 0 21 21" fill="none" xmlns="http://www.w3.org/2000/svg">
<path d="M19.2102 16.8677H15.9304C13.8636 16.8677 12.1821 15.1862 12.1821 13.1194C12.1821 11.0526 13.8636 9.37113 15.9304 9.37113H19.2102C19.4691 9.37113 19.6787 9.16156 19.6787 8.90257V7.49695C19.6787 6.51443 18.9166 5.71538 17.9537 5.63789L15.2628 0.937853C15.0135 0.503165 14.6108 0.192479 14.129 0.0634696C13.6494 -0.0646613 13.148 0.00263268 12.7188 0.252438L3.49428 5.62278H1.87417C0.84056 5.62278 0 6.4633 0 7.49695V18.7419C0 19.7755 0.840516 20.6161 1.87417 20.6161H17.8045C18.8382 20.6161 19.6787 19.7756 19.6787 18.7419V17.3363C19.6787 17.0773 19.4691 16.8677 19.2102 16.8677ZM15.8439 3.83958L16.8648 5.62278H12.781L15.8439 3.83958ZM5.35673 5.62278L13.1905 1.06229C13.4024 0.938292 13.6499 0.905348 13.8865 0.968513C14.1258 1.03256 14.3253 1.18722 14.4493 1.40364L14.4502 1.40535L7.20648 5.62278H5.35673Z" fill="#9CA7BB"/>
<path d="M19.2102 10.3081H15.9304C14.3802 10.3081 13.1191 11.5691 13.1191 13.1193C13.1191 14.6696 14.3802 15.9306 15.9304 15.9306H19.2102C19.9853 15.9306 20.6158 15.3001 20.6158 14.525V11.7137C20.6158 10.9386 19.9853 10.3081 19.2102 10.3081ZM15.9304 14.0564C15.4138 14.0564 14.9933 13.6359 14.9933 13.1193C14.9933 12.6028 15.4138 12.1823 15.9304 12.1823C16.4469 12.1823 16.8674 12.6028 16.8674 13.1193C16.8675 13.6359 16.447 14.0564 15.9304 14.0564Z" fill="#9CA7BB"/>
</svg>
