<svg width="18" height="18" viewBox="0 0 18 18" xmlns="http://www.w3.org/2000/svg">
<path d="M1.69935 4.86064L8.95204 0.673298L16.2047 4.86064V13.2353L8.95204 17.4227L1.69935 13.2353V4.86064Z" stroke="#9CA9BA"/>
<path d="M8.95258 6.66946C6.01603 6.66946 4.47656 8.83303 4.47656 9.17604C4.47656 9.51914 6.01603 11.6826 8.95258 11.6826C11.8889 11.6826 13.4286 9.51914 13.4286 9.17604C13.4286 8.83303 11.8889 6.66946 8.95258 6.66946ZM8.95258 11.1042C7.85393 11.1042 6.96316 10.241 6.96316 9.17604C6.96316 8.11112 7.85393 7.24786 8.95258 7.24786C10.0512 7.24786 10.9419 8.11112 10.9419 9.17604C10.9419 10.241 10.0512 11.1042 8.95258 11.1042ZM9.9472 9.17604C9.9472 9.70845 9.50177 10.1402 8.95258 10.1402C8.40321 10.1402 7.95796 9.70845 7.95796 9.17604C7.95796 8.64363 8.40321 8.21195 8.95258 8.21195C9.24941 8.21195 8.77043 8.97598 8.95258 9.17604C9.10741 9.34594 9.9472 8.9315 9.9472 9.17604Z" fill="#9CA9BA"/>
</svg>
