<?xml version="1.0" encoding="utf-8"?><svg xmlns="http://www.w3.org/2000/svg" xmlns:xlink="http://www.w3.org/1999/xlink"><symbol fill="none" viewBox="0 0 16 16" id="clock" xmlns="http://www.w3.org/2000/svg"><path d="M8 15A7 7 0 1 0 8 1a7 7 0 0 0 0 14z" stroke="#9CA9BA" stroke-linecap="round" stroke-linejoin="round"/><path d="M8 3.8V8l2.8 1.4" stroke="#9CA9BA" stroke-linecap="round" stroke-linejoin="round"/></symbol><symbol fill="none" viewBox="0 0 12 14" id="copy" xmlns="http://www.w3.org/2000/svg"><path d="M8.842.053H1.263C.568.053 0 .62 0 1.316v8.842h1.263V1.316h7.58V.053zm1.895 2.526H3.789c-.694 0-1.263.568-1.263 1.263v8.842c0 .695.569 1.263 1.263 1.263h6.948c.695 0 1.263-.568 1.263-1.263V3.842c0-.695-.568-1.263-1.263-1.263zm0 10.105H3.789V3.842h6.948v8.842z" fill="#9CA9BA"/></symbol><symbol fill="none" viewBox="0 0 13 13" id="exclamation-sign" xmlns="http://www.w3.org/2000/svg"><path d="M12.5 6.5a6 6 0 1 1-12 0 6 6 0 0 1 12 0zm-6-2.437V6.5" stroke="#1C0E43" stroke-linecap="round" stroke-linejoin="round"/><circle cx="6.5" cy="8.5" r=".5" fill="#1C0E43"/></symbol><symbol viewBox="0 0 63 63" fill="none" id="facebook-square" xmlns="http://www.w3.org/2000/svg"><rect x="10" y="4" width="43" height="43" rx="4" fill="#506AA6"/><path d="M27.74 26.711h1.2c.106 0 .212.101.212.202v7.209c0 .37.317.673.705.673h2.752c.388 0 .705-.303.705-.673v-7.209c0-.1.106-.202.212-.202H35.5c.353 0 .67-.235.706-.572l.458-2.628c.07-.404-.282-.808-.705-.808h-2.328a.31.31 0 0 1-.318-.303v-1.684c0-.438.247-.674.706-.674h2.08c.389 0 .706-.303.706-.674v-2.694c0-.37-.317-.674-.705-.674h-2.505c-4.585 0-4.48 3.537-4.48 4.042v2.459c0 .101-.105.202-.211.202h-1.2c-.387 0-.705.303-.705.674v2.627c.035.404.353.707.74.707z" fill="#fff"/></symbol><symbol fill="none" viewBox="0 0 11 13" id="js" xmlns="http://www.w3.org/2000/svg"><path d="M5.499 13a.92.92 0 0 1-.477-.135l-1.518-.938c-.227-.133-.113-.18-.04-.208a2.93 2.93 0 0 0 .682-.327.11.11 0 0 1 .114.01l1.166.725a.143.143 0 0 0 .141 0l4.551-2.75a.148.148 0 0 0 .051-.055.156.156 0 0 0 .019-.074V3.75a.159.159 0 0 0-.07-.131L5.574.87a.135.135 0 0 0-.14 0L.887 3.619a.15.15 0 0 0-.052.055.16.16 0 0 0-.02.076v5.498a.15.15 0 0 0 .02.074c.013.023.03.041.052.054l1.245.753c.676.358 1.089-.062 1.089-.477V4.22a.143.143 0 0 1 .039-.098.13.13 0 0 1 .093-.04h.577c.035 0 .068.015.093.04a.141.141 0 0 1 .039.098v5.429c0 .945-.492 1.487-1.346 1.487-.263 0-.47 0-1.047-.298L.477 10.12a.985.985 0 0 1-.35-.37A1.044 1.044 0 0 1 0 9.248V3.75c0-.176.044-.349.128-.501a.981.981 0 0 1 .349-.367L5.027.128a.96.96 0 0 1 .957 0l4.538 2.754a.982.982 0 0 1 .35.367c.084.152.128.325.128.5v5.499c0 .176-.045.349-.129.501a.987.987 0 0 1-.349.368l-4.544 2.75a.923.923 0 0 1-.48.133z" fill="#679E63"/><path d="M6.903 9.213c-1.989 0-2.405-.954-2.405-1.759a.142.142 0 0 1 .038-.097.13.13 0 0 1 .093-.04h.587c.032 0 .063.012.087.034a.14.14 0 0 1 .044.085c.089.627.354.944 1.556.944.958 0 1.366-.228 1.366-.76 0-.308-.114-.535-1.605-.688-1.243-.134-2.012-.419-2.012-1.462 0-.962.773-1.534 2.07-1.534 1.456 0 2.176.53 2.267 1.67a.142.142 0 0 1-.034.105.13.13 0 0 1-.097.044h-.59a.127.127 0 0 1-.082-.03.138.138 0 0 1-.046-.078c-.141-.663-.486-.876-1.419-.876-1.045 0-1.167.382-1.167.668 0 .347.143.447 1.555.643 1.412.195 2.06.467 2.06 1.496 0 1.03-.825 1.635-2.266 1.635z" fill="#679E63"/></symbol><symbol fill="none" viewBox="0 0 48 48" id="js-round" xmlns="http://www.w3.org/2000/svg"><circle cx="24" cy="24" r="24" fill="#679E63"/><path d="M24.646 37.626c-.375 0-.744-.1-1.068-.29l-3.403-2.014c-.51-.284-.255-.386-.091-.445a6.733 6.733 0 0 0 1.53-.701.255.255 0 0 1 .255.02l2.614 1.556a.331.331 0 0 0 .316 0l10.202-5.902a.322.322 0 0 0 .155-.277v-11.8a.33.33 0 0 0-.158-.281l-10.181-5.898a.312.312 0 0 0-.314 0L14.31 17.492a.33.33 0 0 0-.161.281v11.8a.314.314 0 0 0 .16.274l2.79 1.618c1.516.768 2.441-.133 2.441-1.024V18.78a.295.295 0 0 1 .296-.294h1.293a.295.295 0 0 1 .296.294v11.652c0 2.03-1.102 3.192-3.017 3.192-.59 0-1.053 0-2.346-.64l-2.673-1.536a2.157 2.157 0 0 1-1.069-1.874v-11.8a2.16 2.16 0 0 1 1.069-1.863L23.59 10a2.228 2.228 0 0 1 2.143 0l10.173 5.91a2.152 2.152 0 0 1 1.071 1.863v11.8a2.172 2.172 0 0 1-1.071 1.866L25.72 37.342a2.14 2.14 0 0 1-1.074.284z" fill="#fff"/><path d="M27.794 29.499c-4.458 0-5.392-2.048-5.392-3.775a.292.292 0 0 1 .294-.295h1.316a.292.292 0 0 1 .293.256c.199 1.344.793 2.025 3.489 2.025 2.147 0 3.06-.49 3.06-1.63 0-.661-.255-1.15-3.596-1.478-2.787-.286-4.511-.898-4.511-3.138 0-2.063 1.734-3.291 4.639-3.291 3.264 0 4.879 1.136 5.083 3.583a.294.294 0 0 1-.175.296.29.29 0 0 1-.119.024h-1.323a.293.293 0 0 1-.286-.23c-.316-1.424-1.089-1.882-3.18-1.882-2.344 0-2.617.82-2.617 1.434 0 .744.321.96 3.486 1.38 3.165.42 4.62 1.003 4.62 3.212 0 2.209-1.852 3.509-5.081 3.509z" fill="#fff"/></symbol><symbol fill="none" viewBox="0 0 63 63" id="mail-square" xmlns="http://www.w3.org/2000/svg"><rect x="10" y="4" width="43" height="43" rx="4" fill="#9CA9BA"/><path d="M39.394 32c.404 0 .755-.123 1.053-.365l-5.1-4.688-.353.233c-.382.259-.691.46-.93.605a5.92 5.92 0 0 1-.948.443 3.108 3.108 0 0 1-1.105.226h-.02c-.342 0-.71-.075-1.105-.226a5.903 5.903 0 0 1-.95-.443 23.9 23.9 0 0 1-.929-.605l-.352-.234-5.1 4.689a1.62 1.62 0 0 0 1.053.365h14.786zm-15.379-8.005A5.224 5.224 0 0 1 23 23.192v7.132l4.495-4.132c-.9-.577-2.058-1.308-3.48-2.197zm15.98 0a298.47 298.47 0 0 0-3.49 2.199L41 30.324v-7.132a5.436 5.436 0 0 1-1.005.803z" fill="#fff"/><path d="M39.392 19H24.607c-.516 0-.912.16-1.19.48-.278.32-.417.72-.417 1.2 0 .388.184.808.552 1.26.369.453.76.808 1.176 1.067.227.148.914.586 2.059 1.316a672.35 672.35 0 0 1 2.781 1.783l.277.183c.218.145.399.262.543.351.144.09.318.19.522.3.204.111.397.194.578.25.18.055.348.083.502.083h.02c.154 0 .321-.028.502-.083.181-.056.373-.139.578-.25.204-.11.378-.21.522-.3.144-.089.325-.206.543-.35a79.626 79.626 0 0 1 .427-.282l1.016-.65 3.684-2.351a4.601 4.601 0 0 0 1.226-1.136c.327-.443.492-.907.492-1.394 0-.406-.16-.754-.477-1.043a1.624 1.624 0 0 0-1.13-.434z" fill="#fff"/></symbol><symbol fill="none" viewBox="0 0 16 19" id="medal-bronze" xmlns="http://www.w3.org/2000/svg"><circle cx="8" cy="7" r="5" fill="#FF9D3B"/><path d="M15.103 8.619l-.946-1.265a.234.234 0 0 1-.004-.275l.926-1.277a.234.234 0 0 0-.083-.344l-1.413-.739a.23.23 0 0 1-.123-.247l.265-1.544a.237.237 0 0 0-.229-.274l-1.6-.066a.24.24 0 0 1-.22-.17L11.231.909a.243.243 0 0 0-.329-.15l-1.472.618a.254.254 0 0 1-.277-.058L8.085.155a.248.248 0 0 0-.364.004l-1.053 1.18a.241.241 0 0 1-.273.061L4.915.805a.243.243 0 0 0-.325.154l-.423 1.509a.244.244 0 0 1-.218.174l-1.599.09a.24.24 0 0 0-.225.278l.288 1.54c.02.1-.031.2-.118.247l-1.401.758a.235.235 0 0 0-.08.344l.946 1.265c.06.081.064.194.004.275L.838 8.715a.234.234 0 0 0 .083.345l1.413.738a.23.23 0 0 1 .123.248l-.265 1.543a.237.237 0 0 0 .23.275l1.598.066a.24.24 0 0 1 .222.17l.447 1.505c.04.135.194.209.329.15l1.472-.618a.254.254 0 0 1 .277.058l1.069 1.164a.248.248 0 0 0 .364-.004l1.053-1.18a.241.241 0 0 1 .273-.061l1.48.595a.243.243 0 0 0 .325-.154l.423-1.51a.244.244 0 0 1 .218-.173l1.6-.09a.24.24 0 0 0 .225-.278l-.29-1.54a.232.232 0 0 1 .12-.247l1.4-.758a.225.225 0 0 0 .076-.34zm-7.14 2.89c-2.395 0-4.346-1.908-4.346-4.248 0-2.34 1.951-4.248 4.346-4.248 2.394 0 4.346 1.908 4.346 4.248 0 2.344-1.952 4.247-4.346 4.247z" fill="#BF5327"/><path d="M10.54 6.205L8.9 6.09l-.617-1.485c-.115-.279-.522-.279-.637 0L7.028 6.09l-1.638.116c-.309.023-.432.398-.198.592l1.255 1.037-.392 1.558c-.075.294.253.527.514.368l1.394-.847 1.393.847c.261.159.59-.074.514-.368l-.39-1.559 1.254-1.037a.333.333 0 0 0-.194-.592z" fill="#BF5327"/><path d="M11.877 14.255a1.27 1.27 0 0 1-.895.363c-.122 0-.245-.019-.36-.05l-1.02-.301-.788.704c-.028.023-.052.046-.08.065l1.267 3.838c.043.135.222.166.313.054l.922-1.157a.18.18 0 0 1 .19-.062l1.437.41c.138.04.265-.088.221-.22l-1.207-3.644zm-5.551.012l-1.021.301c-.12.035-.238.05-.36.05-.345 0-.662-.135-.895-.363l-1.207 3.648c-.044.135.083.259.221.22l1.437-.41a.178.178 0 0 1 .19.062l.922 1.157a.18.18 0 0 0 .313-.055l1.267-3.837a.64.64 0 0 1-.08-.066l-.787-.707z" fill="#E95454"/></symbol><symbol fill="none" viewBox="0 0 16 19" id="medal-gold" xmlns="http://www.w3.org/2000/svg"><circle cx="8" cy="7" r="5" fill="#FFE28D"/><path d="M15.103 8.619l-.946-1.265a.234.234 0 0 1-.004-.275l.926-1.277a.234.234 0 0 0-.083-.344l-1.413-.739a.23.23 0 0 1-.123-.247l.265-1.544a.237.237 0 0 0-.229-.274l-1.6-.066a.24.24 0 0 1-.22-.17L11.231.909a.243.243 0 0 0-.329-.15l-1.472.618a.254.254 0 0 1-.277-.058L8.085.155a.248.248 0 0 0-.364.004l-1.053 1.18a.241.241 0 0 1-.273.061L4.915.805a.243.243 0 0 0-.325.154l-.423 1.509a.244.244 0 0 1-.218.174l-1.599.09a.24.24 0 0 0-.225.278l.288 1.54c.02.1-.031.2-.118.247l-1.401.758a.235.235 0 0 0-.08.344l.946 1.265c.06.081.064.194.004.275L.838 8.715a.234.234 0 0 0 .083.345l1.413.738a.23.23 0 0 1 .123.248l-.265 1.543a.237.237 0 0 0 .23.275l1.598.066a.24.24 0 0 1 .222.17l.447 1.505c.04.135.194.209.329.15l1.472-.618a.254.254 0 0 1 .277.058l1.069 1.164a.248.248 0 0 0 .364-.004l1.053-1.18a.241.241 0 0 1 .273-.061l1.48.595a.243.243 0 0 0 .325-.154l.423-1.51a.244.244 0 0 1 .218-.173l1.6-.09a.24.24 0 0 0 .225-.278l-.29-1.54a.232.232 0 0 1 .12-.247l1.4-.758a.225.225 0 0 0 .076-.34zm-7.14 2.89c-2.395 0-4.346-1.908-4.346-4.248 0-2.34 1.951-4.248 4.346-4.248 2.394 0 4.346 1.908 4.346 4.248 0 2.344-1.952 4.247-4.346 4.247z" fill="#FFCC5B"/><path d="M11.877 14.255a1.27 1.27 0 0 1-.895.363c-.122 0-.245-.019-.36-.05l-1.02-.301-.788.704c-.028.023-.052.046-.08.065l1.267 3.838c.043.135.222.166.313.054l.922-1.157a.18.18 0 0 1 .19-.062l1.437.41c.138.04.265-.088.221-.22l-1.207-3.644zm-5.551.012l-1.021.301c-.12.035-.238.05-.36.05-.345 0-.662-.135-.895-.363l-1.207 3.648c-.044.135.083.259.221.22l1.437-.41a.178.178 0 0 1 .19.062l.922 1.157a.18.18 0 0 0 .313-.055l1.267-3.837a.64.64 0 0 1-.08-.066l-.787-.707z" fill="#E95454"/><path d="M10.54 6.205L8.9 6.09l-.617-1.485c-.115-.279-.522-.279-.637 0L7.028 6.09l-1.638.116c-.309.023-.432.398-.198.592l1.255 1.037-.392 1.558c-.075.294.253.527.514.368l1.394-.847 1.393.847c.261.159.59-.074.514-.368l-.39-1.559 1.254-1.037a.333.333 0 0 0-.194-.592z" fill="#EC9922"/></symbol><symbol fill="none" viewBox="0 0 16 19" id="medal-silver" xmlns="http://www.w3.org/2000/svg"><circle cx="8" cy="7" r="5" fill="#D1DBE8"/><path d="M15.103 8.619l-.946-1.265a.234.234 0 0 1-.004-.275l.926-1.277a.234.234 0 0 0-.083-.344l-1.413-.739a.23.23 0 0 1-.123-.247l.265-1.544a.237.237 0 0 0-.229-.274l-1.6-.066a.24.24 0 0 1-.22-.17L11.231.909a.243.243 0 0 0-.329-.15l-1.472.618a.254.254 0 0 1-.277-.058L8.085.155a.248.248 0 0 0-.364.004l-1.053 1.18a.241.241 0 0 1-.273.061L4.915.805a.243.243 0 0 0-.325.154l-.423 1.509a.244.244 0 0 1-.218.174l-1.599.09a.24.24 0 0 0-.225.278l.288 1.54c.02.1-.031.2-.118.247l-1.401.758a.235.235 0 0 0-.08.344l.946 1.265c.06.081.064.194.004.275L.838 8.715a.234.234 0 0 0 .083.345l1.413.738a.23.23 0 0 1 .123.248l-.265 1.543a.237.237 0 0 0 .23.275l1.598.066a.24.24 0 0 1 .222.17l.447 1.505c.04.135.194.209.329.15l1.472-.618a.254.254 0 0 1 .277.058l1.069 1.164a.248.248 0 0 0 .364-.004l1.053-1.18a.241.241 0 0 1 .273-.061l1.48.595a.243.243 0 0 0 .325-.154l.423-1.51a.244.244 0 0 1 .218-.173l1.6-.09a.24.24 0 0 0 .225-.278l-.29-1.54a.232.232 0 0 1 .12-.247l1.4-.758a.225.225 0 0 0 .076-.34zm-7.14 2.89c-2.395 0-4.346-1.908-4.346-4.248 0-2.34 1.951-4.248 4.346-4.248 2.394 0 4.346 1.908 4.346 4.248 0 2.344-1.952 4.247-4.346 4.247z" fill="#9CA9BA"/><path d="M11.877 14.255a1.27 1.27 0 0 1-.895.363c-.122 0-.245-.019-.36-.05l-1.02-.301-.788.704c-.028.023-.052.046-.08.065l1.267 3.838c.043.135.222.166.313.054l.922-1.157a.18.18 0 0 1 .19-.062l1.437.41c.138.04.265-.088.221-.22l-1.207-3.644zm-5.551.012l-1.021.301c-.12.035-.238.05-.36.05-.345 0-.662-.135-.895-.363l-1.207 3.648c-.044.135.083.259.221.22l1.437-.41a.178.178 0 0 1 .19.062l.922 1.157a.18.18 0 0 0 .313-.055l1.267-3.837a.64.64 0 0 1-.08-.066l-.787-.707z" fill="#E95454"/><path d="M10.54 6.205L8.9 6.09l-.617-1.485c-.115-.279-.522-.279-.637 0L7.028 6.09l-1.638.116c-.309.023-.432.398-.198.592l1.255 1.037-.392 1.558c-.075.294.253.527.514.368l1.394-.847 1.393.847c.261.159.59-.074.514-.368l-.39-1.559 1.254-1.037a.333.333 0 0 0-.194-.592z" fill="#AFBCCD"/><path fill-rule="evenodd" clip-rule="evenodd" d="M10.976 4.204a4.384 4.384 0 0 0-3.013-1.19c-2.395 0-4.346 1.906-4.346 4.247 0 2.008 1.437 3.697 3.357 4.136a23.604 23.604 0 0 1-2.108 2.373.24.24 0 0 1-.177-.165L4.242 12.1a.24.24 0 0 0-.222-.17l-1.599-.066a.237.237 0 0 1-.23-.275l.266-1.543a.225.225 0 0 0-.028-.16.234.234 0 0 0-.095-.088L.921 9.06a.234.234 0 0 1-.083-.345l.926-1.276a.234.234 0 0 0-.004-.275L.814 5.9a.234.234 0 0 1 .08-.344l1.4-.758a.234.234 0 0 0 .12-.248l-.29-1.54a.24.24 0 0 1 .226-.278l1.6-.089a.244.244 0 0 0 .217-.174L4.59.959a.245.245 0 0 1 .325-.155l1.48.596a.242.242 0 0 0 .273-.062L7.721.158a.248.248 0 0 1 .364-.003l1.069 1.164a.255.255 0 0 0 .277.058l1.473-.619a.242.242 0 0 1 .328.151l.399 1.357c-.192.644-.41 1.291-.655 1.938z" fill="#B7C3D4" fill-opacity=".7"/></symbol><symbol fill="none" viewBox="0 0 16 19" id="medal-simple" xmlns="http://www.w3.org/2000/svg"><path d="M15.103 8.619l-.946-1.265a.234.234 0 0 1-.004-.275l.926-1.277a.234.234 0 0 0-.083-.344l-1.413-.739a.23.23 0 0 1-.123-.247l.265-1.544a.237.237 0 0 0-.229-.274l-1.6-.066a.24.24 0 0 1-.22-.17L11.231.909a.243.243 0 0 0-.329-.15l-1.472.618a.254.254 0 0 1-.277-.058L8.085.155a.248.248 0 0 0-.364.004l-1.053 1.18a.241.241 0 0 1-.273.061L4.915.805a.243.243 0 0 0-.325.154l-.423 1.509a.244.244 0 0 1-.218.174l-1.599.09a.24.24 0 0 0-.225.278l.288 1.54c.02.1-.031.2-.118.247l-1.401.758a.235.235 0 0 0-.08.344l.946 1.265c.06.081.064.194.004.275L.838 8.715a.234.234 0 0 0 .083.345l1.413.738a.23.23 0 0 1 .123.248l-.265 1.543a.237.237 0 0 0 .23.275l1.598.066a.24.24 0 0 1 .222.17l.447 1.505c.04.135.194.209.329.15l1.472-.618a.254.254 0 0 1 .277.058l1.069 1.164a.248.248 0 0 0 .364-.004l1.053-1.18a.241.241 0 0 1 .273-.061l1.48.595a.243.243 0 0 0 .325-.154l.423-1.51a.244.244 0 0 1 .218-.173l1.6-.09a.24.24 0 0 0 .225-.278l-.29-1.54a.232.232 0 0 1 .12-.247l1.4-.758a.225.225 0 0 0 .076-.34zm-7.14 2.89c-2.395 0-4.346-1.908-4.346-4.248 0-2.34 1.951-4.248 4.346-4.248 2.394 0 4.346 1.908 4.346 4.248 0 2.344-1.952 4.247-4.346 4.247zm3.914 2.746a1.27 1.27 0 0 1-.895.363c-.122 0-.245-.019-.36-.05l-1.02-.301-.788.704c-.028.023-.052.046-.08.065l1.267 3.838c.043.135.222.166.313.054l.922-1.157a.18.18 0 0 1 .19-.062l1.437.41c.138.04.265-.088.221-.22l-1.207-3.644zm-5.551.012l-1.021.301c-.12.035-.238.05-.36.05-.345 0-.662-.135-.895-.363l-1.207 3.648c-.044.135.083.259.221.22l1.437-.41a.178.178 0 0 1 .19.062l.922 1.157a.18.18 0 0 0 .313-.055l1.267-3.837a.64.64 0 0 1-.08-.066l-.787-.707z" fill="#9CA9BA"/><path d="M10.54 6.205L8.9 6.09l-.617-1.485c-.115-.279-.522-.279-.637 0L7.028 6.09l-1.638.116c-.309.023-.432.398-.198.592l1.255 1.037-.392 1.558c-.075.294.253.527.514.368l1.394-.847 1.393.847c.261.159.59-.074.514-.368l-.39-1.559 1.254-1.037a.333.333 0 0 0-.194-.592z" fill="#9CA9BA"/></symbol><symbol viewBox="0 0 18 19" id="members" xmlns="http://www.w3.org/2000/svg"><path d="M11.63 10.948h-.501a1.002 1.002 0 0 1-1.002-1.002v-.322c.221-.264.38-.575.48-.905.01-.055.063-.082.099-.12a.62.62 0 0 0 .085-.746c-.02-.035-.055-.066-.053-.11 0-.293.002-.587 0-.88-.008-.355-.11-.724-.358-.986a1.398 1.398 0 0 0-.76-.393 2.524 2.524 0 0 0-1.09.026 1.32 1.32 0 0 0-.777.526 1.518 1.518 0 0 0-.24.793c-.004.3-.001.599-.002.898.007.06-.044.101-.067.15a.62.62 0 0 0 .142.76c.055.038.065.108.085.168.095.296.253.57.452.808v.333c0 .553-.449 1.002-1.002 1.002h-.5s-.909.25-1.504 1.502v.502a.5.5 0 0 0 .501.5h7.014a.5.5 0 0 0 .5-.5v-.502c-.594-1.252-1.502-1.502-1.502-1.502z" fill="#9CA9BA"/><path d="M1.7 5.086L8.951.9l7.253 4.187v8.375l-7.253 4.187-7.253-4.187V5.086z" stroke="#9CA9BA"/></symbol><symbol fill="none" viewBox="0 0 67 70" id="prize" xmlns="http://www.w3.org/2000/svg"><path fill-rule="evenodd" clip-rule="evenodd" d="M16.363 33.625l8.543-1.224c1.456-.209 2.471-1.582 2.267-3.068-.205-1.485-1.552-2.52-3.009-2.312l-6.793.974 1.749-.25c-1.457.208-2.804-.827-3.008-2.312-.205-1.486.81-2.86 2.267-3.068l26.033-3.731c1.456-.209 2.803.826 3.008 2.312.205 1.485-.81 2.859-2.267 3.067l1.75-.25-6.794.973c-1.457.21-2.472 1.583-2.267 3.068.205 1.486 1.552 2.52 3.008 2.312l8.543-1.224 12.243-1.755c1.457-.209 2.804.826 3.008 2.312.205 1.485-.81 2.859-2.267 3.067l-12.243 1.755-3.295.472c-1.457.21-2.472 1.583-2.267 3.068.205 1.486 1.552 2.52 3.008 2.312l3.295-.472 12.244-1.755c1.457-.209 2.804.826 3.008 2.312.205 1.485-.81 2.859-2.267 3.068L6.344 51.517c-1.457.21-2.804-.826-3.008-2.311-.205-1.486.81-2.86 2.267-3.068l12.243-1.755 3.295-.472c1.457-.209 2.472-1.582 2.267-3.068-.205-1.485-1.552-2.52-3.008-2.312l-3.295.473L4.86 40.759c-1.457.21-2.803-.826-3.008-2.311-.205-1.486.81-2.86 2.267-3.068l12.243-1.755z" fill="#F3F6FB"/><path d="M6.912.805c2.144.014 3.317 1.197 3.52 3.55.203 2.351 1.292 3.45 3.268 3.294" stroke="#5374FC" stroke-linecap="round" stroke-linejoin="round"/><path d="M54.672 66.046a2.268 2.268 0 0 0 2.259-2.278 2.268 2.268 0 0 0-2.258-2.277 2.268 2.268 0 0 0-2.259 2.277 2.268 2.268 0 0 0 2.258 2.278zM2.134 34.774c.57-.36 1.013-.158 1.328.607.237.751.535 1.211.894 1.38.36.17.904.094 1.632-.226.658-.285 1.2-.327 1.628-.126.427.201.737.644.928 1.328.192.752.498 1.227.918 1.425.42.198.965.122 1.633-.226.665-.281 1.21-.322 1.637-.121.425.2.733.642.923 1.325.075.49.249.8.52.927" stroke="#6800FC" stroke-linecap="round" stroke-linejoin="round"/><path d="M42.133 7.549c.093-.672.531-.884 1.315-.636.723.3 1.264.366 1.623.197.36-.17.652-.638.878-1.406.205-.691.522-1.137.95-1.338.427-.201.962-.156 1.605.136.695.336 1.253.405 1.673.207.42-.198.713-.666.878-1.406.214-.695.534-1.143.96-1.343.426-.2.959-.154 1.6.139.42.257.767.321 1.04.193" stroke="#E9007F" stroke-linecap="round" stroke-linejoin="round"/><path fill-rule="evenodd" clip-rule="evenodd" d="M44.316 17.261h6.639c.678 0 1.229.559 1.229 1.247v6.075c0 4.043-3.23 7.32-7.215 7.32h-2.35l1.697-14.642zm.022 2.282l-.612 10.074 1.737-.494c2.402-.683 4.116-2.834 4.27-5.36l.219-3.558a.625.625 0 0 0-.614-.662h-5z" fill="#FFC300"/><path d="M22.684 17.261h-6.639c-.679 0-1.229.559-1.229 1.247v6.075c0 4.043 3.23 7.32 7.216 7.32h2.349l-1.697-14.642zm-.022 2.282l.612 10.074-1.737-.494c-2.402-.683-4.116-2.834-4.27-5.36l-.218-3.558a.625.625 0 0 1 .613-.662h5z" fill="#FFC300"/><path d="M22.684 17.261h-6.639c-.679 0-1.229.559-1.229 1.247v6.075c0 4.043 3.23 7.32 7.216 7.32h2.349l-1.697-14.642zm-.022 2.282l.612 10.074-1.737-.494c-2.402-.683-4.116-2.834-4.27-5.36l-.218-3.558a.625.625 0 0 1 .613-.662h5z" fill="#FFC300" filter="url(#ma)"/><path d="M45.023 50.98H21.978a.463.463 0 0 0-.459.467c0 .258.206.467.46.467h23.044a.463.463 0 0 0 .459-.467.463.463 0 0 0-.459-.468zM33.495 14.735h10.208c.339 0 .613.28.613.625v10.31c0 3.023-1.118 5.858-3.354 8.504-3.102 3.673-6.257 4.228-5.816 8.592l-1.582.012h-.07l-1.581-.012c.44-4.364-2.715-4.919-5.817-8.592-2.236-2.646-3.354-5.481-3.354-8.504V15.36a.62.62 0 0 1 .613-.625h10.14z" fill="#FFC300"/><path d="M33.495 14.735h10.208c.339 0 .613.28.613.625v10.31c0 3.023-1.118 5.858-3.354 8.504-3.102 3.673-6.257 4.228-5.816 8.592l-1.582.012h-.07l-1.581-.012c.44-4.364-2.715-4.919-5.817-8.592-2.236-2.646-3.354-5.481-3.354-8.504V15.36a.62.62 0 0 1 .613-.625h10.14z" fill="#FFC300" filter="url(#mb)"/><path d="M22.904 53.785h-4.92a.463.463 0 0 0-.459.467c0 .258.206.468.459.468h4.92c.253 0 .458-.21.458-.468a.463.463 0 0 0-.458-.467z" fill="#FFC300"/><path d="M41.18 42.634H25.82v8.416h15.36v-8.416z" fill="#EC610A"/><path d="M38.722 44.504H28.277v4.676h10.445v-4.676zm-7.83 9.281H27.2a.463.463 0 0 0-.459.467c0 .258.206.468.459.468h3.69c.254 0 .46-.21.46-.468a.463.463 0 0 0-.46-.467z" fill="#FFC300"/><path fill-rule="evenodd" clip-rule="evenodd" d="M33.5 27.827l-3.43 1.83.655-3.877-2.776-2.745 3.836-.566 1.716-3.527 1.715 3.527 3.836.566-2.776 2.745.655 3.877-3.43-1.83z" fill="#EC610A"/><path d="M25.068 23.375c.165 2.922.627 5.159 1.385 6.713m.965 1.973c.56.847 1.024 1.452 1.388 1.815" stroke="#EC610A" stroke-linecap="round" stroke-linejoin="round"/><path d="M35.807 53.785h-2.155a.463.463 0 0 0-.459.467c0 .258.206.468.459.468h2.155c.253 0 .459-.21.459-.468a.463.463 0 0 0-.46-.467zm15.668 0H39.796a.463.463 0 0 0-.458.467c0 .258.205.468.458.468h11.679c.253 0 .459-.21.459-.468a.463.463 0 0 0-.46-.467z" fill="#FFC300"/><path d="M25.418 62.205l-6.738-.714-.709 6.795L24.71 69l.708-6.795z" stroke="red"/><defs><filter id="ma" x="10.816" y="17.261" width="13.565" height="14.643" filterUnits="userSpaceOnUse" color-interpolation-filters="sRGB"><feFlood flood-opacity="0" result="BackgroundImageFix"/><feBlend in="SourceGraphic" in2="BackgroundImageFix" result="shape"/><feColorMatrix in="SourceAlpha" values="0 0 0 0 0 0 0 0 0 0 0 0 0 0 0 0 0 0 127 0" result="hardAlpha"/><feOffset dx="-6"/><feGaussianBlur stdDeviation="2"/><feComposite in2="hardAlpha" operator="arithmetic" k2="-1" k3="1"/><feColorMatrix values="0 0 0 0 0 0 0 0 0 0 0 0 0 0 0 0 0 0 0.08 0"/><feBlend in2="shape" result="effect1_innerShadow"/></filter><filter id="mb" x="22.742" y="14.735" width="25.574" height="28.044" filterUnits="userSpaceOnUse" color-interpolation-filters="sRGB"><feFlood flood-opacity="0" result="BackgroundImageFix"/><feBlend in="SourceGraphic" in2="BackgroundImageFix" result="shape"/><feColorMatrix in="SourceAlpha" values="0 0 0 0 0 0 0 0 0 0 0 0 0 0 0 0 0 0 127 0" result="hardAlpha"/><feOffset dx="6"/><feGaussianBlur stdDeviation="2"/><feComposite in2="hardAlpha" operator="arithmetic" k2="-1" k3="1"/><feColorMatrix values="0 0 0 0 0 0 0 0 0 0 0 0 0 0 0 0 0 0 0.08 0"/><feBlend in2="shape" result="effect1_innerShadow"/></filter></defs></symbol><symbol fill="none" viewBox="0 0 13 13" id="question-sign" xmlns="http://www.w3.org/2000/svg"><path d="M6.08 7.475c0-.154.003-.285.01-.392a1.28 1.28 0 0 1 .053-.29.765.765 0 0 1 .125-.238c.055-.073.132-.152.232-.235.072-.07.144-.142.217-.218a2.44 2.44 0 0 0 .194-.238 1.31 1.31 0 0 0 .143-.252.649.649 0 0 0 .054-.255c0-.204-.052-.353-.156-.447-.104-.094-.256-.141-.455-.141a.748.748 0 0 0-.223.034.526.526 0 0 0-.194.1.553.553 0 0 0-.191.447H5a1.41 1.41 0 0 1 .121-.594c.079-.17.185-.312.318-.424.134-.111.291-.194.472-.248.18-.056.376-.084.586-.084.235 0 .447.028.634.084.186.056.344.14.47.252.13.11.23.246.297.41.068.163.102.352.102.567 0 .159-.025.304-.076.437-.051.13-.117.251-.198.366a2.56 2.56 0 0 1-.277.322c-.102.1-.205.2-.309.295a1.62 1.62 0 0 0-.15.178.58.58 0 0 0-.108.336 3.454 3.454 0 0 0-.006.228H6.08zm-.131 1.018c0-.074.012-.142.035-.205a.438.438 0 0 1 .264-.275.553.553 0 0 1 .217-.04.544.544 0 0 1 .379.147.474.474 0 0 1 .102.168.539.539 0 0 1 .038.205.53.53 0 0 1-.14.363.455.455 0 0 1-.166.104.544.544 0 0 1-.213.04.552.552 0 0 1-.379-.144.446.446 0 0 1-.102-.162.572.572 0 0 1-.035-.201z" fill="#1C0E43"/><path d="M12.5 6.5a6 6 0 1 1-12 0 6 6 0 0 1 12 0z" stroke="#1C0E43" stroke-linecap="round" stroke-linejoin="round"/></symbol><symbol viewBox="0 0 18 18" id="rating" xmlns="http://www.w3.org/2000/svg"><path d="M12.624 8.593a.588.588 0 0 0 .139-.589.554.554 0 0 0-.444-.39L10.46 7.33a.244.244 0 0 1-.183-.138l-.83-1.757a.545.545 0 0 0-.494-.32c-.211 0-.4.122-.494.32l-.83 1.757a.244.244 0 0 1-.183.139l-1.858.281a.554.554 0 0 0-.445.391.588.588 0 0 0 .14.589L6.627 9.96a.26.26 0 0 1 .07.224l-.317 1.931a.58.58 0 0 0 .12.466.54.54 0 0 0 .678.14l1.662-.912a.24.24 0 0 1 .226 0l1.662.912a.527.527 0 0 0 .678-.14.58.58 0 0 0 .12-.466l-.317-1.93a.26.26 0 0 1 .07-.225l1.344-1.368z" fill="#9CA9BA"/><path d="M1.7 4.765L8.951.577l7.253 4.188v8.374l-7.253 4.188-7.253-4.188V4.765z" stroke="#9CA9BA"/></symbol><symbol fill="none" viewBox="0 0 15 13" id="react" xmlns="http://www.w3.org/2000/svg"><path d="M0 6.523c0-1.092 1.106-2.111 2.85-2.686-.348-1.69-.062-3.052.892-3.582.982-.546 2.444-.168 3.831 1C8.926.135 10.293-.307 11.247.226c.98.547 1.278 2.001.92 3.744C13.985 4.548 15 5.417 15 6.523c0 1.067-1.108 1.99-2.829 2.56.386 1.815.06 3.144-.935 3.697-.959.533-2.342.069-3.714-1.083-1.428 1.222-2.797 1.595-3.79 1.041-.958-.534-1.231-1.921-.882-3.642C1.165 8.529 0 7.586 0 6.523z" fill="#fff"/><path d="M11.806 8.517c-.141.047-.284.09-.428.13.023.094.046.188.066.282.324 1.519.112 2.742-.613 3.145-.695.387-1.831-.016-2.979-.979a8.872 8.872 0 0 1-.332-.293 8.048 8.048 0 0 1-.22.196c-1.203 1.03-2.41 1.464-3.133 1.06-.694-.388-.9-1.538-.608-2.978.03-.142.062-.284.099-.425a9.071 9.071 0 0 1-.493-.15C1.755 8.032.854 7.29.854 6.518c0-.796.966-1.594 2.435-2.078.12-.039.24-.075.36-.108a8.14 8.14 0 0 1-.104-.459C3.266 2.46 3.484 1.335 4.176.95c.716-.397 1.916.012 3.085.996.092.078.185.16.278.247.117-.108.237-.214.36-.316C9.03.937 10.149.558 10.84.944c.715.4.947 1.606.645 3.074a7.02 7.02 0 0 1-.08.343c.085.024.167.049.248.074 1.527.488 2.52 1.277 2.52 2.083 0 .773-.929 1.521-2.368 1.999z" fill="#53C1DE"/><path d="M11.476 4.956a7.686 7.686 0 0 0-.223-.067 12.616 12.616 0 0 1-.675 1.626c.266.552.485 1.092.648 1.603.137-.038.269-.078.396-.12 1.233-.409 1.985-1.014 1.985-1.48 0-.496-.812-1.14-2.13-1.562zm-.547-1.045c.134-.649.153-1.236.064-1.695-.08-.412-.239-.687-.436-.797-.42-.234-1.318.07-2.286.874a8.6 8.6 0 0 0-.335.294c.376.396.75.856 1.117 1.367.644.055 1.252.145 1.804.268.027-.106.051-.21.072-.31zM5.396 1.46c-.41-.14-.737-.144-.934-.034-.42.233-.595 1.135-.357 2.345.029.143.061.285.098.426.545-.116 1.15-.2 1.795-.25.368-.5.754-.96 1.143-1.362a6.91 6.91 0 0 0-.253-.225c-.517-.436-1.035-.745-1.492-.9zm-1.921 3.5c-.65.213-1.186.491-1.554.795-.33.273-.497.543-.497.763 0 .468.723 1.064 1.93 1.47.15.05.303.097.458.139.166-.523.385-1.07.649-1.622a12.917 12.917 0 0 1-.657-1.645c-.11.03-.22.064-.33.1zm.644 4.226c-.25 1.233-.084 2.163.334 2.397.446.248 1.431-.106 2.47-.995.066-.057.133-.116.2-.178-.387-.4-.77-.857-1.135-1.354A14.389 14.389 0 0 1 4.21 8.79a7.803 7.803 0 0 0-.091.396zm5.746-1.368c-.13.217-.265.43-.405.642.425-.052.832-.12 1.215-.205a11.439 11.439 0 0 0-.427-1.105c-.123.225-.25.448-.383.668zm-2.343 2.2c.262-.274.525-.58.784-.912-.525.024-1.05.024-1.575 0 .26.33.524.635.79.912zM5.163 7.814a16.65 16.65 0 0 1-.376-.664 12.18 12.18 0 0 0-.423 1.111c.38.082.786.15 1.208.2a16.024 16.024 0 0 1-.409-.647zm.421-3.278c-.436.047-.848.11-1.228.19.118.366.263.747.432 1.134a15.948 15.948 0 0 1 .796-1.324zM7.538 2.98c-.27.28-.54.59-.802.924a20.603 20.603 0 0 1 1.584.003c-.26-.34-.522-.65-.782-.927zm2.716 2.9c.178-.392.328-.77.447-1.13a12.494 12.494 0 0 0-1.243-.204 19.082 19.082 0 0 1 .796 1.334zm-.88-.407a17.651 17.651 0 0 0-.639-.994 19.37 19.37 0 0 0-2.426-.005A15.49 15.49 0 0 0 5.09 6.506a15.34 15.34 0 0 0 1.213 2.026 16.723 16.723 0 0 0 2.428 0 17.784 17.784 0 0 0 1.216-2.018c-.178-.353-.369-.7-.573-1.04zm1.174 6.126c.447-.248.62-1.248.34-2.56a7.218 7.218 0 0 0-.06-.255c-.553.123-1.153.215-1.781.272-.366.502-.746.959-1.126 1.354.1.093.202.183.306.271.983.825 1.903 1.151 2.321.918z" fill="#fff"/><path d="M7.514 7.665c.657 0 1.19-.514 1.19-1.147s-.533-1.147-1.19-1.147c-.657 0-1.19.514-1.19 1.147s.533 1.147 1.19 1.147z" fill="#53C1DE"/></symbol><symbol fill="none" viewBox="0 0 63 63" id="twitter-square" xmlns="http://www.w3.org/2000/svg"><rect x="10" y="4" width="43" height="43" rx="4" fill="#00AAEC"/><path fill-rule="evenodd" clip-rule="evenodd" d="M40.978 19.741a7.308 7.308 0 0 1-2.118.585 3.716 3.716 0 0 0 1.622-2.054 7.345 7.345 0 0 1-2.343.9A3.668 3.668 0 0 0 35.447 18c-2.036 0-3.687 1.663-3.687 3.713 0 .291.031.574.095.846a10.445 10.445 0 0 1-7.604-3.881 3.734 3.734 0 0 0-.499 1.869 3.72 3.72 0 0 0 1.641 3.09 3.673 3.673 0 0 1-1.671-.463v.046c0 1.8 1.271 3.3 2.96 3.64-.31.088-.635.131-.972.131-.238 0-.47-.022-.695-.066a3.693 3.693 0 0 0 3.446 2.578 7.367 7.367 0 0 1-4.58 1.59c-.299 0-.593-.017-.881-.05a10.405 10.405 0 0 0 5.654 1.666c6.785 0 10.494-5.657 10.494-10.564 0-.162-.003-.323-.01-.482a7.49 7.49 0 0 0 1.84-1.922z" fill="#fff"/></symbol><symbol viewBox="0 0 18 18" id="views" xmlns="http://www.w3.org/2000/svg"><path d="M1.7 4.86L8.951.674l7.253 4.188v8.374l-7.253 4.188-7.253-4.188V4.861z" stroke="#9CA9BA"/><path d="M8.953 6.67c-2.937 0-4.476 2.163-4.476 2.506 0 .343 1.539 2.507 4.476 2.507 2.936 0 4.476-2.164 4.476-2.507 0-.343-1.54-2.507-4.476-2.507zm0 4.434c-1.1 0-1.99-.863-1.99-1.928s.89-1.928 1.99-1.928c1.098 0 1.989.863 1.989 1.928s-.89 1.928-1.99 1.928zm.994-1.928c0 .532-.445.964-.994.964-.55 0-.995-.432-.995-.964s.445-.964.995-.964c.296 0-.183.764 0 .964.154.17.994-.245.994 0z" fill="#9CA9BA"/></symbol><symbol viewBox="0 0 63 63" fill="none" id="vk-square" xmlns="http://www.w3.org/2000/svg"><rect x="10" y="4" width="43" height="43" rx="4" fill="#4C77A6"/><path d="M39.63 28.048c-1.854-1.779-1.617-1.508.63-4.563 1.34-1.856 1.893-3.016 1.735-3.518-.079-.31-1.143-.232-1.143-.232h-3.313s-.512 0-.71.348c-.355.657-.512 1.469-1.222 2.668-1.498 2.59-2.09 2.745-2.327 2.59-.552-.386-.433-1.508-.433-2.32 0-2.513.355-3.557-.71-3.866-.237-.078-.434-.078-.789-.116C30.914 19 30.481 19 30.086 19c-.986 0-1.735.039-2.247.27-.395.194-.67.62-.474.658.237.039.71.155.986.503.355.464.316 1.546.316 1.546s.197 2.978-.474 3.326c-.433.27-1.064-.27-2.366-2.63-.67-1.198-.749-2.01-1.183-2.552-.276-.348-.788-.464-.788-.464H20.7s-.552-.038-.63.116c-.159.194 0 .58 0 .58s2.483 5.994 5.283 9.01c2.485 2.861 5.403 2.706 5.403 2.706s1.695.078 1.932-.348c.158-.154.197-.618.197-.618s-.04-1.856.789-2.127c.828-.27 1.853 1.779 2.957 2.552.828.619 1.065.541 1.46.541h2.957s1.538-.154.828-1.43c-.118-.078-.473-.89-2.248-2.59z" fill="#fff"/></symbol><symbol fill="none" viewBox="0 0 13 10" id="vue" xmlns="http://www.w3.org/2000/svg"><path d="M8.001 0L6.5 2.31 4.999 0H0l6.5 10L13 0H8.001z" fill="#4DBA87"/><path d="M8 0L6.5 2.31 4.998 0H2.6l3.9 6 3.9-6H8z" fill="#435466"/></symbol><symbol fill="none" viewBox="0 0 13 14" id="webpack" xmlns="http://www.w3.org/2000/svg"><path d="M6.5 0L13 3.5v7L6.5 14 0 10.5v-7L6.5 0z" fill="#fff"/><path d="M11.84 10.259l-5.125 2.76v-2.15l3.193-1.672 1.931 1.062zm.35-.302v-5.77l-1.874 1.031v3.71l1.874 1.029zm-11.05.302l5.125 2.76v-2.15L3.07 9.198 1.14 10.26zm-.35-.302v-5.77l1.873 1.031v3.71L.79 9.956zm.22-6.144L6.264.983V3.06L2.897 4.823l-.027.015-1.86-1.025zm10.96 0L6.715.983V3.06l3.367 1.762.027.014 1.861-1.023z" fill="#8ED6FB"/><path d="M6.264 10.38l-3.15-1.65V5.465l3.15 1.732v3.184zm.45 0l3.151-1.648V5.464l-3.15 1.732v3.184zM3.327 5.087l3.162-1.654 3.163 1.654-3.163 1.738-3.162-1.738z" fill="#1C78C0"/></symbol></svg>