<?xml version="1.0" encoding="utf-8"?><svg xmlns="http://www.w3.org/2000/svg" xmlns:xlink="http://www.w3.org/1999/xlink"><symbol viewBox="0 0 29 31" id="achievements" xmlns="http://www.w3.org/2000/svg"><path d="M26.451.076H2.55C1.143.076 0 1.256 0 2.707v1.337a9.8 9.8 0 0 0 2.031 5.978c1.09 1.405 2.64 2.507 4.364 3.1l.9.31a8.516 8.516 0 0 0 4.656 3.758v1.363a.864.864 0 0 1-.85.877c-1.405 0-2.548 1.18-2.548 2.631v.878h-.85c-.47 0-.85.392-.85.877v4.443h-.85c-.468 0-.849.393-.849.878 0 .484.38.877.85.877h16.992c.47 0 .85-.393.85-.877a.864.864 0 0 0-.85-.878h-.85v-4.443a.864.864 0 0 0-.85-.877h-.849v-.878c0-1.45-1.143-2.63-2.549-2.63-.468 0-.85-.394-.85-.878V17.19a8.51 8.51 0 0 0 4.653-3.752l.95-.312.01-.004a9.255 9.255 0 0 0 4.308-3.1A9.8 9.8 0 0 0 29 4.044V2.708C29 1.256 27.857.075 26.451.075zM3.358 8.926A8.004 8.004 0 0 1 1.7 4.044V2.708c0-.484.381-.878.85-.878h2.694l.865 8.034c.05.47.14.928.26 1.374a7.705 7.705 0 0 1-3.01-2.312zm5.195 19.333v-3.566h11.894v3.566H8.553zm7.456-12.593a.872.872 0 0 0-.66.854v2.033c0 1.451 1.144 2.631 2.55 2.631.468 0 .849.394.849.877v.878h-8.496v-.878c0-.483.381-.877.85-.877 1.405 0 2.548-1.18 2.548-2.63V16.52a.872.872 0 0 0-.659-.854c-2.792-.664-4.88-3.073-5.194-5.996l-.844-7.84h15.094l-.844 7.84c-.315 2.923-2.402 5.332-5.194 5.996zM27.3 4.044c0 1.768-.59 3.501-1.66 4.882a7.578 7.578 0 0 1-3.016 2.34 9.04 9.04 0 0 0 .267-1.402l.864-8.034h2.695c.469 0 .85.394.85.877v1.337z"/><path d="M17.701 7.477l-1.737-.27-.774-1.676a.769.769 0 0 0-.69-.465.769.769 0 0 0-.69.465l-.775 1.676-1.738.27a.797.797 0 0 0-.627.58.902.902 0 0 0 .203.871l1.247 1.3-.294 1.828a.887.887 0 0 0 .303.828.72.72 0 0 0 .812.072l1.558-.876 1.559.876a.719.719 0 0 0 .812-.072.887.887 0 0 0 .303-.828l-.293-1.829 1.246-1.299a.902.902 0 0 0 .203-.871.797.797 0 0 0-.628-.58zm-2.188 1.836a.897.897 0 0 0-.229.76l.096.598-.528-.296a.714.714 0 0 0-.706 0l-.528.296.096-.598a.898.898 0 0 0-.228-.76l-.39-.405.556-.087a.78.78 0 0 0 .582-.456l.265-.576.266.576a.781.781 0 0 0 .582.456l.555.087-.389.405z"/></symbol><symbol viewBox="0 0 12 7" id="arrow-left" xmlns="http://www.w3.org/2000/svg"><path d="M3.273 0l.578.618-2.286 2.445H12v.874H1.565l2.286 2.445L3.273 7 0 3.5 3.273 0z"/></symbol><symbol viewBox="0 0 23 25" id="bell" xmlns="http://www.w3.org/2000/svg"><path d="M22.096 18.38c-2.067-1.845-3.98-4.45-3.98-10.951C18.115 3.664 15.147.6 11.5.6 7.852.6 4.885 3.664 4.885 7.43c0 6.508-1.913 9.109-3.982 10.953A2.742 2.742 0 0 0 0 20.42c0 .43.337.777.752.777h7.142c.348 1.726 1.833 3.027 3.606 3.027 1.774 0 3.258-1.3 3.606-3.027h7.141A.765.765 0 0 0 23 20.42c0-.786-.33-1.53-.904-2.04zM11.5 22.67c-.937 0-1.738-.614-2.045-1.473h4.09c-.307.86-1.108 1.473-2.045 1.473zm-9.699-3.027c.028-.03.057-.06.088-.087 3.155-2.812 4.5-6.438 4.5-12.127 0-2.909 2.293-5.275 5.111-5.275 2.818 0 5.11 2.366 5.11 5.275 0 5.683 1.346 9.31 4.503 12.128.03.027.06.056.087.087H1.801z"/></symbol><symbol viewBox="0 0 29 31" id="cources" xmlns="http://www.w3.org/2000/svg"><path d="M25.602 4.539V.459h-8.553c-1.014 0-1.926.46-2.549 1.19a3.347 3.347 0 0 0-2.549-1.19H3.398v4.08H0v25.857l4.657-4.808H29V4.538h-3.398zM13.65 17.289a3.298 3.298 0 0 0-1.699-.471H5.098v-1.754h6.853c.937 0 1.7.787 1.7 1.754v.472zm-8.552 1.283h6.853c.937 0 1.7.787 1.7 1.754H5.097v-1.754zm18.804-1.754H17.05c-.619 0-1.2.172-1.7.472v-.472c0-.967.763-1.754 1.7-1.754h6.853v1.754zm0 1.754v1.754H15.35c0-.967.762-1.754 1.699-1.754h6.853zM17.05 2.212h6.853V13.31H17.05c-.619 0-1.2.173-1.7.472V3.967c0-.968.763-1.755 1.7-1.755zm-5.098 0c.937 0 1.7.787 1.7 1.755v9.814c-.5-.3-1.081-.472-1.7-.472H5.098V2.212h6.853zm15.35 21.622H3.953l-2.254 2.327V6.293h1.7V22.08h22.203V6.293H27.3v17.541z"/></symbol><symbol viewBox="0 0 16 18" id="exit" xmlns="http://www.w3.org/2000/svg"><path d="M12.95 4.711a7.265 7.265 0 0 1 1.916 3.687 7.389 7.389 0 0 1-.4 4.159 7.16 7.16 0 0 1-2.577 3.23A6.863 6.863 0 0 1 8 17a6.863 6.863 0 0 1-3.889-1.213 7.16 7.16 0 0 1-2.578-3.23 7.389 7.389 0 0 1-.399-4.16A7.265 7.265 0 0 1 3.05 4.712M8.006 1v7.999"/></symbol><symbol viewBox="0 0 30 31" id="homework" xmlns="http://www.w3.org/2000/svg"><path d="M11.092 4.369c.469 0 .85-.393.85-.877a.864.864 0 0 0-.85-.877c-.47 0-.85.393-.85.877s.38.877.85.877zm4.856 4.58l-1.802 1.86-1.001-1.033-1.202 1.24 2.203 2.274 3.004-3.101-1.201-1.24zm8.788 1.169l-1.202-1.24-1.001 1.033-1.001-1.033-1.202 1.24 1.001 1.034-1 1.033 1.2 1.24 1.002-1.033 1.001 1.034 1.202-1.24-1.002-1.034 1.002-1.034z"/><path d="M29.5 17.233V.276H7.41V7.41H.5v22.803h16.992v-5.262h6.174v-5.029h1.133l-1.983-2.046-1.982 2.046h1.133v3.275h-4.475v-5.964H29.5zM9.11 2.03H27.8v2.924H9.11V2.03zm6.683 21.167H14.66v-1.754H3.332v5.262H14.66v-1.754h1.133v3.508H2.199V9.164H7.41v1.754H3.332v1.754H7.41v1.754H3.332v1.754H7.41v1.053h8.383v5.964zm-2.832 0v1.754H5.03v-1.754h7.93zm-3.852-7.718V6.708h18.692v8.77H9.109z"/><path d="M13.018 17.934H3.332v1.755h9.686v-1.755z"/></symbol><symbol viewBox="0 0 29 32" id="logo" xmlns="http://www.w3.org/2000/svg"><path d="M14.196 0l-.433.252-12.998 7.5-.433.253v15.991l.433.252 3.587 2.073.866-1.496-3.155-1.821V8.996l12.133-6.995 12.133 6.995v14.008l-12.133 6.995-1.64-.938a2.73 2.73 0 0 0 .234-1.117c0-.091-.01-.182-.018-.27v-.019l7.878-4.543.433-.252v-6.094c1.802-.346 3.172-1.922 3.172-3.822a3.925 3.925 0 0 0-3.912-3.912 3.925 3.925 0 0 0-3.912 3.912c0 1.805 1.25 3.322 2.92 3.768v5.156l-7.283 4.2a2.822 2.822 0 0 0-1.406-.865v-7.265a3.915 3.915 0 0 0 3.21-3.84 3.925 3.925 0 0 0-3.913-3.912 3.925 3.925 0 0 0-3.912 3.912c0 1.792 1.232 3.31 2.884 3.768v7.446a2.846 2.846 0 0 0-1.802 2.632 2.844 2.844 0 0 0 2.83 2.83c.517 0 1.005-.15 1.424-.396l2.38 1.37.433.252.432-.252 12.999-7.5.432-.253V8.005l-.432-.253-12.999-7.5L14.196 0zm6.147 10.763c1.215 0 2.182.966 2.182 2.181a2.168 2.168 0 0 1-2.182 2.182 2.168 2.168 0 0 1-2.181-2.182c0-1.215.966-2.181 2.181-2.181zM9.96 11.917c1.215 0 2.181.966 2.181 2.181a2.168 2.168 0 0 1-2.18 2.181 2.168 2.168 0 0 1-2.182-2.181c0-1.215.966-2.181 2.181-2.181zm0 14.927c.618 0 1.1.482 1.1 1.1 0 .617-.482 1.1-1.1 1.1-.618 0-1.1-.483-1.1-1.1 0-.618.482-1.1 1.1-1.1z"/></symbol><symbol viewBox="0 0 65 7" id="logo-title" xmlns="http://www.w3.org/2000/svg"><path d="M3.21 5.57a.364.364 0 0 0-.054-.197.448.448 0 0 0-.183-.158 1.535 1.535 0 0 0-.35-.14 6.235 6.235 0 0 0-.555-.125 5.635 5.635 0 0 1-.779-.211 2.563 2.563 0 0 1-.6-.31 1.46 1.46 0 0 1-.394-.423 1.07 1.07 0 0 1-.138-.549c0-.2.047-.392.143-.575.095-.183.233-.343.412-.481.179-.138.397-.247.654-.328.256-.081.546-.122.868-.122.337 0 .64.04.909.122.269.078.495.187.68.328a1.348 1.348 0 0 1 .578 1.12H3.156a.588.588 0 0 0-.228-.473c-.152-.129-.383-.193-.694-.193-.29 0-.509.052-.658.157-.146.105-.22.234-.22.387 0 .072.016.14.045.202.03.06.082.116.157.167.078.047.182.092.313.134.132.04.299.074.502.104.292.048.564.11.815.184.25.075.467.172.649.292.182.117.324.261.425.432.105.168.157.369.157.602 0 .216-.052.415-.157.598-.101.18-.247.336-.438.468a2.225 2.225 0 0 1-.685.31 3.48 3.48 0 0 1-.9.108c-.365 0-.687-.048-.967-.144a2.273 2.273 0 0 1-.699-.373 1.653 1.653 0 0 1-.43-.526A1.355 1.355 0 0 1 0 5.364h1.186a.7.7 0 0 0 .108.341.77.77 0 0 0 .242.23c.098.056.21.098.335.125.129.027.26.04.394.04.308 0 .542-.049.703-.148.162-.098.242-.226.242-.382zm4.204-.674l-.564.526v1.484H5.605V0H6.85v3.947l.376-.431L8.565 2.04h1.495L8.234 4.07l2.082 2.837H8.789l-1.375-2.01zm4.016-2.855h2.637V5.89h1.312v1.016H11.43V5.89h1.38V3.062h-1.38v-1.02zM12.72.796a.69.69 0 0 1 .049-.265.659.659 0 0 1 .372-.35.849.849 0 0 1 .295-.05c.221 0 .396.062.524.188a.623.623 0 0 1 .197.477.638.638 0 0 1-.197.48c-.128.124-.303.185-.524.185a.849.849 0 0 1-.295-.05.699.699 0 0 1-.224-.134.657.657 0 0 1-.148-.211.732.732 0 0 1-.05-.27zM16.866 0h2.708v5.89h1.388v1.016h-4.096V5.89h1.45V1.02h-1.45V0zm5.507 0h2.708v5.89h1.388v1.016h-4.096V5.89h1.45V1.02h-1.45V0zm15.119 4.523c0 .362-.04.695-.12.998a2.292 2.292 0 0 1-.355.782 1.68 1.68 0 0 1-.59.513c-.236.12-.51.18-.824.18-.284 0-.53-.053-.739-.158a1.626 1.626 0 0 1-.533-.45l-.058.518h-1.12V0h1.245v2.482a1.52 1.52 0 0 1 .506-.391 1.6 1.6 0 0 1 .69-.14c.316 0 .592.062.828.185.239.122.437.293.596.512.158.219.276.481.353.787.08.303.121.634.121.993v.095zm-1.245-.095a3.37 3.37 0 0 0-.044-.562 1.407 1.407 0 0 0-.157-.463.821.821 0 0 0-.296-.319.875.875 0 0 0-.47-.117c-.227 0-.412.048-.555.144a.95.95 0 0 0-.327.396v1.937a.95.95 0 0 0 .327.396c.143.096.331.144.564.144a.908.908 0 0 0 .466-.108.816.816 0 0 0 .29-.306c.076-.132.128-.286.158-.463.03-.18.044-.374.044-.584v-.095zm5.865-2.477c.189 0 .362.014.52.04.161.025.29.052.39.082l-.184 1.245a3.96 3.96 0 0 0-.506-.086 3.991 3.991 0 0 0-.488-.031c-.35 0-.63.067-.842.202a1.23 1.23 0 0 0-.47.58v2.923h-1.245V2.04h1.16l.058.796a2.2 2.2 0 0 1 .708-.648 1.77 1.77 0 0 1 .9-.238zm5.055 4.955a1.112 1.112 0 0 1-.076-.207 2.746 2.746 0 0 1-.053-.247 1.64 1.64 0 0 1-.896.499 1.91 1.91 0 0 1-.425.045 2.09 2.09 0 0 1-.685-.108 1.624 1.624 0 0 1-.533-.302 1.377 1.377 0 0 1-.35-.458 1.37 1.37 0 0 1-.125-.585c0-.512.19-.908.569-1.187.382-.281.95-.422 1.706-.422h.694v-.288c0-.234-.076-.418-.229-.553-.152-.138-.371-.207-.658-.207-.254 0-.439.056-.555.167a.566.566 0 0 0-.175.436h-1.244c0-.207.044-.403.134-.59.093-.185.225-.348.399-.49.176-.14.39-.251.64-.332.254-.084.543-.126.868-.126.293 0 .564.036.815.108.254.072.473.178.658.32.185.14.33.318.435.534.104.213.156.46.156.742v2.086c0 .26.017.477.05.648.032.17.08.317.143.44v.077h-1.263zm-1.186-.877a1.296 1.296 0 0 0 .864-.324.906.906 0 0 0 .148-.189V4.68h-.636c-.194 0-.36.02-.497.059a.898.898 0 0 0-.336.157.605.605 0 0 0-.192.243.737.737 0 0 0-.063.305c0 .168.058.308.175.419.119.11.298.166.537.166zm4.795-3.988l.076.674c.173-.242.384-.43.631-.561.248-.135.523-.203.824-.203.245 0 .469.036.672.108.203.072.377.187.523.346.15.156.265.358.345.607.084.246.126.546.126.9v2.994h-1.245V3.929c0-.191-.022-.349-.067-.472a.67.67 0 0 0-.184-.296.657.657 0 0 0-.29-.149 1.51 1.51 0 0 0-.386-.045 1 1 0 0 0-.904.481v3.458h-1.25V2.04h1.129zM57.3 5.997c.122 0 .238-.018.348-.054a.93.93 0 0 0 .291-.152.673.673 0 0 0 .193-.239.6.6 0 0 0 .063-.31h1.173a1.44 1.44 0 0 1-.157.701 1.703 1.703 0 0 1-.443.558 2.167 2.167 0 0 1-.658.369 2.36 2.36 0 0 1-.788.13 2.42 2.42 0 0 1-.99-.189 2.037 2.037 0 0 1-.712-.526 2.315 2.315 0 0 1-.43-.778c-.095-.3-.143-.62-.143-.962V4.41c0-.341.048-.66.144-.957.095-.3.238-.56.43-.782a2.02 2.02 0 0 1 .707-.526c.283-.13.611-.194.985-.194.298 0 .574.045.828.135.254.09.471.217.654.382.185.162.328.36.43.594.1.23.149.49.143.777h-1.173a.823.823 0 0 0-.054-.341.768.768 0 0 0-.184-.279.879.879 0 0 0-.29-.184.944.944 0 0 0-.372-.072.9.9 0 0 0-.488.121.916.916 0 0 0-.31.324 1.54 1.54 0 0 0-.16.463c-.03.174-.045.354-.045.54v.134c0 .19.015.372.045.549.03.174.082.328.156.463a.92.92 0 0 0 .31.319c.13.081.296.121.496.121zm4.606-3.286c.161-.237.357-.423.587-.557.233-.135.492-.203.779-.203.254 0 .486.04.698.117.212.075.394.193.546.355.153.162.27.37.354.625.087.252.13.556.13.913v2.945h-1.245V3.952c0-.174-.022-.324-.067-.45a.74.74 0 0 0-.183-.305.729.729 0 0 0-.291-.171 1.181 1.181 0 0 0-.385-.059c-.21 0-.392.038-.547.113a1.01 1.01 0 0 0-.376.314v3.512h-1.244V0h1.244v2.711z"/></symbol><symbol viewBox="0 0 18 19" id="members" xmlns="http://www.w3.org/2000/svg"><path d="M11.63 10.948h-.501a1.002 1.002 0 0 1-1.002-1.002v-.322c.221-.264.38-.575.48-.905.01-.055.063-.082.099-.12a.62.62 0 0 0 .085-.746c-.02-.035-.055-.066-.053-.11 0-.293.002-.587 0-.88-.008-.355-.11-.724-.358-.986a1.398 1.398 0 0 0-.76-.393 2.524 2.524 0 0 0-1.09.026 1.32 1.32 0 0 0-.777.526 1.518 1.518 0 0 0-.24.793c-.004.3-.001.599-.002.898.007.06-.044.101-.067.15a.62.62 0 0 0 .142.76c.055.038.065.108.085.168.095.296.253.57.452.808v.333c0 .553-.449 1.002-1.002 1.002h-.5s-.909.25-1.504 1.502v.502a.5.5 0 0 0 .501.5h7.014a.5.5 0 0 0 .5-.5v-.502c-.594-1.252-1.502-1.502-1.502-1.502z"/><path d="M1.7 5.086L8.951.9l7.253 4.187v8.375l-7.253 4.187-7.253-4.187V5.086z"/></symbol><symbol viewBox="0 0 17 18" id="notifications" xmlns="http://www.w3.org/2000/svg"><path d="M10.384 16.203a1.6 1.6 0 0 1-2.768 0m9.384-3.2H1a2.4 2.4 0 0 0 2.4-2.401V6.6a5.602 5.602 0 0 1 9.56-3.96A5.602 5.602 0 0 1 14.6 6.6v4a2.401 2.401 0 0 0 2.4 2.401z"/></symbol><symbol viewBox="0 0 47 47" id="play" xmlns="http://www.w3.org/2000/svg"><circle opacity=".5" cx="23.5" cy="23.5" r="23.5"/><path d="M30 21.768c1.333.77 1.333 2.694 0 3.464l-8.25 4.763c-1.333.77-3-.192-3-1.732v-9.526c0-1.54 1.667-2.502 3-1.732L30 21.768z"/></symbol><symbol viewBox="0 0 18 18" id="rating" xmlns="http://www.w3.org/2000/svg"><path d="M12.624 8.593a.588.588 0 0 0 .139-.589.554.554 0 0 0-.444-.39L10.46 7.33a.244.244 0 0 1-.183-.138l-.83-1.757a.545.545 0 0 0-.494-.32c-.211 0-.4.122-.494.32l-.83 1.757a.244.244 0 0 1-.183.139l-1.858.281a.554.554 0 0 0-.445.391.588.588 0 0 0 .14.589L6.627 9.96a.26.26 0 0 1 .07.224l-.317 1.931a.58.58 0 0 0 .12.466.54.54 0 0 0 .678.14l1.662-.912a.24.24 0 0 1 .226 0l1.662.912a.527.527 0 0 0 .678-.14.58.58 0 0 0 .12-.466l-.317-1.93a.26.26 0 0 1 .07-.225l1.344-1.368z"/><path d="M1.7 4.765L8.951.577l7.253 4.188v8.374l-7.253 4.188-7.253-4.188V4.765z"/></symbol><symbol viewBox="0 0 65 44" id="skillbranch" xmlns="http://www.w3.org/2000/svg"><path d="M3.21 42.57a.364.364 0 0 0-.054-.197.448.448 0 0 0-.183-.158 1.53 1.53 0 0 0-.35-.14 6.235 6.235 0 0 0-.555-.125 5.632 5.632 0 0 1-.779-.211 2.562 2.562 0 0 1-.6-.31 1.46 1.46 0 0 1-.394-.423 1.07 1.07 0 0 1-.138-.549c0-.2.047-.392.143-.575.095-.183.233-.343.412-.481.179-.138.397-.248.654-.328.256-.081.546-.122.868-.122.337 0 .64.04.909.122.269.078.495.187.68.328a1.348 1.348 0 0 1 .578 1.12H3.156a.588.588 0 0 0-.228-.473c-.152-.129-.383-.193-.694-.193-.29 0-.509.052-.658.157-.146.105-.22.234-.22.387 0 .072.016.14.045.202.03.06.082.116.157.166.078.048.182.093.313.135.132.04.299.074.502.104.292.048.564.11.815.184.25.075.467.172.649.292.182.117.324.261.425.432.105.168.157.369.157.602 0 .216-.052.416-.157.598-.101.18-.247.336-.438.468a2.224 2.224 0 0 1-.685.31 3.48 3.48 0 0 1-.9.108c-.365 0-.687-.048-.967-.144a2.274 2.274 0 0 1-.699-.373 1.653 1.653 0 0 1-.43-.526A1.355 1.355 0 0 1 0 42.364h1.186a.7.7 0 0 0 .108.341c.063.093.143.17.242.23.098.056.21.098.335.125.129.027.26.04.394.04.308 0 .542-.049.703-.148.162-.098.242-.226.242-.382zm4.204-.674l-.564.526v1.484H5.605V37H6.85v3.947l.376-.431 1.339-1.475h1.495L8.234 41.07l2.082 2.837H8.789l-1.375-2.01zm4.016-2.855h2.637v3.849h1.312v1.016H11.43v-1.017h1.38v-2.827h-1.38v-1.02zm1.29-1.245a.69.69 0 0 1 .049-.265.66.66 0 0 1 .372-.35.85.85 0 0 1 .295-.05c.221 0 .396.062.524.188a.623.623 0 0 1 .197.477.638.638 0 0 1-.197.48c-.128.124-.303.185-.524.185a.848.848 0 0 1-.295-.05.698.698 0 0 1-.224-.134.656.656 0 0 1-.148-.212.732.732 0 0 1-.05-.27zM16.866 37h2.708v5.89h1.388v1.016h-4.096v-1.017h1.45v-4.868h-1.45V37zm5.507 0h2.708v5.89h1.388v1.016h-4.096v-1.017h1.45v-4.868h-1.45V37zm15.119 4.523c0 .362-.04.695-.12.998a2.29 2.29 0 0 1-.355.782 1.68 1.68 0 0 1-.59.513c-.236.12-.51.18-.824.18-.284 0-.53-.053-.739-.158a1.627 1.627 0 0 1-.533-.45l-.058.518h-1.12V37h1.245v2.482c.144-.168.312-.298.506-.391a1.6 1.6 0 0 1 .69-.14c.316 0 .592.062.828.184.239.123.437.294.596.513.158.219.276.481.353.787.08.302.121.634.121.993v.095zm-1.245-.095a3.37 3.37 0 0 0-.044-.562 1.408 1.408 0 0 0-.157-.463.822.822 0 0 0-.296-.319.875.875 0 0 0-.47-.117c-.227 0-.412.048-.555.144a.95.95 0 0 0-.327.396v1.937a.95.95 0 0 0 .327.396c.143.096.331.144.564.144a.907.907 0 0 0 .466-.108.816.816 0 0 0 .29-.306c.076-.132.128-.286.158-.463.03-.18.044-.374.044-.584v-.095zm5.865-2.477c.189 0 .362.014.52.04.161.025.29.052.39.082l-.184 1.245a3.975 3.975 0 0 0-.506-.085 3.988 3.988 0 0 0-.488-.032c-.35 0-.63.068-.842.202a1.23 1.23 0 0 0-.47.58v2.923h-1.245V39.04h1.16l.058.796a2.2 2.2 0 0 1 .708-.648 1.77 1.77 0 0 1 .9-.238zm5.055 4.955a1.114 1.114 0 0 1-.076-.207 2.746 2.746 0 0 1-.053-.247 1.64 1.64 0 0 1-.896.498c-.131.03-.273.045-.425.045a2.09 2.09 0 0 1-.685-.107 1.623 1.623 0 0 1-.533-.302 1.378 1.378 0 0 1-.35-.458 1.369 1.369 0 0 1-.125-.585c0-.512.19-.908.569-1.187.382-.281.95-.422 1.706-.422h.694v-.288c0-.234-.076-.418-.229-.553-.152-.138-.371-.207-.658-.207-.254 0-.439.056-.555.167a.566.566 0 0 0-.175.436h-1.244c0-.207.044-.403.134-.59.093-.185.225-.348.399-.49.176-.14.39-.251.64-.332a2.76 2.76 0 0 1 .868-.126c.293 0 .564.036.815.108.254.072.473.178.658.32.185.14.33.319.435.534.104.213.156.46.156.742v2.086c0 .26.017.477.05.648.032.17.08.317.143.44v.077h-1.263zm-1.186-.877a1.295 1.295 0 0 0 .864-.324.906.906 0 0 0 .148-.189v-.836h-.636c-.194 0-.36.02-.497.059a.897.897 0 0 0-.336.157.604.604 0 0 0-.192.243.736.736 0 0 0-.063.305c0 .168.058.308.175.419.119.11.298.166.537.166zm4.795-3.988l.076.675a1.84 1.84 0 0 1 .631-.563c.248-.134.523-.202.824-.202a2 2 0 0 1 .672.108c.203.072.377.187.523.346.15.156.265.358.345.607.084.246.126.546.126.9v2.994h-1.245v-2.977c0-.192-.022-.349-.067-.472a.67.67 0 0 0-.184-.296.657.657 0 0 0-.29-.149 1.508 1.508 0 0 0-.386-.045 1.06 1.06 0 0 0-.541.13.992.992 0 0 0-.363.351v3.458h-1.25V39.04h1.129zm6.524 3.956c.122 0 .238-.018.348-.053a.93.93 0 0 0 .291-.153.672.672 0 0 0 .193-.239.6.6 0 0 0 .063-.31h1.173c.006.252-.047.486-.157.702a1.704 1.704 0 0 1-.443.557 2.167 2.167 0 0 1-.658.369 2.36 2.36 0 0 1-.788.13 2.42 2.42 0 0 1-.99-.189 2.037 2.037 0 0 1-.712-.526 2.317 2.317 0 0 1-.43-.778c-.095-.3-.143-.62-.143-.962v-.135c0-.341.048-.66.144-.957.095-.3.238-.56.43-.783.19-.221.426-.397.707-.526.283-.128.611-.193.985-.193.298 0 .574.045.828.135.254.09.471.217.654.382.185.162.328.36.43.594.1.23.149.49.143.777h-1.173a.823.823 0 0 0-.054-.341.768.768 0 0 0-.184-.279.878.878 0 0 0-.29-.184.943.943 0 0 0-.372-.072.9.9 0 0 0-.488.121.918.918 0 0 0-.31.324c-.074.135-.128.29-.16.463-.03.174-.045.354-.045.54v.134c0 .19.015.372.045.549.03.174.082.328.156.463a.92.92 0 0 0 .31.319.932.932 0 0 0 .496.121zm4.606-3.286c.161-.237.357-.423.587-.557.233-.135.492-.203.779-.203.254 0 .486.04.698.117.212.075.394.193.546.355.153.162.27.37.354.625.087.252.13.556.13.913v2.945h-1.245v-2.954c0-.174-.022-.324-.067-.45a.742.742 0 0 0-.183-.306.73.73 0 0 0-.291-.17 1.18 1.18 0 0 0-.385-.059c-.21 0-.392.038-.547.113-.152.075-.277.18-.376.314v3.512h-1.244V37h1.244v2.711z"/><path d="M32.196 0l-.433.252-12.998 7.5-.433.253v15.991l.433.252 3.587 2.073.866-1.496-3.155-1.821V8.996l12.133-6.995 12.133 6.995v14.008l-12.133 6.995-1.64-.938c.153-.348.233-.715.233-1.117a2.66 2.66 0 0 0-.018-.27v-.019l7.879-4.543.433-.252v-6.094c1.802-.346 3.172-1.922 3.172-3.822a3.925 3.925 0 0 0-3.912-3.912 3.925 3.925 0 0 0-3.912 3.912c0 1.805 1.25 3.322 2.92 3.768v5.156l-7.283 4.2a2.822 2.822 0 0 0-1.406-.865v-7.265a3.915 3.915 0 0 0 3.21-3.84 3.925 3.925 0 0 0-3.913-3.912 3.925 3.925 0 0 0-3.912 3.912c0 1.792 1.232 3.31 2.884 3.768v7.446a2.846 2.846 0 0 0-1.802 2.632 2.844 2.844 0 0 0 2.83 2.83c.517 0 1.006-.15 1.424-.396l2.38 1.37.433.252.432-.252 12.999-7.5.432-.253V8.005l-.432-.253-12.999-7.5L32.196 0zm6.147 10.763c1.215 0 2.182.966 2.182 2.181a2.168 2.168 0 0 1-2.182 2.182 2.168 2.168 0 0 1-2.181-2.182c0-1.215.966-2.181 2.181-2.181zM27.96 11.917c1.215 0 2.181.966 2.181 2.181a2.168 2.168 0 0 1-2.18 2.181 2.168 2.168 0 0 1-2.182-2.181c0-1.215.966-2.181 2.181-2.181zm0 14.927c.618 0 1.1.482 1.1 1.1 0 .617-.482 1.1-1.1 1.1-.617 0-1.1-.483-1.1-1.1 0-.618.482-1.1 1.1-1.1z" class="mlogo"/></symbol><symbol viewBox="0 0 18 18" id="views" xmlns="http://www.w3.org/2000/svg"><path d="M1.7 4.86L8.951.674l7.253 4.188v8.374l-7.253 4.188-7.253-4.188V4.861z"/><path d="M8.953 6.67c-2.937 0-4.476 2.163-4.476 2.506 0 .343 1.539 2.507 4.476 2.507 2.936 0 4.476-2.164 4.476-2.507 0-.343-1.54-2.507-4.476-2.507zm0 4.434c-1.1 0-1.99-.863-1.99-1.928s.89-1.928 1.99-1.928c1.098 0 1.989.863 1.989 1.928s-.89 1.928-1.99 1.928zm.994-1.928c0 .532-.445.964-.994.964-.55 0-.995-.432-.995-.964s.445-.964.995-.964c.296 0-.183.764 0 .964.154.17.994-.245.994 0z"/></symbol></svg>