<?xml version="1.0" encoding="utf-8"?><svg xmlns="http://www.w3.org/2000/svg" xmlns:xlink="http://www.w3.org/1999/xlink"><symbol fill="none" viewBox="0 0 11 13" id="js" xmlns="http://www.w3.org/2000/svg"><path d="M5.499 13a.92.92 0 0 1-.477-.135l-1.518-.938c-.227-.133-.113-.18-.04-.208a2.93 2.93 0 0 0 .682-.327.11.11 0 0 1 .114.01l1.166.725a.143.143 0 0 0 .141 0l4.551-2.75a.148.148 0 0 0 .051-.055.156.156 0 0 0 .019-.074V3.75a.159.159 0 0 0-.07-.131L5.574.87a.135.135 0 0 0-.14 0L.887 3.619a.15.15 0 0 0-.052.055.16.16 0 0 0-.02.076v5.498a.15.15 0 0 0 .02.074c.013.023.03.041.052.054l1.245.753c.676.358 1.089-.062 1.089-.477V4.22a.143.143 0 0 1 .039-.098.13.13 0 0 1 .093-.04h.577c.035 0 .068.015.093.04a.141.141 0 0 1 .039.098v5.429c0 .945-.492 1.487-1.346 1.487-.263 0-.47 0-1.047-.298L.477 10.12a.985.985 0 0 1-.35-.37A1.044 1.044 0 0 1 0 9.248V3.75c0-.176.044-.349.128-.501a.981.981 0 0 1 .349-.367L5.027.128a.96.96 0 0 1 .957 0l4.538 2.754a.982.982 0 0 1 .35.367c.084.152.128.325.128.5v5.499c0 .176-.045.349-.129.501a.987.987 0 0 1-.349.368l-4.544 2.75a.923.923 0 0 1-.48.133z" fill="#679E63"/><path d="M6.903 9.213c-1.989 0-2.405-.954-2.405-1.759a.142.142 0 0 1 .038-.097.13.13 0 0 1 .093-.04h.587c.032 0 .063.012.087.034a.14.14 0 0 1 .044.085c.089.627.354.944 1.556.944.958 0 1.366-.228 1.366-.76 0-.308-.114-.535-1.605-.688-1.243-.134-2.012-.419-2.012-1.462 0-.962.773-1.534 2.07-1.534 1.456 0 2.176.53 2.267 1.67a.142.142 0 0 1-.034.105.13.13 0 0 1-.097.044h-.59a.127.127 0 0 1-.082-.03.138.138 0 0 1-.046-.078c-.141-.663-.486-.876-1.419-.876-1.045 0-1.167.382-1.167.668 0 .347.143.447 1.555.643 1.412.195 2.06.467 2.06 1.496 0 1.03-.825 1.635-2.266 1.635z" fill="#679E63"/></symbol><symbol fill="none" viewBox="0 0 67 70" id="prize" xmlns="http://www.w3.org/2000/svg"><path fill-rule="evenodd" clip-rule="evenodd" d="M16.363 33.625l8.543-1.224c1.456-.209 2.471-1.582 2.267-3.068-.205-1.485-1.552-2.52-3.009-2.312l-6.793.974 1.749-.25c-1.457.208-2.804-.827-3.008-2.312-.205-1.486.81-2.86 2.267-3.068l26.033-3.731c1.456-.209 2.803.826 3.008 2.312.205 1.485-.81 2.859-2.267 3.067l1.75-.25-6.794.973c-1.457.21-2.472 1.583-2.267 3.068.205 1.486 1.552 2.52 3.008 2.312l8.543-1.224 12.243-1.755c1.457-.209 2.804.826 3.008 2.312.205 1.485-.81 2.859-2.267 3.067l-12.243 1.755-3.295.472c-1.457.21-2.472 1.583-2.267 3.068.205 1.486 1.552 2.52 3.008 2.312l3.295-.472 12.244-1.755c1.457-.209 2.804.826 3.008 2.312.205 1.485-.81 2.859-2.267 3.068L6.344 51.517c-1.457.21-2.804-.826-3.008-2.311-.205-1.486.81-2.86 2.267-3.068l12.243-1.755 3.295-.472c1.457-.209 2.472-1.582 2.267-3.068-.205-1.485-1.552-2.52-3.008-2.312l-3.295.473L4.86 40.759c-1.457.21-2.803-.826-3.008-2.311-.205-1.486.81-2.86 2.267-3.068l12.243-1.755z" fill="#F3F6FB"/><path d="M6.912.805c2.144.014 3.317 1.197 3.52 3.55.203 2.351 1.292 3.45 3.268 3.294" stroke="#5374FC" stroke-linecap="round" stroke-linejoin="round"/><path d="M54.672 66.046a2.268 2.268 0 0 0 2.259-2.278 2.268 2.268 0 0 0-2.258-2.277 2.268 2.268 0 0 0-2.259 2.277 2.268 2.268 0 0 0 2.258 2.278zM2.134 34.774c.57-.36 1.013-.158 1.328.607.237.751.535 1.211.894 1.38.36.17.904.094 1.632-.226.658-.285 1.2-.327 1.628-.126.427.201.737.644.928 1.328.192.752.498 1.227.918 1.425.42.198.965.122 1.633-.226.665-.281 1.21-.322 1.637-.121.425.2.733.642.923 1.325.075.49.249.8.52.927" stroke="#6800FC" stroke-linecap="round" stroke-linejoin="round"/><path d="M42.133 7.549c.093-.672.531-.884 1.315-.636.723.3 1.264.366 1.623.197.36-.17.652-.638.878-1.406.205-.691.522-1.137.95-1.338.427-.201.962-.156 1.605.136.695.336 1.253.405 1.673.207.42-.198.713-.666.878-1.406.214-.695.534-1.143.96-1.343.426-.2.959-.154 1.6.139.42.257.767.321 1.04.193" stroke="#E9007F" stroke-linecap="round" stroke-linejoin="round"/><path fill-rule="evenodd" clip-rule="evenodd" d="M44.316 17.261h6.639c.678 0 1.229.559 1.229 1.247v6.075c0 4.043-3.23 7.32-7.215 7.32h-2.35l1.697-14.642zm.022 2.282l-.612 10.074 1.737-.494c2.402-.683 4.116-2.834 4.27-5.36l.219-3.558a.625.625 0 0 0-.614-.662h-5z" fill="#FFC300"/><path d="M22.684 17.261h-6.639c-.679 0-1.229.559-1.229 1.247v6.075c0 4.043 3.23 7.32 7.216 7.32h2.349l-1.697-14.642zm-.022 2.282l.612 10.074-1.737-.494c-2.402-.683-4.116-2.834-4.27-5.36l-.218-3.558a.625.625 0 0 1 .613-.662h5z" fill="#FFC300"/><path d="M22.684 17.261h-6.639c-.679 0-1.229.559-1.229 1.247v6.075c0 4.043 3.23 7.32 7.216 7.32h2.349l-1.697-14.642zm-.022 2.282l.612 10.074-1.737-.494c-2.402-.683-4.116-2.834-4.27-5.36l-.218-3.558a.625.625 0 0 1 .613-.662h5z" fill="#FFC300" filter="url(#ba)"/><path d="M45.023 50.98H21.978a.463.463 0 0 0-.459.467c0 .258.206.467.46.467h23.044a.463.463 0 0 0 .459-.467.463.463 0 0 0-.459-.468zM33.495 14.735h10.208c.339 0 .613.28.613.625v10.31c0 3.023-1.118 5.858-3.354 8.504-3.102 3.673-6.257 4.228-5.816 8.592l-1.582.012h-.07l-1.581-.012c.44-4.364-2.715-4.919-5.817-8.592-2.236-2.646-3.354-5.481-3.354-8.504V15.36a.62.62 0 0 1 .613-.625h10.14z" fill="#FFC300"/><path d="M33.495 14.735h10.208c.339 0 .613.28.613.625v10.31c0 3.023-1.118 5.858-3.354 8.504-3.102 3.673-6.257 4.228-5.816 8.592l-1.582.012h-.07l-1.581-.012c.44-4.364-2.715-4.919-5.817-8.592-2.236-2.646-3.354-5.481-3.354-8.504V15.36a.62.62 0 0 1 .613-.625h10.14z" fill="#FFC300" filter="url(#bb)"/><path d="M22.904 53.785h-4.92a.463.463 0 0 0-.459.467c0 .258.206.468.459.468h4.92c.253 0 .458-.21.458-.468a.463.463 0 0 0-.458-.467z" fill="#FFC300"/><path d="M41.18 42.634H25.82v8.416h15.36v-8.416z" fill="#EC610A"/><path d="M38.722 44.504H28.277v4.676h10.445v-4.676zm-7.83 9.281H27.2a.463.463 0 0 0-.459.467c0 .258.206.468.459.468h3.69c.254 0 .46-.21.46-.468a.463.463 0 0 0-.46-.467z" fill="#FFC300"/><path fill-rule="evenodd" clip-rule="evenodd" d="M33.5 27.827l-3.43 1.83.655-3.877-2.776-2.745 3.836-.566 1.716-3.527 1.715 3.527 3.836.566-2.776 2.745.655 3.877-3.43-1.83z" fill="#EC610A"/><path d="M25.068 23.375c.165 2.922.627 5.159 1.385 6.713m.965 1.973c.56.847 1.024 1.452 1.388 1.815" stroke="#EC610A" stroke-linecap="round" stroke-linejoin="round"/><path d="M35.807 53.785h-2.155a.463.463 0 0 0-.459.467c0 .258.206.468.459.468h2.155c.253 0 .459-.21.459-.468a.463.463 0 0 0-.46-.467zm15.668 0H39.796a.463.463 0 0 0-.458.467c0 .258.205.468.458.468h11.679c.253 0 .459-.21.459-.468a.463.463 0 0 0-.46-.467z" fill="#FFC300"/><path d="M25.418 62.205l-6.738-.714-.709 6.795L24.71 69l.708-6.795z" stroke="red"/><defs><filter id="ba" x="10.816" y="17.261" width="13.565" height="14.643" filterUnits="userSpaceOnUse" color-interpolation-filters="sRGB"><feFlood flood-opacity="0" result="BackgroundImageFix"/><feBlend in="SourceGraphic" in2="BackgroundImageFix" result="shape"/><feColorMatrix in="SourceAlpha" values="0 0 0 0 0 0 0 0 0 0 0 0 0 0 0 0 0 0 127 0" result="hardAlpha"/><feOffset dx="-6"/><feGaussianBlur stdDeviation="2"/><feComposite in2="hardAlpha" operator="arithmetic" k2="-1" k3="1"/><feColorMatrix values="0 0 0 0 0 0 0 0 0 0 0 0 0 0 0 0 0 0 0.08 0"/><feBlend in2="shape" result="effect1_innerShadow"/></filter><filter id="bb" x="22.742" y="14.735" width="25.574" height="28.044" filterUnits="userSpaceOnUse" color-interpolation-filters="sRGB"><feFlood flood-opacity="0" result="BackgroundImageFix"/><feBlend in="SourceGraphic" in2="BackgroundImageFix" result="shape"/><feColorMatrix in="SourceAlpha" values="0 0 0 0 0 0 0 0 0 0 0 0 0 0 0 0 0 0 127 0" result="hardAlpha"/><feOffset dx="6"/><feGaussianBlur stdDeviation="2"/><feComposite in2="hardAlpha" operator="arithmetic" k2="-1" k3="1"/><feColorMatrix values="0 0 0 0 0 0 0 0 0 0 0 0 0 0 0 0 0 0 0.08 0"/><feBlend in2="shape" result="effect1_innerShadow"/></filter></defs></symbol><symbol fill="none" viewBox="0 0 15 13" id="react" xmlns="http://www.w3.org/2000/svg"><path d="M0 6.523c0-1.092 1.106-2.111 2.85-2.686-.348-1.69-.062-3.052.892-3.582.982-.546 2.444-.168 3.831 1C8.926.135 10.293-.307 11.247.226c.98.547 1.278 2.001.92 3.744C13.985 4.548 15 5.417 15 6.523c0 1.067-1.108 1.99-2.829 2.56.386 1.815.06 3.144-.935 3.697-.959.533-2.342.069-3.714-1.083-1.428 1.222-2.797 1.595-3.79 1.041-.958-.534-1.231-1.921-.882-3.642C1.165 8.529 0 7.586 0 6.523z" fill="#fff"/><path d="M11.806 8.517c-.141.047-.284.09-.428.13.023.094.046.188.066.282.324 1.519.112 2.742-.613 3.145-.695.387-1.831-.016-2.979-.979a8.872 8.872 0 0 1-.332-.293 8.048 8.048 0 0 1-.22.196c-1.203 1.03-2.41 1.464-3.133 1.06-.694-.388-.9-1.538-.608-2.978.03-.142.062-.284.099-.425a9.071 9.071 0 0 1-.493-.15C1.755 8.032.854 7.29.854 6.518c0-.796.966-1.594 2.435-2.078.12-.039.24-.075.36-.108a8.14 8.14 0 0 1-.104-.459C3.266 2.46 3.484 1.335 4.176.95c.716-.397 1.916.012 3.085.996.092.078.185.16.278.247.117-.108.237-.214.36-.316C9.03.937 10.149.558 10.84.944c.715.4.947 1.606.645 3.074a7.02 7.02 0 0 1-.08.343c.085.024.167.049.248.074 1.527.488 2.52 1.277 2.52 2.083 0 .773-.929 1.521-2.368 1.999z" fill="#53C1DE"/><path d="M11.476 4.956a7.686 7.686 0 0 0-.223-.067 12.616 12.616 0 0 1-.675 1.626c.266.552.485 1.092.648 1.603.137-.038.269-.078.396-.12 1.233-.409 1.985-1.014 1.985-1.48 0-.496-.812-1.14-2.13-1.562zm-.547-1.045c.134-.649.153-1.236.064-1.695-.08-.412-.239-.687-.436-.797-.42-.234-1.318.07-2.286.874a8.6 8.6 0 0 0-.335.294c.376.396.75.856 1.117 1.367.644.055 1.252.145 1.804.268.027-.106.051-.21.072-.31zM5.396 1.46c-.41-.14-.737-.144-.934-.034-.42.233-.595 1.135-.357 2.345.029.143.061.285.098.426.545-.116 1.15-.2 1.795-.25.368-.5.754-.96 1.143-1.362a6.91 6.91 0 0 0-.253-.225c-.517-.436-1.035-.745-1.492-.9zm-1.921 3.5c-.65.213-1.186.491-1.554.795-.33.273-.497.543-.497.763 0 .468.723 1.064 1.93 1.47.15.05.303.097.458.139.166-.523.385-1.07.649-1.622a12.917 12.917 0 0 1-.657-1.645c-.11.03-.22.064-.33.1zm.644 4.226c-.25 1.233-.084 2.163.334 2.397.446.248 1.431-.106 2.47-.995.066-.057.133-.116.2-.178-.387-.4-.77-.857-1.135-1.354A14.389 14.389 0 0 1 4.21 8.79a7.803 7.803 0 0 0-.091.396zm5.746-1.368c-.13.217-.265.43-.405.642.425-.052.832-.12 1.215-.205a11.439 11.439 0 0 0-.427-1.105c-.123.225-.25.448-.383.668zm-2.343 2.2c.262-.274.525-.58.784-.912-.525.024-1.05.024-1.575 0 .26.33.524.635.79.912zM5.163 7.814a16.65 16.65 0 0 1-.376-.664 12.18 12.18 0 0 0-.423 1.111c.38.082.786.15 1.208.2a16.024 16.024 0 0 1-.409-.647zm.421-3.278c-.436.047-.848.11-1.228.19.118.366.263.747.432 1.134a15.948 15.948 0 0 1 .796-1.324zM7.538 2.98c-.27.28-.54.59-.802.924a20.603 20.603 0 0 1 1.584.003c-.26-.34-.522-.65-.782-.927zm2.716 2.9c.178-.392.328-.77.447-1.13a12.494 12.494 0 0 0-1.243-.204 19.082 19.082 0 0 1 .796 1.334zm-.88-.407a17.651 17.651 0 0 0-.639-.994 19.37 19.37 0 0 0-2.426-.005A15.49 15.49 0 0 0 5.09 6.506a15.34 15.34 0 0 0 1.213 2.026 16.723 16.723 0 0 0 2.428 0 17.784 17.784 0 0 0 1.216-2.018c-.178-.353-.369-.7-.573-1.04zm1.174 6.126c.447-.248.62-1.248.34-2.56a7.218 7.218 0 0 0-.06-.255c-.553.123-1.153.215-1.781.272-.366.502-.746.959-1.126 1.354.1.093.202.183.306.271.983.825 1.903 1.151 2.321.918z" fill="#fff"/><path d="M7.514 7.665c.657 0 1.19-.514 1.19-1.147s-.533-1.147-1.19-1.147c-.657 0-1.19.514-1.19 1.147s.533 1.147 1.19 1.147z" fill="#53C1DE"/></symbol><symbol fill="none" viewBox="0 0 13 10" id="vue" xmlns="http://www.w3.org/2000/svg"><path d="M8.001 0L6.5 2.31 4.999 0H0l6.5 10L13 0H8.001z" fill="#4DBA87"/><path d="M8 0L6.5 2.31 4.998 0H2.6l3.9 6 3.9-6H8z" fill="#435466"/></symbol><symbol fill="none" viewBox="0 0 13 14" id="webpack" xmlns="http://www.w3.org/2000/svg"><path d="M6.5 0L13 3.5v7L6.5 14 0 10.5v-7L6.5 0z" fill="#fff"/><path d="M11.84 10.259l-5.125 2.76v-2.15l3.193-1.672 1.931 1.062zm.35-.302v-5.77l-1.874 1.031v3.71l1.874 1.029zm-11.05.302l5.125 2.76v-2.15L3.07 9.198 1.14 10.26zm-.35-.302v-5.77l1.873 1.031v3.71L.79 9.956zm.22-6.144L6.264.983V3.06L2.897 4.823l-.027.015-1.86-1.025zm10.96 0L6.715.983V3.06l3.367 1.762.027.014 1.861-1.023z" fill="#8ED6FB"/><path d="M6.264 10.38l-3.15-1.65V5.465l3.15 1.732v3.184zm.45 0l3.151-1.648V5.464l-3.15 1.732v3.184zM3.327 5.087l3.162-1.654 3.163 1.654-3.163 1.738-3.162-1.738z" fill="#1C78C0"/></symbol></svg>