<?xml version="1.0" encoding="utf-8"?><svg xmlns="http://www.w3.org/2000/svg" xmlns:xlink="http://www.w3.org/1999/xlink"><symbol fill="none" viewBox="0 0 16 16" id="clock" xmlns="http://www.w3.org/2000/svg"><path d="M8 15A7 7 0 1 0 8 1a7 7 0 0 0 0 14z" stroke="#9CA9BA" stroke-linecap="round" stroke-linejoin="round"/><path d="M8 3.8V8l2.8 1.4" stroke="#9CA9BA" stroke-linecap="round" stroke-linejoin="round"/></symbol><symbol fill="none" viewBox="0 0 12 12" id="close" xmlns="http://www.w3.org/2000/svg"><path d="M11 1L1 11M1 1l10 10" stroke="#1C0E42" stroke-linecap="round" stroke-linejoin="round"/></symbol><symbol fill="none" viewBox="0 0 12 14" id="copy" xmlns="http://www.w3.org/2000/svg"><path d="M8.842.053H1.263C.568.053 0 .62 0 1.316v8.842h1.263V1.316h7.58V.053zm1.895 2.526H3.789c-.694 0-1.263.568-1.263 1.263v8.842c0 .695.569 1.263 1.263 1.263h6.948c.695 0 1.263-.568 1.263-1.263V3.842c0-.695-.568-1.263-1.263-1.263zm0 10.105H3.789V3.842h6.948v8.842z" fill="#9CA9BA"/></symbol><symbol fill="none" viewBox="0 0 13 13" id="exclamation-sign" xmlns="http://www.w3.org/2000/svg"><path d="M12.5 6.5a6 6 0 1 1-12 0 6 6 0 0 1 12 0zm-6-2.437V6.5" stroke="#1C0E43" stroke-linecap="round" stroke-linejoin="round"/><circle cx="6.5" cy="8.5" r=".5" fill="#1C0E43"/></symbol><symbol viewBox="0 0 63 63" fill="none" id="facebook-square" xmlns="http://www.w3.org/2000/svg"><rect x="10" y="4" width="43" height="43" rx="4" fill="#506AA6"/><path d="M27.74 26.711h1.2c.106 0 .212.101.212.202v7.209c0 .37.317.673.705.673h2.752c.388 0 .705-.303.705-.673v-7.209c0-.1.106-.202.212-.202H35.5c.353 0 .67-.235.706-.572l.458-2.628c.07-.404-.282-.808-.705-.808h-2.328a.31.31 0 0 1-.318-.303v-1.684c0-.438.247-.674.706-.674h2.08c.389 0 .706-.303.706-.674v-2.694c0-.37-.317-.674-.705-.674h-2.505c-4.585 0-4.48 3.537-4.48 4.042v2.459c0 .101-.105.202-.211.202h-1.2c-.387 0-.705.303-.705.674v2.627c.035.404.353.707.74.707z" fill="#fff"/></symbol><symbol fill="none" viewBox="0 0 9 17" id="fb" xmlns="http://www.w3.org/2000/svg"><path d="M.662 9.568h1.07c.095 0 .19.09.19.18v6.439c0 .33.284.601.63.601H5.01c.346 0 .63-.27.63-.601V9.748c0-.09.094-.18.189-.18h1.764c.315 0 .599-.211.63-.512l.41-2.347c.063-.36-.252-.722-.63-.722h-2.08a.276.276 0 0 1-.283-.27V4.211c0-.391.22-.602.63-.602h1.859c.347 0 .63-.27.63-.601V.602C8.76.27 8.476 0 8.13 0H5.892C1.796 0 1.89 3.16 1.89 3.61v2.197c0 .09-.094.18-.189.18H.631c-.347 0-.631.271-.631.602v2.347a.672.672 0 0 0 .662.632z" fill="#4460A0"/></symbol><symbol fill="none" viewBox="0 0 11 13" id="js" xmlns="http://www.w3.org/2000/svg"><path d="M5.499 13a.92.92 0 0 1-.477-.135l-1.518-.938c-.227-.133-.113-.18-.04-.208a2.93 2.93 0 0 0 .682-.327.11.11 0 0 1 .114.01l1.166.725a.143.143 0 0 0 .141 0l4.551-2.75a.148.148 0 0 0 .051-.055.156.156 0 0 0 .019-.074V3.75a.159.159 0 0 0-.07-.131L5.574.87a.135.135 0 0 0-.14 0L.887 3.619a.15.15 0 0 0-.052.055.16.16 0 0 0-.02.076v5.498a.15.15 0 0 0 .02.074c.013.023.03.041.052.054l1.245.753c.676.358 1.089-.062 1.089-.477V4.22a.143.143 0 0 1 .039-.098.13.13 0 0 1 .093-.04h.577c.035 0 .068.015.093.04a.141.141 0 0 1 .039.098v5.429c0 .945-.492 1.487-1.346 1.487-.263 0-.47 0-1.047-.298L.477 10.12a.985.985 0 0 1-.35-.37A1.044 1.044 0 0 1 0 9.248V3.75c0-.176.044-.349.128-.501a.981.981 0 0 1 .349-.367L5.027.128a.96.96 0 0 1 .957 0l4.538 2.754a.982.982 0 0 1 .35.367c.084.152.128.325.128.5v5.499c0 .176-.045.349-.129.501a.987.987 0 0 1-.349.368l-4.544 2.75a.923.923 0 0 1-.48.133z" fill="#679E63"/><path d="M6.903 9.213c-1.989 0-2.405-.954-2.405-1.759a.142.142 0 0 1 .038-.097.13.13 0 0 1 .093-.04h.587c.032 0 .063.012.087.034a.14.14 0 0 1 .044.085c.089.627.354.944 1.556.944.958 0 1.366-.228 1.366-.76 0-.308-.114-.535-1.605-.688-1.243-.134-2.012-.419-2.012-1.462 0-.962.773-1.534 2.07-1.534 1.456 0 2.176.53 2.267 1.67a.142.142 0 0 1-.034.105.13.13 0 0 1-.097.044h-.59a.127.127 0 0 1-.082-.03.138.138 0 0 1-.046-.078c-.141-.663-.486-.876-1.419-.876-1.045 0-1.167.382-1.167.668 0 .347.143.447 1.555.643 1.412.195 2.06.467 2.06 1.496 0 1.03-.825 1.635-2.266 1.635z" fill="#679E63"/></symbol><symbol fill="none" viewBox="0 0 48 48" id="js-round" xmlns="http://www.w3.org/2000/svg"><circle cx="24" cy="24" r="24" fill="#679E63"/><path d="M24.646 37.626c-.375 0-.744-.1-1.068-.29l-3.403-2.014c-.51-.284-.255-.386-.091-.445a6.733 6.733 0 0 0 1.53-.701.255.255 0 0 1 .255.02l2.614 1.556a.331.331 0 0 0 .316 0l10.202-5.902a.322.322 0 0 0 .155-.277v-11.8a.33.33 0 0 0-.158-.281l-10.181-5.898a.312.312 0 0 0-.314 0L14.31 17.492a.33.33 0 0 0-.161.281v11.8a.314.314 0 0 0 .16.274l2.79 1.618c1.516.768 2.441-.133 2.441-1.024V18.78a.295.295 0 0 1 .296-.294h1.293a.295.295 0 0 1 .296.294v11.652c0 2.03-1.102 3.192-3.017 3.192-.59 0-1.053 0-2.346-.64l-2.673-1.536a2.157 2.157 0 0 1-1.069-1.874v-11.8a2.16 2.16 0 0 1 1.069-1.863L23.59 10a2.228 2.228 0 0 1 2.143 0l10.173 5.91a2.152 2.152 0 0 1 1.071 1.863v11.8a2.172 2.172 0 0 1-1.071 1.866L25.72 37.342a2.14 2.14 0 0 1-1.074.284z" fill="#fff"/><path d="M27.794 29.499c-4.458 0-5.392-2.048-5.392-3.775a.292.292 0 0 1 .294-.295h1.316a.292.292 0 0 1 .293.256c.199 1.344.793 2.025 3.489 2.025 2.147 0 3.06-.49 3.06-1.63 0-.661-.255-1.15-3.596-1.478-2.787-.286-4.511-.898-4.511-3.138 0-2.063 1.734-3.291 4.639-3.291 3.264 0 4.879 1.136 5.083 3.583a.294.294 0 0 1-.175.296.29.29 0 0 1-.119.024h-1.323a.293.293 0 0 1-.286-.23c-.316-1.424-1.089-1.882-3.18-1.882-2.344 0-2.617.82-2.617 1.434 0 .744.321.96 3.486 1.38 3.165.42 4.62 1.003 4.62 3.212 0 2.209-1.852 3.509-5.081 3.509z" fill="#fff"/></symbol><symbol fill="none" viewBox="0 0 243 62" id="logo-full" xmlns="http://www.w3.org/2000/svg"><path d="M67.405 20.596c0 6.248 9.649 5.014 9.649 8.314 0 1.26-1.26 1.688-3.3 1.688-2.016 0-4.233-.53-6.248-1.865v3.603c1.814 1.008 4.081 1.587 6.525 1.587 3.703 0 6.877-1.235 6.877-5.19 0-6.272-9.648-5.139-9.648-8.187 0-1.083.957-1.612 2.871-1.637 1.966-.026 3.956.504 5.442 1.562v-3.527c-1.512-.857-3.628-1.36-5.719-1.36-3.476 0-6.449 1.612-6.449 5.012zM87.242 33.57v-7.205h2.847l4.812 7.205h4.181l-6.045-9.044 5.718-8.59h-4.207l-4.459 7.003h-2.847v-7.003h-3.778V33.57h3.778zm13.639-17.634V33.57h3.779V15.936h-3.779zm7.553 0V33.57h12.419v-3.4h-8.64V15.935h-3.779zm14.638 0V33.57h12.419v-3.4h-8.641V15.935h-3.778z" fill="#FF3531"/><path d="M137.709 15.936V33.57h7.582c3.074 0 6.928-.932 6.928-4.938 0-2.594-1.637-3.879-3.376-4.383 1.562-.529 2.671-1.788 2.671-3.854 0-3.023-2.343-4.46-6.097-4.46h-7.708zM148.44 28.23c0 1.914-1.511 2.267-3.199 2.267h-3.779v-4.535h3.98c1.512 0 2.998.403 2.998 2.268zm-.68-7.18c0 1.36-1.033 2.015-2.469 2.015h-3.804v-4.03h3.603c1.662 0 2.67.63 2.67 2.015zm10.997 12.52v-6.172h2.772l4.761 6.172h4.358l-5.265-6.65c2.141-.68 3.854-2.217 3.854-5.24 0-4.46-3.577-5.744-7.003-5.744h-7.255V33.57h3.778zm0-14.309h3.653c1.587 0 2.973.68 2.973 2.494 0 1.789-1.386 2.494-2.973 2.494h-3.653v-4.988zm16.099 14.309l1.31-3.3h8.062l1.284 3.3h3.905l-7.18-17.634h-4.081l-7.204 17.634h3.904zm4.938-12.747c.151-.353.277-.705.403-1.385.126.68.252 1.032.378 1.385l2.469 6.323h-5.694l2.444-6.323zm15.373 12.747v-9.094c0-.806-.025-1.688-.075-2.418l8.212 11.512h3.552V15.936h-3.779v9.094c0 .806.026 1.688.076 2.418l-8.212-11.512h-3.552V33.57h3.778zm14.477-8.615c0 6.146 4.812 8.968 9.523 8.968 1.864 0 3.602-.403 5.114-1.134v-3.703c-1.058.957-2.721 1.461-4.535 1.461-3.073 0-6.247-1.713-6.222-5.592 0-4.258 3.123-6.021 6.222-6.021 1.638 0 3.275.504 4.409 1.385v-3.602c-1.512-.756-3.275-1.134-5.039-1.134-4.711 0-9.447 2.923-9.472 9.372zm29.154-9.019v7.104h-7.91v-7.104h-3.778V33.57h3.778v-7.104h7.91v7.104h3.779V15.936h-3.779z" fill="#1C0E42"/><path d="M68.015 42.088c0 2.164 1.346 4.147 4.038 4.147 2.691 0 4.037-1.983 4.037-4.147 0-2.165-1.346-4.148-4.037-4.148-2.692 0-4.038 1.983-4.038 4.148zm6.404 0c0 1.401-.793 2.563-2.366 2.563-1.585 0-2.377-1.162-2.377-2.563 0-1.402.792-2.564 2.377-2.564 1.573 0 2.366 1.162 2.366 2.564zm8.036 1.492c0-1.675-1.031-2.632-2.312-2.632-.792 0-1.368.376-1.693.855.076-.536.358-1.208.955-1.55 1.01-.558 1.888-.262 2.594-.866V37.94c-.727.74-1.997.308-3.495 1.288-.933.615-1.595 1.743-1.595 3.703 0 2.358 1.248 3.304 2.778 3.304 1.574 0 2.768-.912 2.768-2.655zm-4.005.012c0-.581.325-1.38 1.237-1.38.922 0 1.226.764 1.226 1.38 0 .615-.303 1.378-1.226 1.378-.912 0-1.237-.763-1.237-1.378zm6.338-2.188v-.798h-1.335v7.976h1.509v-3.088c.336.388.89.741 1.715.741 1.65 0 2.54-1.401 2.54-2.894s-.89-2.894-2.54-2.894c-.966 0-1.563.467-1.889.957zm2.887 1.937c0 .855-.51 1.56-1.367 1.56-.663 0-1.15-.432-1.357-.91v-1.3c.206-.478.695-.911 1.357-.911.857 0 1.367.706 1.367 1.56zm7.185 1.322v-1.744c0-1.8-.998-2.472-2.56-2.472-.804 0-1.596.216-2.02.364v1.368c.49-.205 1.13-.41 1.846-.41.814 0 1.226.376 1.226.922v.194a5.423 5.423 0 0 0-1.237-.148c-1.042 0-2.29.433-2.29 1.823 0 1.082.846 1.675 1.823 1.675.77 0 1.368-.25 1.878-.672.217.41.618.615 1.15.615.293 0 .597-.068.836-.16v-1.036a.854.854 0 0 1-.282.045c-.196 0-.37-.08-.37-.364zm-2.398-.98c.315 0 .662.068.89.125v.855a1.67 1.67 0 0 1-1.172.444c-.456 0-.814-.262-.814-.672 0-.559.543-.752 1.096-.752zm8.134.877c0-.65-.379-1.105-.987-1.299.488-.137.879-.547.879-1.196 0-.798-.575-1.63-2.377-1.63-.727 0-1.476.183-1.964.456v1.254c.412-.228 1.172-.456 1.78-.456.672 0 1.02.216 1.02.58 0 .377-.37.514-.89.514h-.966v1.048h.966c.51 0 .998.057.998.535 0 .468-.51.616-1.215.616-.64 0-1.4-.24-1.791-.468v1.265c.477.262 1.172.445 1.986.445 1.79 0 2.561-.81 2.561-1.664zm.72-1.22c0 1.915 1.368 2.895 2.876 2.895 1.52 0 2.876-.98 2.876-2.894 0-1.914-1.356-2.894-2.876-2.894-1.508 0-2.876.98-2.876 2.894zm4.222 0c0 .844-.478 1.482-1.346 1.482-.857 0-1.335-.638-1.335-1.481 0-.843.478-1.481 1.335-1.481.868 0 1.346.638 1.346 1.48zm5.706 2.735c1.313 0 1.747-.706 1.747-1.48 0-.662-.358-1.095-.922-1.288.51-.205.803-.627.803-1.254 0-.74-.477-1.447-1.715-1.447h-3.104v5.47h3.191zm-1.682-2.267h1.237c.369 0 .695.137.695.604 0 .433-.315.581-.695.581h-1.237v-1.185zm-.011-2.12h1.14c.347 0 .662.138.662.593 0 .422-.293.57-.652.57h-1.15v-1.162zm9.115 2.975v-1.744c0-1.8-.999-2.472-2.561-2.472-.804 0-1.596.216-2.019.364v1.368c.488-.205 1.129-.41 1.845-.41.814 0 1.226.376 1.226.922v.194a5.424 5.424 0 0 0-1.237-.148c-1.042 0-2.29.433-2.29 1.823 0 1.082.847 1.675 1.823 1.675a2.82 2.82 0 0 0 1.878-.672c.217.41.619.615 1.15.615.293 0 .597-.068.836-.16v-1.036a.854.854 0 0 1-.282.045c-.195 0-.369-.08-.369-.364zm-2.399-.98c.315 0 .662.068.89.125v.855a1.67 1.67 0 0 1-1.172.444c-.456 0-.814-.262-.814-.672 0-.559.543-.752 1.096-.752zm6.359 2.392V41.94h1.661v-1.333h-4.819v1.334h1.66v4.135h1.498zm2.039-2.735c0 1.904 1.368 2.895 3.018 2.895.781 0 1.421-.125 1.91-.342v-1.242c-.445.205-.977.33-1.574.33-.857 0-1.66-.33-1.834-1.127h3.668c.348-1.618-.347-3.407-2.507-3.407-1.172 0-2.681.832-2.681 2.894zm3.832-.512h-2.323c.022-.752.586-1.173 1.226-1.173.945 0 1.151.797 1.097 1.173zm4.687-.968h1.335v4.215h1.509v-5.469h-4.233c-.097 2.45-.282 4.239-1.107 4.239a.83.83 0 0 1-.315-.069v1.254c.304.114.587.16.825.16 1.433 0 1.834-1.87 1.986-4.33zm6.836 4.215c1.367 0 2.105-.831 2.105-1.88 0-1.048-.738-1.88-2.105-1.88h-1.205v-1.709h-1.509v5.47h2.714zm-1.216-2.62h.847c.596 0 .922.273.922.74 0 .468-.326.741-.922.741h-.847v-1.481zm5.713 2.62v-2.073h2.106v2.073h1.508v-5.469h-1.508v2.074h-2.106v-2.074h-1.509v5.47h1.509zm4.6-2.735c0 1.915 1.368 2.895 2.876 2.895 1.52 0 2.876-.98 2.876-2.894 0-1.914-1.356-2.894-2.876-2.894-1.508 0-2.876.98-2.876 2.894zm4.222 0c0 .844-.477 1.482-1.346 1.482-.857 0-1.335-.638-1.335-1.481 0-.843.478-1.481 1.335-1.481.869 0 1.346.638 1.346 1.48zm2.222 0c0 1.904 1.368 2.895 3.017 2.895.782 0 1.422-.125 1.911-.342v-1.242c-.445.205-.977.33-1.574.33-.857 0-1.661-.33-1.834-1.127h3.668c.347-1.618-.347-3.407-2.507-3.407-1.172 0-2.681.832-2.681 2.894zm3.831-.512h-2.322c.022-.752.586-1.173 1.226-1.173.945 0 1.151.797 1.096 1.173zm4.956-4.728v7.975h1.628V38.1h-1.628zm2.581 0v1.538h2.334v6.437h1.617v-6.437h2.333V38.1h-6.284zm6.317 4.535v1.333h4.038v-1.334h-4.038zm7.392.785c0 1.949 1.422 2.815 2.844 2.815a4.27 4.27 0 0 0 1.758-.365v-1.4c-.38.24-.912.399-1.465.399-.814 0-1.596-.479-1.596-1.527 0-1.105.793-1.527 1.618-1.527.499 0 1.02.16 1.389.41v-1.39a3.307 3.307 0 0 0-1.606-.399c-1.444 0-2.942.89-2.942 2.986zm5.289-.08c0 1.915 1.368 2.895 2.876 2.895 1.52 0 2.876-.98 2.876-2.894 0-1.914-1.356-2.894-2.876-2.894-1.508 0-2.876.98-2.876 2.894zm4.222 0c0 .844-.477 1.482-1.346 1.482-.857 0-1.335-.638-1.335-1.481 0-.843.478-1.481 1.335-1.481.869 0 1.346.638 1.346 1.48zm2.222 0c0 1.915 1.368 2.895 2.876 2.895 1.52 0 2.877-.98 2.877-2.894 0-1.914-1.357-2.894-2.877-2.894-1.508 0-2.876.98-2.876 2.894zm4.222 0c0 .844-.477 1.482-1.346 1.482-.857 0-1.335-.638-1.335-1.481 0-.843.478-1.481 1.335-1.481.869 0 1.346.638 1.346 1.48zm7.844.24c0-1.675-1.031-2.632-2.311-2.632-.793 0-1.368.376-1.693.855.076-.536.358-1.208.955-1.55 1.009-.558 1.888-.262 2.594-.866V37.94c-.728.74-1.997.308-3.495 1.288-.934.615-1.596 1.743-1.596 3.703 0 2.358 1.249 3.304 2.779 3.304 1.574 0 2.767-.912 2.767-2.655zm-4.004.012c0-.581.325-1.38 1.237-1.38.922 0 1.226.764 1.226 1.38 0 .615-.304 1.378-1.226 1.378-.912 0-1.237-.763-1.237-1.378zm13.338 3.93v-2.745h-.781v-4.17h-1.498v4.135h-1.53v-4.136h-1.498v4.136h-1.519v-4.136h-1.509v5.47h6.946v1.446h1.389zm.54-4.182c0 1.904 1.368 2.895 3.017 2.895.782 0 1.422-.125 1.91-.342v-1.242c-.445.205-.976.33-1.573.33-.858 0-1.661-.33-1.835-1.127h3.669c.347-1.618-.347-3.407-2.507-3.407-1.172 0-2.681.832-2.681 2.894zm3.831-.512h-2.322c.021-.752.586-1.173 1.226-1.173.944 0 1.151.797 1.096 1.173zm2.083.592c0 1.949 1.422 2.815 2.844 2.815a4.27 4.27 0 0 0 1.758-.365v-1.4c-.38.24-.912.399-1.465.399-.814 0-1.596-.479-1.596-1.527 0-1.105.793-1.527 1.618-1.527.499 0 1.02.16 1.389.41v-1.39a3.308 3.308 0 0 0-1.607-.399c-1.443 0-2.941.89-2.941 2.986zm8.337 2.655V41.94h1.661v-1.333h-4.819v1.334h1.661v4.135h1.497zm5.661 0c1.313 0 1.748-.706 1.748-1.48 0-.662-.359-1.095-.923-1.288.51-.205.803-.627.803-1.254 0-.74-.477-1.447-1.715-1.447h-3.104v5.47h3.191zm-1.682-2.267h1.237c.369 0 .695.137.695.604 0 .433-.315.581-.695.581h-1.237v-1.185zm-.011-2.12h1.14c.347 0 .662.138.662.593 0 .422-.293.57-.651.57h-1.151v-1.162zm4.166 1.652c0 1.915 1.367 2.895 2.876 2.895 1.52 0 2.876-.98 2.876-2.894 0-1.914-1.356-2.894-2.876-2.894-1.509 0-2.876.98-2.876 2.894zm4.222 0c0 .844-.478 1.482-1.346 1.482-.857 0-1.335-.638-1.335-1.481 0-.843.478-1.481 1.335-1.481.868 0 1.346.638 1.346 1.48z" fill="#9CA9BA"/><path fill-rule="evenodd" clip-rule="evenodd" d="M19.687 49.759c.277.15.554.322.81.515l13.089-7.58V30.388c-3.257-.902-5.64-3.909-5.64-7.474 0-4.273 3.447-7.752 7.683-7.752 4.235 0 7.683 3.479 7.683 7.752 0 3.565-2.384 6.572-5.64 7.474V45.12l-15.09 8.784c.064.45.042.923-.021 1.353l4.044 2.384 22.858-13.315V17.674L26.605 4.36 3.745 17.674v26.652l7.918 4.638c-.83.924-1.468 2.04-1.787 3.286L0 46.495v-30.99L26.605 0l26.604 15.505v30.99L26.604 62l-5.895-3.479a5.134 5.134 0 0 1-3.256 1.181c-2.874 0-5.172-2.34-5.172-5.218 0-2.234 1.383-4.145 3.32-4.875v-13.68c-3.384-.816-5.896-3.887-5.896-7.56 0-4.273 3.448-7.752 7.684-7.752 4.235 0 7.683 3.479 7.683 7.752a7.774 7.774 0 0 1-5.385 7.41v13.98zM35.63 19.242a3.659 3.659 0 0 1 3.66 3.672c0 2.04-1.638 3.694-3.66 3.694-2.022 0-3.661-1.653-3.661-3.694a3.659 3.659 0 0 1 3.66-3.672zm-18.24 5.455c2.022 0 3.66 1.654 3.66 3.672 0 2.04-1.638 3.694-3.66 3.694-2.022 0-3.661-1.654-3.661-3.694 0-2.018 1.639-3.672 3.66-3.672zm.064 27.338a2.436 2.436 0 0 1 2.426 2.449 2.436 2.436 0 0 1-2.427 2.448 2.436 2.436 0 0 1-2.426-2.449 2.436 2.436 0 0 1 2.427-2.448z" fill="#FF3531"/></symbol><symbol fill="none" viewBox="0 0 63 63" id="mail-square" xmlns="http://www.w3.org/2000/svg"><rect x="10" y="4" width="43" height="43" rx="4" fill="#9CA9BA"/><path d="M39.394 32c.404 0 .755-.123 1.053-.365l-5.1-4.688-.353.233c-.382.259-.691.46-.93.605a5.92 5.92 0 0 1-.948.443 3.108 3.108 0 0 1-1.105.226h-.02c-.342 0-.71-.075-1.105-.226a5.903 5.903 0 0 1-.95-.443 23.9 23.9 0 0 1-.929-.605l-.352-.234-5.1 4.689a1.62 1.62 0 0 0 1.053.365h14.786zm-15.379-8.005A5.224 5.224 0 0 1 23 23.192v7.132l4.495-4.132c-.9-.577-2.058-1.308-3.48-2.197zm15.98 0a298.47 298.47 0 0 0-3.49 2.199L41 30.324v-7.132a5.436 5.436 0 0 1-1.005.803z" fill="#fff"/><path d="M39.392 19H24.607c-.516 0-.912.16-1.19.48-.278.32-.417.72-.417 1.2 0 .388.184.808.552 1.26.369.453.76.808 1.176 1.067.227.148.914.586 2.059 1.316a672.35 672.35 0 0 1 2.781 1.783l.277.183c.218.145.399.262.543.351.144.09.318.19.522.3.204.111.397.194.578.25.18.055.348.083.502.083h.02c.154 0 .321-.028.502-.083.181-.056.373-.139.578-.25.204-.11.378-.21.522-.3.144-.089.325-.206.543-.35a79.626 79.626 0 0 1 .427-.282l1.016-.65 3.684-2.351a4.601 4.601 0 0 0 1.226-1.136c.327-.443.492-.907.492-1.394 0-.406-.16-.754-.477-1.043a1.624 1.624 0 0 0-1.13-.434z" fill="#fff"/></symbol><symbol fill="none" viewBox="0 0 16 19" id="medal-bronze" xmlns="http://www.w3.org/2000/svg"><circle cx="8" cy="7" r="5" fill="#FF9D3B"/><path d="M15.103 8.619l-.946-1.265a.234.234 0 0 1-.004-.275l.926-1.277a.234.234 0 0 0-.083-.344l-1.413-.739a.23.23 0 0 1-.123-.247l.265-1.544a.237.237 0 0 0-.229-.274l-1.6-.066a.24.24 0 0 1-.22-.17L11.231.909a.243.243 0 0 0-.329-.15l-1.472.618a.254.254 0 0 1-.277-.058L8.085.155a.248.248 0 0 0-.364.004l-1.053 1.18a.241.241 0 0 1-.273.061L4.915.805a.243.243 0 0 0-.325.154l-.423 1.509a.244.244 0 0 1-.218.174l-1.599.09a.24.24 0 0 0-.225.278l.288 1.54c.02.1-.031.2-.118.247l-1.401.758a.235.235 0 0 0-.08.344l.946 1.265c.06.081.064.194.004.275L.838 8.715a.234.234 0 0 0 .083.345l1.413.738a.23.23 0 0 1 .123.248l-.265 1.543a.237.237 0 0 0 .23.275l1.598.066a.24.24 0 0 1 .222.17l.447 1.505c.04.135.194.209.329.15l1.472-.618a.254.254 0 0 1 .277.058l1.069 1.164a.248.248 0 0 0 .364-.004l1.053-1.18a.241.241 0 0 1 .273-.061l1.48.595a.243.243 0 0 0 .325-.154l.423-1.51a.244.244 0 0 1 .218-.173l1.6-.09a.24.24 0 0 0 .225-.278l-.29-1.54a.232.232 0 0 1 .12-.247l1.4-.758a.225.225 0 0 0 .076-.34zm-7.14 2.89c-2.395 0-4.346-1.908-4.346-4.248 0-2.34 1.951-4.248 4.346-4.248 2.394 0 4.346 1.908 4.346 4.248 0 2.344-1.952 4.247-4.346 4.247z" fill="#BF5327"/><path d="M10.54 6.205L8.9 6.09l-.617-1.485c-.115-.279-.522-.279-.637 0L7.028 6.09l-1.638.116c-.309.023-.432.398-.198.592l1.255 1.037-.392 1.558c-.075.294.253.527.514.368l1.394-.847 1.393.847c.261.159.59-.074.514-.368l-.39-1.559 1.254-1.037a.333.333 0 0 0-.194-.592z" fill="#BF5327"/><path d="M11.877 14.255a1.27 1.27 0 0 1-.895.363c-.122 0-.245-.019-.36-.05l-1.02-.301-.788.704c-.028.023-.052.046-.08.065l1.267 3.838c.043.135.222.166.313.054l.922-1.157a.18.18 0 0 1 .19-.062l1.437.41c.138.04.265-.088.221-.22l-1.207-3.644zm-5.551.012l-1.021.301c-.12.035-.238.05-.36.05-.345 0-.662-.135-.895-.363l-1.207 3.648c-.044.135.083.259.221.22l1.437-.41a.178.178 0 0 1 .19.062l.922 1.157a.18.18 0 0 0 .313-.055l1.267-3.837a.64.64 0 0 1-.08-.066l-.787-.707z" fill="#E95454"/></symbol><symbol fill="none" viewBox="0 0 16 19" id="medal-gold" xmlns="http://www.w3.org/2000/svg"><circle cx="8" cy="7" r="5" fill="#FFE28D"/><path d="M15.103 8.619l-.946-1.265a.234.234 0 0 1-.004-.275l.926-1.277a.234.234 0 0 0-.083-.344l-1.413-.739a.23.23 0 0 1-.123-.247l.265-1.544a.237.237 0 0 0-.229-.274l-1.6-.066a.24.24 0 0 1-.22-.17L11.231.909a.243.243 0 0 0-.329-.15l-1.472.618a.254.254 0 0 1-.277-.058L8.085.155a.248.248 0 0 0-.364.004l-1.053 1.18a.241.241 0 0 1-.273.061L4.915.805a.243.243 0 0 0-.325.154l-.423 1.509a.244.244 0 0 1-.218.174l-1.599.09a.24.24 0 0 0-.225.278l.288 1.54c.02.1-.031.2-.118.247l-1.401.758a.235.235 0 0 0-.08.344l.946 1.265c.06.081.064.194.004.275L.838 8.715a.234.234 0 0 0 .083.345l1.413.738a.23.23 0 0 1 .123.248l-.265 1.543a.237.237 0 0 0 .23.275l1.598.066a.24.24 0 0 1 .222.17l.447 1.505c.04.135.194.209.329.15l1.472-.618a.254.254 0 0 1 .277.058l1.069 1.164a.248.248 0 0 0 .364-.004l1.053-1.18a.241.241 0 0 1 .273-.061l1.48.595a.243.243 0 0 0 .325-.154l.423-1.51a.244.244 0 0 1 .218-.173l1.6-.09a.24.24 0 0 0 .225-.278l-.29-1.54a.232.232 0 0 1 .12-.247l1.4-.758a.225.225 0 0 0 .076-.34zm-7.14 2.89c-2.395 0-4.346-1.908-4.346-4.248 0-2.34 1.951-4.248 4.346-4.248 2.394 0 4.346 1.908 4.346 4.248 0 2.344-1.952 4.247-4.346 4.247z" fill="#FFCC5B"/><path d="M11.877 14.255a1.27 1.27 0 0 1-.895.363c-.122 0-.245-.019-.36-.05l-1.02-.301-.788.704c-.028.023-.052.046-.08.065l1.267 3.838c.043.135.222.166.313.054l.922-1.157a.18.18 0 0 1 .19-.062l1.437.41c.138.04.265-.088.221-.22l-1.207-3.644zm-5.551.012l-1.021.301c-.12.035-.238.05-.36.05-.345 0-.662-.135-.895-.363l-1.207 3.648c-.044.135.083.259.221.22l1.437-.41a.178.178 0 0 1 .19.062l.922 1.157a.18.18 0 0 0 .313-.055l1.267-3.837a.64.64 0 0 1-.08-.066l-.787-.707z" fill="#E95454"/><path d="M10.54 6.205L8.9 6.09l-.617-1.485c-.115-.279-.522-.279-.637 0L7.028 6.09l-1.638.116c-.309.023-.432.398-.198.592l1.255 1.037-.392 1.558c-.075.294.253.527.514.368l1.394-.847 1.393.847c.261.159.59-.074.514-.368l-.39-1.559 1.254-1.037a.333.333 0 0 0-.194-.592z" fill="#EC9922"/></symbol><symbol fill="none" viewBox="0 0 16 19" id="medal-silver" xmlns="http://www.w3.org/2000/svg"><circle cx="8" cy="7" r="5" fill="#D1DBE8"/><path d="M15.103 8.619l-.946-1.265a.234.234 0 0 1-.004-.275l.926-1.277a.234.234 0 0 0-.083-.344l-1.413-.739a.23.23 0 0 1-.123-.247l.265-1.544a.237.237 0 0 0-.229-.274l-1.6-.066a.24.24 0 0 1-.22-.17L11.231.909a.243.243 0 0 0-.329-.15l-1.472.618a.254.254 0 0 1-.277-.058L8.085.155a.248.248 0 0 0-.364.004l-1.053 1.18a.241.241 0 0 1-.273.061L4.915.805a.243.243 0 0 0-.325.154l-.423 1.509a.244.244 0 0 1-.218.174l-1.599.09a.24.24 0 0 0-.225.278l.288 1.54c.02.1-.031.2-.118.247l-1.401.758a.235.235 0 0 0-.08.344l.946 1.265c.06.081.064.194.004.275L.838 8.715a.234.234 0 0 0 .083.345l1.413.738a.23.23 0 0 1 .123.248l-.265 1.543a.237.237 0 0 0 .23.275l1.598.066a.24.24 0 0 1 .222.17l.447 1.505c.04.135.194.209.329.15l1.472-.618a.254.254 0 0 1 .277.058l1.069 1.164a.248.248 0 0 0 .364-.004l1.053-1.18a.241.241 0 0 1 .273-.061l1.48.595a.243.243 0 0 0 .325-.154l.423-1.51a.244.244 0 0 1 .218-.173l1.6-.09a.24.24 0 0 0 .225-.278l-.29-1.54a.232.232 0 0 1 .12-.247l1.4-.758a.225.225 0 0 0 .076-.34zm-7.14 2.89c-2.395 0-4.346-1.908-4.346-4.248 0-2.34 1.951-4.248 4.346-4.248 2.394 0 4.346 1.908 4.346 4.248 0 2.344-1.952 4.247-4.346 4.247z" fill="#9CA9BA"/><path d="M11.877 14.255a1.27 1.27 0 0 1-.895.363c-.122 0-.245-.019-.36-.05l-1.02-.301-.788.704c-.028.023-.052.046-.08.065l1.267 3.838c.043.135.222.166.313.054l.922-1.157a.18.18 0 0 1 .19-.062l1.437.41c.138.04.265-.088.221-.22l-1.207-3.644zm-5.551.012l-1.021.301c-.12.035-.238.05-.36.05-.345 0-.662-.135-.895-.363l-1.207 3.648c-.044.135.083.259.221.22l1.437-.41a.178.178 0 0 1 .19.062l.922 1.157a.18.18 0 0 0 .313-.055l1.267-3.837a.64.64 0 0 1-.08-.066l-.787-.707z" fill="#E95454"/><path d="M10.54 6.205L8.9 6.09l-.617-1.485c-.115-.279-.522-.279-.637 0L7.028 6.09l-1.638.116c-.309.023-.432.398-.198.592l1.255 1.037-.392 1.558c-.075.294.253.527.514.368l1.394-.847 1.393.847c.261.159.59-.074.514-.368l-.39-1.559 1.254-1.037a.333.333 0 0 0-.194-.592z" fill="#AFBCCD"/><path fill-rule="evenodd" clip-rule="evenodd" d="M10.976 4.204a4.384 4.384 0 0 0-3.013-1.19c-2.395 0-4.346 1.906-4.346 4.247 0 2.008 1.437 3.697 3.357 4.136a23.604 23.604 0 0 1-2.108 2.373.24.24 0 0 1-.177-.165L4.242 12.1a.24.24 0 0 0-.222-.17l-1.599-.066a.237.237 0 0 1-.23-.275l.266-1.543a.225.225 0 0 0-.028-.16.234.234 0 0 0-.095-.088L.921 9.06a.234.234 0 0 1-.083-.345l.926-1.276a.234.234 0 0 0-.004-.275L.814 5.9a.234.234 0 0 1 .08-.344l1.4-.758a.234.234 0 0 0 .12-.248l-.29-1.54a.24.24 0 0 1 .226-.278l1.6-.089a.244.244 0 0 0 .217-.174L4.59.959a.245.245 0 0 1 .325-.155l1.48.596a.242.242 0 0 0 .273-.062L7.721.158a.248.248 0 0 1 .364-.003l1.069 1.164a.255.255 0 0 0 .277.058l1.473-.619a.242.242 0 0 1 .328.151l.399 1.357c-.192.644-.41 1.291-.655 1.938z" fill="#B7C3D4" fill-opacity=".7"/></symbol><symbol fill="none" viewBox="0 0 16 19" id="medal-simple" xmlns="http://www.w3.org/2000/svg"><path d="M15.103 8.619l-.946-1.265a.234.234 0 0 1-.004-.275l.926-1.277a.234.234 0 0 0-.083-.344l-1.413-.739a.23.23 0 0 1-.123-.247l.265-1.544a.237.237 0 0 0-.229-.274l-1.6-.066a.24.24 0 0 1-.22-.17L11.231.909a.243.243 0 0 0-.329-.15l-1.472.618a.254.254 0 0 1-.277-.058L8.085.155a.248.248 0 0 0-.364.004l-1.053 1.18a.241.241 0 0 1-.273.061L4.915.805a.243.243 0 0 0-.325.154l-.423 1.509a.244.244 0 0 1-.218.174l-1.599.09a.24.24 0 0 0-.225.278l.288 1.54c.02.1-.031.2-.118.247l-1.401.758a.235.235 0 0 0-.08.344l.946 1.265c.06.081.064.194.004.275L.838 8.715a.234.234 0 0 0 .083.345l1.413.738a.23.23 0 0 1 .123.248l-.265 1.543a.237.237 0 0 0 .23.275l1.598.066a.24.24 0 0 1 .222.17l.447 1.505c.04.135.194.209.329.15l1.472-.618a.254.254 0 0 1 .277.058l1.069 1.164a.248.248 0 0 0 .364-.004l1.053-1.18a.241.241 0 0 1 .273-.061l1.48.595a.243.243 0 0 0 .325-.154l.423-1.51a.244.244 0 0 1 .218-.173l1.6-.09a.24.24 0 0 0 .225-.278l-.29-1.54a.232.232 0 0 1 .12-.247l1.4-.758a.225.225 0 0 0 .076-.34zm-7.14 2.89c-2.395 0-4.346-1.908-4.346-4.248 0-2.34 1.951-4.248 4.346-4.248 2.394 0 4.346 1.908 4.346 4.248 0 2.344-1.952 4.247-4.346 4.247zm3.914 2.746a1.27 1.27 0 0 1-.895.363c-.122 0-.245-.019-.36-.05l-1.02-.301-.788.704c-.028.023-.052.046-.08.065l1.267 3.838c.043.135.222.166.313.054l.922-1.157a.18.18 0 0 1 .19-.062l1.437.41c.138.04.265-.088.221-.22l-1.207-3.644zm-5.551.012l-1.021.301c-.12.035-.238.05-.36.05-.345 0-.662-.135-.895-.363l-1.207 3.648c-.044.135.083.259.221.22l1.437-.41a.178.178 0 0 1 .19.062l.922 1.157a.18.18 0 0 0 .313-.055l1.267-3.837a.64.64 0 0 1-.08-.066l-.787-.707z" fill="#9CA9BA"/><path d="M10.54 6.205L8.9 6.09l-.617-1.485c-.115-.279-.522-.279-.637 0L7.028 6.09l-1.638.116c-.309.023-.432.398-.198.592l1.255 1.037-.392 1.558c-.075.294.253.527.514.368l1.394-.847 1.393.847c.261.159.59-.074.514-.368l-.39-1.559 1.254-1.037a.333.333 0 0 0-.194-.592z" fill="#9CA9BA"/></symbol><symbol viewBox="0 0 18 19" id="members" xmlns="http://www.w3.org/2000/svg"><path d="M11.63 10.948h-.501a1.002 1.002 0 0 1-1.002-1.002v-.322c.221-.264.38-.575.48-.905.01-.055.063-.082.099-.12a.62.62 0 0 0 .085-.746c-.02-.035-.055-.066-.053-.11 0-.293.002-.587 0-.88-.008-.355-.11-.724-.358-.986a1.398 1.398 0 0 0-.76-.393 2.524 2.524 0 0 0-1.09.026 1.32 1.32 0 0 0-.777.526 1.518 1.518 0 0 0-.24.793c-.004.3-.001.599-.002.898.007.06-.044.101-.067.15a.62.62 0 0 0 .142.76c.055.038.065.108.085.168.095.296.253.57.452.808v.333c0 .553-.449 1.002-1.002 1.002h-.5s-.909.25-1.504 1.502v.502a.5.5 0 0 0 .501.5h7.014a.5.5 0 0 0 .5-.5v-.502c-.594-1.252-1.502-1.502-1.502-1.502z" fill="#9CA9BA"/><path d="M1.7 5.086L8.951.9l7.253 4.187v8.375l-7.253 4.187-7.253-4.187V5.086z" stroke="#9CA9BA"/></symbol><symbol fill="none" viewBox="0 0 112 106" id="play" xmlns="http://www.w3.org/2000/svg"><path fill-rule="evenodd" clip-rule="evenodd" d="M24 39C24 19.131 40.131 3 60 3s36 16.131 36 36-16.131 36-36 36-36-16.131-36-36z" fill="url(#apa)"/><path d="M57.336 31.217c-1.332-.847-3.074.109-3.074 1.687v12.192c0 1.578 1.742 2.534 3.074 1.687l9.579-6.096a2 2 0 0 0 0-3.374l-9.58-6.096z"/><circle opacity=".2" cx="60.001" cy="39" r="28.717" stroke="#FE3F67"/><path d="M89.218 39c0 16.136-13.081 29.217-29.217 29.217-16.137 0-29.218-13.08-29.218-29.217 0-16.136 13.081-29.217 29.218-29.217" stroke="#FE3F67" stroke-width="3" stroke-linecap="round"/><defs><radialGradient id="apa" cx="0" cy="0" r="1" gradientUnits="userSpaceOnUse" gradientTransform="rotate(-90 38.723 -12.91) scale(53.1871)"><stop stop-color="#fff"/><stop offset="1" stop-color="#FFDBEA"/></radialGradient></defs></symbol><symbol fill="none" viewBox="0 0 67 70" id="prize" xmlns="http://www.w3.org/2000/svg"><path fill-rule="evenodd" clip-rule="evenodd" d="M16.363 33.625l8.543-1.224c1.456-.209 2.471-1.582 2.267-3.068-.205-1.485-1.552-2.52-3.009-2.312l-6.793.974 1.749-.25c-1.457.208-2.804-.827-3.008-2.312-.205-1.486.81-2.86 2.267-3.068l26.033-3.731c1.456-.209 2.803.826 3.008 2.312.205 1.485-.81 2.859-2.267 3.067l1.75-.25-6.794.973c-1.457.21-2.472 1.583-2.267 3.068.205 1.486 1.552 2.52 3.008 2.312l8.543-1.224 12.243-1.755c1.457-.209 2.804.826 3.008 2.312.205 1.485-.81 2.859-2.267 3.067l-12.243 1.755-3.295.472c-1.457.21-2.472 1.583-2.267 3.068.205 1.486 1.552 2.52 3.008 2.312l3.295-.472 12.244-1.755c1.457-.209 2.804.826 3.008 2.312.205 1.485-.81 2.859-2.267 3.068L6.344 51.517c-1.457.21-2.804-.826-3.008-2.311-.205-1.486.81-2.86 2.267-3.068l12.243-1.755 3.295-.472c1.457-.209 2.472-1.582 2.267-3.068-.205-1.485-1.552-2.52-3.008-2.312l-3.295.473L4.86 40.759c-1.457.21-2.803-.826-3.008-2.311-.205-1.486.81-2.86 2.267-3.068l12.243-1.755z" fill="#F3F6FB"/><path d="M6.912.805c2.144.014 3.317 1.197 3.52 3.55.203 2.351 1.292 3.45 3.268 3.294" stroke="#5374FC" stroke-linecap="round" stroke-linejoin="round"/><path d="M54.672 66.046a2.268 2.268 0 0 0 2.259-2.278 2.268 2.268 0 0 0-2.258-2.277 2.268 2.268 0 0 0-2.259 2.277 2.268 2.268 0 0 0 2.258 2.278zM2.134 34.774c.57-.36 1.013-.158 1.328.607.237.751.535 1.211.894 1.38.36.17.904.094 1.632-.226.658-.285 1.2-.327 1.628-.126.427.201.737.644.928 1.328.192.752.498 1.227.918 1.425.42.198.965.122 1.633-.226.665-.281 1.21-.322 1.637-.121.425.2.733.642.923 1.325.075.49.249.8.52.927" stroke="#6800FC" stroke-linecap="round" stroke-linejoin="round"/><path d="M42.133 7.549c.093-.672.531-.884 1.315-.636.723.3 1.264.366 1.623.197.36-.17.652-.638.878-1.406.205-.691.522-1.137.95-1.338.427-.201.962-.156 1.605.136.695.336 1.253.405 1.673.207.42-.198.713-.666.878-1.406.214-.695.534-1.143.96-1.343.426-.2.959-.154 1.6.139.42.257.767.321 1.04.193" stroke="#E9007F" stroke-linecap="round" stroke-linejoin="round"/><path fill-rule="evenodd" clip-rule="evenodd" d="M44.316 17.261h6.639c.678 0 1.229.559 1.229 1.247v6.075c0 4.043-3.23 7.32-7.215 7.32h-2.35l1.697-14.642zm.022 2.282l-.612 10.074 1.737-.494c2.402-.683 4.116-2.834 4.27-5.36l.219-3.558a.625.625 0 0 0-.614-.662h-5z" fill="#FFC300"/><path d="M22.684 17.261h-6.639c-.679 0-1.229.559-1.229 1.247v6.075c0 4.043 3.23 7.32 7.216 7.32h2.349l-1.697-14.642zm-.022 2.282l.612 10.074-1.737-.494c-2.402-.683-4.116-2.834-4.27-5.36l-.218-3.558a.625.625 0 0 1 .613-.662h5z" fill="#FFC300"/><path d="M22.684 17.261h-6.639c-.679 0-1.229.559-1.229 1.247v6.075c0 4.043 3.23 7.32 7.216 7.32h2.349l-1.697-14.642zm-.022 2.282l.612 10.074-1.737-.494c-2.402-.683-4.116-2.834-4.27-5.36l-.218-3.558a.625.625 0 0 1 .613-.662h5z" fill="#FFC300" filter="url(#aqa)"/><path d="M45.023 50.98H21.978a.463.463 0 0 0-.459.467c0 .258.206.467.46.467h23.044a.463.463 0 0 0 .459-.467.463.463 0 0 0-.459-.468zM33.495 14.735h10.208c.339 0 .613.28.613.625v10.31c0 3.023-1.118 5.858-3.354 8.504-3.102 3.673-6.257 4.228-5.816 8.592l-1.582.012h-.07l-1.581-.012c.44-4.364-2.715-4.919-5.817-8.592-2.236-2.646-3.354-5.481-3.354-8.504V15.36a.62.62 0 0 1 .613-.625h10.14z" fill="#FFC300"/><path d="M33.495 14.735h10.208c.339 0 .613.28.613.625v10.31c0 3.023-1.118 5.858-3.354 8.504-3.102 3.673-6.257 4.228-5.816 8.592l-1.582.012h-.07l-1.581-.012c.44-4.364-2.715-4.919-5.817-8.592-2.236-2.646-3.354-5.481-3.354-8.504V15.36a.62.62 0 0 1 .613-.625h10.14z" fill="#FFC300" filter="url(#aqb)"/><path d="M22.904 53.785h-4.92a.463.463 0 0 0-.459.467c0 .258.206.468.459.468h4.92c.253 0 .458-.21.458-.468a.463.463 0 0 0-.458-.467z" fill="#FFC300"/><path d="M41.18 42.634H25.82v8.416h15.36v-8.416z" fill="#EC610A"/><path d="M38.722 44.504H28.277v4.676h10.445v-4.676zm-7.83 9.281H27.2a.463.463 0 0 0-.459.467c0 .258.206.468.459.468h3.69c.254 0 .46-.21.46-.468a.463.463 0 0 0-.46-.467z" fill="#FFC300"/><path fill-rule="evenodd" clip-rule="evenodd" d="M33.5 27.827l-3.43 1.83.655-3.877-2.776-2.745 3.836-.566 1.716-3.527 1.715 3.527 3.836.566-2.776 2.745.655 3.877-3.43-1.83z" fill="#EC610A"/><path d="M25.068 23.375c.165 2.922.627 5.159 1.385 6.713m.965 1.973c.56.847 1.024 1.452 1.388 1.815" stroke="#EC610A" stroke-linecap="round" stroke-linejoin="round"/><path d="M35.807 53.785h-2.155a.463.463 0 0 0-.459.467c0 .258.206.468.459.468h2.155c.253 0 .459-.21.459-.468a.463.463 0 0 0-.46-.467zm15.668 0H39.796a.463.463 0 0 0-.458.467c0 .258.205.468.458.468h11.679c.253 0 .459-.21.459-.468a.463.463 0 0 0-.46-.467z" fill="#FFC300"/><path d="M25.418 62.205l-6.738-.714-.709 6.795L24.71 69l.708-6.795z" stroke="red"/><defs><filter id="aqa" x="10.816" y="17.261" width="13.565" height="14.643" filterUnits="userSpaceOnUse" color-interpolation-filters="sRGB"><feFlood flood-opacity="0" result="BackgroundImageFix"/><feBlend in="SourceGraphic" in2="BackgroundImageFix" result="shape"/><feColorMatrix in="SourceAlpha" values="0 0 0 0 0 0 0 0 0 0 0 0 0 0 0 0 0 0 127 0" result="hardAlpha"/><feOffset dx="-6"/><feGaussianBlur stdDeviation="2"/><feComposite in2="hardAlpha" operator="arithmetic" k2="-1" k3="1"/><feColorMatrix values="0 0 0 0 0 0 0 0 0 0 0 0 0 0 0 0 0 0 0.08 0"/><feBlend in2="shape" result="effect1_innerShadow"/></filter><filter id="aqb" x="22.742" y="14.735" width="25.574" height="28.044" filterUnits="userSpaceOnUse" color-interpolation-filters="sRGB"><feFlood flood-opacity="0" result="BackgroundImageFix"/><feBlend in="SourceGraphic" in2="BackgroundImageFix" result="shape"/><feColorMatrix in="SourceAlpha" values="0 0 0 0 0 0 0 0 0 0 0 0 0 0 0 0 0 0 127 0" result="hardAlpha"/><feOffset dx="6"/><feGaussianBlur stdDeviation="2"/><feComposite in2="hardAlpha" operator="arithmetic" k2="-1" k3="1"/><feColorMatrix values="0 0 0 0 0 0 0 0 0 0 0 0 0 0 0 0 0 0 0.08 0"/><feBlend in2="shape" result="effect1_innerShadow"/></filter></defs></symbol><symbol fill="none" viewBox="0 0 13 13" id="question-sign" xmlns="http://www.w3.org/2000/svg"><path d="M6.08 7.475c0-.154.003-.285.01-.392a1.28 1.28 0 0 1 .053-.29.765.765 0 0 1 .125-.238c.055-.073.132-.152.232-.235.072-.07.144-.142.217-.218a2.44 2.44 0 0 0 .194-.238 1.31 1.31 0 0 0 .143-.252.649.649 0 0 0 .054-.255c0-.204-.052-.353-.156-.447-.104-.094-.256-.141-.455-.141a.748.748 0 0 0-.223.034.526.526 0 0 0-.194.1.553.553 0 0 0-.191.447H5a1.41 1.41 0 0 1 .121-.594c.079-.17.185-.312.318-.424.134-.111.291-.194.472-.248.18-.056.376-.084.586-.084.235 0 .447.028.634.084.186.056.344.14.47.252.13.11.23.246.297.41.068.163.102.352.102.567 0 .159-.025.304-.076.437-.051.13-.117.251-.198.366a2.56 2.56 0 0 1-.277.322c-.102.1-.205.2-.309.295a1.62 1.62 0 0 0-.15.178.58.58 0 0 0-.108.336 3.454 3.454 0 0 0-.006.228H6.08zm-.131 1.018c0-.074.012-.142.035-.205a.438.438 0 0 1 .264-.275.553.553 0 0 1 .217-.04.544.544 0 0 1 .379.147.474.474 0 0 1 .102.168.539.539 0 0 1 .038.205.53.53 0 0 1-.14.363.455.455 0 0 1-.166.104.544.544 0 0 1-.213.04.552.552 0 0 1-.379-.144.446.446 0 0 1-.102-.162.572.572 0 0 1-.035-.201z" fill="#1C0E43"/><path d="M12.5 6.5a6 6 0 1 1-12 0 6 6 0 0 1 12 0z" stroke="#1C0E43" stroke-linecap="round" stroke-linejoin="round"/></symbol><symbol viewBox="0 0 18 18" id="rating" xmlns="http://www.w3.org/2000/svg"><path d="M12.624 8.593a.588.588 0 0 0 .139-.589.554.554 0 0 0-.444-.39L10.46 7.33a.244.244 0 0 1-.183-.138l-.83-1.757a.545.545 0 0 0-.494-.32c-.211 0-.4.122-.494.32l-.83 1.757a.244.244 0 0 1-.183.139l-1.858.281a.554.554 0 0 0-.445.391.588.588 0 0 0 .14.589L6.627 9.96a.26.26 0 0 1 .07.224l-.317 1.931a.58.58 0 0 0 .12.466.54.54 0 0 0 .678.14l1.662-.912a.24.24 0 0 1 .226 0l1.662.912a.527.527 0 0 0 .678-.14.58.58 0 0 0 .12-.466l-.317-1.93a.26.26 0 0 1 .07-.225l1.344-1.368z" fill="#9CA9BA"/><path d="M1.7 4.765L8.951.577l7.253 4.188v8.374l-7.253 4.188-7.253-4.188V4.765z" stroke="#9CA9BA"/></symbol><symbol fill="none" viewBox="0 0 15 13" id="react" xmlns="http://www.w3.org/2000/svg"><path d="M0 6.523c0-1.092 1.106-2.111 2.85-2.686-.348-1.69-.062-3.052.892-3.582.982-.546 2.444-.168 3.831 1C8.926.135 10.293-.307 11.247.226c.98.547 1.278 2.001.92 3.744C13.985 4.548 15 5.417 15 6.523c0 1.067-1.108 1.99-2.829 2.56.386 1.815.06 3.144-.935 3.697-.959.533-2.342.069-3.714-1.083-1.428 1.222-2.797 1.595-3.79 1.041-.958-.534-1.231-1.921-.882-3.642C1.165 8.529 0 7.586 0 6.523z" fill="#fff"/><path d="M11.806 8.517c-.141.047-.284.09-.428.13.023.094.046.188.066.282.324 1.519.112 2.742-.613 3.145-.695.387-1.831-.016-2.979-.979a8.872 8.872 0 0 1-.332-.293 8.048 8.048 0 0 1-.22.196c-1.203 1.03-2.41 1.464-3.133 1.06-.694-.388-.9-1.538-.608-2.978.03-.142.062-.284.099-.425a9.071 9.071 0 0 1-.493-.15C1.755 8.032.854 7.29.854 6.518c0-.796.966-1.594 2.435-2.078.12-.039.24-.075.36-.108a8.14 8.14 0 0 1-.104-.459C3.266 2.46 3.484 1.335 4.176.95c.716-.397 1.916.012 3.085.996.092.078.185.16.278.247.117-.108.237-.214.36-.316C9.03.937 10.149.558 10.84.944c.715.4.947 1.606.645 3.074a7.02 7.02 0 0 1-.08.343c.085.024.167.049.248.074 1.527.488 2.52 1.277 2.52 2.083 0 .773-.929 1.521-2.368 1.999z" fill="#53C1DE"/><path d="M11.476 4.956a7.686 7.686 0 0 0-.223-.067 12.616 12.616 0 0 1-.675 1.626c.266.552.485 1.092.648 1.603.137-.038.269-.078.396-.12 1.233-.409 1.985-1.014 1.985-1.48 0-.496-.812-1.14-2.13-1.562zm-.547-1.045c.134-.649.153-1.236.064-1.695-.08-.412-.239-.687-.436-.797-.42-.234-1.318.07-2.286.874a8.6 8.6 0 0 0-.335.294c.376.396.75.856 1.117 1.367.644.055 1.252.145 1.804.268.027-.106.051-.21.072-.31zM5.396 1.46c-.41-.14-.737-.144-.934-.034-.42.233-.595 1.135-.357 2.345.029.143.061.285.098.426.545-.116 1.15-.2 1.795-.25.368-.5.754-.96 1.143-1.362a6.91 6.91 0 0 0-.253-.225c-.517-.436-1.035-.745-1.492-.9zm-1.921 3.5c-.65.213-1.186.491-1.554.795-.33.273-.497.543-.497.763 0 .468.723 1.064 1.93 1.47.15.05.303.097.458.139.166-.523.385-1.07.649-1.622a12.917 12.917 0 0 1-.657-1.645c-.11.03-.22.064-.33.1zm.644 4.226c-.25 1.233-.084 2.163.334 2.397.446.248 1.431-.106 2.47-.995.066-.057.133-.116.2-.178-.387-.4-.77-.857-1.135-1.354A14.389 14.389 0 0 1 4.21 8.79a7.803 7.803 0 0 0-.091.396zm5.746-1.368c-.13.217-.265.43-.405.642.425-.052.832-.12 1.215-.205a11.439 11.439 0 0 0-.427-1.105c-.123.225-.25.448-.383.668zm-2.343 2.2c.262-.274.525-.58.784-.912-.525.024-1.05.024-1.575 0 .26.33.524.635.79.912zM5.163 7.814a16.65 16.65 0 0 1-.376-.664 12.18 12.18 0 0 0-.423 1.111c.38.082.786.15 1.208.2a16.024 16.024 0 0 1-.409-.647zm.421-3.278c-.436.047-.848.11-1.228.19.118.366.263.747.432 1.134a15.948 15.948 0 0 1 .796-1.324zM7.538 2.98c-.27.28-.54.59-.802.924a20.603 20.603 0 0 1 1.584.003c-.26-.34-.522-.65-.782-.927zm2.716 2.9c.178-.392.328-.77.447-1.13a12.494 12.494 0 0 0-1.243-.204 19.082 19.082 0 0 1 .796 1.334zm-.88-.407a17.651 17.651 0 0 0-.639-.994 19.37 19.37 0 0 0-2.426-.005A15.49 15.49 0 0 0 5.09 6.506a15.34 15.34 0 0 0 1.213 2.026 16.723 16.723 0 0 0 2.428 0 17.784 17.784 0 0 0 1.216-2.018c-.178-.353-.369-.7-.573-1.04zm1.174 6.126c.447-.248.62-1.248.34-2.56a7.218 7.218 0 0 0-.06-.255c-.553.123-1.153.215-1.781.272-.366.502-.746.959-1.126 1.354.1.093.202.183.306.271.983.825 1.903 1.151 2.321.918z" fill="#fff"/><path d="M7.514 7.665c.657 0 1.19-.514 1.19-1.147s-.533-1.147-1.19-1.147c-.657 0-1.19.514-1.19 1.147s.533 1.147 1.19 1.147z" fill="#53C1DE"/></symbol><symbol fill="none" viewBox="0 0 17 14" id="twitter" xmlns="http://www.w3.org/2000/svg"><path fill-rule="evenodd" clip-rule="evenodd" d="M16.058 1.555a6.527 6.527 0 0 1-1.891.522A3.32 3.32 0 0 0 15.615.243a6.56 6.56 0 0 1-2.093.804A3.276 3.276 0 0 0 11.117 0C9.3 0 7.824 1.485 7.824 3.317c0 .26.028.512.085.755A9.33 9.33 0 0 1 1.118.605a3.33 3.33 0 0 0-.446 1.67c0 1.15.582 2.165 1.466 2.76a3.28 3.28 0 0 1-1.493-.413v.04a3.312 3.312 0 0 0 2.644 3.253 3.258 3.258 0 0 1-1.488.058 3.299 3.299 0 0 0 3.077 2.302A6.58 6.58 0 0 1 0 11.65a9.294 9.294 0 0 0 5.05 1.489c6.06 0 9.374-5.054 9.374-9.437 0-.144-.003-.288-.008-.43a6.69 6.69 0 0 0 1.642-1.717z" fill="#00AAEC"/></symbol><symbol fill="none" viewBox="0 0 63 63" id="twitter-square" xmlns="http://www.w3.org/2000/svg"><rect x="10" y="4" width="43" height="43" rx="4" fill="#00AAEC"/><path fill-rule="evenodd" clip-rule="evenodd" d="M40.978 19.741a7.308 7.308 0 0 1-2.118.585 3.716 3.716 0 0 0 1.622-2.054 7.345 7.345 0 0 1-2.343.9A3.668 3.668 0 0 0 35.447 18c-2.036 0-3.687 1.663-3.687 3.713 0 .291.031.574.095.846a10.445 10.445 0 0 1-7.604-3.881 3.734 3.734 0 0 0-.499 1.869 3.72 3.72 0 0 0 1.641 3.09 3.673 3.673 0 0 1-1.671-.463v.046c0 1.8 1.271 3.3 2.96 3.64-.31.088-.635.131-.972.131-.238 0-.47-.022-.695-.066a3.693 3.693 0 0 0 3.446 2.578 7.367 7.367 0 0 1-4.58 1.59c-.299 0-.593-.017-.881-.05a10.405 10.405 0 0 0 5.654 1.666c6.785 0 10.494-5.657 10.494-10.564 0-.162-.003-.323-.01-.482a7.49 7.49 0 0 0 1.84-1.922z" fill="#fff"/></symbol><symbol viewBox="0 0 18 18" id="views" xmlns="http://www.w3.org/2000/svg"><path d="M1.7 4.86L8.951.674l7.253 4.188v8.374l-7.253 4.188-7.253-4.188V4.861z" stroke="#9CA9BA"/><path d="M8.953 6.67c-2.937 0-4.476 2.163-4.476 2.506 0 .343 1.539 2.507 4.476 2.507 2.936 0 4.476-2.164 4.476-2.507 0-.343-1.54-2.507-4.476-2.507zm0 4.434c-1.1 0-1.99-.863-1.99-1.928s.89-1.928 1.99-1.928c1.098 0 1.989.863 1.989 1.928s-.89 1.928-1.99 1.928zm.994-1.928c0 .532-.445.964-.994.964-.55 0-.995-.432-.995-.964s.445-.964.995-.964c.296 0-.183.764 0 .964.154.17.994-.245.994 0z" fill="#9CA9BA"/></symbol><symbol fill="none" viewBox="0 0 20 12" id="vk" xmlns="http://www.w3.org/2000/svg"><path d="M17.533 8.082c-1.655-1.589-1.444-1.347.564-4.076 1.197-1.657 1.69-2.694 1.55-3.143-.07-.276-1.022-.207-1.022-.207h-2.959s-.458 0-.634.311c-.317.587-.458 1.313-1.092 2.383-1.338 2.314-1.866 2.452-2.078 2.314-.493-.345-.387-1.347-.387-2.072 0-2.245.317-3.178-.634-3.454-.211-.069-.388-.069-.705-.103C9.75 0 9.361 0 9.01 0c-.88 0-1.55.035-2.007.242-.353.172-.6.552-.423.587.211.034.634.138.88.449.317.414.282 1.381.282 1.381s.176 2.66-.422 2.97c-.388.243-.951-.241-2.114-2.348-.599-1.07-.67-1.796-1.057-2.28-.246-.31-.704-.414-.704-.414H.626S.133.553.063.691c-.141.172 0 .518 0 .518s2.219 5.353 4.72 8.047c2.219 2.556 4.825 2.418 4.825 2.418s1.515.069 1.726-.31c.14-.14.176-.554.176-.554s-.035-1.657.704-1.9c.74-.24 1.656 1.59 2.642 2.28.74.553.951.484 1.304.484h2.64s1.374-.138.74-1.278c-.106-.07-.423-.794-2.008-2.314z" fill="#4C77A6"/></symbol><symbol viewBox="0 0 63 63" fill="none" id="vk-square" xmlns="http://www.w3.org/2000/svg"><rect x="10" y="4" width="43" height="43" rx="4" fill="#4C77A6"/><path d="M39.63 28.048c-1.854-1.779-1.617-1.508.63-4.563 1.34-1.856 1.893-3.016 1.735-3.518-.079-.31-1.143-.232-1.143-.232h-3.313s-.512 0-.71.348c-.355.657-.512 1.469-1.222 2.668-1.498 2.59-2.09 2.745-2.327 2.59-.552-.386-.433-1.508-.433-2.32 0-2.513.355-3.557-.71-3.866-.237-.078-.434-.078-.789-.116C30.914 19 30.481 19 30.086 19c-.986 0-1.735.039-2.247.27-.395.194-.67.62-.474.658.237.039.71.155.986.503.355.464.316 1.546.316 1.546s.197 2.978-.474 3.326c-.433.27-1.064-.27-2.366-2.63-.67-1.198-.749-2.01-1.183-2.552-.276-.348-.788-.464-.788-.464H20.7s-.552-.038-.63.116c-.159.194 0 .58 0 .58s2.483 5.994 5.283 9.01c2.485 2.861 5.403 2.706 5.403 2.706s1.695.078 1.932-.348c.158-.154.197-.618.197-.618s-.04-1.856.789-2.127c.828-.27 1.853 1.779 2.957 2.552.828.619 1.065.541 1.46.541h2.957s1.538-.154.828-1.43c-.118-.078-.473-.89-2.248-2.59z" fill="#fff"/></symbol><symbol fill="none" viewBox="0 0 13 10" id="vue" xmlns="http://www.w3.org/2000/svg"><path d="M8.001 0L6.5 2.31 4.999 0H0l6.5 10L13 0H8.001z" fill="#4DBA87"/><path d="M8 0L6.5 2.31 4.998 0H2.6l3.9 6 3.9-6H8z" fill="#435466"/></symbol><symbol fill="none" viewBox="0 0 13 14" id="webpack" xmlns="http://www.w3.org/2000/svg"><path d="M6.5 0L13 3.5v7L6.5 14 0 10.5v-7L6.5 0z" fill="#fff"/><path d="M11.84 10.259l-5.125 2.76v-2.15l3.193-1.672 1.931 1.062zm.35-.302v-5.77l-1.874 1.031v3.71l1.874 1.029zm-11.05.302l5.125 2.76v-2.15L3.07 9.198 1.14 10.26zm-.35-.302v-5.77l1.873 1.031v3.71L.79 9.956zm.22-6.144L6.264.983V3.06L2.897 4.823l-.027.015-1.86-1.025zm10.96 0L6.715.983V3.06l3.367 1.762.027.014 1.861-1.023z" fill="#8ED6FB"/><path d="M6.264 10.38l-3.15-1.65V5.465l3.15 1.732v3.184zm.45 0l3.151-1.648V5.464l-3.15 1.732v3.184zM3.327 5.087l3.162-1.654 3.163 1.654-3.163 1.738-3.162-1.738z" fill="#1C78C0"/></symbol></svg>