<svg width="48" height="48" viewBox="0 0 48 48" fill="none" xmlns="http://www.w3.org/2000/svg">
<circle cx="24" cy="24" r="24" fill="#679E63"/>
<path d="M24.6462 37.6261C24.2709 37.6254 23.9023 37.5256 23.5776 37.3368L20.1754 35.3224C19.6653 35.0382 19.9204 34.9359 20.0836 34.877C20.6208 34.7082 21.1349 34.4726 21.6138 34.1756C21.6543 34.1562 21.6993 34.1479 21.7441 34.1515C21.7888 34.155 21.8319 34.1705 21.8688 34.1961L24.4829 35.7524C24.5315 35.7788 24.5858 35.7927 24.6411 35.7927C24.6963 35.7927 24.7506 35.7788 24.7992 35.7524L35.0006 29.8498C35.0481 29.8211 35.0874 29.7805 35.1146 29.7321C35.1419 29.6837 35.1562 29.629 35.1562 29.5733V17.7732C35.1561 17.7166 35.1415 17.661 35.1138 17.6117C35.0861 17.5624 35.0462 17.5211 34.998 17.4917L24.817 11.5942C24.7694 11.5665 24.7153 11.552 24.6602 11.552C24.6051 11.552 24.551 11.5665 24.5033 11.5942L14.3096 17.4917C14.2609 17.5208 14.2206 17.562 14.1924 17.6113C14.1643 17.6606 14.1493 17.7164 14.1489 17.7732V29.5733C14.1488 29.6292 14.1637 29.6842 14.1919 29.7323C14.2202 29.7805 14.2608 29.8202 14.3096 29.8472L17.0997 31.4649C18.6146 32.2328 19.5404 31.3318 19.5404 30.4411V18.7792C19.5404 18.7403 19.548 18.7018 19.5629 18.6659C19.5778 18.6301 19.5997 18.5975 19.6272 18.5701C19.6547 18.5428 19.6873 18.5211 19.7232 18.5065C19.7591 18.4919 19.7975 18.4845 19.8362 18.4848H21.1292C21.2073 18.4848 21.2821 18.5158 21.3375 18.5709C21.3929 18.626 21.4244 18.7009 21.4251 18.7792V30.4308C21.4251 32.4607 20.3233 33.6227 18.408 33.6227C17.8189 33.6227 17.3547 33.6227 16.0617 32.9828L13.3889 31.447C13.0627 31.2562 12.7923 30.9826 12.6047 30.6538C12.4171 30.3249 12.3191 29.9523 12.3203 29.5733V17.7732C12.3201 17.3959 12.4187 17.0251 12.6062 16.698C12.7938 16.371 13.0637 16.0991 13.3889 15.9098L23.5903 9.9995C23.9188 9.81937 24.2871 9.72498 24.6615 9.72498C25.0358 9.72498 25.4041 9.81937 25.7326 9.9995L35.906 15.9098C36.2315 16.099 36.5018 16.3708 36.6898 16.6978C36.8777 17.0248 36.9768 17.3957 36.9771 17.7732V29.5733C36.9763 29.9511 36.8769 30.3221 36.689 30.6495C36.5011 30.9768 36.2312 31.2491 35.906 31.4393L25.7199 37.342C25.393 37.5296 25.0227 37.6276 24.6462 37.6261Z" fill="white"/>
<path d="M27.7938 29.499C23.3358 29.499 22.4024 27.4513 22.4024 25.7235C22.402 25.6848 22.4094 25.6463 22.424 25.6105C22.4386 25.5746 22.4602 25.542 22.4875 25.5146C22.5148 25.4872 22.5473 25.4655 22.583 25.4509C22.6187 25.4362 22.657 25.4288 22.6956 25.4292H24.0116C24.0832 25.4286 24.1526 25.4542 24.2066 25.5014C24.2606 25.5485 24.2956 25.6139 24.3049 25.6851C24.5038 27.029 25.0981 27.7098 27.7938 27.7098C29.9412 27.7098 30.8542 27.2209 30.8542 26.0793C30.8542 25.4189 30.5992 24.93 27.2582 24.6024C24.4707 24.3157 22.7467 23.7039 22.7467 21.4642C22.7467 19.4011 24.4809 18.1725 27.3857 18.1725C30.6502 18.1725 32.2646 19.309 32.4686 21.756C32.4725 21.7969 32.4679 21.8381 32.4549 21.877C32.4419 21.9159 32.4209 21.9516 32.3932 21.9818C32.3655 22.012 32.3318 22.036 32.2942 22.0522C32.2567 22.0684 32.2162 22.0765 32.1753 22.076H30.8517C30.7851 22.0758 30.7205 22.053 30.6686 22.0111C30.6167 21.9692 30.5805 21.9109 30.566 21.8456C30.2498 20.4224 29.477 19.9643 27.3857 19.9643C25.042 19.9643 24.7691 20.7834 24.7691 21.3977C24.7691 22.1425 25.0904 22.3576 28.2554 22.7773C31.4204 23.1971 32.8741 23.7807 32.8741 25.9897C32.8741 28.1987 31.0225 29.499 27.7938 29.499Z" fill="white"/>
</svg>
