<svg width="11" height="13" viewBox="0 0 11 13" fill="none" xmlns="http://www.w3.org/2000/svg">
<path d="M5.49887 13C5.33143 12.9997 5.16702 12.9532 5.02214 12.8652L3.50435 11.9266C3.27679 11.7942 3.39057 11.7465 3.46339 11.7191C3.70306 11.6405 3.9324 11.5307 4.14605 11.3923C4.16414 11.3833 4.18419 11.3794 4.20416 11.3811C4.22414 11.3827 4.24335 11.3899 4.25983 11.4019L5.42605 12.127C5.4477 12.1393 5.47195 12.1458 5.49659 12.1458C5.52123 12.1458 5.54548 12.1393 5.56713 12.127L10.1182 9.37677C10.1394 9.3634 10.1569 9.34451 10.1691 9.32194C10.1813 9.29937 10.1876 9.27389 10.1876 9.24797V3.74993C10.1876 3.72356 10.1811 3.69765 10.1687 3.67467C10.1564 3.6517 10.1386 3.63244 10.1171 3.61875L5.5751 0.87092C5.55382 0.858045 5.52969 0.851267 5.50512 0.851267C5.48056 0.851267 5.45642 0.858045 5.43515 0.87092L0.887469 3.61875C0.865758 3.6323 0.847753 3.65149 0.835195 3.67447C0.822638 3.69746 0.815953 3.72345 0.815789 3.74993V9.24797C0.815745 9.27402 0.822374 9.2996 0.834982 9.32205C0.847591 9.3445 0.865717 9.36298 0.887469 9.37558L2.13219 10.1293C2.80803 10.4871 3.22104 10.0673 3.22104 9.65227V4.21864C3.22104 4.20053 3.22446 4.18259 3.23111 4.16588C3.23776 4.14916 3.2475 4.13399 3.25977 4.12123C3.27204 4.10848 3.2866 4.0984 3.3026 4.09158C3.31861 4.08476 3.33575 4.08133 3.35302 4.08149H3.92988C3.96468 4.08149 3.99808 4.0959 4.0228 4.12158C4.04752 4.14727 4.06156 4.18215 4.06186 4.21864V9.6475C4.06186 10.5933 3.57034 11.1347 2.71587 11.1347C2.45305 11.1347 2.24597 11.1347 1.66912 10.8366L0.476732 10.121C0.331207 10.0321 0.210551 9.9046 0.126874 9.75137C0.0431975 9.59814 -0.000555887 9.42453 5.33175e-06 9.24797V3.74993C-0.000102494 3.57411 0.0438839 3.40135 0.127555 3.24896C0.211226 3.09658 0.331643 2.96992 0.476732 2.8817L5.02783 0.12791C5.17438 0.0439833 5.3387 0 5.50569 0C5.67269 0 5.83701 0.0439833 5.98356 0.12791L10.5221 2.8817C10.6674 2.96987 10.7879 3.09647 10.8718 3.24885C10.9557 3.40122 10.9999 3.57402 11 3.74993V9.24797C10.9996 9.42399 10.9553 9.59685 10.8715 9.74937C10.7877 9.90189 10.6672 10.0288 10.5221 10.1174L5.97787 12.8676C5.83205 12.955 5.66685 13.0007 5.49887 13Z" fill="#679E63"/>
<path d="M6.90331 9.21343C4.91448 9.21343 4.49805 8.25933 4.49805 7.4543C4.4979 7.43625 4.50118 7.41834 4.5077 7.40163C4.51422 7.38492 4.52386 7.36973 4.53604 7.35696C4.54822 7.3442 4.5627 7.3341 4.57865 7.32726C4.59459 7.32043 4.61167 7.31699 4.6289 7.31715H5.21599C5.24793 7.31686 5.27886 7.32883 5.30296 7.3508C5.32706 7.37277 5.34267 7.40322 5.34683 7.43641C5.43558 8.06254 5.70068 8.37978 6.90331 8.37978C7.86131 8.37978 8.26863 8.15199 8.26863 7.62008C8.26863 7.31238 8.15486 7.08458 6.66437 6.93193C5.42079 6.79835 4.65165 6.51331 4.65165 5.46976C4.65165 4.5085 5.42534 3.93604 6.72126 3.93604C8.17761 3.93604 8.89782 4.46556 8.98884 5.60572C8.99061 5.62475 8.98852 5.64395 8.98272 5.66207C8.97692 5.6802 8.96755 5.69684 8.9552 5.7109C8.94285 5.72497 8.92781 5.73615 8.91107 5.74372C8.89432 5.75128 8.87624 5.75506 8.858 5.7548H8.2675C8.23779 5.75473 8.20898 5.74407 8.18582 5.72456C8.16266 5.70505 8.14652 5.67786 8.14007 5.64746C7.99898 4.98436 7.65424 4.77088 6.72126 4.77088C5.67565 4.77088 5.55391 5.15252 5.55391 5.43875C5.55391 5.78581 5.69727 5.88599 7.10924 6.08158C8.52122 6.27717 9.16975 6.54909 9.16975 7.57833C9.16975 8.60758 8.34373 9.21343 6.90331 9.21343Z" fill="#679E63"/>
</svg>
