<svg width="63" height="63" viewBox="0 0 63 63" fill="none" xmlns="http://www.w3.org/2000/svg">
<g>
<rect x="10" y="4" width="43" height="43" rx="4" fill="#9CA9BA"/>
</g>
<path d="M39.3935 32C39.7981 32 40.1487 31.8772 40.4468 31.6347L35.3471 26.9469C35.2248 27.0275 35.1062 27.1058 34.9941 27.1803C34.6125 27.4387 34.3028 27.6404 34.0649 27.7849C33.8271 27.9298 33.5107 28.0774 33.1157 28.2281C32.7205 28.3791 32.3523 28.4543 32.0107 28.4543H32.0007H31.9907C31.6491 28.4543 31.2809 28.3791 30.8857 28.2281C30.4905 28.0774 30.1741 27.9298 29.9365 27.7849C29.6987 27.6404 29.3892 27.4387 29.0073 27.1803C28.9009 27.1086 28.7829 27.0299 28.6553 26.9457L23.5547 31.6347C23.8527 31.8772 24.2035 32 24.6081 32H39.3935Z" fill="white"/>
<path d="M24.0146 23.9951C23.633 23.7613 23.2946 23.4935 23 23.1918V30.3237L27.4948 26.1922C26.5956 25.6151 25.437 24.8836 24.0146 23.9951Z" fill="white"/>
<path d="M39.9945 23.9951C38.6263 24.8463 37.4635 25.5791 36.5059 26.1938L40.9989 30.3239V23.1918C40.7108 23.4874 40.3761 23.755 39.9945 23.9951Z" fill="white"/>
<path d="M39.3924 19H24.607C24.0912 19 23.6946 19.1601 23.4168 19.48C23.1388 19.8 23 20.2003 23 20.6803C23 21.068 23.1842 21.4881 23.5524 21.9407C23.9206 22.3931 24.3124 22.7485 24.7276 23.007C24.9552 23.1548 25.6416 23.5934 26.7868 24.3227C27.405 24.7165 27.9426 25.0597 28.4046 25.3559C28.7984 25.6081 29.138 25.8265 29.4184 26.0078C29.4506 26.0286 29.5012 26.0618 29.5684 26.106C29.6408 26.1538 29.7324 26.2144 29.8454 26.2894C30.063 26.4341 30.2438 26.5511 30.3878 26.6404C30.5316 26.7298 30.7058 26.8296 30.9102 26.9404C31.1144 27.0511 31.307 27.1344 31.4878 27.1897C31.6686 27.2451 31.836 27.2728 31.99 27.2728H32H32.01C32.1639 27.2728 32.3314 27.2451 32.5122 27.1897C32.693 27.1344 32.8854 27.0513 33.0898 26.9404C33.294 26.8296 33.468 26.7295 33.6122 26.6404C33.7562 26.5511 33.937 26.4341 34.1546 26.2894C34.2674 26.2144 34.359 26.1538 34.4314 26.1061C34.4986 26.0618 34.5492 26.0287 34.5816 26.0078C34.8 25.8681 35.1404 25.6506 35.5981 25.3585C36.4308 24.8266 37.6572 24.0438 39.2825 23.007C39.7713 22.6931 40.1796 22.3144 40.5078 21.8714C40.8354 21.4283 40.9997 20.9636 40.9997 20.4773C40.9997 20.071 40.8404 19.7234 40.5226 19.4339C40.2045 19.1447 39.8277 19 39.3924 19Z" fill="white"/>
</svg>
