<svg width="16" height="19" viewBox="0 0 16 19" fill="none" xmlns="http://www.w3.org/2000/svg">
<circle cx="8" cy="7" r="5" fill="#FFE28D"/>
<path d="M15.1029 8.6186L14.157 7.35367C14.0976 7.27243 14.0936 7.16025 14.153 7.07902L15.0792 5.80248C15.1623 5.68643 15.1227 5.52396 14.9961 5.4582L13.5831 4.71936C13.492 4.67294 13.4406 4.57236 13.4604 4.47178L13.7255 2.92833C13.7493 2.78907 13.6424 2.65755 13.496 2.65368L11.8969 2.58792C11.794 2.58405 11.703 2.51442 11.6753 2.41772L11.232 0.909079C11.1924 0.773688 11.038 0.700191 10.9035 0.758215L9.43108 1.37714C9.33609 1.41583 9.22526 1.39262 9.15402 1.31912L8.08535 0.15476C7.9864 0.0503163 7.82016 0.0503163 7.72121 0.158629L6.66837 1.33846C6.60108 1.41583 6.49026 1.43904 6.39527 1.40035L4.91496 0.804635C4.78039 0.750479 4.62998 0.823976 4.5904 0.959367L4.16689 2.468C4.13919 2.56471 4.05211 2.63434 3.9492 2.64208L2.35015 2.73105C2.20371 2.73879 2.1008 2.87031 2.12455 3.00957L2.41348 4.54915C2.43327 4.64973 2.38182 4.7503 2.29474 4.79672L0.893597 5.55491C0.766939 5.62454 0.731317 5.78701 0.814436 5.89919L1.76041 7.16412C1.81978 7.24535 1.82373 7.35754 1.76436 7.43877L0.838184 8.71531C0.755065 8.83136 0.794646 8.99383 0.921303 9.05959L2.33432 9.79843C2.42536 9.84485 2.47681 9.94543 2.45702 10.046L2.19183 11.5895C2.16808 11.7287 2.27495 11.8602 2.4214 11.8641L4.02044 11.9299C4.12335 11.9337 4.21439 12.0034 4.24209 12.1001L4.68935 13.6048C4.72893 13.7402 4.8833 13.8137 5.01787 13.7557L6.49026 13.1368C6.58525 13.0981 6.69608 13.1213 6.76732 13.1948L7.83599 14.3592C7.93494 14.4636 8.10118 14.4636 8.20013 14.3553L9.25297 13.1755C9.32025 13.0981 9.43108 13.0749 9.52607 13.1136L11.0064 13.7093C11.141 13.7634 11.2914 13.6899 11.3309 13.5546L11.7544 12.0459C11.7822 11.9492 11.8692 11.8796 11.9721 11.8718L13.5712 11.7829C13.7176 11.7751 13.8205 11.6436 13.7968 11.5044L13.5079 9.96477C13.4881 9.86419 13.5395 9.76362 13.6266 9.7172L15.0277 8.95901C15.1544 8.89712 15.19 8.73465 15.1029 8.6186ZM7.96265 11.5082C5.56804 11.5082 3.61672 9.60115 3.61672 7.26083C3.61672 4.92051 5.56804 3.01343 7.96265 3.01343C10.3573 3.01343 12.3086 4.92051 12.3086 7.26083C12.3086 9.60502 10.3573 11.5082 7.96265 11.5082Z" fill="#FFCC5B"/>
<path d="M11.877 14.2549C11.6475 14.4831 11.3269 14.6185 10.9825 14.6185C10.8598 14.6185 10.7371 14.5992 10.6223 14.5682L9.60118 14.2665L8.81354 14.9705C8.78583 14.9938 8.76208 15.017 8.73438 15.0363L10.0009 18.8738C10.0445 19.0092 10.2226 19.0401 10.3136 18.928L11.2358 17.7713C11.2794 17.7133 11.3585 17.6901 11.4258 17.7094L12.8626 18.1194C13.0011 18.1581 13.1278 18.0305 13.0842 17.8989L11.877 14.2549Z" fill="#E95454"/>
<path d="M6.32581 14.2665L5.30463 14.5682C5.18589 14.603 5.06714 14.6185 4.94444 14.6185C4.60009 14.6185 4.28344 14.4831 4.04992 14.2549L2.8427 17.9026C2.79916 18.038 2.92582 18.1618 3.06436 18.1231L4.50114 17.713C4.57238 17.6937 4.64759 17.7169 4.69113 17.7749L5.61336 18.9315C5.70044 19.0437 5.88251 19.0128 5.92605 18.8774L7.19263 15.0401C7.16493 15.0208 7.13722 14.9976 7.11347 14.9744L6.32581 14.2665Z" fill="#E95454"/>
<path d="M10.5393 6.20507L8.90065 6.08903L8.28319 4.60366C8.16841 4.32515 7.76073 4.32515 7.64595 4.60366L7.02849 6.08903L5.38986 6.20507C5.08114 6.22828 4.95844 6.60349 5.19196 6.7969L6.44666 7.83357L6.05481 9.39244C5.97961 9.68642 6.30813 9.91851 6.56936 9.75991L7.96259 8.91279L9.35582 9.75991C9.61705 9.91851 9.94557 9.68642 9.87037 9.39244L9.47852 7.83357L10.7332 6.7969C10.9707 6.60349 10.848 6.22828 10.5393 6.20507Z" fill="#EC9922"/>
</svg>
