<svg width="18" height="19" viewBox="0 0 18 19" xmlns="http://www.w3.org/2000/svg">
<path d="M11.6298 10.9476H11.1288C10.5755 10.9476 10.1268 10.499 10.1268 9.94567V9.6238C10.3485 9.36035 10.5075 9.04873 10.6063 8.71944C10.6165 8.66394 10.67 8.63651 10.7056 8.59835C10.8974 8.40658 10.9351 8.08294 10.7913 7.85251C10.7717 7.81754 10.7364 7.78721 10.7384 7.74388C10.7384 7.4501 10.7398 7.15585 10.738 6.8623C10.7301 6.50787 10.6288 6.13919 10.3803 5.87674C10.1797 5.6647 9.90427 5.53844 9.62008 5.4844C9.26096 5.4159 8.88526 5.41937 8.52958 5.50984C8.22134 5.58764 7.93175 5.76816 7.7527 6.03576C7.59414 6.26841 7.52468 6.55089 7.51295 6.82929C7.50856 7.1282 7.51194 7.42785 7.51103 7.72748C7.51786 7.78746 7.46698 7.82805 7.444 7.87771C7.30849 8.12353 7.36814 8.45845 7.58588 8.63724C7.64112 8.67537 7.65147 8.74486 7.67147 8.80478C7.76642 9.10076 7.92392 9.37449 8.12303 9.613V9.94567C8.12303 10.499 7.67441 10.9476 7.12111 10.9476H6.6201C6.6201 10.9476 5.71212 11.198 5.11719 12.4505V12.9515C5.11719 13.2283 5.34126 13.4524 5.61818 13.4524H12.6317C12.9086 13.4524 13.1326 13.2283 13.1326 12.9515V12.4505C12.5377 11.1981 11.6298 10.9476 11.6298 10.9476Z" fill="#9CA9BA"/>
<path d="M1.69935 5.08623L8.95204 0.898883L16.2047 5.08623V13.4609L8.95204 17.6483L1.69935 13.4609V5.08623Z" stroke="#9CA9BA"/>
</svg>
