<svg width="67" height="70" viewBox="0 0 67 70" fill="none" xmlns="http://www.w3.org/2000/svg">
<path fill-rule="evenodd" clip-rule="evenodd" d="M16.3633 33.6252L24.9055 32.4009C26.3623 32.1922 27.3773 30.8187 27.1726 29.3332C26.9678 27.8477 25.6209 26.8127 24.1641 27.0214L17.371 27.995L19.12 27.7443C17.6633 27.9531 16.3163 26.9181 16.1116 25.4326C15.9069 23.9471 16.9219 22.5736 18.3786 22.3648L44.4116 18.634C45.8684 18.4252 47.2153 19.4602 47.42 20.9457C47.6248 22.4312 46.6098 23.8047 45.153 24.0135L46.9021 23.7628L40.1089 24.7363C38.6521 24.9451 37.6372 26.3186 37.8419 27.8041C38.0466 29.2896 39.3936 30.3246 40.8503 30.1158L49.3926 28.8916L61.6361 27.137C63.0929 26.9282 64.4398 27.9632 64.6445 29.4487C64.8492 30.9342 63.8343 32.3077 62.3775 32.5165L50.134 34.2711L46.839 34.7434C45.3822 34.9521 44.3672 36.3256 44.572 37.8111C44.7767 39.2966 46.1236 40.3316 47.5804 40.1229L50.8754 39.6506L63.1189 37.896C64.5757 37.6872 65.9226 38.7222 66.1273 40.2077C66.3321 41.6932 65.3171 43.0667 63.8603 43.2755L6.34404 51.5183C4.88726 51.7271 3.54035 50.6921 3.33561 49.2066C3.13088 47.7211 4.14585 46.3476 5.60262 46.1388L17.8461 44.3842L21.1412 43.9119C22.5979 43.7032 23.6129 42.3297 23.4082 40.8442C23.2034 39.3587 21.8565 38.3237 20.3997 38.5324L17.1047 39.0047L4.86121 40.7593C3.40443 40.9681 2.05752 39.9331 1.85278 38.4476C1.64805 36.9621 2.66302 35.5886 4.11979 35.3798L16.3633 33.6252Z" fill="#F3F6FB"/>
<path d="M6.91244 0.805197C9.05583 0.819379 10.229 2.00243 10.432 4.35433C10.635 6.70623 11.7242 7.80457 13.6996 7.64937" stroke="#5374FC" stroke-linecap="round" stroke-linejoin="round"/>
<path d="M54.6725 66.0459C55.9199 66.0459 56.931 65.0262 56.931 63.7684C56.931 62.5106 55.9199 61.491 54.6725 61.491C53.4252 61.491 52.4141 62.5106 52.4141 63.7684C52.4141 65.0262 53.4252 66.0459 54.6725 66.0459Z" stroke="#6800FC" stroke-linecap="round" stroke-linejoin="round"/>
<path d="M2.13426 34.774C2.70438 34.4139 3.14696 34.6161 3.46197 35.3807C3.69883 36.132 3.9969 36.5922 4.3562 36.7612C4.7155 36.9301 5.25956 36.8547 5.9884 36.535C6.64553 36.25 7.18794 36.208 7.6156 36.4091C8.04327 36.6102 8.35261 37.0527 8.54363 37.7365C8.73576 38.4893 9.04192 38.9645 9.4621 39.1621C9.88227 39.3596 10.4265 39.2843 11.0947 38.9361C11.76 38.655 12.3057 38.6145 12.7316 38.8148C13.1574 39.015 13.4652 39.4568 13.6548 40.1399C13.7301 40.6302 13.9038 40.9393 14.1759 41.0672" stroke="#6800FC" stroke-linecap="round" stroke-linejoin="round"/>
<path d="M42.1333 7.54893C42.2262 6.87703 42.6643 6.66513 43.4476 6.91325C44.1706 7.21326 44.7118 7.27879 45.0711 7.10984C45.4304 6.94089 45.7229 6.47216 45.9485 5.70365C46.1544 5.01283 46.4711 4.56687 46.8988 4.36577C47.3264 4.16467 47.8614 4.21013 48.5037 4.50214C49.199 4.83759 49.7568 4.90652 50.177 4.70895C50.5972 4.51137 50.8897 4.04259 51.0547 3.30258C51.2688 2.60788 51.5889 2.16039 52.0148 1.96012C52.4406 1.75986 52.974 1.80608 53.6149 2.09875C54.0357 2.35568 54.3822 2.42016 54.6542 2.29222" stroke="#E9007F" stroke-linecap="round" stroke-linejoin="round"/>
<path fill-rule="evenodd" clip-rule="evenodd" d="M44.3163 17.2614H50.9548C51.6335 17.2614 52.1836 17.8196 52.1836 18.5083V24.5826C52.1836 28.626 48.9533 31.9039 44.9685 31.9039H42.6191L44.3163 17.2614ZM44.3382 19.5427L43.7264 29.6169L45.4629 29.1232C47.8653 28.4402 49.5788 26.2894 49.7336 23.7626L49.9515 20.2049C49.9523 20.192 49.9527 20.1791 49.9527 20.1662C49.9527 19.8219 49.6776 19.5427 49.3383 19.5427H44.3382Z" fill="#FFC300"/>
<path d="M22.6837 17.2614H16.0452C15.3665 17.2614 14.8164 17.8196 14.8164 18.5083V24.5826C14.8164 28.626 18.0467 31.9039 22.0315 31.9039H24.3809L22.6837 17.2614ZM22.6618 19.5427L23.2736 29.6169L21.5371 29.1232C19.1347 28.4402 17.4212 26.2894 17.2664 23.7626L17.0485 20.2049C17.0477 20.192 17.0473 20.1791 17.0473 20.1662C17.0473 19.8219 17.3224 19.5427 17.6617 19.5427H22.6618Z" fill="#FFC300"/>
<g filter="url(#filter0_i)">
<path d="M22.6837 17.2614H16.0452C15.3665 17.2614 14.8164 17.8196 14.8164 18.5083V24.5826C14.8164 28.626 18.0467 31.9039 22.0315 31.9039H24.3809L22.6837 17.2614ZM22.6618 19.5427L23.2736 29.6169L21.5371 29.1232C19.1347 28.4402 17.4212 26.2894 17.2664 23.7626L17.0485 20.2049C17.0477 20.192 17.0473 20.1791 17.0473 20.1662C17.0473 19.8219 17.3224 19.5427 17.6617 19.5427H22.6618Z" fill="#FFC300"/>
</g>
<path d="M45.0233 50.9791H21.9781C21.7248 50.9791 21.5195 51.1885 21.5195 51.4467C21.5195 51.705 21.7248 51.9143 21.9781 51.9143H45.0233C45.2766 51.9143 45.4819 51.705 45.4819 51.4467C45.4819 51.1885 45.2766 50.9791 45.0233 50.9791Z" fill="#FFC300"/>
<path d="M33.4945 14.7351H43.7031C44.0416 14.7351 44.316 15.0149 44.316 15.3601V25.6703C44.316 28.693 43.1981 31.5277 40.9623 34.1744C37.8599 37.8471 34.7051 38.4024 35.1456 42.7655L33.5636 42.7783L33.5291 42.7786L33.4945 42.7788L31.9126 42.7655C32.3531 38.4024 29.1983 37.8471 26.0958 34.1744C23.8601 31.5277 22.7422 28.693 22.7422 25.6703V15.3601C22.7422 15.0149 23.0166 14.7351 23.3551 14.7351H33.4945Z" fill="#FFC300"/>
<g filter="url(#filter1_i)">
<path d="M33.4945 14.7351H43.7031C44.0416 14.7351 44.316 15.0149 44.316 15.3601V25.6703C44.316 28.693 43.1981 31.5277 40.9623 34.1744C37.8599 37.8471 34.7051 38.4024 35.1456 42.7655L33.5636 42.7783L33.5291 42.7786L33.4945 42.7788L31.9126 42.7655C32.3531 38.4024 29.1983 37.8471 26.0958 34.1744C23.8601 31.5277 22.7422 28.693 22.7422 25.6703V15.3601C22.7422 15.0149 23.0166 14.7351 23.3551 14.7351H33.4945Z" fill="#FFC300"/>
</g>
<path d="M22.9038 53.7847H17.9839C17.7307 53.7847 17.5254 53.994 17.5254 54.2523C17.5254 54.5105 17.7307 54.7199 17.9839 54.7199H22.9038C23.1571 54.7199 23.3624 54.5105 23.3624 54.2523C23.3624 53.994 23.1571 53.7847 22.9038 53.7847Z" fill="#FFC300"/>
<path d="M41.1808 42.6338H25.8203V51.0505H41.1808V42.6338Z" fill="#EC610A"/>
<path d="M38.7225 44.5042H28.2773V49.1801H38.7225V44.5042Z" fill="#FFC300"/>
<path d="M30.8918 53.7847H27.2007C26.9475 53.7847 26.7422 53.994 26.7422 54.2523C26.7422 54.5105 26.9475 54.7199 27.2007 54.7199H30.8918C31.145 54.7199 31.3503 54.5105 31.3503 54.2523C31.3503 53.994 31.145 53.7847 30.8918 53.7847Z" fill="#FFC300"/>
<path fill-rule="evenodd" clip-rule="evenodd" d="M33.5005 27.8266L30.0696 29.6568L30.7249 25.7803L27.9492 23.0349L31.7851 22.4693L33.5005 18.9423L35.216 22.4693L39.0518 23.0349L36.2762 25.7803L36.9314 29.6568L33.5005 27.8266Z" fill="#EC610A"/>
<path d="M25.0684 23.3755C25.2332 26.2965 25.6946 28.5339 26.4528 30.0878" stroke="#EC610A" stroke-linecap="round" stroke-linejoin="round"/>
<path d="M27.418 32.0613C27.9789 32.9083 28.4416 33.5132 28.806 33.876" stroke="#EC610A" stroke-linecap="round" stroke-linejoin="round"/>
<path d="M35.8069 53.7847H33.6519C33.3987 53.7847 33.1934 53.994 33.1934 54.2523C33.1934 54.5105 33.3987 54.7199 33.6519 54.7199H35.8069C36.0602 54.7199 36.2655 54.5105 36.2655 54.2523C36.2655 53.994 36.0602 53.7847 35.8069 53.7847Z" fill="#FFC300"/>
<path d="M51.4749 53.7847H39.7964C39.5432 53.7847 39.3379 53.994 39.3379 54.2523C39.3379 54.5105 39.5432 54.7199 39.7964 54.7199H51.4749C51.7282 54.7199 51.9335 54.5105 51.9335 54.2523C51.9335 53.994 51.7282 53.7847 51.4749 53.7847Z" fill="#FFC300"/>
<path d="M25.418 62.2051L18.6797 61.491L17.9715 68.2859L24.7098 69L25.418 62.2051Z" stroke="#FF0000"/>
<defs>
<filter id="filter0_i" x="10.8164" y="17.2614" width="13.5645" height="14.6425" filterUnits="userSpaceOnUse" color-interpolation-filters="sRGB">
<feFlood flood-opacity="0" result="BackgroundImageFix"/>
<feBlend mode="normal" in="SourceGraphic" in2="BackgroundImageFix" result="shape"/>
<feColorMatrix in="SourceAlpha" type="matrix" values="0 0 0 0 0 0 0 0 0 0 0 0 0 0 0 0 0 0 127 0" result="hardAlpha"/>
<feOffset dx="-6"/>
<feGaussianBlur stdDeviation="2"/>
<feComposite in2="hardAlpha" operator="arithmetic" k2="-1" k3="1"/>
<feColorMatrix type="matrix" values="0 0 0 0 0 0 0 0 0 0 0 0 0 0 0 0 0 0 0.08 0"/>
<feBlend mode="normal" in2="shape" result="effect1_innerShadow"/>
</filter>
<filter id="filter1_i" x="22.7422" y="14.7351" width="25.5738" height="28.0437" filterUnits="userSpaceOnUse" color-interpolation-filters="sRGB">
<feFlood flood-opacity="0" result="BackgroundImageFix"/>
<feBlend mode="normal" in="SourceGraphic" in2="BackgroundImageFix" result="shape"/>
<feColorMatrix in="SourceAlpha" type="matrix" values="0 0 0 0 0 0 0 0 0 0 0 0 0 0 0 0 0 0 127 0" result="hardAlpha"/>
<feOffset dx="6"/>
<feGaussianBlur stdDeviation="2"/>
<feComposite in2="hardAlpha" operator="arithmetic" k2="-1" k3="1"/>
<feColorMatrix type="matrix" values="0 0 0 0 0 0 0 0 0 0 0 0 0 0 0 0 0 0 0.08 0"/>
<feBlend mode="normal" in2="shape" result="effect1_innerShadow"/>
</filter>
</defs>
</svg>
