<svg width="15" height="13" viewBox="0 0 15 13" fill="none" xmlns="http://www.w3.org/2000/svg">
<path d="M0 6.52337C0 5.43138 1.10618 4.41203 2.85008 3.83742C2.50183 2.14747 2.7877 0.78532 3.74242 0.254587C4.72374 -0.290978 6.18571 0.0866547 7.57334 1.25593C8.92595 0.133881 10.2929 -0.307687 11.2468 0.224581C12.2273 0.771682 12.5254 2.22618 12.1676 3.96893C13.984 4.54779 15 5.41701 15 6.52337C15 7.59001 13.8918 8.51275 12.1714 9.08366C12.5567 10.8984 12.2302 12.2275 11.2359 12.7802C10.2774 13.313 8.89447 12.8486 7.52199 11.6972C6.09409 12.9193 4.72486 13.2924 3.73164 12.7382C2.77397 12.2038 2.50071 10.8169 2.85008 9.09566C1.16502 8.52935 0 7.58569 0 6.52337Z" fill="white"/>
<path d="M11.8064 8.51672C11.6646 8.56361 11.5216 8.60704 11.3775 8.64698C11.4014 8.74055 11.4235 8.83455 11.4438 8.92891C11.7684 10.4479 11.5561 11.6715 10.8313 12.0743C10.1364 12.4607 8.9999 12.0578 7.85204 11.095C7.73893 10.9999 7.62834 10.902 7.52036 10.8016C7.44805 10.8684 7.37446 10.9339 7.29963 10.9981C6.09665 12.0277 4.89083 12.4616 4.1668 12.0576C3.47255 11.6702 3.26691 10.5197 3.55915 9.08025C3.58823 8.9377 3.62106 8.79588 3.65761 8.65493C3.48699 8.60822 3.32221 8.55844 3.16456 8.50547C1.75423 8.03151 0.853516 7.28863 0.853516 6.51813C0.853516 5.72229 1.82038 4.92406 3.28943 4.4401C3.40855 4.40104 3.52866 4.36484 3.64965 4.33155C3.61034 4.17971 3.57545 4.02683 3.545 3.87311C3.26638 2.45861 3.48398 1.33548 4.17641 0.950463C4.8916 0.552938 6.09193 0.961545 7.26078 1.94641C7.35316 2.02426 7.4459 2.10684 7.53875 2.19339C7.65571 2.08461 7.77579 1.979 7.89885 1.87667C9.03103 0.937563 10.1492 0.558337 10.841 0.944383C11.5556 1.3431 11.7877 2.54965 11.4862 4.01762C11.4632 4.12975 11.4364 4.24426 11.4063 4.36088C11.4906 4.38486 11.5734 4.40964 11.6541 4.43544C13.1812 4.92315 14.1748 5.71166 14.1748 6.51813C14.1748 7.29142 13.2451 8.0393 11.8064 8.51672Z" fill="#53C1DE"/>
<path d="M11.4764 4.95615C11.4035 4.9329 11.3288 4.91046 11.2526 4.88869C11.084 5.40317 10.8564 5.95027 10.5781 6.51544C10.8438 7.06726 11.0625 7.60731 11.2264 8.1185C11.3626 8.08042 11.4949 8.04036 11.6224 7.99802C12.8551 7.58901 13.6071 6.98418 13.6071 6.51817C13.6071 6.02176 12.795 5.37731 11.4764 4.95615H11.4764ZM10.9293 3.9111C11.0626 3.262 11.0816 2.67511 10.9933 2.21633C10.9139 1.80408 10.7544 1.52925 10.5571 1.41918C10.1373 1.18492 9.23948 1.48942 8.27131 2.29254C8.1603 2.3846 8.04846 2.48291 7.93633 2.58691C8.3117 2.98268 8.68683 3.44277 9.05294 3.95367C9.69697 4.00874 10.3054 4.09881 10.8572 4.22174C10.8843 4.11603 10.9084 4.01243 10.9293 3.9111ZM5.3963 1.45964C4.98614 1.32001 4.65947 1.31603 4.46203 1.42577C4.0418 1.65934 3.86717 2.56123 4.10541 3.77085C4.13374 3.9138 4.16618 4.05597 4.20269 4.19719C4.74832 4.08085 5.35232 3.99714 5.99788 3.94668C6.36641 3.44675 6.75239 2.98722 7.14137 2.58481C7.0587 2.50772 6.97408 2.43261 6.88757 2.35954C6.37071 1.92399 5.85279 1.61507 5.39636 1.45964H5.3963ZM3.47477 4.95922C2.8252 5.17324 2.28876 5.45136 1.92106 5.75483C1.59067 6.02762 1.42383 6.29841 1.42383 6.51817C1.42383 6.98571 2.14703 7.58214 3.3532 7.98751C3.50459 8.03816 3.65749 8.08454 3.8117 8.12657C3.97842 7.6039 4.19709 7.05743 4.46097 6.50482C4.19367 5.94396 3.97188 5.38879 3.80362 4.85999C3.69317 4.89046 3.58352 4.92355 3.47477 4.95922ZM4.11891 9.18565C3.86853 10.419 4.03478 11.3494 4.45319 11.5828C4.89889 11.8315 5.88433 11.4769 6.923 10.5879C6.98939 10.5311 7.05606 10.4716 7.12286 10.41C6.73588 10.0095 6.35344 9.55339 5.98809 9.05636C5.36157 9.00038 4.76182 8.91048 4.21047 8.79006C4.17651 8.92118 4.14598 9.0531 4.11891 9.1857V9.18565ZM9.86511 7.81792C9.73488 8.03476 9.59982 8.24887 9.46003 8.4601C9.88509 8.40839 10.2923 8.33962 10.6747 8.25546C10.5599 7.90078 10.4168 7.52991 10.2483 7.14972C10.1252 7.37489 9.99745 7.59767 9.86511 7.81792ZM7.52181 10.018C7.78428 9.74394 8.04716 9.43786 8.30574 9.1058C7.78122 9.12969 7.25582 9.12981 6.73128 9.10614C6.99009 9.43513 7.25522 9.74076 7.52181 10.018ZM5.16348 7.81417C5.0328 7.59567 4.90743 7.37426 4.78746 7.15012C4.62174 7.529 4.47995 7.90152 4.36417 8.26125C4.74425 8.34326 5.14957 8.41026 5.57186 8.46112C5.4305 8.24859 5.29434 8.03288 5.16348 7.81417ZM5.58401 4.53606C5.14774 4.583 4.73629 4.6466 4.35632 4.72633C4.47394 5.09243 4.61885 5.47296 4.78811 5.85997C4.90858 5.63566 5.03451 5.41411 5.16578 5.19551C5.29973 4.97252 5.43918 4.75264 5.58401 4.53606ZM7.53755 2.97955C7.26783 3.26012 6.99882 3.57041 6.73606 3.90417C6.9911 3.89451 7.25115 3.88962 7.51544 3.88962C7.78699 3.88962 8.05542 3.89548 8.31959 3.90684C8.06019 3.567 7.79825 3.25626 7.53755 2.97955ZM10.2537 5.87969C10.4318 5.48847 10.5819 5.10999 10.7011 4.75008C10.3148 4.66512 9.89783 4.5967 9.45844 4.54589C9.59924 4.76107 9.73559 4.97892 9.86741 5.19932C10.0014 5.42332 10.1302 5.65016 10.2537 5.87969ZM9.37442 5.47335C9.17263 5.13545 8.95949 4.80396 8.73535 4.4794C8.34011 4.45218 7.93167 4.43814 7.51544 4.43814C7.10093 4.43814 6.69768 4.45059 6.30934 4.47486C6.07938 4.79865 5.86221 5.13072 5.65829 5.47034C5.45533 5.80817 5.26575 6.1533 5.08996 6.50499C5.26531 6.85678 5.45431 7.2021 5.65658 7.5402V7.54008C5.85879 7.87826 6.07425 8.2089 6.3025 8.53131C6.69868 8.56018 7.10488 8.5753 7.5155 8.5753C7.92796 8.5753 8.33469 8.56006 8.73075 8.53097C8.95669 8.20906 9.17077 7.87956 9.3726 7.5431C9.57556 7.20575 9.76709 6.86213 9.94688 6.51277C9.76894 6.15986 9.57802 5.81317 9.37448 5.47335H9.37442ZM10.5484 11.5992C10.9945 11.3511 11.168 10.3511 10.8877 9.03965C10.8693 8.95422 10.8493 8.86911 10.8278 8.78437C10.2751 8.9073 9.67498 8.99879 9.04663 9.05562C8.68058 9.55805 8.30132 10.0149 7.92059 10.4103C8.02035 10.503 8.1225 10.5934 8.22692 10.6812C9.21041 11.5062 10.1296 11.832 10.5484 11.5992Z" fill="white"/>
<path d="M7.51376 7.66479C8.17076 7.66479 8.7033 7.15139 8.7033 6.51814C8.7033 5.88483 8.17076 5.37143 7.51376 5.37143C6.85682 5.37143 6.32422 5.88483 6.32422 6.51814C6.32422 7.15139 6.85682 7.66479 7.51376 7.66479Z" fill="#53C1DE"/>
</svg>
