<svg width="13" height="14" viewBox="0 0 13 14" fill="none" xmlns="http://www.w3.org/2000/svg">
<path d="M6.5 0L13 3.4996V10.5004L6.5 14L0 10.5004V3.4996L6.5 0Z" fill="white"/>
<path d="M11.8391 10.2589L6.71464 13.0183V10.8696L9.90754 9.19738L11.8391 10.2589ZM12.1901 9.95678V4.18699L10.3157 5.21817V8.9272L12.1901 9.95678ZM1.1401 10.2589L6.26451 13.0183V10.8696L3.06994 9.19738L1.1401 10.2589ZM0.789062 9.95678V4.18699L2.66348 5.21817V8.9272L0.789062 9.95678ZM1.00909 3.81289L6.26451 0.983154V3.05989L2.89694 4.82328L2.87007 4.83767L1.00909 3.81289ZM11.9701 3.81289L6.71464 0.983154V3.05989L10.0822 4.82168L10.1091 4.83607L11.9701 3.81289Z" fill="#8ED6FB"/>
<path d="M6.26419 10.3805L3.11328 8.73066V5.46447L6.26419 7.19588V10.3805ZM6.71431 10.3805L9.86522 8.73226V5.46447L6.71431 7.19588V10.3805ZM3.32659 5.08717L6.48925 3.4325L9.65191 5.08717L6.48925 6.82498L3.32659 5.08717Z" fill="#1C78C0"/>
</svg>
