<svg viewBox="0 0 63 63" fill="none" xmlns="http://www.w3.org/2000/svg">
<g>
<rect x="10" y="4" width="43" height="43" rx="4" fill="#506AA6"/>
</g>
<path d="M27.7408 26.7113H28.9401C29.0459 26.7113 29.1517 26.8124 29.1517 26.9134V34.1217C29.1517 34.4922 29.4692 34.7954 29.8572 34.7954H32.6086C32.9966 34.7954 33.3141 34.4922 33.3141 34.1217V26.9134C33.3141 26.8124 33.4199 26.7113 33.5258 26.7113H35.5011C35.8539 26.7113 36.1713 26.4755 36.2066 26.1387L36.6652 23.5114C36.7357 23.1072 36.383 22.703 35.9597 22.703H33.6316C33.4552 22.703 33.3141 22.5683 33.3141 22.3999V20.7157C33.3141 20.2778 33.561 20.042 34.0196 20.042H36.1008C36.4888 20.042 36.8063 19.7389 36.8063 19.3683V16.6737C36.8063 16.3032 36.4888 16 36.1008 16H33.5963C29.0106 16 29.1165 19.5368 29.1165 20.042V22.5009C29.1165 22.602 29.0106 22.703 28.9048 22.703H27.7055C27.3175 22.703 27 23.0062 27 23.3767V26.004C27.0353 26.4082 27.3527 26.7113 27.7408 26.7113Z" fill="white"/>
</svg>
