<svg width="9" height="17" viewBox="0 0 9 17" fill="none" xmlns="http://www.w3.org/2000/svg">
<path d="M0.66166 9.56754H1.73292C1.82744 9.56754 1.92197 9.6578 1.92197 9.74806V16.1866C1.92197 16.5175 2.20553 16.7883 2.55212 16.7883H5.00971C5.3563 16.7883 5.63987 16.5175 5.63987 16.1866V9.74806C5.63987 9.6578 5.73439 9.56754 5.82891 9.56754H7.59334C7.90842 9.56754 8.19199 9.35693 8.22349 9.05607L8.63309 6.70931C8.69611 6.34827 8.38103 5.98723 8.00294 5.98723H5.92344C5.7659 5.98723 5.63987 5.86689 5.63987 5.71645V4.21212C5.63987 3.821 5.86042 3.61039 6.27002 3.61039H8.12897C8.47556 3.61039 8.75912 3.33961 8.75912 3.00866V0.601732C8.75912 0.270779 8.47556 0 8.12897 0H5.89193C1.79594 0 1.89046 3.15909 1.89046 3.61039V5.80671C1.89046 5.89697 1.79594 5.98723 1.70141 5.98723H0.630153C0.283569 5.98723 0 6.25801 0 6.58896V8.93572C0.0315076 9.29676 0.315076 9.56754 0.66166 9.56754Z" fill="#4460A0"/>
</svg>
