<svg width="243" height="62" viewBox="0 0 243 62" fill="none" xmlns="http://www.w3.org/2000/svg">
<path d="M67.4053 20.5965C67.4053 26.844 77.0537 25.6096 77.0537 28.9097C77.0537 30.1693 75.7942 30.5976 73.7536 30.5976C71.7383 30.5976 69.5214 30.0685 67.5061 28.7334V32.3358C69.3199 33.3435 71.5872 33.9229 74.0307 33.9229C77.7339 33.9229 80.9081 32.6885 80.9081 28.7334C80.9081 22.4607 71.2597 23.5943 71.2597 20.5461C71.2597 19.4628 72.2169 18.9338 74.1315 18.9086C76.0965 18.8834 78.0866 19.4125 79.5729 20.4705V16.9437C78.0614 16.0872 75.9453 15.5833 73.8544 15.5833C70.378 15.5833 67.4053 17.1956 67.4053 20.5965Z" fill="#FF3531"/>
<path d="M87.2424 33.5702V26.3654H90.0891L94.9007 33.5702H99.0825L93.0365 24.5264L98.755 15.936H94.548L90.0891 22.9393H87.2424V15.936H83.4636V33.5702H87.2424Z" fill="#FF3531"/>
<path d="M100.881 15.936V33.5702H104.66V15.936H100.881Z" fill="#FF3531"/>
<path d="M108.434 15.936V33.5702H120.853V30.1693H112.213V15.936H108.434Z" fill="#FF3531"/>
<path d="M123.072 15.936V33.5702H135.491V30.1693H126.85V15.936H123.072Z" fill="#FF3531"/>
<path d="M137.709 15.9359V33.5701H145.291C148.365 33.5701 152.219 32.638 152.219 28.6325C152.219 26.0378 150.582 24.753 148.843 24.2492C150.405 23.7202 151.514 22.4606 151.514 20.3949C151.514 17.3719 149.171 15.9359 145.417 15.9359H137.709ZM148.44 28.2295C148.44 30.144 146.929 30.4967 145.241 30.4967H141.462V25.9622H145.442C146.954 25.9622 148.44 26.3653 148.44 28.2295ZM147.76 21.0498C147.76 22.4102 146.727 23.0652 145.291 23.0652H141.487V19.0345H145.09C146.752 19.0345 147.76 19.6643 147.76 21.0498Z" fill="#1C0E42"/>
<path d="M158.757 33.5701V27.3981H161.529L166.29 33.5701H170.648L165.383 26.9195C167.524 26.2393 169.237 24.7026 169.237 21.6796C169.237 17.2207 165.66 15.9359 162.234 15.9359H154.979V33.5701H158.757ZM158.757 19.2612H162.41C163.997 19.2612 165.383 19.9414 165.383 21.7552C165.383 23.5438 163.997 24.2492 162.41 24.2492H158.757V19.2612Z" fill="#1C0E42"/>
<path d="M174.856 33.5701L176.166 30.27H184.228L185.512 33.5701H189.417L182.237 15.9359H178.156L170.952 33.5701H174.856ZM179.794 20.8231C179.945 20.4704 180.071 20.1178 180.197 19.4376C180.323 20.1178 180.449 20.4704 180.575 20.8231L183.044 27.1462H177.35L179.794 20.8231Z" fill="#1C0E42"/>
<path d="M195.167 33.5701V24.4759C195.167 23.6698 195.142 22.7881 195.092 22.0575L203.304 33.5701H206.856V15.9359H203.077V25.0301C203.077 25.8363 203.103 26.718 203.153 27.4485L194.941 15.9359H191.389V33.5701H195.167Z" fill="#1C0E42"/>
<path d="M209.644 24.9546C209.644 31.1013 214.456 33.9228 219.167 33.9228C221.031 33.9228 222.769 33.5197 224.281 32.7892V29.086C223.223 30.0433 221.56 30.5471 219.746 30.5471C216.673 30.5471 213.499 28.8341 213.524 24.9546C213.524 20.6972 216.647 18.9337 219.746 18.9337C221.384 18.9337 223.021 19.4376 224.155 20.3193V16.7169C222.643 15.9611 220.88 15.5833 219.116 15.5833C214.405 15.5833 209.669 18.5055 209.644 24.9546Z" fill="#1C0E42"/>
<path d="M238.798 15.9359V23.04H230.888V15.9359H227.11V33.5701H230.888V26.4661H238.798V33.5701H242.577V15.9359H238.798Z" fill="#1C0E42"/>
<path d="M68.0153 42.0876C68.0153 44.2524 69.3611 46.235 72.0527 46.235C74.7444 46.235 76.0902 44.2524 76.0902 42.0876C76.0902 39.9228 74.7444 37.9403 72.0527 37.9403C69.3611 37.9403 68.0153 39.9228 68.0153 42.0876ZM74.4188 42.0876C74.4188 43.489 73.6265 44.6512 72.0527 44.6512C70.4682 44.6512 69.6759 43.489 69.6759 42.0876C69.6759 40.6862 70.4682 39.524 72.0527 39.524C73.6265 39.524 74.4188 40.6862 74.4188 42.0876Z" fill="#9CA9BA"/>
<path d="M82.4546 43.5802C82.4546 41.9053 81.4235 40.9482 80.1428 40.9482C79.3506 40.9482 78.7753 41.3242 78.4497 41.8028C78.5257 41.2673 78.8079 40.595 79.4048 40.2532C80.4142 39.6949 81.2933 39.9912 81.9988 39.3873V37.9403C81.2716 38.6809 80.0018 38.2479 78.504 39.2278C77.5706 39.843 76.9086 40.971 76.9086 42.9308C76.9086 45.2893 78.1567 46.235 79.687 46.235C81.2607 46.235 82.4546 45.3234 82.4546 43.5802ZM78.4497 43.5916C78.4497 43.0105 78.7753 42.2129 79.687 42.2129C80.6095 42.2129 80.9134 42.9763 80.9134 43.5916C80.9134 44.2069 80.6095 44.9702 79.687 44.9702C78.7753 44.9702 78.4497 44.2069 78.4497 43.5916Z" fill="#9CA9BA"/>
<path d="M84.7881 41.404V40.6064H83.4532V48.5821H84.9618V45.4944C85.2982 45.8817 85.8518 46.235 86.6766 46.235C88.3263 46.235 89.2163 44.8335 89.2163 43.3409C89.2163 41.8483 88.3263 40.4469 86.6766 40.4469C85.7107 40.4469 85.1137 40.9141 84.7881 41.404ZM87.6751 43.3409C87.6751 44.1955 87.165 44.9019 86.3076 44.9019C85.6455 44.9019 85.1571 44.4689 84.9509 43.9904V42.6915C85.1571 42.2129 85.6455 41.78 86.3076 41.78C87.165 41.78 87.6751 42.4864 87.6751 43.3409Z" fill="#9CA9BA"/>
<path d="M94.8607 44.6626V42.9194C94.8607 41.1191 93.8622 40.4469 92.2994 40.4469C91.4962 40.4469 90.7039 40.6634 90.2807 40.8115V42.1788C90.7691 41.9737 91.4094 41.7686 92.1257 41.7686C92.9397 41.7686 93.3521 42.1446 93.3521 42.6915V42.8852C92.9831 42.794 92.5273 42.7371 92.1149 42.7371C91.0729 42.7371 89.8248 43.17 89.8248 44.5601C89.8248 45.6425 90.6714 46.235 91.6482 46.235C92.4188 46.235 93.0157 45.9843 93.5258 45.5627C93.7429 45.9729 94.1444 46.178 94.6762 46.178C94.9693 46.178 95.2732 46.1096 95.5119 46.0185V44.9816C95.4143 45.0158 95.3166 45.0272 95.2298 45.0272C95.0344 45.0272 94.8607 44.9475 94.8607 44.6626ZM92.4622 43.6827C92.7769 43.6827 93.1242 43.7511 93.3521 43.8081V44.6626C93.0048 44.9816 92.6033 45.107 92.18 45.107C91.7241 45.107 91.366 44.8449 91.366 44.4347C91.366 43.8764 91.9086 43.6827 92.4622 43.6827Z" fill="#9CA9BA"/>
<path d="M100.596 44.5601C100.596 43.9106 100.217 43.4549 99.6088 43.2612C100.097 43.1244 100.488 42.7143 100.488 42.0648C100.488 41.2673 99.9127 40.4355 98.111 40.4355C97.3839 40.4355 96.635 40.6178 96.1466 40.8913V42.1446C96.559 41.9167 97.3188 41.6888 97.9265 41.6888C98.5994 41.6888 98.9467 41.9053 98.9467 42.2699C98.9467 42.6459 98.5777 42.7826 98.0568 42.7826H97.0908V43.8309H98.0568C98.5669 43.8309 99.0553 43.8878 99.0553 44.3664C99.0553 44.8335 98.5452 44.9816 97.8397 44.9816C97.1994 44.9816 96.4396 44.7424 96.0489 44.5145V45.7792C96.5265 46.0413 97.2211 46.2236 98.0351 46.2236C99.8259 46.2236 100.596 45.4146 100.596 44.5601Z" fill="#9CA9BA"/>
<path d="M101.316 43.3409C101.316 45.2551 102.684 46.235 104.192 46.235C105.712 46.235 107.068 45.2551 107.068 43.3409C107.068 41.4268 105.712 40.4469 104.192 40.4469C102.684 40.4469 101.316 41.4268 101.316 43.3409ZM105.538 43.3409C105.538 44.1841 105.06 44.8221 104.192 44.8221C103.335 44.8221 102.857 44.1841 102.857 43.3409C102.857 42.4978 103.335 41.8597 104.192 41.8597C105.06 41.8597 105.538 42.4978 105.538 43.3409Z" fill="#9CA9BA"/>
<path d="M111.244 46.0754C112.557 46.0754 112.991 45.369 112.991 44.5942C112.991 43.9334 112.633 43.5004 112.069 43.3067C112.579 43.1017 112.872 42.6801 112.872 42.0534C112.872 41.3128 112.395 40.6064 111.157 40.6064H108.053V46.0754H111.244ZM109.562 43.8081H110.799C111.168 43.8081 111.494 43.9448 111.494 44.4119C111.494 44.8449 111.179 44.993 110.799 44.993H109.562V43.8081ZM109.551 41.6888H110.691C111.038 41.6888 111.353 41.8256 111.353 42.2813C111.353 42.7029 111.06 42.851 110.701 42.851H109.551V41.6888Z" fill="#9CA9BA"/>
<path d="M118.666 44.6626V42.9194C118.666 41.1191 117.667 40.4469 116.105 40.4469C115.301 40.4469 114.509 40.6634 114.086 40.8115V42.1788C114.574 41.9737 115.215 41.7686 115.931 41.7686C116.745 41.7686 117.157 42.1446 117.157 42.6915V42.8852C116.788 42.794 116.332 42.7371 115.92 42.7371C114.878 42.7371 113.63 43.17 113.63 44.5601C113.63 45.6425 114.477 46.235 115.453 46.235C116.224 46.235 116.821 45.9843 117.331 45.5627C117.548 45.9729 117.95 46.178 118.481 46.178C118.774 46.178 119.078 46.1096 119.317 46.0185V44.9816C119.219 45.0158 119.122 45.0272 119.035 45.0272C118.84 45.0272 118.666 44.9475 118.666 44.6626ZM116.267 43.6827C116.582 43.6827 116.929 43.7511 117.157 43.8081V44.6626C116.81 44.9816 116.408 45.107 115.985 45.107C115.529 45.107 115.171 44.8449 115.171 44.4347C115.171 43.8764 115.714 43.6827 116.267 43.6827Z" fill="#9CA9BA"/>
<path d="M122.626 46.0754V41.9395H124.287V40.6064H119.468V41.9395H121.128V46.0754H122.626Z" fill="#9CA9BA"/>
<path d="M124.665 43.3409C124.665 45.2437 126.033 46.235 127.683 46.235C128.464 46.235 129.104 46.1096 129.593 45.8931V44.6512C129.148 44.8563 128.616 44.9816 128.019 44.9816C127.162 44.9816 126.359 44.6512 126.185 43.8536H129.853C130.201 42.2357 129.506 40.4469 127.346 40.4469C126.174 40.4469 124.665 41.2787 124.665 43.3409ZM128.497 42.8282H126.174C126.196 42.0762 126.76 41.6546 127.4 41.6546C128.345 41.6546 128.551 42.4522 128.497 42.8282Z" fill="#9CA9BA"/>
<path d="M133.184 41.8597H134.519V46.0754H136.028V40.6064H131.795C131.698 43.0561 131.513 44.8449 130.688 44.8449C130.591 44.8449 130.482 44.8221 130.373 44.7765V46.0299C130.677 46.1438 130.96 46.1894 131.198 46.1894C132.631 46.1894 133.032 44.3208 133.184 41.8597Z" fill="#9CA9BA"/>
<path d="M140.02 46.0754C141.387 46.0754 142.125 45.2437 142.125 44.1955C142.125 43.1472 141.387 42.3155 140.02 42.3155H138.815V40.6064H137.306V46.0754H140.02ZM138.804 43.4549H139.651C140.247 43.4549 140.573 43.7283 140.573 44.1955C140.573 44.6626 140.247 44.9361 139.651 44.9361H138.804V43.4549Z" fill="#9CA9BA"/>
<path d="M144.517 46.0754V44.0018H146.623V46.0754H148.131V40.6064H146.623V42.6801H144.517V40.6064H143.008V46.0754H144.517Z" fill="#9CA9BA"/>
<path d="M149.117 43.3409C149.117 45.2551 150.485 46.235 151.993 46.235C153.513 46.235 154.869 45.2551 154.869 43.3409C154.869 41.4268 153.513 40.4469 151.993 40.4469C150.485 40.4469 149.117 41.4268 149.117 43.3409ZM153.339 43.3409C153.339 44.1841 152.862 44.8221 151.993 44.8221C151.136 44.8221 150.658 44.1841 150.658 43.3409C150.658 42.4978 151.136 41.8597 151.993 41.8597C152.862 41.8597 153.339 42.4978 153.339 43.3409Z" fill="#9CA9BA"/>
<path d="M155.561 43.3409C155.561 45.2437 156.929 46.235 158.578 46.235C159.36 46.235 160 46.1096 160.489 45.8931V44.6512C160.044 44.8563 159.512 44.9816 158.915 44.9816C158.058 44.9816 157.254 44.6512 157.081 43.8536H160.749C161.096 42.2357 160.402 40.4469 158.242 40.4469C157.07 40.4469 155.561 41.2787 155.561 43.3409ZM159.392 42.8282H157.07C157.092 42.0762 157.656 41.6546 158.296 41.6546C159.241 41.6546 159.447 42.4522 159.392 42.8282Z" fill="#9CA9BA"/>
<path d="M164.348 38.0998V46.0754H165.976V38.0998H164.348Z" fill="#9CA9BA"/>
<path d="M166.929 38.0998V39.638H169.263V46.0754H170.88V39.638H173.213V38.0998H166.929Z" fill="#9CA9BA"/>
<path d="M173.246 42.6345V43.9676H177.284V42.6345H173.246Z" fill="#9CA9BA"/>
<path d="M180.638 43.4207C180.638 45.369 182.06 46.235 183.482 46.235C184.144 46.235 184.73 46.0982 185.24 45.8703V44.4689C184.86 44.7082 184.328 44.8677 183.775 44.8677C182.961 44.8677 182.179 44.3892 182.179 43.3409C182.179 42.2357 182.972 41.8142 183.797 41.8142C184.296 41.8142 184.817 41.9737 185.186 42.2243V40.8343C184.719 40.5722 184.155 40.4355 183.58 40.4355C182.136 40.4355 180.638 41.3242 180.638 43.4207Z" fill="#9CA9BA"/>
<path d="M185.927 43.3409C185.927 45.2551 187.295 46.235 188.803 46.235C190.323 46.235 191.679 45.2551 191.679 43.3409C191.679 41.4268 190.323 40.4469 188.803 40.4469C187.295 40.4469 185.927 41.4268 185.927 43.3409ZM190.149 43.3409C190.149 44.1841 189.672 44.8221 188.803 44.8221C187.946 44.8221 187.468 44.1841 187.468 43.3409C187.468 42.4978 187.946 41.8597 188.803 41.8597C189.672 41.8597 190.149 42.4978 190.149 43.3409Z" fill="#9CA9BA"/>
<path d="M192.371 43.3409C192.371 45.2551 193.739 46.235 195.247 46.235C196.767 46.235 198.124 45.2551 198.124 43.3409C198.124 41.4268 196.767 40.4469 195.247 40.4469C193.739 40.4469 192.371 41.4268 192.371 43.3409ZM196.593 43.3409C196.593 44.1841 196.116 44.8221 195.247 44.8221C194.39 44.8221 193.912 44.1841 193.912 43.3409C193.912 42.4978 194.39 41.8597 195.247 41.8597C196.116 41.8597 196.593 42.4978 196.593 43.3409Z" fill="#9CA9BA"/>
<path d="M204.437 43.5802C204.437 41.9053 203.406 40.9482 202.126 40.9482C201.333 40.9482 200.758 41.3242 200.433 41.8028C200.509 41.2673 200.791 40.595 201.388 40.2532C202.397 39.6949 203.276 39.9912 203.982 39.3873V37.9403C203.254 38.6809 201.985 38.2479 200.487 39.2278C199.553 39.843 198.891 40.971 198.891 42.9308C198.891 45.2893 200.14 46.235 201.67 46.235C203.244 46.235 204.437 45.3234 204.437 43.5802ZM200.433 43.5916C200.433 43.0105 200.758 42.2129 201.67 42.2129C202.592 42.2129 202.896 42.9763 202.896 43.5916C202.896 44.2069 202.592 44.9702 201.67 44.9702C200.758 44.9702 200.433 44.2069 200.433 43.5916Z" fill="#9CA9BA"/>
<path d="M213.771 47.5224V44.7765H212.99V40.6064H211.492V44.7424H209.962V40.6064H208.464V44.7424H206.945V40.6064H205.436V46.0754H212.382V47.5224H213.771Z" fill="#9CA9BA"/>
<path d="M214.311 43.3409C214.311 45.2437 215.679 46.235 217.328 46.235C218.11 46.235 218.75 46.1096 219.238 45.8931V44.6512C218.793 44.8563 218.262 44.9816 217.665 44.9816C216.807 44.9816 216.004 44.6512 215.83 43.8536H219.499C219.846 42.2357 219.152 40.4469 216.992 40.4469C215.82 40.4469 214.311 41.2787 214.311 43.3409ZM218.142 42.8282H215.82C215.841 42.0762 216.406 41.6546 217.046 41.6546C217.99 41.6546 218.197 42.4522 218.142 42.8282Z" fill="#9CA9BA"/>
<path d="M220.225 43.4207C220.225 45.369 221.647 46.235 223.069 46.235C223.731 46.235 224.317 46.0982 224.827 45.8703V44.4689C224.447 44.7082 223.915 44.8677 223.362 44.8677C222.548 44.8677 221.766 44.3892 221.766 43.3409C221.766 42.2357 222.559 41.8142 223.384 41.8142C223.883 41.8142 224.404 41.9737 224.773 42.2243V40.8343C224.306 40.5722 223.742 40.4355 223.166 40.4355C221.723 40.4355 220.225 41.3242 220.225 43.4207Z" fill="#9CA9BA"/>
<path d="M228.562 46.0754V41.9395H230.223V40.6064H225.404V41.9395H227.065V46.0754H228.562Z" fill="#9CA9BA"/>
<path d="M234.223 46.0754C235.536 46.0754 235.971 45.369 235.971 44.5942C235.971 43.9334 235.612 43.5004 235.048 43.3067C235.558 43.1017 235.851 42.6801 235.851 42.0534C235.851 41.3128 235.374 40.6064 234.136 40.6064H231.032V46.0754H234.223ZM232.541 43.8081H233.778C234.147 43.8081 234.473 43.9448 234.473 44.4119C234.473 44.8449 234.158 44.993 233.778 44.993H232.541V43.8081ZM232.53 41.6888H233.67C234.017 41.6888 234.332 41.8256 234.332 42.2813C234.332 42.7029 234.039 42.851 233.681 42.851H232.53V41.6888Z" fill="#9CA9BA"/>
<path d="M236.696 43.3409C236.696 45.2551 238.063 46.235 239.572 46.235C241.092 46.235 242.448 45.2551 242.448 43.3409C242.448 41.4268 241.092 40.4469 239.572 40.4469C238.063 40.4469 236.696 41.4268 236.696 43.3409ZM240.918 43.3409C240.918 44.1841 240.44 44.8221 239.572 44.8221C238.715 44.8221 238.237 44.1841 238.237 43.3409C238.237 42.4978 238.715 41.8597 239.572 41.8597C240.44 41.8597 240.918 42.4978 240.918 43.3409Z" fill="#9CA9BA"/>
<path fill-rule="evenodd" clip-rule="evenodd" d="M19.6873 49.7589C19.964 49.9092 20.2407 50.0811 20.4961 50.2743L33.5855 42.6935V30.3879C30.3291 29.486 27.9453 26.4794 27.9453 22.9144C27.9453 18.6408 31.3933 15.1618 35.6287 15.1618C39.8641 15.1618 43.3121 18.6408 43.3121 22.9144C43.3121 26.4794 40.9283 29.486 37.6719 30.3879V45.1202L22.5819 53.9037C22.6457 54.3547 22.6244 54.8272 22.5606 55.2567L26.6045 57.6405L49.463 44.3256V17.6744L26.6045 4.35954L3.74591 17.6744V44.3256L11.6634 48.9643C10.8333 49.8878 10.1948 51.0045 9.87558 52.2501L0 46.4946V15.5054L26.6045 0L53.209 15.5054V46.4946L26.6045 62L20.7089 58.521C19.815 59.2511 18.687 59.7021 17.4525 59.7021C14.5793 59.7021 12.2806 57.3613 12.2806 54.4835C12.2806 52.2501 13.6641 50.3388 15.6009 49.6086V35.9286C12.2168 35.1126 9.70531 32.0416 9.70531 28.3692C9.70531 24.0956 13.1533 20.6166 17.3887 20.6166C21.6241 20.6166 25.0721 24.0956 25.0721 28.3692C25.0721 31.8483 22.7947 34.7904 19.6873 35.7783V49.7589ZM35.6287 19.2421C37.6507 19.2421 39.2895 20.8743 39.2895 22.9144C39.2895 24.9546 37.6507 26.6082 35.6287 26.6082C33.6068 26.6082 31.9679 24.9546 31.9679 22.9144C31.9679 20.8743 33.6068 19.2421 35.6287 19.2421ZM17.3887 24.6969C19.4106 24.6969 21.0495 26.3505 21.0495 28.3692C21.0495 30.4094 19.4106 32.063 17.3887 32.063C15.3667 32.063 13.7279 30.4094 13.7279 28.3692C13.7279 26.3505 15.3667 24.6969 17.3887 24.6969ZM17.4525 52.0353C18.7934 52.0353 19.8789 53.1306 19.8789 54.4835C19.8789 55.8365 18.7934 56.9318 17.4525 56.9318C16.1117 56.9318 15.0262 55.8365 15.0262 54.4835C15.0262 53.1306 16.1117 52.0353 17.4525 52.0353Z" fill="#FF3531"/>
</svg>
