<svg width="13" height="13" viewBox="0 0 13 13" fill="none" xmlns="http://www.w3.org/2000/svg">
<path d="M6.07962 7.47549C6.07962 7.32102 6.0828 7.19006 6.08917 7.08261C6.09766 6.97515 6.11571 6.87889 6.14331 6.79382C6.17091 6.70651 6.21231 6.62704 6.26752 6.55541C6.32272 6.48153 6.40021 6.40318 6.5 6.32035C6.57219 6.25095 6.64437 6.1782 6.71656 6.10208C6.78875 6.02373 6.8535 5.94426 6.91083 5.86367C6.97028 5.78084 7.01805 5.69689 7.05414 5.61182C7.09023 5.52675 7.10828 5.44168 7.10828 5.35662C7.10828 5.1529 7.05626 5.00403 6.95223 4.91001C6.8482 4.81598 6.69639 4.76897 6.49682 4.76897C6.42038 4.76897 6.34607 4.78017 6.27389 4.80255C6.2017 4.8227 6.13694 4.85628 6.07962 4.90329C6.02442 4.9503 5.97877 5.01075 5.94268 5.08462C5.9087 5.1585 5.89066 5.24692 5.88854 5.3499H5C5.00212 5.12156 5.04246 4.92344 5.12102 4.75554C5.19958 4.5854 5.30573 4.44437 5.43949 4.33244C5.57325 4.22051 5.73036 4.13768 5.91083 4.08395C6.0913 4.02798 6.28662 4 6.49682 4C6.73248 4 6.94374 4.02798 7.13057 4.08395C7.31741 4.13991 7.47452 4.22386 7.60191 4.3358C7.73142 4.44549 7.83015 4.58205 7.89809 4.74547C7.96603 4.90889 8 5.09805 8 5.31296C8 5.47191 7.97452 5.61742 7.92357 5.7495C7.87261 5.87934 7.80679 6.00134 7.72611 6.11551C7.64544 6.22745 7.55308 6.3349 7.44904 6.43788C7.34713 6.53862 7.24416 6.63712 7.14013 6.73338C7.07643 6.80054 7.02654 6.85986 6.99045 6.91135C6.95435 6.96284 6.92781 7.01545 6.91083 7.06917C6.89597 7.1229 6.88641 7.18223 6.88217 7.24715C6.87792 7.30983 6.8758 7.38594 6.8758 7.47549H6.07962ZM5.94904 8.49295C5.94904 8.41907 5.96072 8.35079 5.98408 8.28811C6.00743 8.22319 6.0414 8.16723 6.08599 8.12021C6.13057 8.0732 6.18471 8.03739 6.24841 8.01276C6.3121 7.9859 6.38429 7.97246 6.46497 7.97246C6.54352 7.97246 6.61465 7.9859 6.67834 8.01276C6.74416 8.03739 6.79936 8.0732 6.84395 8.12021C6.88854 8.16723 6.92251 8.22319 6.94586 8.28811C6.97134 8.35079 6.98408 8.41907 6.98408 8.49295C6.98408 8.56458 6.97134 8.63174 6.94586 8.69443C6.92251 8.75711 6.88854 8.81083 6.84395 8.85561C6.79936 8.90038 6.74416 8.93508 6.67834 8.9597C6.61465 8.98657 6.54352 9 6.46497 9C6.38429 9 6.3121 8.98657 6.24841 8.9597C6.18471 8.93508 6.13057 8.90038 6.08599 8.85561C6.0414 8.81083 6.00743 8.75711 5.98408 8.69443C5.96072 8.63174 5.94904 8.56458 5.94904 8.49295Z" fill="#1C0E43"/>
<path d="M12.5 6.5C12.5 9.81371 9.81371 12.5 6.5 12.5C3.18629 12.5 0.5 9.81371 0.5 6.5C0.5 3.18629 3.18629 0.5 6.5 0.5C9.81371 0.5 12.5 3.18629 12.5 6.5Z" stroke="#1C0E43" stroke-linecap="round" stroke-linejoin="round"/>
</svg>
