<svg width="63" height="63" viewBox="0 0 63 63" fill="none" xmlns="http://www.w3.org/2000/svg">
<g>
<rect x="10" y="4" width="43" height="43" rx="4" fill="#00AAEC"/>
</g>
<path fill-rule="evenodd" clip-rule="evenodd" d="M40.9782 19.7413C40.3176 20.0367 39.6064 20.2364 38.8603 20.3257C39.6222 19.8667 40.2068 19.1389 40.4822 18.272C39.7689 18.697 38.9806 19.0061 38.1385 19.1719C37.4674 18.4505 36.5082 18 35.4466 18C33.411 18 31.7596 19.6627 31.7596 21.7132C31.7596 22.0043 31.7912 22.2869 31.8545 22.5589C28.7891 22.4038 26.0718 20.927 24.2515 18.6778C23.9339 19.2282 23.7524 19.8667 23.7524 20.5467C23.7524 21.8343 24.4035 22.9711 25.3933 23.6373C24.7897 23.6192 24.2199 23.4503 23.7218 23.1741V23.2197C23.7218 25.0195 24.9934 26.5207 26.6817 26.8607C26.3726 26.9478 26.0465 26.9914 25.7099 26.9914C25.4724 26.9914 25.2403 26.9691 25.0155 26.9255C25.4851 28.4002 26.8464 29.4743 28.4609 29.503C27.1988 30.4995 25.6075 31.0934 23.8801 31.0934C23.5825 31.0934 23.2881 31.0764 23 31.0424C24.6325 32.0943 26.572 32.7094 28.654 32.7094C35.4392 32.7094 39.1484 27.0519 39.1484 22.1446C39.1484 21.9831 39.1452 21.8216 39.1389 21.6633C39.8596 21.1395 40.4854 20.4861 40.9782 19.7413Z" fill="white"/>
</svg>
