<svg width="17" height="14" viewBox="0 0 17 14" fill="none" xmlns="http://www.w3.org/2000/svg">
<path fill-rule="evenodd" clip-rule="evenodd" d="M16.0584 1.55539C15.4684 1.81921 14.8331 1.99761 14.1667 2.07733C14.8472 1.66737 15.3694 1.01731 15.6154 0.242942C14.9782 0.622536 14.2741 0.898687 13.522 1.04673C12.9225 0.402368 12.0657 0 11.1175 0C9.2993 0 7.82419 1.48516 7.82419 3.3167C7.82419 3.57672 7.85247 3.82915 7.90902 4.07209C5.17088 3.93354 2.74379 2.61445 1.11788 0.605451C0.834165 1.09702 0.67204 1.66737 0.67204 2.27472C0.67204 3.42489 1.25361 4.4403 2.13773 5.03531C1.59858 5.01918 1.0896 4.86829 0.644709 4.62156V4.66236C0.644709 6.26994 1.78049 7.61085 3.28859 7.91453C3.01242 7.99234 2.72117 8.03125 2.42049 8.03125C2.20842 8.03125 2.00105 8.01132 1.80029 7.97242C2.21973 9.28961 3.43563 10.249 4.87774 10.2747C3.75044 11.1648 2.32906 11.6953 0.786092 11.6953C0.52029 11.6953 0.257319 11.6801 0 11.6497C1.45814 12.5892 3.19056 13.1387 5.05023 13.1387C11.1109 13.1387 14.424 8.08534 14.424 3.70199C14.424 3.55774 14.4212 3.4135 14.4155 3.2721C15.0593 2.80425 15.6182 2.22063 16.0584 1.55539Z" fill="#00AAEC"/>
</svg>
