<svg viewBox="0 0 63 63" fill="none" xmlns="http://www.w3.org/2000/svg">
<g>
<rect x="10" y="4" width="43" height="43" rx="4" fill="#4C77A6"/>
</g>
<path d="M39.6292 28.0481C37.7759 26.2694 38.0125 26.5401 40.2602 23.4854C41.6009 21.6294 42.153 20.4694 41.9953 19.9667C41.9164 19.6573 40.8517 19.7347 40.8517 19.7347H37.5392C37.5392 19.7347 37.0266 19.7347 36.8294 20.0827C36.4745 20.74 36.3168 21.552 35.607 22.7507C34.1085 25.3414 33.517 25.4961 33.2804 25.3414C32.7283 24.9548 32.8466 23.8334 32.8466 23.0214C32.8466 20.508 33.2015 19.464 32.1368 19.1547C31.9002 19.0773 31.7031 19.0773 31.3482 19.0387C30.9144 19 30.4806 19 30.0863 19C29.1004 19 28.3512 19.0387 27.8386 19.2707C27.4442 19.464 27.1682 19.8893 27.3653 19.928C27.6019 19.9667 28.0752 20.0827 28.3512 20.4307C28.7061 20.8947 28.6667 21.9774 28.6667 21.9774C28.6667 21.9774 28.8638 24.9548 28.1935 25.3028C27.7597 25.5734 27.1287 25.0321 25.8274 22.6734C25.1571 21.4747 25.0782 20.6627 24.6444 20.1214C24.3684 19.7733 23.8557 19.6573 23.8557 19.6573H20.701C20.701 19.6573 20.149 19.6187 20.0701 19.7733C19.9124 19.9667 20.0701 20.3534 20.0701 20.3534C20.0701 20.3534 22.5544 26.3468 25.3542 29.3628C27.8386 32.2242 30.7566 32.0695 30.7566 32.0695C30.7566 32.0695 32.4523 32.1469 32.6889 31.7215C32.8466 31.5669 32.8861 31.1029 32.8861 31.1029C32.8861 31.1029 32.8466 29.2468 33.6747 28.9762C34.5029 28.7055 35.5281 30.7548 36.6323 31.5282C37.4604 32.1469 37.697 32.0695 38.0913 32.0695C38.88 32.0695 41.0489 32.0695 41.0489 32.0695C41.0489 32.0695 42.5868 31.9149 41.877 30.6388C41.7587 30.5615 41.4038 29.7495 39.6292 28.0481Z" fill="white"/>

</svg>
