<svg width="20" height="12" viewBox="0 0 20 12" fill="none" xmlns="http://www.w3.org/2000/svg">
<path d="M17.5332 8.08194C15.8777 6.49319 16.089 6.73495 18.0967 4.00643C19.2943 2.3486 19.7874 1.31245 19.6465 0.863456C19.5761 0.58715 18.6251 0.656226 18.6251 0.656226H15.6663C15.6663 0.656226 15.2084 0.656226 15.0323 0.96707C14.7153 1.55422 14.5744 2.27952 13.9404 3.35021C12.602 5.66427 12.0736 5.80242 11.8623 5.66427C11.3692 5.31889 11.4748 4.31728 11.4748 3.59198C11.4748 1.34699 11.7918 0.414459 10.8408 0.138153C10.6295 0.0690763 10.4534 0.0690759 10.1364 0.0345377C9.74891 -5.27526e-07 9.36145 0 9.00922 0C8.12865 0 7.45942 0.0345378 7.00152 0.241767C6.64929 0.414458 6.40273 0.794379 6.57885 0.828917C6.79018 0.863456 7.21286 0.96707 7.45942 1.27791C7.77642 1.69237 7.7412 2.65944 7.7412 2.65944C7.7412 2.65944 7.91732 5.31889 7.31853 5.62973C6.93108 5.8715 6.36751 5.38796 5.20516 3.28113C4.60637 2.21045 4.53592 1.48514 4.14847 1.00161C3.90191 0.690764 3.44401 0.587149 3.44401 0.587149H0.626184C0.626184 0.587149 0.133064 0.552612 0.0626184 0.690765C-0.078273 0.863456 0.0626184 1.20884 0.0626184 1.20884C0.0626184 1.20884 2.28166 6.56226 4.78248 9.25624C7.00152 11.8121 9.60801 11.6739 9.60801 11.6739C9.60801 11.6739 11.1226 11.743 11.3339 11.3631C11.4748 11.2249 11.51 10.8105 11.51 10.8105C11.51 10.8105 11.4748 9.15263 12.2145 8.91086C12.9542 8.6691 13.87 10.4996 14.8562 11.1904C15.5959 11.743 15.8072 11.6739 16.1595 11.6739C16.8639 11.6739 18.8012 11.6739 18.8012 11.6739C18.8012 11.6739 20.1749 11.5358 19.5409 10.396C19.4352 10.3269 19.1182 9.60163 17.5332 8.08194Z" fill="#4C77A6"/>
</svg>
