<svg width="29" height="31" viewBox="0 0 29 31" fill="none" xmlns="http://www.w3.org/2000/svg">
<path d="M26.4512 0.0762939C26.0399 0.0762939 2.95859 0.0762939 2.54883 0.0762939C1.14343 0.0762939 0 1.25668 0 2.7075V4.04389C0 6.20847 0.721283 8.33148 2.03132 10.0217C3.12077 11.4275 4.67042 12.5286 6.39486 13.122L7.29536 13.4317C8.34122 15.1909 9.98158 16.546 11.9512 17.1896V18.5532C11.9512 19.0367 11.57 19.4303 11.1016 19.4303C9.69617 19.4303 8.55273 20.6107 8.55273 22.0615V22.9386H7.70312C7.23385 22.9386 6.85352 23.3312 6.85352 23.8156V28.2594H6.00391C5.53463 28.2594 5.1543 28.6521 5.1543 29.1365C5.1543 29.621 5.53463 30.0136 6.00391 30.0136H22.9961C23.4654 30.0136 23.8457 29.621 23.8457 29.1365C23.8457 28.6521 23.4654 28.2594 22.9961 28.2594H22.1465V23.8156C22.1465 23.3312 21.7662 22.9386 21.2969 22.9386H20.4473V22.0615C20.4473 20.6107 19.3038 19.4303 17.8984 19.4303C17.43 19.4303 17.0488 19.0367 17.0488 18.5532V17.1896C19.0162 16.5467 20.655 15.1941 21.7011 13.4377L22.6507 13.1257C22.6543 13.1245 22.658 13.1232 22.6616 13.122C24.3606 12.5373 25.85 11.4652 26.9687 10.0217C28.2787 8.33148 29 6.20847 29 4.04389V2.7075C29 1.25668 27.8566 0.0762939 26.4512 0.0762939ZM3.35817 8.92578C2.28841 7.54531 1.69922 5.81173 1.69922 4.04389V2.7075C1.69922 2.22397 2.08044 1.83043 2.54883 1.83043H5.24346L6.10812 9.86384C6.15878 10.3337 6.24706 10.7925 6.36787 11.2379C5.17974 10.7224 4.12592 9.91637 3.35817 8.92578ZM8.55273 28.2594V24.6927H20.4473V28.2594H8.55273ZM16.0087 15.6657C15.6229 15.7573 15.3496 16.1118 15.3496 16.5204V18.5532C15.3496 20.004 16.493 21.1844 17.8984 21.1844C18.3668 21.1844 18.748 21.578 18.748 22.0615V22.9386H10.252V22.0615C10.252 21.578 10.6332 21.1844 11.1016 21.1844C12.507 21.1844 13.6504 20.004 13.6504 18.5532V16.5204C13.6504 16.1118 13.3771 15.7573 12.9913 15.6657C10.1989 15.0025 8.11156 12.593 7.79694 9.67015L6.95308 1.83043H22.0469L21.2031 9.67015C20.8884 12.593 18.8011 15.0025 16.0087 15.6657ZM27.3008 4.04389C27.3008 5.81173 26.7116 7.54531 25.6418 8.92578C24.8398 9.96091 23.8043 10.7617 22.6246 11.2651C22.7494 10.811 22.8401 10.3433 22.8919 9.86384L23.7565 1.83043H26.4512C26.9196 1.83043 27.3008 2.22397 27.3008 2.7075V4.04389Z" fill="#675F7F"/>
<path d="M17.7013 7.47674L15.9636 7.20685L15.1896 5.53065C15.0581 5.24555 14.7911 5.06584 14.4995 5.06584C14.2079 5.06584 13.9408 5.24555 13.8093 5.53065L13.0354 7.20685L11.2974 7.47674C11.004 7.52238 10.7601 7.74773 10.6697 8.05686C10.5793 8.366 10.6582 8.70468 10.8729 8.92826L12.1195 10.2272L11.8261 12.0558C11.7753 12.3724 11.8925 12.6932 12.1287 12.884C12.3656 13.0749 12.6801 13.102 12.9407 12.9556L14.4995 12.0796L16.058 12.9556C16.3192 13.1025 16.6338 13.0747 16.87 12.884C17.1064 12.693 17.2237 12.3724 17.1729 12.0558L16.8795 10.2272L18.1259 8.92826C18.3408 8.70446 18.4197 8.366 18.3293 8.05686C18.2389 7.74773 17.995 7.52238 17.7013 7.47674ZM15.5131 9.31325C15.3254 9.50883 15.2396 9.79393 15.2845 10.0733L15.3804 10.6713L14.8525 10.3747C14.631 10.2501 14.368 10.2501 14.1462 10.3747L13.6184 10.6713L13.7145 10.0733C13.7592 9.79393 13.6734 9.50883 13.4859 9.31325L13.0966 8.90776L13.6522 8.82132C13.9026 8.78252 14.1197 8.61207 14.2336 8.36512L14.4995 7.7894L14.7651 8.3649C14.8793 8.61207 15.0964 8.78252 15.3467 8.82132L15.9024 8.90754L15.5131 9.31325Z" fill="#675F7F"/>
</svg>
