<svg width="23" height="25" viewBox="0 0 23 25" fill="none" xmlns="http://www.w3.org/2000/svg">
<path d="M22.096 18.3804C20.0286 16.5347 18.1153 13.9306 18.1153 7.429C18.1153 3.66373 15.1479 0.600494 11.5004 0.600494C7.85242 0.600494 4.88458 3.66373 4.88458 7.429C4.88458 13.9365 2.97205 16.538 0.902791 18.3822C0.32909 18.898 0 19.6408 0 20.4203C0 20.8493 0.336916 21.1971 0.752493 21.1971H7.89365C8.24201 22.923 9.72652 24.2238 11.5 24.2238C13.2735 24.2238 14.7581 22.9231 15.1063 21.1971H22.2475C22.6631 21.1971 23 20.8493 23 20.4203C23 19.6345 22.6701 18.8905 22.096 18.3804ZM11.5 22.6702C10.5629 22.6702 9.76214 22.0561 9.45512 21.1971H13.5449C13.2379 22.0561 12.4371 22.6702 11.5 22.6702ZM1.80137 19.6435C1.82876 19.6129 1.85796 19.5836 1.88876 19.556C5.04351 16.7443 6.38947 13.1176 6.38947 7.429C6.38947 4.5204 8.68226 2.15412 11.5003 2.15412C14.3179 2.15412 16.6102 4.5204 16.6102 7.429C16.6102 13.1124 17.9564 16.7391 21.1127 19.5567C21.1435 19.5842 21.1727 19.6131 21.2002 19.6435H1.80137Z" fill="#675F7F"/>
</svg>
