<svg width="17" height="18" viewBox="0 0 17 18" fill="none" xmlns="http://www.w3.org/2000/svg">
<path d="M15.2359 2.14429H13.8887V1.22475C13.8887 0.548346 13.3403 0 12.6639 0H12.6149C11.9385 0 11.3902 0.548346 11.3902 1.22475V2.14429H5.07047V1.22475C5.07047 0.548346 4.52213 0 3.84572 0H3.79673C3.12032 0 2.57198 0.548346 2.57198 1.22475V2.14429H1.22475C0.548346 2.14429 0 2.69264 0 3.36905V16.4984C0 17.1749 0.548346 17.7231 1.22475 17.7231H15.2359C15.9123 17.7231 16.4607 17.1749 16.4607 16.4984V3.36905C16.4607 2.69264 15.9123 2.14429 15.2359 2.14429ZM14.4031 15.788H2.05758V5.84304H14.4031V15.788Z" fill="#9CA7BB"/>
<path d="M3.73698 10.3434H5.86795C5.97616 10.3434 6.06391 10.2557 6.06391 10.1475V8.01652C6.06391 7.9083 5.97616 7.82056 5.86795 7.82056H3.73698C3.62876 7.82056 3.54102 7.9083 3.54102 8.01652V10.1475C3.54102 10.2557 3.62876 10.3434 3.73698 10.3434Z" fill="#9CA7BB"/>
<path d="M7.16471 10.3434H9.29568C9.4039 10.3434 9.49164 10.2557 9.49164 10.1475V8.01652C9.49164 7.9083 9.4039 7.82056 9.29568 7.82056H7.16471C7.05649 7.82056 6.96875 7.9083 6.96875 8.01652V10.1475C6.96875 10.2557 7.05649 10.3434 7.16471 10.3434Z" fill="#9CA7BB"/>
<path d="M10.5944 10.3434H12.7254C12.8336 10.3434 12.9213 10.2557 12.9213 10.1475V8.01652C12.9213 7.9083 12.8336 7.82056 12.7254 7.82056H10.5944C10.4862 7.82056 10.3984 7.9083 10.3984 8.01652V10.1475C10.3984 10.2557 10.4862 10.3434 10.5944 10.3434Z" fill="#9CA7BB"/>
<path d="M3.73698 13.7729H5.86795C5.97616 13.7729 6.06391 13.6851 6.06391 13.5769V11.446C6.06391 11.3377 5.97616 11.25 5.86795 11.25H3.73698C3.62876 11.25 3.54102 11.3377 3.54102 11.446V13.5769C3.54102 13.6851 3.62876 13.7729 3.73698 13.7729Z" fill="#9CA7BB"/>
<path d="M7.16471 13.7729H9.29568C9.4039 13.7729 9.49164 13.6851 9.49164 13.5769V11.446C9.49164 11.3377 9.4039 11.25 9.29568 11.25H7.16471C7.05649 11.25 6.96875 11.3377 6.96875 11.446V13.5769C6.96875 13.6851 7.05649 13.7729 7.16471 13.7729Z" fill="#9CA7BB"/>
<path d="M10.5944 13.7729H12.7254C12.8336 13.7729 12.9213 13.6851 12.9213 13.5769V11.446C12.9213 11.3377 12.8336 11.25 12.7254 11.25H10.5944C10.4862 11.25 10.3984 11.3377 10.3984 11.446V13.5769C10.3984 13.6851 10.4862 13.7729 10.5944 13.7729Z" fill="#9CA7BB"/>
</svg>
