<svg width="12" height="12" viewBox="0 0 12 12" fill="none" xmlns="http://www.w3.org/2000/svg">
<path d="M5.96727 10.663L5.6401 10.3757L2.15651 7.31558C2.15648 7.31556 2.15644 7.31553 2.15641 7.3155C1.38593 6.6397 0.849131 5.77825 0.615942 4.82184L5.96727 10.663ZM5.96727 10.663L6.29687 10.3784M5.96727 10.663L6.29687 10.3784M6.29687 10.3784L9.84055 7.3183L9.84056 7.31831M6.29687 10.3784L9.84056 7.31831M9.84056 7.31831L9.84351 7.31572M9.84056 7.31831L9.84351 7.31572M9.84351 7.31572C10.614 6.63978 11.1508 5.77854 11.384 4.82188L9.84351 7.31572ZM11.4798 3.62139C11.5018 3.76952 11.5382 4.19007 11.3841 4.82172L11.4798 3.62139ZM11.4798 3.62139C11.3071 1.85606 9.99086 0.500186 8.27715 0.500186C7.39478 0.500186 6.57093 0.861304 5.97764 1.4708C5.39766 0.858142 4.5977 0.5 3.72282 0.5C2.00949 0.5 0.693065 1.85559 0.520412 3.62075C0.497912 3.77067 0.462087 4.19123 0.61592 4.82175L11.4798 3.62139Z" stroke="#4DBA87"/>
</svg>
