<svg width="30" height="31" viewBox="0 0 30 31" fill="none" xmlns="http://www.w3.org/2000/svg">
<path d="M11.0918 4.36902C11.561 4.36902 11.9414 3.97634 11.9414 3.49194C11.9414 3.00755 11.561 2.61487 11.0918 2.61487C10.6226 2.61487 10.2422 3.00755 10.2422 3.49194C10.2422 3.97634 10.6226 4.36902 11.0918 4.36902Z" fill="#675F7F"/>
<path d="M15.9485 8.94858L14.1462 10.8091L13.1449 9.77554L11.9434 11.0159L14.1462 13.2899L17.15 10.1889L15.9485 8.94858Z" fill="#675F7F"/>
<path d="M24.7357 10.118L23.5342 8.87769L22.5329 9.91133L21.5316 8.87769L20.3301 10.118L21.3314 11.1517L20.3301 12.1853L21.5316 13.4257L22.5329 12.392L23.5342 13.4257L24.7357 12.1853L23.7344 11.1517L24.7357 10.118Z" fill="#675F7F"/>
<path d="M29.5 17.2327V0.276031H7.41016V7.40953H0.5V30.2133H17.4922V24.9509H23.666V19.9224H24.7988L22.8164 17.8759L20.834 19.9224H21.9668V23.1968H17.4922V17.2327H29.5ZM9.10938 2.03017H27.8008V4.95373H9.10938V2.03017ZM15.793 23.1968H14.6602V21.4426H3.33203V26.705H14.6602V24.9509H15.793V28.4592H2.19922V9.16366H7.41016V10.9178H3.33203V12.6719H7.41016V14.4261H3.33203V16.1802H7.41016V17.2327H15.793V23.1968ZM12.9609 23.1968V24.9509H5.03125V23.1968H12.9609ZM9.10938 15.4786V6.70787H27.8008V15.4786H9.10938Z" fill="#675F7F"/>
<path d="M13.0176 17.9344H3.33203V19.6885H13.0176V17.9344Z" fill="#675F7F"/>
</svg>
