<svg width="29" height="32" viewBox="0 0 29 32" xmlns="http://www.w3.org/2000/svg">
<path d="M14.1957 0L13.763 0.252394L0.764707 7.75211L0.332031 8.00451V8.49127V23.4907V23.9955L0.764707 24.2479L4.35231 26.3211L5.21766 24.8248L2.06274 23.0039V8.99606L14.1957 2.00113L26.3286 8.99606V23.0039L14.1957 29.9989L12.5551 29.0614C12.7092 28.7135 12.7895 28.3459 12.7895 27.9437C12.7895 27.8527 12.78 27.7622 12.7715 27.6732C12.7709 27.6673 12.7721 27.6611 12.7715 27.6552L20.6498 23.1121L21.0825 22.8597V22.3549V16.7662C22.8854 16.4197 24.2554 14.8438 24.2554 12.9442C24.2554 10.7939 22.4936 9.03211 20.3433 9.03211C18.1929 9.03211 16.4312 10.7939 16.4312 12.9442C16.4312 14.7488 17.6819 16.2664 19.3517 16.7121V21.8682L12.0684 26.0687C11.6979 25.6523 11.216 25.346 10.6622 25.2034V17.938C12.4831 17.6062 13.8712 16.0104 13.8712 14.098C13.8712 11.9477 12.1094 10.1859 9.95907 10.1859C7.80872 10.1859 6.04696 11.9477 6.04696 14.098C6.04696 15.8905 7.27856 17.4088 8.93147 17.8659V25.3116C7.88175 25.727 7.12865 26.7535 7.12865 27.9437C7.12865 29.4966 8.40612 30.7741 9.95907 30.7741C10.4757 30.7741 10.9645 30.6234 11.3833 30.3775L13.763 31.7476L14.1957 32L14.6284 31.7476L27.6267 24.2479L28.0594 23.9955V23.4907V8.49127V8.00451L27.6267 7.75211L14.6284 0.252394L14.1957 0ZM20.3433 10.7628C21.5583 10.7628 22.5247 11.7293 22.5247 12.9442C22.5247 14.1592 21.5583 15.1256 20.3433 15.1256C19.1283 15.1256 18.1619 14.1592 18.1619 12.9442C18.1619 11.7293 19.1283 10.7628 20.3433 10.7628ZM9.95907 11.9166C11.1741 11.9166 12.1405 12.8831 12.1405 14.098C12.1405 15.313 11.1741 16.2794 9.95907 16.2794C8.74407 16.2794 7.77766 15.313 7.77766 14.098C7.77766 12.8831 8.74407 11.9166 9.95907 11.9166ZM9.95907 26.8439C10.5767 26.8439 11.0588 27.3261 11.0588 27.9437C11.0588 28.5613 10.5767 29.0434 9.95907 29.0434C9.34146 29.0434 8.85935 28.5613 8.85935 27.9437C8.85935 27.3261 9.34146 26.8439 9.95907 26.8439Z" fill="#FF3531"/>
</svg>
