<svg width="18" height="18" viewBox="0 0 18 18" xmlns="http://www.w3.org/2000/svg">
<path d="M12.6238 8.59283C12.7749 8.4392 12.8282 8.21371 12.763 8.00411C12.6978 7.7945 12.5277 7.64487 12.3187 7.61312L10.4608 7.33134C10.3817 7.31932 10.3133 7.26752 10.278 7.19262L9.44736 5.43558C9.3541 5.23816 9.16481 5.11548 8.95385 5.11548C8.74305 5.11548 8.55376 5.23816 8.4605 5.43558L7.62973 7.19278C7.59439 7.26768 7.52587 7.31948 7.44674 7.3315L5.58885 7.61328C5.38004 7.64487 5.2098 7.79466 5.1445 8.00427C5.07936 8.21387 5.13267 8.43936 5.28371 8.59299L6.62796 9.96065C6.68527 10.019 6.71154 10.1031 6.69802 10.1852L6.3809 12.1164C6.35278 12.2864 6.39549 12.4517 6.50089 12.5821C6.66468 12.7853 6.95062 12.8472 7.17924 12.7218L8.84077 11.8099C8.91022 11.7719 8.99764 11.7722 9.06694 11.8099L10.7286 12.7218C10.8094 12.7662 10.8956 12.7887 10.9846 12.7887C11.147 12.7887 11.301 12.7133 11.4068 12.5821C11.5124 12.4517 11.5549 12.2861 11.5268 12.1164L11.2095 10.1852C11.196 10.1029 11.2223 10.019 11.2796 9.96065L12.6238 8.59283Z" fill="#9CA9BA"/>
<path d="M1.69935 4.7647L8.95204 0.57735L16.2047 4.7647V13.1394L8.95204 17.3267L1.69935 13.1394V4.7647Z" stroke="#9CA9BA"/>
</svg>
