<svg width="14" height="11" viewBox="0 0 14 11" fill="none" xmlns="http://www.w3.org/2000/svg">
<path d="M13.0294 7.34945L9.50935 10.8695C9.42226 10.9566 9.31917 11.0001 9.2 11.0001C9.08082 11.0001 8.97766 10.9566 8.89063 10.8695C8.80354 10.7823 8.75993 10.6792 8.75993 10.56V8.80003H7.21992C3.95184 8.80003 1.94672 7.87645 1.20411 6.02935C0.961257 5.41525 0.839844 4.65202 0.839844 3.73993C0.839844 2.97914 1.1309 1.94562 1.71297 0.639307C1.7267 0.607161 1.75068 0.552281 1.78512 0.474381C1.81953 0.39653 1.85042 0.327781 1.87792 0.268133C1.90552 0.208632 1.93533 0.158207 1.96738 0.117005C2.02233 0.0390577 2.08653 0 2.15988 0C2.22863 0 2.28249 0.0228996 2.32148 0.0687246C2.36037 0.114525 2.37985 0.171885 2.37985 0.240466C2.37985 0.281836 2.37412 0.34247 2.36263 0.422729C2.35117 0.502989 2.34542 0.556712 2.34542 0.58426C2.32247 0.895811 2.31101 1.17791 2.31101 1.42982C2.31101 1.89271 2.35117 2.30752 2.43131 2.67417C2.51157 3.04088 2.6227 3.35821 2.76482 3.62637C2.90692 3.89463 3.0902 4.12592 3.31484 4.32073C3.53939 4.51554 3.78113 4.67476 4.04009 4.79853C4.2991 4.92233 4.60388 5.01973 4.95452 5.09074C5.30513 5.16178 5.65802 5.21107 6.01328 5.2386C6.36854 5.26612 6.77073 5.2798 7.21992 5.2798H8.75993V3.51974C8.75993 3.4006 8.80344 3.29744 8.89047 3.21039C8.97764 3.12338 9.08072 3.07977 9.19983 3.07977C9.31897 3.07977 9.42214 3.12338 9.50935 3.21039L13.0294 6.73052C13.1165 6.81762 13.16 6.9207 13.16 7.03988C13.16 7.15903 13.1165 7.26219 13.0294 7.34945Z" fill="#9CA9BA"/>
</svg>
