<svg width="65" height="44" viewBox="0 0 65 44" xmlns="http://www.w3.org/2000/svg">
<path d="M3.21015 42.5703C3.21015 42.4954 3.19224 42.4295 3.15643 42.3725C3.12359 42.3156 3.06241 42.2631 2.97286 42.2152C2.8863 42.1642 2.76989 42.1177 2.62364 42.0758C2.47738 42.0338 2.29233 41.9919 2.06847 41.9499C1.78491 41.893 1.52523 41.8225 1.28943 41.7386C1.05662 41.6517 0.856638 41.5483 0.689489 41.4284C0.52234 41.3055 0.391009 41.1646 0.295495 41.0058C0.202966 40.8469 0.156702 40.6641 0.156702 40.4573C0.156702 40.2565 0.204459 40.0647 0.299972 39.8818C0.395486 39.699 0.532787 39.5386 0.711875 39.4008C0.890963 39.2629 1.10885 39.1535 1.36555 39.0726C1.62224 38.9917 1.91176 38.9512 2.23412 38.9512C2.57141 38.9512 2.87436 38.9917 3.14299 39.0726C3.41163 39.1505 3.63847 39.2599 3.82353 39.4008C4.01157 39.5386 4.15484 39.7035 4.25334 39.8953C4.35184 40.0871 4.40109 40.2954 4.40109 40.5202H3.15643C3.15643 40.3314 3.08031 40.1741 2.92809 40.0482C2.77586 39.9193 2.54454 39.8548 2.23412 39.8548C1.9446 39.8548 1.72521 39.9073 1.57597 40.0122C1.42972 40.1171 1.35659 40.246 1.35659 40.3988C1.35659 40.4708 1.37152 40.5382 1.40136 40.6012C1.43121 40.6611 1.48345 40.7165 1.55807 40.7675C1.63567 40.8155 1.74014 40.8604 1.87147 40.9024C2.0028 40.9413 2.16995 40.9758 2.37292 41.0058C2.66543 41.0537 2.93704 41.1152 3.18777 41.1901C3.43849 41.265 3.65489 41.3624 3.83696 41.4823C4.01903 41.5992 4.16081 41.7431 4.26229 41.9139C4.36676 42.0818 4.419 42.2826 4.419 42.5164C4.419 42.7322 4.36676 42.9315 4.26229 43.1143C4.16081 43.2942 4.01456 43.45 3.82353 43.5819C3.63549 43.7138 3.40715 43.8172 3.13852 43.8921C2.86989 43.964 2.56991 44 2.2386 44C1.87445 44 1.5521 43.952 1.27152 43.8561C0.993938 43.7602 0.761124 43.6358 0.573082 43.483C0.385039 43.3271 0.241769 43.1518 0.14327 42.957C0.0477568 42.7592 0 42.5613 0 42.3635H1.18646C1.19541 42.4954 1.23123 42.6093 1.29391 42.7052C1.35659 42.7981 1.43718 42.8745 1.53568 42.9345C1.63418 42.9914 1.74611 43.0334 1.87147 43.0604C1.99982 43.0873 2.13115 43.1008 2.26546 43.1008C2.5729 43.1008 2.8072 43.0514 2.96838 42.9525C3.12956 42.8536 3.21015 42.7262 3.21015 42.5703Z" fill="currentColor"/>
<path d="M7.41424 41.896L6.85012 42.422V43.9056H5.60545V37H6.85012V40.9473L7.2262 40.5157L8.56489 39.0411H10.0603L8.23357 41.0687L10.3155 43.9056H8.78874L7.41424 41.896Z" fill="currentColor"/>
<path d="M11.4303 39.0411H14.0674V42.8895H15.3792V43.9056H11.4303V42.8895H12.8093V40.0617H11.4303V39.0411ZM12.7197 37.7958C12.7197 37.6999 12.7361 37.6114 12.769 37.5305C12.8048 37.4466 12.854 37.3762 12.9167 37.3192C12.9794 37.2593 13.054 37.2128 13.1406 37.1798C13.2301 37.1469 13.3286 37.1304 13.4361 37.1304C13.657 37.1304 13.8316 37.1933 13.9599 37.3192C14.0912 37.4421 14.1569 37.6009 14.1569 37.7958C14.1569 37.9906 14.0912 38.1509 13.9599 38.2768C13.8316 38.3997 13.657 38.4611 13.4361 38.4611C13.3286 38.4611 13.2301 38.4447 13.1406 38.4117C13.054 38.3787 12.9794 38.3338 12.9167 38.2768C12.854 38.2169 12.8048 38.1464 12.769 38.0655C12.7361 37.9816 12.7197 37.8917 12.7197 37.7958Z" fill="currentColor"/>
<path d="M16.8656 37H19.5743V42.8895H20.9623V43.9056H16.8656V42.8895H18.3162V38.0206H16.8656V37Z" fill="currentColor"/>
<path d="M22.3726 37H25.0813V42.8895H26.4692V43.9056H22.3726V42.8895H23.8232V38.0206H22.3726V37Z" fill="currentColor"/>
<path d="M37.4921 41.5228C37.4921 41.8855 37.4518 42.2182 37.3712 42.5209C37.2936 42.8236 37.1757 43.0844 37.0175 43.3031C36.8593 43.5219 36.6623 43.6928 36.4265 43.8157C36.1907 43.9356 35.9161 43.9955 35.6027 43.9955C35.3191 43.9955 35.0729 43.9431 34.864 43.8382C34.658 43.7303 34.4804 43.5804 34.3312 43.3886L34.273 43.9056H33.1537V37H34.3983V39.4817C34.5416 39.3139 34.7102 39.1835 34.9043 39.0906C35.1013 38.9976 35.3311 38.9512 35.5937 38.9512C35.9101 38.9512 36.1862 39.0126 36.422 39.1355C36.6608 39.2584 36.8593 39.4292 37.0175 39.648C37.1757 39.8668 37.2936 40.1291 37.3712 40.4348C37.4518 40.7375 37.4921 41.0687 37.4921 41.4284V41.5228ZM36.2474 41.4284C36.2474 41.2306 36.2325 41.0432 36.2026 40.8664C36.1728 40.6896 36.1206 40.5352 36.0459 40.4033C35.9743 40.2685 35.8758 40.1621 35.7504 40.0841C35.6251 40.0062 35.4684 39.9672 35.2803 39.9672C35.0535 39.9672 34.8684 40.0152 34.7252 40.1111C34.5849 40.207 34.4759 40.3389 34.3983 40.5067V42.4444C34.4759 42.6123 34.5849 42.7442 34.7252 42.8401C34.8684 42.936 35.0565 42.9839 35.2893 42.9839C35.4773 42.9839 35.6325 42.948 35.7549 42.876C35.8773 42.8011 35.9743 42.6992 36.0459 42.5703C36.1206 42.4384 36.1728 42.2841 36.2026 42.1073C36.2325 41.9274 36.2474 41.7326 36.2474 41.5228V41.4284Z" fill="currentColor"/>
<path d="M42.1125 38.9512C42.3006 38.9512 42.4737 38.9647 42.6319 38.9917C42.7931 39.0156 42.9229 39.0426 43.0214 39.0726L42.8379 40.3179C42.6737 40.279 42.5051 40.2505 42.3319 40.2325C42.1618 40.2115 41.9991 40.201 41.8439 40.201C41.4947 40.201 41.2141 40.2685 41.0022 40.4033C40.7933 40.5382 40.6366 40.7315 40.5321 40.9833V43.9056H39.2874V39.0411H40.447L40.5052 39.8369C40.7022 39.5611 40.938 39.3453 41.2126 39.1895C41.4872 39.0306 41.7872 38.9512 42.1125 38.9512Z" fill="currentColor"/>
<path d="M47.1673 43.9056C47.1375 43.8456 47.1121 43.7767 47.0912 43.6988C47.0703 43.6209 47.0524 43.5384 47.0375 43.4515C46.9688 43.5264 46.8897 43.5969 46.8002 43.6628C46.7106 43.7288 46.6106 43.7872 46.5002 43.8382C46.3928 43.8861 46.2734 43.9236 46.142 43.9505C46.0107 43.9805 45.8689 43.9955 45.7167 43.9955C45.469 43.9955 45.2406 43.9595 45.0317 43.8876C44.8257 43.8157 44.6481 43.7153 44.4989 43.5864C44.3497 43.4575 44.2332 43.3046 44.1497 43.1278C44.0661 42.948 44.0243 42.7532 44.0243 42.5434C44.0243 42.0308 44.2138 41.6352 44.5929 41.3565C44.975 41.0747 45.5436 40.9338 46.2987 40.9338H46.9927V40.6461C46.9927 40.4123 46.9166 40.228 46.7644 40.0931C46.6121 39.9553 46.3928 39.8863 46.1062 39.8863C45.8525 39.8863 45.6674 39.9418 45.551 40.0527C45.4346 40.1606 45.3764 40.3059 45.3764 40.4888H44.1318C44.1318 40.282 44.1765 40.0856 44.2661 39.8998C44.3586 39.714 44.4914 39.5506 44.6646 39.4098C44.8407 39.2689 45.0541 39.158 45.3048 39.0771C45.5585 38.9931 45.848 38.9512 46.1734 38.9512C46.4659 38.9512 46.7375 38.9872 46.9882 39.0591C47.2419 39.131 47.4613 39.2374 47.6464 39.3783C47.8314 39.5192 47.9762 39.6975 48.0807 39.9133C48.1851 40.1261 48.2374 40.3734 48.2374 40.6551V42.7412C48.2374 43.0019 48.2538 43.2177 48.2866 43.3886C48.3194 43.5594 48.3672 43.7063 48.4299 43.8292V43.9056H47.1673ZM45.9809 43.0289C46.1062 43.0289 46.2226 43.0139 46.3301 42.9839C46.4375 42.954 46.5345 42.915 46.6211 42.8671C46.7076 42.8191 46.7823 42.7651 46.8449 42.7052C46.9076 42.6423 46.9569 42.5793 46.9927 42.5164V41.6802H46.3569C46.1629 41.6802 45.9973 41.6996 45.86 41.7386C45.7227 41.7746 45.6107 41.827 45.5242 41.896C45.4376 41.9619 45.3734 42.0428 45.3317 42.1387C45.2899 42.2316 45.269 42.3335 45.269 42.4444C45.269 42.6123 45.3272 42.7517 45.4436 42.8626C45.563 42.9735 45.7421 43.0289 45.9809 43.0289Z" fill="currentColor"/>
<path d="M50.7759 39.0411L50.852 39.7155C51.0252 39.4727 51.2356 39.2854 51.4833 39.1535C51.7311 39.0186 52.0057 38.9512 52.3071 38.9512C52.5519 38.9512 52.7757 38.9872 52.9787 39.0591C53.1817 39.131 53.3563 39.2464 53.5025 39.4053C53.6518 39.5611 53.7667 39.7634 53.8473 40.0122C53.9309 40.258 53.9727 40.5577 53.9727 40.9114V43.9056H52.728V40.9294C52.728 40.7375 52.7056 40.5802 52.6608 40.4573C52.619 40.3314 52.5579 40.2325 52.4773 40.1606C52.3967 40.0886 52.2997 40.0392 52.1862 40.0122C52.0728 39.9822 51.9445 39.9672 51.8012 39.9672C51.5893 39.9672 51.4087 40.0107 51.2595 40.0976C51.1102 40.1815 50.9893 40.2984 50.8968 40.4483V43.9056H49.6477V39.0411H50.7759Z" fill="currentColor"/>
<path d="M57.2992 42.9974C57.4216 42.9974 57.538 42.9794 57.6484 42.9435C57.7589 42.9075 57.8559 42.8566 57.9395 42.7906C58.023 42.7247 58.0872 42.6453 58.132 42.5523C58.1797 42.4594 58.2006 42.356 58.1947 42.2421H59.3677C59.3736 42.4939 59.3214 42.7277 59.211 42.9435C59.1035 43.1593 58.9558 43.3451 58.7677 43.501C58.5797 43.6568 58.3603 43.7797 58.1096 43.8696C57.8618 43.9565 57.5992 44 57.3216 44C56.9455 44 56.6157 43.9371 56.3321 43.8112C56.0486 43.6823 55.8113 43.507 55.6203 43.2852C55.4322 43.0634 55.289 42.8041 55.1905 42.5074C55.0949 42.2077 55.0472 41.887 55.0472 41.5453V41.4104C55.0472 41.0687 55.0949 40.7495 55.1905 40.4528C55.286 40.1531 55.4292 39.8923 55.6203 39.6705C55.8113 39.4487 56.0471 39.2734 56.3277 39.1445C56.6112 39.0156 56.9395 38.9512 57.3126 38.9512C57.6111 38.9512 57.8872 38.9961 58.1409 39.0861C58.3946 39.176 58.6125 39.3034 58.7946 39.4682C58.9797 39.6301 59.1229 39.8279 59.2244 40.0617C59.3259 40.2924 59.3736 40.5517 59.3677 40.8394H58.1947C58.2006 40.7195 58.1827 40.6057 58.1409 40.4978C58.0991 40.3899 58.038 40.2969 57.9574 40.219C57.8768 40.1411 57.7798 40.0796 57.6663 40.0347C57.5529 39.9867 57.4291 39.9627 57.2947 39.9627C57.0977 39.9627 56.9351 40.0032 56.8067 40.0841C56.6784 40.1651 56.5754 40.273 56.4978 40.4078C56.4232 40.5427 56.3694 40.6971 56.3366 40.8709C56.3068 41.0447 56.2918 41.2246 56.2918 41.4104V41.5453C56.2918 41.7341 56.3068 41.9169 56.3366 42.0938C56.3665 42.2676 56.4187 42.422 56.4933 42.5568C56.5709 42.6887 56.6739 42.7951 56.8022 42.876C56.9336 42.957 57.0992 42.9974 57.2992 42.9974Z" fill="currentColor"/>
<path d="M61.9063 39.711C62.0674 39.4742 62.2629 39.2884 62.4928 39.1535C62.7256 39.0186 62.9853 38.9512 63.2718 38.9512C63.5255 38.9512 63.7583 38.9902 63.9702 39.0681C64.1822 39.143 64.3642 39.2614 64.5165 39.4232C64.6687 39.5851 64.7866 39.7934 64.8702 40.0482C64.9567 40.2999 65 40.6042 65 40.9608V43.9056H63.7553V40.9518C63.7553 40.778 63.733 40.6281 63.6882 40.5022C63.6464 40.3764 63.5852 40.2745 63.5046 40.1965C63.424 40.1186 63.327 40.0617 63.2136 40.0257C63.1002 39.9867 62.9718 39.9672 62.8286 39.9672C62.6196 39.9672 62.4375 40.0047 62.2823 40.0796C62.1301 40.1546 62.0048 40.2595 61.9063 40.3943V43.9056H60.6616V37H61.9063V39.711Z" fill="currentColor"/>
<path d="M32.1957 0L31.763 0.252394L18.7647 7.75211L18.332 8.00451V8.49127V23.4907V23.9955L18.7647 24.2479L22.3523 26.3211L23.2177 24.8248L20.0627 23.0039V8.99606L32.1957 2.00113L44.3286 8.99606V23.0039L32.1957 29.9989L30.5551 29.0614C30.7092 28.7135 30.7895 28.3459 30.7895 27.9437C30.7895 27.8527 30.78 27.7622 30.7715 27.6732C30.7709 27.6673 30.7721 27.6611 30.7715 27.6552L38.6498 23.1121L39.0825 22.8597V22.3549V16.7662C40.8854 16.4197 42.2554 14.8438 42.2554 12.9442C42.2554 10.7939 40.4936 9.03211 38.3433 9.03211C36.1929 9.03211 34.4312 10.7939 34.4312 12.9442C34.4312 14.7488 35.6819 16.2664 37.3517 16.7121V21.8682L30.0684 26.0687C29.6979 25.6523 29.216 25.346 28.6622 25.2034V17.938C30.4831 17.6062 31.8712 16.0104 31.8712 14.098C31.8712 11.9477 30.1094 10.1859 27.9591 10.1859C25.8087 10.1859 24.047 11.9477 24.047 14.098C24.047 15.8905 25.2786 17.4088 26.9315 17.8659V25.3116C25.8817 25.727 25.1287 26.7535 25.1287 27.9437C25.1287 29.4966 26.4061 30.7741 27.9591 30.7741C28.4757 30.7741 28.9645 30.6234 29.3833 30.3775L31.763 31.7476L32.1957 32L32.6284 31.7476L45.6267 24.2479L46.0594 23.9955V23.4907V8.49127V8.00451L45.6267 7.75211L32.6284 0.252394L32.1957 0ZM38.3433 10.7628C39.5583 10.7628 40.5247 11.7293 40.5247 12.9442C40.5247 14.1592 39.5583 15.1256 38.3433 15.1256C37.1283 15.1256 36.1619 14.1592 36.1619 12.9442C36.1619 11.7293 37.1283 10.7628 38.3433 10.7628ZM27.9591 11.9166C29.1741 11.9166 30.1405 12.8831 30.1405 14.098C30.1405 15.313 29.1741 16.2794 27.9591 16.2794C26.7441 16.2794 25.7777 15.313 25.7777 14.098C25.7777 12.8831 26.7441 11.9166 27.9591 11.9166ZM27.9591 26.8439C28.5767 26.8439 29.0588 27.3261 29.0588 27.9437C29.0588 28.5613 28.5767 29.0434 27.9591 29.0434C27.3415 29.0434 26.8594 28.5613 26.8594 27.9437C26.8594 27.3261 27.3415 26.8439 27.9591 26.8439Z" class='logo'/>
</svg>
